solid Eraser
facet normal -0.866025403784438 -0.500000000000002 0.0
outer loop
vertex 29.9880227994188 49.2861816892985 2.0
vertex 31.2593717802019 47.6293274398061 0.0
vertex 31.2593717802019 47.6293274398061 2.0
endloop
endfacet
facet normal -0.707106781186546 -0.707106781186549 0.0
outer loop
vertex 31.2593717802019 47.6293274398061 0.0
vertex 29.9880227994188 49.2861816892985 2.0
vertex 29.9880227994188 49.2861816892985 0.0
endloop
endfacet
facet normal 3.47533285930229e-016 -1.0 0.0
outer loop
vertex 36.9162260296943 45.2861816892985 2.0
vertex 34.8456736688741 45.558775078986 0.0
vertex 36.9162260296943 45.2861816892985 0.0
endloop
endfacet
facet normal -0.258819045102524 -0.965925826289067 0.0
outer loop
vertex 34.8456736688741 45.558775078986 0.0
vertex 36.9162260296943 45.2861816892985 2.0
vertex 34.8456736688741 45.558775078986 2.0
endloop
endfacet
facet normal -0.258819045102524 0.965925826289067 0.0
outer loop
vertex 34.8456736688741 61.0135882996111 2.0
vertex 36.9162260296943 61.2861816892985 0.0
vertex 34.8456736688741 61.0135882996111 0.0
endloop
endfacet
facet normal 3.47533285930229e-016 1.0 0.0
outer loop
vertex 36.9162260296943 61.2861816892985 0.0
vertex 34.8456736688741 61.0135882996111 2.0
vertex 36.9162260296943 61.2861816892985 2.0
endloop
endfacet
facet normal -0.866025403784437 0.500000000000003 0.0
outer loop
vertex 29.9880227994188 57.2861816892985 2.0
vertex 29.1888194193817 55.3567340501187 0.0
vertex 29.1888194193817 55.3567340501187 2.0
endloop
endfacet
facet normal -0.96592582628907 0.258819045102514 0.0
outer loop
vertex 29.1888194193817 55.3567340501187 0.0
vertex 29.9880227994188 57.2861816892985 2.0
vertex 29.9880227994188 57.2861816892985 0.0
endloop
endfacet
facet normal 0.258819045102523 0.965925826289068 0.0
outer loop
vertex 38.9867783905145 61.0135882996111 2.0
vertex 40.9162260296943 60.214384919574 0.0
vertex 38.9867783905145 61.0135882996111 0.0
endloop
endfacet
facet normal 0.499999999999998 0.86602540378444 0.0
outer loop
vertex 40.9162260296943 60.214384919574 0.0
vertex 38.9867783905145 61.0135882996111 2.0
vertex 40.9162260296943 60.214384919574 2.0
endloop
endfacet
facet normal 0.965925826289069 -0.258819045102518 0.0
outer loop
vertex 44.6436326400068 51.2156293284783 0.0
vertex 43.8444292599698 49.2861816892985 2.0
vertex 43.8444292599698 49.2861816892985 0.0
endloop
endfacet
facet normal 0.86602540378444 -0.499999999999997 0.0
outer loop
vertex 43.8444292599698 49.2861816892985 2.0
vertex 44.6436326400068 51.2156293284783 0.0
vertex 44.6436326400068 51.2156293284783 2.0
endloop
endfacet
facet normal 0.499999999999998 0.86602540378444 0.0
outer loop
vertex 40.9162260296943 60.214384919574 2.0
vertex 42.5730802791867 58.9430359387909 0.0
vertex 40.9162260296943 60.214384919574 0.0
endloop
endfacet
facet normal 0.707106781186547 0.707106781186548 0.0
outer loop
vertex 42.5730802791867 58.9430359387909 0.0
vertex 40.9162260296943 60.214384919574 2.0
vertex 42.5730802791867 58.9430359387909 2.0
endloop
endfacet
facet normal 0.866025403784444 -0.499999999999992 0.0
outer loop
vertex 42.9709309571147 49.7904961695886 2.0
vertex 41.8598719014593 48.3425358175335 15.0
vertex 41.8598719014593 48.3425358175335 2.0
endloop
endfacet
facet normal 0.707106781186542 -0.707106781186553 0.0
outer loop
vertex 41.8598719014593 48.3425358175335 15.0
vertex 42.9709309571147 49.7904961695886 2.0
vertex 42.9709309571147 49.7904961695886 15.0
endloop
endfacet
facet normal 3.47533285930229e-016 1.0 0.0
outer loop
vertex 36.9162260296943 61.2861816892985 2.0
vertex 38.9867783905145 61.0135882996111 0.0
vertex 36.9162260296943 61.2861816892985 0.0
endloop
endfacet
facet normal 0.258819045102523 0.965925826289068 0.0
outer loop
vertex 38.9867783905145 61.0135882996111 0.0
vertex 36.9162260296943 61.2861816892985 2.0
vertex 38.9867783905145 61.0135882996111 2.0
endloop
endfacet
facet normal 0.499999999999998 -0.86602540378444 0.0
outer loop
vertex 40.9162260296943 46.357978459023 2.0
vertex 38.9867783905145 45.558775078986 0.0
vertex 40.9162260296943 46.357978459023 0.0
endloop
endfacet
facet normal 0.258819045102523 -0.965925826289068 0.0
outer loop
vertex 38.9867783905145 45.558775078986 0.0
vertex 40.9162260296943 46.357978459023 2.0
vertex 38.9867783905145 45.558775078986 2.0
endloop
endfacet
facet normal -0.499999999999998 -0.86602540378444 0.0
outer loop
vertex 32.9162260296943 46.357978459023 2.0
vertex 31.2593717802019 47.6293274398061 0.0
vertex 32.9162260296943 46.357978459023 0.0
endloop
endfacet
facet normal -0.707106781186546 -0.707106781186549 0.0
outer loop
vertex 31.2593717802019 47.6293274398061 0.0
vertex 32.9162260296943 46.357978459023 2.0
vertex 31.2593717802019 47.6293274398061 2.0
endloop
endfacet
facet normal -1.0 0.0 0.0
outer loop
vertex 28.9162260296943 53.2861816892985 2.0
vertex 29.1888194193817 51.2156293284784 0.0
vertex 29.1888194193817 51.2156293284784 2.0
endloop
endfacet
facet normal -0.965925826289069 -0.258819045102516 0.0
outer loop
vertex 29.1888194193817 51.2156293284784 0.0
vertex 28.9162260296943 53.2861816892985 2.0
vertex 28.9162260296943 53.2861816892985 0.0
endloop
endfacet
facet normal 0.0 0.0 -1.0
outer loop
vertex 29.1888194193817 55.3567340501187 0.0
vertex 29.1888194193817 51.2156293284784 0.0
vertex 28.9162260296943 53.2861816892985 0.0
endloop
endfacet
facet normal 0.0 0.0 -1.0
outer loop
vertex 29.1888194193817 51.2156293284784 0.0
vertex 29.1888194193817 55.3567340501187 0.0
vertex 29.9880227994188 57.2861816892985 0.0
endloop
endfacet
facet normal 0.0 0.0 -1.0
outer loop
vertex 29.1888194193817 51.2156293284784 0.0
vertex 29.9880227994188 57.2861816892985 0.0
vertex 29.9880227994188 49.2861816892985 0.0
endloop
endfacet
facet normal 0.0 0.0 -1.0
outer loop
vertex 29.9880227994188 49.2861816892985 0.0
vertex 29.9880227994188 57.2861816892985 0.0
vertex 31.2593717802019 58.9430359387909 0.0
endloop
endfacet
facet normal 0.0 0.0 -1.0
outer loop
vertex 29.9880227994188 49.2861816892985 0.0
vertex 31.2593717802019 58.9430359387909 0.0
vertex 31.2593717802019 47.6293274398061 0.0
endloop
endfacet
facet normal 0.0 0.0 -1.0
outer loop
vertex 31.2593717802019 47.6293274398061 0.0
vertex 31.2593717802019 58.9430359387909 0.0
vertex 32.9162260296943 60.214384919574 0.0
endloop
endfacet
facet normal 0.0 0.0 -1.0
outer loop
vertex 31.2593717802019 47.6293274398061 0.0
vertex 32.9162260296943 60.214384919574 0.0
vertex 32.9162260296943 46.357978459023 0.0
endloop
endfacet
facet normal 0.0 0.0 -1.0
outer loop
vertex 32.9162260296943 46.357978459023 0.0
vertex 32.9162260296943 60.214384919574 0.0
vertex 34.8456736688741 61.0135882996111 0.0
endloop
endfacet
facet normal 0.0 0.0 -1.0
outer loop
vertex 32.9162260296943 46.357978459023 0.0
vertex 34.8456736688741 61.0135882996111 0.0
vertex 34.8456736688741 45.558775078986 0.0
endloop
endfacet
facet normal 0.0 0.0 -1.0
outer loop
vertex 34.8456736688741 45.558775078986 0.0
vertex 34.8456736688741 61.0135882996111 0.0
vertex 36.9162260296943 61.2861816892985 0.0
endloop
endfacet
facet normal 0.0 0.0 -1.0
outer loop
vertex 34.8456736688741 45.558775078986 0.0
vertex 36.9162260296943 61.2861816892985 0.0
vertex 36.9162260296943 45.2861816892985 0.0
endloop
endfacet
facet normal 0.0 0.0 -1.0
outer loop
vertex 36.9162260296943 45.2861816892985 0.0
vertex 36.9162260296943 61.2861816892985 0.0
vertex 38.9867783905145 61.0135882996111 0.0
endloop
endfacet
facet normal 0.0 0.0 -1.0
outer loop
vertex 36.9162260296943 45.2861816892985 0.0
vertex 38.9867783905145 61.0135882996111 0.0
vertex 38.9867783905145 45.558775078986 0.0
endloop
endfacet
facet normal 0.0 0.0 -1.0
outer loop
vertex 38.9867783905145 45.558775078986 0.0
vertex 38.9867783905145 61.0135882996111 0.0
vertex 40.9162260296943 60.214384919574 0.0
endloop
endfacet
facet normal 0.0 0.0 -1.0
outer loop
vertex 38.9867783905145 45.558775078986 0.0
vertex 40.9162260296943 60.214384919574 0.0
vertex 40.9162260296943 46.357978459023 0.0
endloop
endfacet
facet normal 0.0 0.0 -1.0
outer loop
vertex 40.9162260296943 46.357978459023 0.0
vertex 40.9162260296943 60.214384919574 0.0
vertex 42.5730802791867 58.9430359387909 0.0
endloop
endfacet
facet normal 0.0 0.0 -1.0
outer loop
vertex 40.9162260296943 46.357978459023 0.0
vertex 42.5730802791867 58.9430359387909 0.0
vertex 42.5730802791867 47.6293274398061 0.0
endloop
endfacet
facet normal 0.0 0.0 -1.0
outer loop
vertex 42.5730802791867 47.6293274398061 0.0
vertex 42.5730802791867 58.9430359387909 0.0
vertex 43.8444292599698 57.2861816892985 0.0
endloop
endfacet
facet normal 0.0 0.0 -1.0
outer loop
vertex 42.5730802791867 47.6293274398061 0.0
vertex 43.8444292599698 57.2861816892985 0.0
vertex 43.8444292599698 49.2861816892985 0.0
endloop
endfacet
facet normal 0.0 0.0 -1.0
outer loop
vertex 43.8444292599698 49.2861816892985 0.0
vertex 43.8444292599698 57.2861816892985 0.0
vertex 44.6436326400069 55.3567340501187 0.0
endloop
endfacet
facet normal 0.0 0.0 -1.0
outer loop
vertex 43.8444292599698 49.2861816892985 0.0
vertex 44.6436326400069 55.3567340501187 0.0
vertex 44.6436326400068 51.2156293284783 0.0
endloop
endfacet
facet normal 0.0 0.0 -1.0
outer loop
vertex 44.6436326400068 51.2156293284783 0.0
vertex 44.6436326400069 55.3567340501187 0.0
vertex 44.9162260296943 53.2861816892985 0.0
endloop
endfacet
facet normal 0.707106781186545 -0.70710678118655 0.0
outer loop
vertex 42.5730802791867 47.6293274398061 2.0
vertex 40.9162260296943 46.357978459023 0.0
vertex 42.5730802791867 47.6293274398061 0.0
endloop
endfacet
facet normal 0.499999999999998 -0.86602540378444 0.0
outer loop
vertex 40.9162260296943 46.357978459023 0.0
vertex 42.5730802791867 47.6293274398061 2.0
vertex 40.9162260296943 46.357978459023 2.0
endloop
endfacet
facet normal -0.866025403784439 -0.499999999999999 0.0
outer loop
vertex 30.8615211022739 49.7904961695885 15.0
vertex 31.9725801579293 48.3425358175335 2.0
vertex 31.9725801579293 48.3425358175335 15.0
endloop
endfacet
facet normal -0.707106781186543 -0.707106781186552 0.0
outer loop
vertex 31.9725801579293 48.3425358175335 2.0
vertex 30.8615211022739 49.7904961695885 15.0
vertex 30.8615211022739 49.7904961695885 2.0
endloop
endfacet
facet normal 0.965925826289069 0.258819045102518 0.0
outer loop
vertex 43.6693718778394 55.0956816656786 2.0
vertex 43.9075970691141 53.2861816892985 15.0
vertex 43.9075970691141 53.2861816892985 2.0
endloop
endfacet
facet normal 1.0 -9.03586543418597e-015 0.0
outer loop
vertex 43.9075970691141 53.2861816892985 15.0
vertex 43.6693718778394 55.0956816656786 2.0
vertex 43.6693718778394 55.0956816656786 15.0
endloop
endfacet
facet normal 0.707106781186547 0.707106781186548 0.0
outer loop
vertex 42.5730802791867 58.9430359387909 0.0
vertex 43.8444292599698 57.2861816892985 2.0
vertex 43.8444292599698 57.2861816892985 0.0
endloop
endfacet
facet normal 0.866025403784437 0.500000000000003 0.0
outer loop
vertex 43.8444292599698 57.2861816892985 2.0
vertex 42.5730802791867 58.9430359387909 0.0
vertex 42.5730802791867 58.9430359387909 2.0
endloop
endfacet
facet normal 1.0 -1.00160875227071e-014 0.0
outer loop
vertex 44.9162260296943 53.2861816892985 0.0
vertex 44.6436326400068 51.2156293284783 2.0
vertex 44.6436326400068 51.2156293284783 0.0
endloop
endfacet
facet normal 0.965925826289069 -0.258819045102518 0.0
outer loop
vertex 44.6436326400068 51.2156293284783 2.0
vertex 44.9162260296943 53.2861816892985 0.0
vertex 44.9162260296943 53.2861816892985 2.0
endloop
endfacet
facet normal 4.18822165095404e-016 1.0 0.0
outer loop
vertex 36.9162260296943 60.2775527287183 15.0
vertex 38.7257260060745 60.0393275374436 2.0
vertex 36.9162260296943 60.2775527287183 2.0
endloop
endfacet
facet normal 0.258819045102524 0.965925826289067 0.0
outer loop
vertex 38.7257260060745 60.0393275374436 2.0
vertex 36.9162260296943 60.2775527287183 15.0
vertex 38.7257260060745 60.0393275374436 15.0
endloop
endfacet
facet normal -0.258819045102524 0.965925826289067 0.0
outer loop
vertex 35.1067260533141 60.0393275374436 15.0
vertex 36.9162260296943 60.2775527287183 2.0
vertex 35.1067260533141 60.0393275374436 2.0
endloop
endfacet
facet normal 4.18822165095404e-016 1.0 0.0
outer loop
vertex 36.9162260296943 60.2775527287183 2.0
vertex 35.1067260533141 60.0393275374436 15.0
vertex 36.9162260296943 60.2775527287183 15.0
endloop
endfacet
facet normal -0.707106781186546 0.707106781186549 0.0
outer loop
vertex 31.9725801579293 58.2298275610636 15.0
vertex 30.8615211022739 56.7818672090085 2.0
vertex 30.8615211022739 56.7818672090085 15.0
endloop
endfacet
facet normal -0.866025403784437 0.500000000000002 0.0
outer loop
vertex 30.8615211022739 56.7818672090085 2.0
vertex 31.9725801579293 58.2298275610636 15.0
vertex 31.9725801579293 58.2298275610636 2.0
endloop
endfacet
facet normal -0.499999999999998 0.86602540378444 0.0
outer loop
vertex 32.9162260296943 60.214384919574 2.0
vertex 34.8456736688741 61.0135882996111 0.0
vertex 32.9162260296943 60.214384919574 0.0
endloop
endfacet
facet normal -0.258819045102524 0.965925826289067 0.0
outer loop
vertex 34.8456736688741 61.0135882996111 0.0
vertex 32.9162260296943 60.214384919574 2.0
vertex 34.8456736688741 61.0135882996111 2.0
endloop
endfacet
facet normal -0.707106781186544 0.707106781186551 0.0
outer loop
vertex 31.2593717802019 58.9430359387909 2.0
vertex 32.9162260296943 60.214384919574 0.0
vertex 31.2593717802019 58.9430359387909 0.0
endloop
endfacet
facet normal -0.499999999999998 0.86602540378444 0.0
outer loop
vertex 32.9162260296943 60.214384919574 0.0
vertex 31.2593717802019 58.9430359387909 2.0
vertex 32.9162260296943 60.214384919574 2.0
endloop
endfacet
facet normal 0.499999999999998 0.86602540378444 0.0
outer loop
vertex 40.4119115494042 59.3408866167189 15.0
vertex 41.8598719014593 58.2298275610636 2.0
vertex 40.4119115494042 59.3408866167189 2.0
endloop
endfacet
facet normal 0.707106781186544 0.707106781186551 0.0
outer loop
vertex 41.8598719014593 58.2298275610636 2.0
vertex 40.4119115494042 59.3408866167189 15.0
vertex 41.8598719014593 58.2298275610636 15.0
endloop
endfacet
facet normal 0.965925826289069 0.258819045102518 0.0
outer loop
vertex 44.6436326400069 55.3567340501187 0.0
vertex 44.9162260296943 53.2861816892985 2.0
vertex 44.9162260296943 53.2861816892985 0.0
endloop
endfacet
facet normal 1.0 -1.00160875227071e-014 0.0
outer loop
vertex 44.9162260296943 53.2861816892985 2.0
vertex 44.6436326400069 55.3567340501187 0.0
vertex 44.6436326400069 55.3567340501187 2.0
endloop
endfacet
facet normal 1.0 -9.03586543418597e-015 0.0
outer loop
vertex 43.9075970691141 53.2861816892985 2.0
vertex 43.6693718778393 51.4766817129184 15.0
vertex 43.6693718778393 51.4766817129184 2.0
endloop
endfacet
facet normal 0.965925826289069 -0.258819045102516 0.0
outer loop
vertex 43.6693718778393 51.4766817129184 15.0
vertex 43.9075970691141 53.2861816892985 2.0
vertex 43.9075970691141 53.2861816892985 15.0
endloop
endfacet
facet normal -0.965925826289069 -0.258819045102516 0.0
outer loop
vertex 29.1888194193817 51.2156293284784 2.0
vertex 29.9880227994188 49.2861816892985 0.0
vertex 29.9880227994188 49.2861816892985 2.0
endloop
endfacet
facet normal -0.866025403784438 -0.500000000000002 0.0
outer loop
vertex 29.9880227994188 49.2861816892985 0.0
vertex 29.1888194193817 51.2156293284784 2.0
vertex 29.1888194193817 51.2156293284784 0.0
endloop
endfacet
facet normal 0.965925826289069 -0.258819045102516 0.0
outer loop
vertex 43.6693718778393 51.4766817129184 2.0
vertex 42.9709309571147 49.7904961695886 15.0
vertex 42.9709309571147 49.7904961695886 2.0
endloop
endfacet
facet normal 0.866025403784444 -0.499999999999992 0.0
outer loop
vertex 42.9709309571147 49.7904961695886 15.0
vertex 43.6693718778393 51.4766817129184 2.0
vertex 43.6693718778393 51.4766817129184 15.0
endloop
endfacet
facet normal 0.86602540378444 0.499999999999997 0.0
outer loop
vertex 42.9709309571146 56.7818672090085 2.0
vertex 43.6693718778394 55.0956816656786 15.0
vertex 43.6693718778394 55.0956816656786 2.0
endloop
endfacet
facet normal 0.965925826289069 0.258819045102518 0.0
outer loop
vertex 43.6693718778394 55.0956816656786 15.0
vertex 42.9709309571146 56.7818672090085 2.0
vertex 42.9709309571146 56.7818672090085 15.0
endloop
endfacet
facet normal 0.707106781186544 0.707106781186551 0.0
outer loop
vertex 41.8598719014593 58.2298275610636 2.0
vertex 42.9709309571146 56.7818672090085 15.0
vertex 42.9709309571146 56.7818672090085 2.0
endloop
endfacet
facet normal 0.86602540378444 0.499999999999997 0.0
outer loop
vertex 42.9709309571146 56.7818672090085 15.0
vertex 41.8598719014593 58.2298275610636 2.0
vertex 41.8598719014593 58.2298275610636 15.0
endloop
endfacet
facet normal -0.5 -0.866025403784439 0.0
outer loop
vertex 33.4205405099843 47.2314767618781 15.0
vertex 31.9725801579293 48.3425358175335 2.0
vertex 33.4205405099843 47.2314767618781 2.0
endloop
endfacet
facet normal -0.707106781186543 -0.707106781186552 0.0
outer loop
vertex 31.9725801579293 48.3425358175335 2.0
vertex 33.4205405099843 47.2314767618781 15.0
vertex 31.9725801579293 48.3425358175335 15.0
endloop
endfacet
facet normal -0.866025403784437 0.500000000000002 0.0
outer loop
vertex 30.8615211022739 56.7818672090085 15.0
vertex 30.1630801815492 55.0956816656786 2.0
vertex 30.1630801815492 55.0956816656786 15.0
endloop
endfacet
facet normal -0.965925826289068 0.258819045102521 0.0
outer loop
vertex 30.1630801815492 55.0956816656786 2.0
vertex 30.8615211022739 56.7818672090085 15.0
vertex 30.8615211022739 56.7818672090085 2.0
endloop
endfacet
facet normal -0.96592582628907 -0.258819045102516 0.0
outer loop
vertex 30.1630801815492 51.4766817129185 15.0
vertex 30.8615211022739 49.7904961695885 2.0
vertex 30.8615211022739 49.7904961695885 15.0
endloop
endfacet
facet normal -0.866025403784439 -0.499999999999999 0.0
outer loop
vertex 30.8615211022739 49.7904961695885 2.0
vertex 30.1630801815492 51.4766817129185 15.0
vertex 30.1630801815492 51.4766817129185 2.0
endloop
endfacet
facet normal -0.965925826289068 0.258819045102521 0.0
outer loop
vertex 30.1630801815492 55.0956816656786 15.0
vertex 29.9248549902745 53.2861816892985 2.0
vertex 29.9248549902745 53.2861816892985 15.0
endloop
endfacet
facet normal -1.0 0.0 0.0
outer loop
vertex 29.9248549902745 53.2861816892985 2.0
vertex 30.1630801815492 55.0956816656786 15.0
vertex 30.1630801815492 55.0956816656786 2.0
endloop
endfacet
facet normal -0.0 -0.0 1.0
outer loop
vertex 29.1888194193817 51.2156293284784 2.0
vertex 29.1888194193817 55.3567340501187 2.0
vertex 28.9162260296943 53.2861816892985 2.0
endloop
endfacet
facet normal -0.0 -0.0 1.0
outer loop
vertex 29.1888194193817 55.3567340501187 2.0
vertex 29.1888194193817 51.2156293284784 2.0
vertex 29.9880227994188 49.2861816892985 2.0
endloop
endfacet
facet normal -0.0 -0.0 1.0
outer loop
vertex 29.1888194193817 55.3567340501187 2.0
vertex 29.9880227994188 49.2861816892985 2.0
vertex 29.9248549902745 53.2861816892985 2.0
endloop
endfacet
facet normal -0.0 -0.0 1.0
outer loop
vertex 29.9248549902745 53.2861816892985 2.0
vertex 29.9880227994188 49.2861816892985 2.0
vertex 30.1630801815492 51.4766817129185 2.0
endloop
endfacet
facet normal -0.0 -0.0 1.0
outer loop
vertex 30.1630801815492 51.4766817129185 2.0
vertex 29.9880227994188 49.2861816892985 2.0
vertex 31.2593717802019 47.6293274398061 2.0
endloop
endfacet
facet normal -0.0 -0.0 1.0
outer loop
vertex 30.1630801815492 51.4766817129185 2.0
vertex 31.2593717802019 47.6293274398061 2.0
vertex 30.8615211022739 49.7904961695885 2.0
endloop
endfacet
facet normal -0.0 -0.0 1.0
outer loop
vertex 30.8615211022739 49.7904961695885 2.0
vertex 31.2593717802019 47.6293274398061 2.0
vertex 31.9725801579293 48.3425358175335 2.0
endloop
endfacet
facet normal -0.0 -0.0 1.0
outer loop
vertex 31.9725801579293 48.3425358175335 2.0
vertex 31.2593717802019 47.6293274398061 2.0
vertex 32.9162260296943 46.357978459023 2.0
endloop
endfacet
facet normal -0.0 -0.0 1.0
outer loop
vertex 31.9725801579293 48.3425358175335 2.0
vertex 32.9162260296943 46.357978459023 2.0
vertex 33.4205405099843 47.2314767618781 2.0
endloop
endfacet
facet normal -0.0 -0.0 1.0
outer loop
vertex 33.4205405099843 47.2314767618781 2.0
vertex 32.9162260296943 46.357978459023 2.0
vertex 34.8456736688741 45.558775078986 2.0
endloop
endfacet
facet normal -0.0 -0.0 1.0
outer loop
vertex 33.4205405099843 47.2314767618781 2.0
vertex 34.8456736688741 45.558775078986 2.0
vertex 35.1067260533141 46.5330358411535 2.0
endloop
endfacet
facet normal -0.0 -0.0 1.0
outer loop
vertex 35.1067260533141 46.5330358411535 2.0
vertex 34.8456736688741 45.558775078986 2.0
vertex 36.9162260296943 45.2861816892985 2.0
endloop
endfacet
facet normal -0.0 -0.0 1.0
outer loop
vertex 35.1067260533141 46.5330358411535 2.0
vertex 36.9162260296943 45.2861816892985 2.0
vertex 36.9162260296943 46.2948106498787 2.0
endloop
endfacet
facet normal -0.0 -0.0 1.0
outer loop
vertex 36.9162260296943 46.2948106498787 2.0
vertex 36.9162260296943 45.2861816892985 2.0
vertex 38.9867783905145 45.558775078986 2.0
endloop
endfacet
facet normal -0.0 -0.0 1.0
outer loop
vertex 36.9162260296943 46.2948106498787 2.0
vertex 38.9867783905145 45.558775078986 2.0
vertex 38.7257260060745 46.5330358411535 2.0
endloop
endfacet
facet normal -0.0 -0.0 1.0
outer loop
vertex 38.7257260060745 46.5330358411535 2.0
vertex 38.9867783905145 45.558775078986 2.0
vertex 40.4119115494042 47.2314767618781 2.0
endloop
endfacet
facet normal -0.0 -0.0 1.0
outer loop
vertex 40.4119115494042 47.2314767618781 2.0
vertex 38.9867783905145 45.558775078986 2.0
vertex 40.9162260296943 46.357978459023 2.0
endloop
endfacet
facet normal -0.0 -0.0 1.0
outer loop
vertex 40.4119115494042 47.2314767618781 2.0
vertex 40.9162260296943 46.357978459023 2.0
vertex 41.8598719014593 48.3425358175335 2.0
endloop
endfacet
facet normal -0.0 -0.0 1.0
outer loop
vertex 41.8598719014593 48.3425358175335 2.0
vertex 40.9162260296943 46.357978459023 2.0
vertex 42.5730802791867 47.6293274398061 2.0
endloop
endfacet
facet normal -0.0 -0.0 1.0
outer loop
vertex 41.8598719014593 48.3425358175335 2.0
vertex 42.5730802791867 47.6293274398061 2.0
vertex 42.9709309571147 49.7904961695886 2.0
endloop
endfacet
facet normal -0.0 -0.0 1.0
outer loop
vertex 42.9709309571147 49.7904961695886 2.0
vertex 42.5730802791867 47.6293274398061 2.0
vertex 43.8444292599698 49.2861816892985 2.0
endloop
endfacet
facet normal -0.0 -0.0 1.0
outer loop
vertex 42.9709309571147 49.7904961695886 2.0
vertex 43.8444292599698 49.2861816892985 2.0
vertex 43.6693718778393 51.4766817129184 2.0
endloop
endfacet
facet normal -0.0 -0.0 1.0
outer loop
vertex 43.6693718778393 51.4766817129184 2.0
vertex 43.8444292599698 49.2861816892985 2.0
vertex 43.9075970691141 53.2861816892985 2.0
endloop
endfacet
facet normal -0.0 -0.0 1.0
outer loop
vertex 43.9075970691141 53.2861816892985 2.0
vertex 43.8444292599698 49.2861816892985 2.0
vertex 44.6436326400068 51.2156293284783 2.0
endloop
endfacet
facet normal -0.0 -0.0 1.0
outer loop
vertex 29.9248549902745 53.2861816892985 2.0
vertex 29.9880227994188 57.2861816892985 2.0
vertex 29.1888194193817 55.3567340501187 2.0
endloop
endfacet
facet normal -0.0 -0.0 1.0
outer loop
vertex 29.9880227994188 57.2861816892985 2.0
vertex 29.9248549902745 53.2861816892985 2.0
vertex 30.1630801815492 55.0956816656786 2.0
endloop
endfacet
facet normal -0.0 -0.0 1.0
outer loop
vertex 29.9880227994188 57.2861816892985 2.0
vertex 30.1630801815492 55.0956816656786 2.0
vertex 31.2593717802019 58.9430359387909 2.0
endloop
endfacet
facet normal -0.0 -0.0 1.0
outer loop
vertex 31.2593717802019 58.9430359387909 2.0
vertex 30.1630801815492 55.0956816656786 2.0
vertex 30.8615211022739 56.7818672090085 2.0
endloop
endfacet
facet normal -0.0 -0.0 1.0
outer loop
vertex 31.2593717802019 58.9430359387909 2.0
vertex 30.8615211022739 56.7818672090085 2.0
vertex 31.9725801579293 58.2298275610636 2.0
endloop
endfacet
facet normal -0.0 -0.0 1.0
outer loop
vertex 31.2593717802019 58.9430359387909 2.0
vertex 31.9725801579293 58.2298275610636 2.0
vertex 32.9162260296943 60.214384919574 2.0
endloop
endfacet
facet normal -0.0 -0.0 1.0
outer loop
vertex 32.9162260296943 60.214384919574 2.0
vertex 31.9725801579293 58.2298275610636 2.0
vertex 33.4205405099843 59.3408866167189 2.0
endloop
endfacet
facet normal -0.0 -0.0 1.0
outer loop
vertex 32.9162260296943 60.214384919574 2.0
vertex 33.4205405099843 59.3408866167189 2.0
vertex 34.8456736688741 61.0135882996111 2.0
endloop
endfacet
facet normal -0.0 -0.0 1.0
outer loop
vertex 34.8456736688741 61.0135882996111 2.0
vertex 33.4205405099843 59.3408866167189 2.0
vertex 35.1067260533141 60.0393275374436 2.0
endloop
endfacet
facet normal -0.0 -0.0 1.0
outer loop
vertex 34.8456736688741 61.0135882996111 2.0
vertex 35.1067260533141 60.0393275374436 2.0
vertex 36.9162260296943 61.2861816892985 2.0
endloop
endfacet
facet normal -0.0 -0.0 1.0
outer loop
vertex 36.9162260296943 61.2861816892985 2.0
vertex 35.1067260533141 60.0393275374436 2.0
vertex 36.9162260296943 60.2775527287183 2.0
endloop
endfacet
facet normal -0.0 -0.0 1.0
outer loop
vertex 36.9162260296943 61.2861816892985 2.0
vertex 36.9162260296943 60.2775527287183 2.0
vertex 38.7257260060745 60.0393275374436 2.0
endloop
endfacet
facet normal -0.0 -0.0 1.0
outer loop
vertex 36.9162260296943 61.2861816892985 2.0
vertex 38.7257260060745 60.0393275374436 2.0
vertex 38.9867783905145 61.0135882996111 2.0
endloop
endfacet
facet normal -0.0 -0.0 1.0
outer loop
vertex 38.9867783905145 61.0135882996111 2.0
vertex 38.7257260060745 60.0393275374436 2.0
vertex 40.4119115494042 59.3408866167189 2.0
endloop
endfacet
facet normal -0.0 -0.0 1.0
outer loop
vertex 38.9867783905145 61.0135882996111 2.0
vertex 40.4119115494042 59.3408866167189 2.0
vertex 40.9162260296943 60.214384919574 2.0
endloop
endfacet
facet normal -0.0 -0.0 1.0
outer loop
vertex 40.9162260296943 60.214384919574 2.0
vertex 40.4119115494042 59.3408866167189 2.0
vertex 41.8598719014593 58.2298275610636 2.0
endloop
endfacet
facet normal -0.0 -0.0 1.0
outer loop
vertex 40.9162260296943 60.214384919574 2.0
vertex 41.8598719014593 58.2298275610636 2.0
vertex 42.5730802791867 58.9430359387909 2.0
endloop
endfacet
facet normal -0.0 -0.0 1.0
outer loop
vertex 42.5730802791867 58.9430359387909 2.0
vertex 41.8598719014593 58.2298275610636 2.0
vertex 42.9709309571146 56.7818672090085 2.0
endloop
endfacet
facet normal -0.0 -0.0 1.0
outer loop
vertex 42.5730802791867 58.9430359387909 2.0
vertex 42.9709309571146 56.7818672090085 2.0
vertex 43.8444292599698 57.2861816892985 2.0
endloop
endfacet
facet normal -0.0 -0.0 1.0
outer loop
vertex 43.8444292599698 57.2861816892985 2.0
vertex 42.9709309571146 56.7818672090085 2.0
vertex 43.6693718778394 55.0956816656786 2.0
endloop
endfacet
facet normal -0.0 -0.0 1.0
outer loop
vertex 43.8444292599698 57.2861816892985 2.0
vertex 43.6693718778394 55.0956816656786 2.0
vertex 43.9075970691141 53.2861816892985 2.0
endloop
endfacet
facet normal -0.0 -0.0 1.0
outer loop
vertex 43.8444292599698 57.2861816892985 2.0
vertex 43.9075970691141 53.2861816892985 2.0
vertex 44.6436326400069 55.3567340501187 2.0
endloop
endfacet
facet normal -0.0 -0.0 1.0
outer loop
vertex 44.6436326400069 55.3567340501187 2.0
vertex 43.9075970691141 53.2861816892985 2.0
vertex 44.6436326400068 51.2156293284783 2.0
endloop
endfacet
facet normal -0.0 -0.0 1.0
outer loop
vertex 44.6436326400069 55.3567340501187 2.0
vertex 44.6436326400068 51.2156293284783 2.0
vertex 44.9162260296943 53.2861816892985 2.0
endloop
endfacet
facet normal -0.707106781186546 0.707106781186549 0.0
outer loop
vertex 31.9725801579293 58.2298275610636 15.0
vertex 33.4205405099843 59.3408866167189 2.0
vertex 31.9725801579293 58.2298275610636 2.0
endloop
endfacet
facet normal -0.500000000000002 0.866025403784438 0.0
outer loop
vertex 33.4205405099843 59.3408866167189 2.0
vertex 31.9725801579293 58.2298275610636 15.0
vertex 33.4205405099843 59.3408866167189 15.0
endloop
endfacet
facet normal -1.0 0.0 0.0
outer loop
vertex 29.9248549902745 53.2861816892985 15.0
vertex 30.1630801815492 51.4766817129185 2.0
vertex 30.1630801815492 51.4766817129185 15.0
endloop
endfacet
facet normal -0.96592582628907 -0.258819045102516 0.0
outer loop
vertex 30.1630801815492 51.4766817129185 2.0
vertex 29.9248549902745 53.2861816892985 15.0
vertex 29.9248549902745 53.2861816892985 2.0
endloop
endfacet
facet normal 0.258819045102523 -0.965925826289068 0.0
outer loop
vertex 38.9867783905145 45.558775078986 2.0
vertex 36.9162260296943 45.2861816892985 0.0
vertex 38.9867783905145 45.558775078986 0.0
endloop
endfacet
facet normal 3.47533285930229e-016 -1.0 0.0
outer loop
vertex 36.9162260296943 45.2861816892985 0.0
vertex 38.9867783905145 45.558775078986 2.0
vertex 36.9162260296943 45.2861816892985 2.0
endloop
endfacet
facet normal -0.258819045102524 -0.965925826289067 0.0
outer loop
vertex 34.8456736688741 45.558775078986 2.0
vertex 32.9162260296943 46.357978459023 0.0
vertex 34.8456736688741 45.558775078986 0.0
endloop
endfacet
facet normal -0.499999999999998 -0.86602540378444 0.0
outer loop
vertex 32.9162260296943 46.357978459023 0.0
vertex 34.8456736688741 45.558775078986 2.0
vertex 32.9162260296943 46.357978459023 2.0
endloop
endfacet
facet normal -0.96592582628907 0.258819045102514 0.0
outer loop
vertex 29.1888194193817 55.3567340501187 2.0
vertex 28.9162260296943 53.2861816892985 0.0
vertex 28.9162260296943 53.2861816892985 2.0
endloop
endfacet
facet normal -1.0 0.0 0.0
outer loop
vertex 28.9162260296943 53.2861816892985 0.0
vertex 29.1888194193817 55.3567340501187 2.0
vertex 29.1888194193817 55.3567340501187 0.0
endloop
endfacet
facet normal -0.707106781186544 0.707106781186551 0.0
outer loop
vertex 31.2593717802019 58.9430359387909 2.0
vertex 29.9880227994188 57.2861816892985 0.0
vertex 29.9880227994188 57.2861816892985 2.0
endloop
endfacet
facet normal -0.866025403784437 0.500000000000003 0.0
outer loop
vertex 29.9880227994188 57.2861816892985 0.0
vertex 31.2593717802019 58.9430359387909 2.0
vertex 31.2593717802019 58.9430359387909 0.0
endloop
endfacet
facet normal 0.86602540378444 -0.499999999999997 0.0
outer loop
vertex 43.8444292599698 49.2861816892985 0.0
vertex 42.5730802791867 47.6293274398061 2.0
vertex 42.5730802791867 47.6293274398061 0.0
endloop
endfacet
facet normal 0.707106781186545 -0.70710678118655 0.0
outer loop
vertex 42.5730802791867 47.6293274398061 2.0
vertex 43.8444292599698 49.2861816892985 0.0
vertex 43.8444292599698 49.2861816892985 2.0
endloop
endfacet
facet normal 0.866025403784437 0.500000000000003 0.0
outer loop
vertex 43.8444292599698 57.2861816892985 0.0
vertex 44.6436326400069 55.3567340501187 2.0
vertex 44.6436326400069 55.3567340501187 0.0
endloop
endfacet
facet normal 0.965925826289069 0.258819045102518 0.0
outer loop
vertex 44.6436326400069 55.3567340501187 2.0
vertex 43.8444292599698 57.2861816892985 0.0
vertex 43.8444292599698 57.2861816892985 2.0
endloop
endfacet
facet normal 0.707106781186542 -0.707106781186553 0.0
outer loop
vertex 41.8598719014593 48.3425358175335 15.0
vertex 40.4119115494042 47.2314767618781 2.0
vertex 41.8598719014593 48.3425358175335 2.0
endloop
endfacet
facet normal 0.500000000000001 -0.866025403784438 0.0
outer loop
vertex 40.4119115494042 47.2314767618781 2.0
vertex 41.8598719014593 48.3425358175335 15.0
vertex 40.4119115494042 47.2314767618781 15.0
endloop
endfacet
facet normal 0.500000000000001 -0.866025403784438 0.0
outer loop
vertex 40.4119115494042 47.2314767618781 15.0
vertex 38.7257260060745 46.5330358411535 2.0
vertex 40.4119115494042 47.2314767618781 2.0
endloop
endfacet
facet normal 0.258819045102524 -0.965925826289067 0.0
outer loop
vertex 38.7257260060745 46.5330358411535 2.0
vertex 40.4119115494042 47.2314767618781 15.0
vertex 38.7257260060745 46.5330358411535 15.0
endloop
endfacet
facet normal -0.500000000000002 0.866025403784438 0.0
outer loop
vertex 33.4205405099843 59.3408866167189 15.0
vertex 35.1067260533141 60.0393275374436 2.0
vertex 33.4205405099843 59.3408866167189 2.0
endloop
endfacet
facet normal -0.258819045102524 0.965925826289067 0.0
outer loop
vertex 35.1067260533141 60.0393275374436 2.0
vertex 33.4205405099843 59.3408866167189 15.0
vertex 35.1067260533141 60.0393275374436 15.0
endloop
endfacet
facet normal 0.258819045102524 0.965925826289067 0.0
outer loop
vertex 38.7257260060745 60.0393275374436 15.0
vertex 40.4119115494042 59.3408866167189 2.0
vertex 38.7257260060745 60.0393275374436 2.0
endloop
endfacet
facet normal 0.499999999999998 0.86602540378444 0.0
outer loop
vertex 40.4119115494042 59.3408866167189 2.0
vertex 38.7257260060745 60.0393275374436 15.0
vertex 40.4119115494042 59.3408866167189 15.0
endloop
endfacet
facet normal 0.258819045102524 -0.965925826289067 0.0
outer loop
vertex 38.7257260060745 46.5330358411535 15.0
vertex 36.9162260296943 46.2948106498787 2.0
vertex 38.7257260060745 46.5330358411535 2.0
endloop
endfacet
facet normal 4.18822165095404e-016 -1.0 0.0
outer loop
vertex 36.9162260296943 46.2948106498787 2.0
vertex 38.7257260060745 46.5330358411535 15.0
vertex 36.9162260296943 46.2948106498787 15.0
endloop
endfacet
facet normal 4.18822165095404e-016 -1.0 0.0
outer loop
vertex 36.9162260296943 46.2948106498787 15.0
vertex 35.1067260533141 46.5330358411535 2.0
vertex 36.9162260296943 46.2948106498787 2.0
endloop
endfacet
facet normal -0.258819045102524 -0.965925826289067 0.0
outer loop
vertex 35.1067260533141 46.5330358411535 2.0
vertex 36.9162260296943 46.2948106498787 15.0
vertex 35.1067260533141 46.5330358411535 15.0
endloop
endfacet
facet normal -0.258819045102524 -0.965925826289067 0.0
outer loop
vertex 35.1067260533141 46.5330358411535 15.0
vertex 33.4205405099843 47.2314767618781 2.0
vertex 35.1067260533141 46.5330358411535 2.0
endloop
endfacet
facet normal -0.5 -0.866025403784439 0.0
outer loop
vertex 33.4205405099843 47.2314767618781 2.0
vertex 35.1067260533141 46.5330358411535 15.0
vertex 33.4205405099843 47.2314767618781 15.0
endloop
endfacet
facet normal -0.0 -0.0 1.0
outer loop
vertex 32.1665752132574 52.0135165887044 0.56
vertex 32.1665752132574 54.5588467898927 0.56
vertex 31.9990256741718 53.2861816892985 0.56
endloop
endfacet
facet normal -0.0 -0.0 1.0
outer loop
vertex 32.1665752132574 54.5588467898927 0.56
vertex 32.1665752132574 52.0135165887044 0.56
vertex 32.6578056063139 50.8275815115373 0.56
endloop
endfacet
facet normal -0.0 -0.0 1.0
outer loop
vertex 32.1665752132574 54.5588467898927 0.56
vertex 32.6578056063139 50.8275815115373 0.56
vertex 32.6578056063139 55.7447818670596 0.56
endloop
endfacet
facet normal -0.0 -0.0 1.0
outer loop
vertex 32.6578056063139 55.7447818670596 0.56
vertex 32.6578056063139 50.8275815115373 0.56
vertex 33.4392403138515 56.7631674051414 0.56
endloop
endfacet
facet normal -0.0 -0.0 1.0
outer loop
vertex 33.4392403138515 56.7631674051414 0.56
vertex 32.6578056063139 50.8275815115373 0.56
vertex 33.4392403138515 49.8091959734557 0.56
endloop
endfacet
facet normal -0.0 -0.0 1.0
outer loop
vertex 33.4392403138515 56.7631674051414 0.56
vertex 33.4392403138515 49.8091959734557 0.56
vertex 34.457625851933 49.0277612659182 0.56
endloop
endfacet
facet normal -0.0 -0.0 1.0
outer loop
vertex 33.4392403138515 56.7631674051414 0.56
vertex 34.457625851933 49.0277612659182 0.56
vertex 34.457625851933 57.5446021126788 0.56
endloop
endfacet
facet normal -0.0 -0.0 1.0
outer loop
vertex 34.457625851933 57.5446021126788 0.56
vertex 34.457625851933 49.0277612659182 0.56
vertex 35.6435609291002 48.5365308728616 0.56
endloop
endfacet
facet normal -0.0 -0.0 1.0
outer loop
vertex 34.457625851933 57.5446021126788 0.56
vertex 35.6435609291002 48.5365308728616 0.56
vertex 35.6435609291002 58.0358325057354 0.56
endloop
endfacet
facet normal -0.0 -0.0 1.0
outer loop
vertex 35.6435609291002 58.0358325057354 0.56
vertex 35.6435609291002 48.5365308728616 0.56
vertex 36.9162260296943 48.3689813337761 0.56
endloop
endfacet
facet normal -0.0 -0.0 1.0
outer loop
vertex 35.6435609291002 58.0358325057354 0.56
vertex 36.9162260296943 48.3689813337761 0.56
vertex 36.9162260296943 58.2033820448209 0.56
endloop
endfacet
facet normal -0.0 -0.0 1.0
outer loop
vertex 36.9162260296943 58.2033820448209 0.56
vertex 36.9162260296943 48.3689813337761 0.56
vertex 38.1888911302884 48.5365308728616 0.56
endloop
endfacet
facet normal -0.0 -0.0 1.0
outer loop
vertex 36.9162260296943 58.2033820448209 0.56
vertex 38.1888911302884 48.5365308728616 0.56
vertex 38.1888911302884 58.0358325057354 0.56
endloop
endfacet
facet normal -0.0 -0.0 1.0
outer loop
vertex 38.1888911302884 58.0358325057354 0.56
vertex 38.1888911302884 48.5365308728616 0.56
vertex 39.3748262074555 49.0277612659182 0.56
endloop
endfacet
facet normal -0.0 -0.0 1.0
outer loop
vertex 38.1888911302884 58.0358325057354 0.56
vertex 39.3748262074555 49.0277612659182 0.56
vertex 39.3748262074555 57.5446021126788 0.56
endloop
endfacet
facet normal -0.0 -0.0 1.0
outer loop
vertex 39.3748262074555 57.5446021126788 0.56
vertex 39.3748262074555 49.0277612659182 0.56
vertex 40.3932117455371 49.8091959734556 0.56
endloop
endfacet
facet normal -0.0 -0.0 1.0
outer loop
vertex 39.3748262074555 57.5446021126788 0.56
vertex 40.3932117455371 49.8091959734556 0.56
vertex 40.3932117455371 56.7631674051414 0.56
endloop
endfacet
facet normal -0.0 -0.0 1.0
outer loop
vertex 40.3932117455371 56.7631674051414 0.56
vertex 40.3932117455371 49.8091959734556 0.56
vertex 41.1746464530747 50.8275815115373 0.56
endloop
endfacet
facet normal -0.0 -0.0 1.0
outer loop
vertex 40.3932117455371 56.7631674051414 0.56
vertex 41.1746464530747 50.8275815115373 0.56
vertex 41.1746464530747 55.7447818670597 0.56
endloop
endfacet
facet normal -0.0 -0.0 1.0
outer loop
vertex 41.1746464530747 55.7447818670597 0.56
vertex 41.1746464530747 50.8275815115373 0.56
vertex 41.6658768461311 52.0135165887044 0.56
endloop
endfacet
facet normal -0.0 -0.0 1.0
outer loop
vertex 41.1746464530747 55.7447818670597 0.56
vertex 41.6658768461311 52.0135165887044 0.56
vertex 41.6658768461312 54.5588467898926 0.56
endloop
endfacet
facet normal -0.0 -0.0 1.0
outer loop
vertex 41.6658768461312 54.5588467898926 0.56
vertex 41.6658768461311 52.0135165887044 0.56
vertex 41.8334263852167 53.2861816892986 0.56
endloop
endfacet
facet normal 1.08026907009762e-031 1.15623113176045e-031 1.0
outer loop
vertex 30.1630801815492 51.4766817129185 15.0
vertex 30.1630801815492 55.0956816656786 15.0
vertex 29.9248549902745 53.2861816892985 15.0
endloop
endfacet
facet normal 1.08026907009762e-031 1.15623113176045e-031 1.0
outer loop
vertex 30.1630801815492 55.0956816656786 15.0
vertex 30.1630801815492 51.4766817129185 15.0
vertex 30.8615211022739 49.7904961695885 15.0
endloop
endfacet
facet normal 1.08026907009762e-031 1.15623113176045e-031 1.0
outer loop
vertex 30.1630801815492 55.0956816656786 15.0
vertex 30.8615211022739 49.7904961695885 15.0
vertex 30.5389228551174 53.2861816892984 15.0
endloop
endfacet
facet normal 1.08026907009762e-031 1.15623113176045e-031 1.0
outer loop
vertex 30.5389228551174 53.2861816892984 15.0
vertex 30.8615211022739 49.7904961695885 15.0
vertex 30.7562241912951 51.6356141713252 15.0
endloop
endfacet
facet normal 1.08026907009762e-031 1.15623113176045e-031 1.0
outer loop
vertex 30.7562241912951 51.6356141713252 15.0
vertex 30.8615211022739 49.7904961695885 15.0
vertex 31.3933194728755 50.0975301020101 15.0
endloop
endfacet
facet normal 1.08026907009762e-031 1.15623113176045e-031 1.0
outer loop
vertex 31.3933194728755 50.0975301020101 15.0
vertex 30.8615211022739 49.7904961695885 15.0
vertex 31.9725801579293 48.3425358175335 15.0
endloop
endfacet
facet normal 1.08026907009762e-031 1.15623113176045e-031 1.0
outer loop
vertex 31.3933194728755 50.0975301020101 15.0
vertex 31.9725801579293 48.3425358175335 15.0
vertex 32.4067917092684 48.7767473688727 15.0
endloop
endfacet
facet normal 1.08026907009762e-031 1.15623113176045e-031 1.0
outer loop
vertex 32.4067917092684 48.7767473688727 15.0
vertex 31.9725801579293 48.3425358175335 15.0
vertex 33.4205405099843 47.2314767618781 15.0
endloop
endfacet
facet normal 1.08026907009762e-031 1.15623113176045e-031 1.0
outer loop
vertex 32.4067917092684 48.7767473688727 15.0
vertex 33.4205405099843 47.2314767618781 15.0
vertex 33.7275744424057 47.7632751324798 15.0
endloop
endfacet
facet normal 1.08026907009762e-031 1.15623113176045e-031 1.0
outer loop
vertex 33.7275744424057 47.7632751324798 15.0
vertex 33.4205405099843 47.2314767618781 15.0
vertex 35.1067260533141 46.5330358411535 15.0
endloop
endfacet
facet normal 1.08026907009762e-031 1.15623113176045e-031 1.0
outer loop
vertex 33.7275744424057 47.7632751324798 15.0
vertex 35.1067260533141 46.5330358411535 15.0
vertex 35.2656585117211 47.1261798508994 15.0
endloop
endfacet
facet normal 1.08026907009762e-031 1.15623113176045e-031 1.0
outer loop
vertex 35.2656585117211 47.1261798508994 15.0
vertex 35.1067260533141 46.5330358411535 15.0
vertex 36.9162260296943 46.2948106498787 15.0
endloop
endfacet
facet normal 1.08026907009762e-031 1.15623113176045e-031 1.0
outer loop
vertex 35.2656585117211 47.1261798508994 15.0
vertex 36.9162260296943 46.2948106498787 15.0
vertex 36.9162260296942 46.9088785147216 15.0
endloop
endfacet
facet normal 1.08026907009762e-031 1.15623113176045e-031 1.0
outer loop
vertex 36.9162260296942 46.9088785147216 15.0
vertex 36.9162260296943 46.2948106498787 15.0
vertex 38.5667935476674 47.1261798508994 15.0
endloop
endfacet
facet normal 1.08026907009762e-031 1.15623113176045e-031 1.0
outer loop
vertex 38.5667935476674 47.1261798508994 15.0
vertex 36.9162260296943 46.2948106498787 15.0
vertex 38.7257260060745 46.5330358411535 15.0
endloop
endfacet
facet normal 1.08026907009762e-031 1.15623113176045e-031 1.0
outer loop
vertex 38.5667935476674 47.1261798508994 15.0
vertex 38.7257260060745 46.5330358411535 15.0
vertex 40.1048776169827 47.7632751324798 15.0
endloop
endfacet
facet normal 1.08026907009762e-031 1.15623113176045e-031 1.0
outer loop
vertex 40.1048776169827 47.7632751324798 15.0
vertex 38.7257260060745 46.5330358411535 15.0
vertex 40.4119115494042 47.2314767618781 15.0
endloop
endfacet
facet normal 1.08026907009762e-031 1.15623113176045e-031 1.0
outer loop
vertex 40.1048776169827 47.7632751324798 15.0
vertex 40.4119115494042 47.2314767618781 15.0
vertex 41.4256603501201 48.7767473688727 15.0
endloop
endfacet
facet normal 1.08026907009762e-031 1.15623113176045e-031 1.0
outer loop
vertex 41.4256603501201 48.7767473688727 15.0
vertex 40.4119115494042 47.2314767618781 15.0
vertex 41.8598719014593 48.3425358175335 15.0
endloop
endfacet
facet normal 1.08026907009762e-031 1.15623113176045e-031 1.0
outer loop
vertex 41.4256603501201 48.7767473688727 15.0
vertex 41.8598719014593 48.3425358175335 15.0
vertex 42.439132586513 50.0975301020101 15.0
endloop
endfacet
facet normal 1.08026907009762e-031 1.15623113176045e-031 1.0
outer loop
vertex 42.439132586513 50.0975301020101 15.0
vertex 41.8598719014593 48.3425358175335 15.0
vertex 42.9709309571147 49.7904961695886 15.0
endloop
endfacet
facet normal 1.08026907009762e-031 1.15623113176045e-031 1.0
outer loop
vertex 42.439132586513 50.0975301020101 15.0
vertex 42.9709309571147 49.7904961695886 15.0
vertex 43.0762278680934 51.6356141713252 15.0
endloop
endfacet
facet normal 1.08026907009762e-031 1.15623113176045e-031 1.0
outer loop
vertex 43.0762278680934 51.6356141713252 15.0
vertex 42.9709309571147 49.7904961695886 15.0
vertex 43.6693718778393 51.4766817129184 15.0
endloop
endfacet
facet normal 1.08026907009762e-031 1.15623113176045e-031 1.0
outer loop
vertex 43.0762278680934 51.6356141713252 15.0
vertex 43.6693718778393 51.4766817129184 15.0
vertex 43.2935292042711 53.2861816892984 15.0
endloop
endfacet
facet normal 1.08026907009762e-031 1.15623113176045e-031 1.0
outer loop
vertex 30.5389228551174 53.2861816892984 15.0
vertex 30.8615211022739 56.7818672090085 15.0
vertex 30.1630801815492 55.0956816656786 15.0
endloop
endfacet
facet normal 1.08026907009762e-031 1.15623113176045e-031 1.0
outer loop
vertex 30.8615211022739 56.7818672090085 15.0
vertex 30.5389228551174 53.2861816892984 15.0
vertex 30.7562241912951 54.9367492072717 15.0
endloop
endfacet
facet normal 1.08026907009762e-031 1.15623113176045e-031 1.0
outer loop
vertex 30.8615211022739 56.7818672090085 15.0
vertex 30.7562241912951 54.9367492072717 15.0
vertex 31.3933194728754 56.4748332765867 15.0
endloop
endfacet
facet normal 1.08026907009762e-031 1.15623113176045e-031 1.0
outer loop
vertex 30.8615211022739 56.7818672090085 15.0
vertex 31.3933194728754 56.4748332765867 15.0
vertex 31.9725801579293 58.2298275610636 15.0
endloop
endfacet
facet normal 1.08026907009762e-031 1.15623113176045e-031 1.0
outer loop
vertex 31.9725801579293 58.2298275610636 15.0
vertex 31.3933194728754 56.4748332765867 15.0
vertex 32.4067917092684 57.7956160097243 15.0
endloop
endfacet
facet normal 1.08026907009762e-031 1.15623113176045e-031 1.0
outer loop
vertex 31.9725801579293 58.2298275610636 15.0
vertex 32.4067917092684 57.7956160097243 15.0
vertex 33.4205405099843 59.3408866167189 15.0
endloop
endfacet
facet normal 1.08026907009762e-031 1.15623113176045e-031 1.0
outer loop
vertex 33.4205405099843 59.3408866167189 15.0
vertex 32.4067917092684 57.7956160097243 15.0
vertex 33.7275744424058 58.8090882461171 15.0
endloop
endfacet
facet normal 1.08026907009762e-031 1.15623113176045e-031 1.0
outer loop
vertex 33.4205405099843 59.3408866167189 15.0
vertex 33.7275744424058 58.8090882461171 15.0
vertex 35.1067260533141 60.0393275374436 15.0
endloop
endfacet
facet normal 1.08026907009762e-031 1.15623113176045e-031 1.0
outer loop
vertex 35.1067260533141 60.0393275374436 15.0
vertex 33.7275744424058 58.8090882461171 15.0
vertex 35.2656585117211 59.4461835276975 15.0
endloop
endfacet
facet normal 1.08026907009762e-031 1.15623113176045e-031 1.0
outer loop
vertex 35.1067260533141 60.0393275374436 15.0
vertex 35.2656585117211 59.4461835276975 15.0
vertex 36.9162260296943 60.2775527287183 15.0
endloop
endfacet
facet normal 1.08026907009762e-031 1.15623113176045e-031 1.0
outer loop
vertex 36.9162260296943 60.2775527287183 15.0
vertex 35.2656585117211 59.4461835276975 15.0
vertex 36.9162260296942 59.6634848638753 15.0
endloop
endfacet
facet normal 1.08026907009762e-031 1.15623113176045e-031 1.0
outer loop
vertex 36.9162260296943 60.2775527287183 15.0
vertex 36.9162260296942 59.6634848638753 15.0
vertex 38.5667935476674 59.4461835276975 15.0
endloop
endfacet
facet normal 1.08026907009762e-031 1.15623113176045e-031 1.0
outer loop
vertex 36.9162260296943 60.2775527287183 15.0
vertex 38.5667935476674 59.4461835276975 15.0
vertex 38.7257260060745 60.0393275374436 15.0
endloop
endfacet
facet normal 1.08026907009762e-031 1.15623113176045e-031 1.0
outer loop
vertex 38.7257260060745 60.0393275374436 15.0
vertex 38.5667935476674 59.4461835276975 15.0
vertex 40.1048776169828 58.8090882461171 15.0
endloop
endfacet
facet normal 1.08026907009762e-031 1.15623113176045e-031 1.0
outer loop
vertex 38.7257260060745 60.0393275374436 15.0
vertex 40.1048776169828 58.8090882461171 15.0
vertex 40.4119115494042 59.3408866167189 15.0
endloop
endfacet
facet normal 1.08026907009762e-031 1.15623113176045e-031 1.0
outer loop
vertex 40.4119115494042 59.3408866167189 15.0
vertex 40.1048776169828 58.8090882461171 15.0
vertex 41.4256603501201 57.7956160097243 15.0
endloop
endfacet
facet normal 1.08026907009762e-031 1.15623113176045e-031 1.0
outer loop
vertex 40.4119115494042 59.3408866167189 15.0
vertex 41.4256603501201 57.7956160097243 15.0
vertex 41.8598719014593 58.2298275610636 15.0
endloop
endfacet
facet normal 1.08026907009762e-031 1.15623113176045e-031 1.0
outer loop
vertex 41.8598719014593 58.2298275610636 15.0
vertex 41.4256603501201 57.7956160097243 15.0
vertex 42.439132586513 56.4748332765868 15.0
endloop
endfacet
facet normal 1.08026907009762e-031 1.15623113176045e-031 1.0
outer loop
vertex 41.8598719014593 58.2298275610636 15.0
vertex 42.439132586513 56.4748332765868 15.0
vertex 42.9709309571146 56.7818672090085 15.0
endloop
endfacet
facet normal 1.08026907009762e-031 1.15623113176045e-031 1.0
outer loop
vertex 42.9709309571146 56.7818672090085 15.0
vertex 42.439132586513 56.4748332765868 15.0
vertex 43.0762278680934 54.9367492072717 15.0
endloop
endfacet
facet normal 1.08026907009762e-031 1.15623113176045e-031 1.0
outer loop
vertex 42.9709309571146 56.7818672090085 15.0
vertex 43.0762278680934 54.9367492072717 15.0
vertex 43.6693718778394 55.0956816656786 15.0
endloop
endfacet
facet normal 1.08026907009762e-031 1.15623113176045e-031 1.0
outer loop
vertex 43.6693718778394 55.0956816656786 15.0
vertex 43.0762278680934 54.9367492072717 15.0
vertex 43.2935292042711 53.2861816892984 15.0
endloop
endfacet
facet normal 1.08026907009762e-031 1.15623113176045e-031 1.0
outer loop
vertex 43.6693718778394 55.0956816656786 15.0
vertex 43.2935292042711 53.2861816892984 15.0
vertex 43.6693718778393 51.4766817129184 15.0
endloop
endfacet
facet normal 1.08026907009762e-031 1.15623113176045e-031 1.0
outer loop
vertex 43.6693718778394 55.0956816656786 15.0
vertex 43.6693718778393 51.4766817129184 15.0
vertex 43.9075970691141 53.2861816892985 15.0
endloop
endfacet
facet normal 0.685497950490585 -0.685497950490598 0.245326557360585
outer loop
vertex 33.4392403138515 56.7631674051414 9.23020964348149
vertex 31.3933194728754 56.4748332765867 15.0
vertex 32.6578056063139 55.7447818670596 9.23020964348149
endloop
endfacet
facet normal 0.839560099212799 -0.484720249281373 0.24532655736059
outer loop
vertex 31.3933194728754 56.4748332765867 15.0
vertex 33.4392403138515 56.7631674051414 9.23020964348149
vertex 32.4067917092684 57.7956160097243 15.0
endloop
endfacet
facet normal 1.0 5.1684437394752e-015 -5.98565644082567e-032
outer loop
vertex 31.9990256741718 53.2861816892985 0.56
vertex 32.1665752132574 52.0135165887044 9.23020964348149
vertex 32.1665752132574 52.0135165887044 0.56
endloop
endfacet
facet normal 0.965925826289068 0.258819045102521 -3.34100339866535e-032
outer loop
vertex 32.1665752132574 52.0135165887044 9.23020964348149
vertex 31.9990256741718 53.2861816892985 0.56
vertex 31.9990256741718 53.2861816892985 9.23020964348149
endloop
endfacet
facet normal -0.707106781186541 -0.707106781186554 -5.85635332957475e-032
outer loop
vertex 40.3932117455371 56.7631674051414 9.23020964348149
vertex 39.3748262074555 57.5446021126788 0.56
vertex 40.3932117455371 56.7631674051414 0.56
endloop
endfacet
facet normal -0.499999999999986 -0.866025403784447 -1.62385507041396e-032
outer loop
vertex 39.3748262074555 57.5446021126788 0.56
vertex 40.3932117455371 56.7631674051414 9.23020964348149
vertex 39.3748262074555 57.5446021126788 9.23020964348149
endloop
endfacet
facet normal 0.499999999999999 0.866025403784439 0.0
outer loop
vertex 34.457625851933 49.0277612659182 9.23020964348149
vertex 35.6435609291002 48.5365308728616 0.56
vertex 34.457625851933 49.0277612659182 0.56
endloop
endfacet
facet normal 0.25881904510252 0.965925826289069 -1.94830268565535e-032
outer loop
vertex 35.6435609291002 48.5365308728616 0.56
vertex 34.457625851933 49.0277612659182 9.23020964348149
vertex 35.6435609291002 48.5365308728616 9.23020964348149
endloop
endfacet
facet normal 0.25090966412172 0.936407614612315 0.245326557360592
outer loop
vertex 35.2656585117211 47.1261798508994 15.0
vertex 36.9162260296943 48.3689813337761 9.23020964348149
vertex 35.6435609291002 48.5365308728616 9.23020964348149
endloop
endfacet
facet normal 6.37185824588809e-016 0.969440498562753 0.245326557360593
outer loop
vertex 36.9162260296943 48.3689813337761 9.23020964348149
vertex 35.2656585117211 47.1261798508994 15.0
vertex 36.9162260296942 46.9088785147216 15.0
endloop
endfacet
facet normal 0.707106781186547 0.707106781186548 -1.62385507041399e-032
outer loop
vertex 33.4392403138515 49.8091959734557 9.23020964348149
vertex 34.457625851933 49.0277612659182 0.56
vertex 33.4392403138515 49.8091959734557 0.56
endloop
endfacet
facet normal 0.499999999999999 0.866025403784439 0.0
outer loop
vertex 34.457625851933 49.0277612659182 0.56
vertex 33.4392403138515 49.8091959734557 9.23020964348149
vertex 34.457625851933 49.0277612659182 9.23020964348149
endloop
endfacet
facet normal -0.258819045102515 -0.96592582628907 4.94113090606814e-032
outer loop
vertex 38.1888911302884 58.0358325057354 9.23020964348149
vertex 36.9162260296943 58.2033820448209 0.56
vertex 38.1888911302884 58.0358325057354 0.56
endloop
endfacet
facet normal -8.28733220295162e-016 -1.0 1.02304369903888e-031
outer loop
vertex 36.9162260296943 58.2033820448209 0.56
vertex 38.1888911302884 58.0358325057354 9.23020964348149
vertex 36.9162260296943 58.2033820448209 9.23020964348149
endloop
endfacet
facet normal -8.28733220295162e-016 -1.0 1.02304369903888e-031
outer loop
vertex 36.9162260296943 58.2033820448209 9.23020964348149
vertex 35.6435609291002 58.0358325057354 0.56
vertex 36.9162260296943 58.2033820448209 0.56
endloop
endfacet
facet normal 0.258819045102514 -0.96592582628907 3.24771014082807e-032
outer loop
vertex 35.6435609291002 58.0358325057354 0.56
vertex 36.9162260296943 58.2033820448209 9.23020964348149
vertex 35.6435609291002 58.0358325057354 9.23020964348149
endloop
endfacet
facet normal 0.965925826289068 0.258819045102521 -3.34100339866535e-032
outer loop
vertex 32.1665752132574 52.0135165887044 0.56
vertex 32.6578056063139 50.8275815115373 9.23020964348149
vertex 32.6578056063139 50.8275815115373 0.56
endloop
endfacet
facet normal 0.866025403784441 0.499999999999995 -1.62385507041399e-032
outer loop
vertex 32.6578056063139 50.8275815115373 9.23020964348149
vertex 32.1665752132574 52.0135165887044 0.56
vertex 32.1665752132574 52.0135165887044 9.23020964348149
endloop
endfacet
facet normal 0.866025403784441 0.499999999999995 -1.62385507041399e-032
outer loop
vertex 32.6578056063139 50.8275815115373 0.56
vertex 33.4392403138515 49.8091959734557 9.23020964348149
vertex 33.4392403138515 49.8091959734557 0.56
endloop
endfacet
facet normal 0.707106781186547 0.707106781186548 -1.62385507041399e-032
outer loop
vertex 33.4392403138515 49.8091959734557 9.23020964348149
vertex 32.6578056063139 50.8275815115373 0.56
vertex 32.6578056063139 50.8275815115373 9.23020964348149
endloop
endfacet
facet normal -0.258819045102521 0.965925826289068 2.99282822041282e-032
outer loop
vertex 38.1888911302884 48.5365308728616 9.23020964348149
vertex 39.3748262074555 49.0277612659182 0.56
vertex 38.1888911302884 48.5365308728616 0.56
endloop
endfacet
facet normal -0.500000000000001 0.866025403784438 1.623855070414e-032
outer loop
vertex 39.3748262074555 49.0277612659182 0.56
vertex 38.1888911302884 48.5365308728616 9.23020964348149
vertex 39.3748262074555 49.0277612659182 9.23020964348149
endloop
endfacet
facet normal 0.484720249281381 0.839560099212794 0.245326557360592
outer loop
vertex 33.7275744424057 47.7632751324798 15.0
vertex 35.6435609291002 48.5365308728616 9.23020964348149
vertex 34.457625851933 49.0277612659182 9.23020964348149
endloop
endfacet
facet normal 0.250909664121722 0.936407614612314 0.245326557360592
outer loop
vertex 35.6435609291002 48.5365308728616 9.23020964348149
vertex 33.7275744424057 47.7632751324798 15.0
vertex 35.2656585117211 47.1261798508994 15.0
endloop
endfacet
facet normal -0.969440498562754 1.77474189469958e-014 0.24532655736059
outer loop
vertex 43.2935292042711 53.2861816892984 15.0
vertex 41.6658768461311 52.0135165887044 9.23020964348149
vertex 43.0762278680934 51.6356141713252 15.0
endloop
endfacet
facet normal -0.936407614612317 0.250909664121711 0.245326557360591
outer loop
vertex 41.6658768461311 52.0135165887044 9.23020964348149
vertex 43.2935292042711 53.2861816892984 15.0
vertex 41.8334263852167 53.2861816892986 9.23020964348149
endloop
endfacet
facet normal 0.866025403784442 -0.499999999999993 0.0
outer loop
vertex 32.6578056063139 55.7447818670596 0.56
vertex 32.1665752132574 54.5588467898927 9.23020964348149
vertex 32.1665752132574 54.5588467898927 0.56
endloop
endfacet
facet normal 0.96592582628907 -0.258819045102516 -2.64465304216033e-032
outer loop
vertex 32.1665752132574 54.5588467898927 9.23020964348149
vertex 32.6578056063139 55.7447818670596 0.56
vertex 32.6578056063139 55.7447818670596 9.23020964348149
endloop
endfacet
facet normal 0.25881904510252 0.965925826289069 -1.94830268565535e-032
outer loop
vertex 35.6435609291002 48.5365308728616 9.23020964348149
vertex 36.9162260296943 48.3689813337761 0.56
vertex 35.6435609291002 48.5365308728616 0.56
endloop
endfacet
facet normal -8.82199879669043e-016 1.0 1.04452553475746e-032
outer loop
vertex 36.9162260296943 48.3689813337761 0.56
vertex 35.6435609291002 48.5365308728616 9.23020964348149
vertex 36.9162260296943 48.3689813337761 9.23020964348149
endloop
endfacet
facet normal -0.500000000000001 0.866025403784438 1.623855070414e-032
outer loop
vertex 39.3748262074555 49.0277612659182 9.23020964348149
vertex 40.3932117455371 49.8091959734556 0.56
vertex 39.3748262074555 49.0277612659182 0.56
endloop
endfacet
facet normal -0.707106781186538 0.707106781186557 -1.14268642031569e-018
outer loop
vertex 40.3932117455371 49.8091959734556 0.56
vertex 39.3748262074555 49.0277612659182 9.23020964348149
vertex 40.3932117455371 49.8091959734556 9.23020964348149
endloop
endfacet
facet normal 0.707106781186544 -0.707106781186551 0.0
outer loop
vertex 33.4392403138515 56.7631674051414 0.56
vertex 32.6578056063139 55.7447818670596 9.23020964348149
vertex 32.6578056063139 55.7447818670596 0.56
endloop
endfacet
facet normal 0.866025403784442 -0.499999999999993 0.0
outer loop
vertex 32.6578056063139 55.7447818670596 9.23020964348149
vertex 33.4392403138515 56.7631674051414 0.56
vertex 33.4392403138515 56.7631674051414 9.23020964348149
endloop
endfacet
facet normal 0.685497950490592 0.685497950490588 0.245326557360593
outer loop
vertex 33.4392403138515 49.8091959734557 9.23020964348149
vertex 31.3933194728755 50.0975301020101 15.0
vertex 32.4067917092684 48.7767473688727 15.0
endloop
endfacet
facet normal 0.839560099212792 0.484720249281383 0.245326557360596
outer loop
vertex 31.3933194728755 50.0975301020101 15.0
vertex 33.4392403138515 49.8091959734557 9.23020964348149
vertex 32.6578056063139 50.8275815115373 9.23020964348149
endloop
endfacet
facet normal -0.936407614612318 -0.250909664121712 0.245326557360589
outer loop
vertex 43.0762278680934 54.9367492072717 15.0
vertex 41.1746464530747 55.7447818670597 9.23020964348149
vertex 41.6658768461312 54.5588467898926 9.23020964348149
endloop
endfacet
facet normal -0.839560099212799 -0.484720249281375 0.245326557360585
outer loop
vertex 41.1746464530747 55.7447818670597 9.23020964348149
vertex 43.0762278680934 54.9367492072717 15.0
vertex 42.439132586513 56.4748332765868 15.0
endloop
endfacet
facet normal -0.96592582628907 -0.258819045102515 -3.77079217366246e-019
outer loop
vertex 41.6658768461312 54.5588467898926 9.23020964348149
vertex 41.8334263852167 53.2861816892986 0.56
vertex 41.8334263852167 53.2861816892986 9.23020964348149
endloop
endfacet
facet normal -1.0 9.75766533573339e-015 4.90013000949336e-019
outer loop
vertex 41.8334263852167 53.2861816892986 0.56
vertex 41.6658768461312 54.5588467898926 9.23020964348149
vertex 41.6658768461312 54.5588467898926 0.56
endloop
endfacet
facet normal 0.258819045102514 -0.96592582628907 3.24771014082807e-032
outer loop
vertex 35.6435609291002 58.0358325057354 9.23020964348149
vertex 34.457625851933 57.5446021126788 0.56
vertex 35.6435609291002 58.0358325057354 0.56
endloop
endfacet
facet normal 0.499999999999986 -0.866025403784447 -2.04159594349258e-032
outer loop
vertex 34.457625851933 57.5446021126788 0.56
vertex 35.6435609291002 58.0358325057354 9.23020964348149
vertex 34.457625851933 57.5446021126788 9.23020964348149
endloop
endfacet
facet normal -0.685497950490585 -0.6854979504906 0.245326557360582
outer loop
vertex 41.4256603501201 57.7956160097243 15.0
vertex 39.3748262074555 57.5446021126788 9.23020964348149
vertex 40.3932117455371 56.7631674051414 9.23020964348149
endloop
endfacet
facet normal -0.484720249281365 -0.839560099212807 0.245326557360578
outer loop
vertex 39.3748262074555 57.5446021126788 9.23020964348149
vertex 41.4256603501201 57.7956160097243 15.0
vertex 40.1048776169828 58.8090882461171 15.0
endloop
endfacet
facet normal -0.707106781186541 -0.707106781186554 -5.85635332957475e-032
outer loop
vertex 40.3932117455371 56.7631674051414 9.23020964348149
vertex 41.1746464530747 55.7447818670597 0.56
vertex 41.1746464530747 55.7447818670597 9.23020964348149
endloop
endfacet
facet normal -0.866025403784447 -0.499999999999985 -8.67092218315625e-019
outer loop
vertex 41.1746464530747 55.7447818670597 0.56
vertex 40.3932117455371 56.7631674051414 9.23020964348149
vertex 40.3932117455371 56.7631674051414 0.56
endloop
endfacet
facet normal -1.0 9.75766533573339e-015 4.90013000949336e-019
outer loop
vertex 41.8334263852167 53.2861816892986 9.23020964348149
vertex 41.6658768461311 52.0135165887044 0.56
vertex 41.6658768461311 52.0135165887044 9.23020964348149
endloop
endfacet
facet normal -0.965925826289071 0.258819045102511 -8.67092218315537e-019
outer loop
vertex 41.6658768461311 52.0135165887044 0.56
vertex 41.8334263852167 53.2861816892986 9.23020964348149
vertex 41.8334263852167 53.2861816892986 0.56
endloop
endfacet
facet normal -0.866025403784447 0.499999999999985 -2.00977863863126e-018
outer loop
vertex 41.1746464530747 50.8275815115373 9.23020964348149
vertex 40.3932117455371 49.8091959734556 0.56
vertex 40.3932117455371 49.8091959734556 9.23020964348149
endloop
endfacet
facet normal -0.707106781186538 0.707106781186557 -1.14268642031569e-018
outer loop
vertex 40.3932117455371 49.8091959734556 0.56
vertex 41.1746464530747 50.8275815115373 9.23020964348149
vertex 41.1746464530747 50.8275815115373 0.56
endloop
endfacet
facet normal 2.42754142359011e-015 0.969440498562753 0.245326557360593
outer loop
vertex 36.9162260296942 46.9088785147216 15.0
vertex 38.1888911302884 48.5365308728616 9.23020964348149
vertex 36.9162260296943 48.3689813337761 9.23020964348149
endloop
endfacet
facet normal -0.250909664121731 0.936407614612313 0.245326557360588
outer loop
vertex 38.1888911302884 48.5365308728616 9.23020964348149
vertex 36.9162260296942 46.9088785147216 15.0
vertex 38.5667935476674 47.1261798508994 15.0
endloop
endfacet
facet normal -0.866025403784447 -0.499999999999985 -8.67092218315625e-019
outer loop
vertex 41.1746464530747 55.7447818670597 9.23020964348149
vertex 41.6658768461312 54.5588467898926 0.56
vertex 41.6658768461312 54.5588467898926 9.23020964348149
endloop
endfacet
facet normal -0.96592582628907 -0.258819045102515 -3.77079217366246e-019
outer loop
vertex 41.6658768461312 54.5588467898926 0.56
vertex 41.1746464530747 55.7447818670597 9.23020964348149
vertex 41.1746464530747 55.7447818670597 0.56
endloop
endfacet
facet normal 0.96592582628907 -0.258819045102516 -2.64465304216033e-032
outer loop
vertex 32.1665752132574 54.5588467898927 0.56
vertex 31.9990256741718 53.2861816892985 9.23020964348149
vertex 31.9990256741718 53.2861816892985 0.56
endloop
endfacet
facet normal 1.0 5.1684437394752e-015 -5.98565644082567e-032
outer loop
vertex 31.9990256741718 53.2861816892985 9.23020964348149
vertex 32.1665752132574 54.5588467898927 0.56
vertex 32.1665752132574 54.5588467898927 9.23020964348149
endloop
endfacet
facet normal -0.965925826289071 0.258819045102511 -8.67092218315537e-019
outer loop
vertex 41.6658768461311 52.0135165887044 9.23020964348149
vertex 41.1746464530747 50.8275815115373 0.56
vertex 41.1746464530747 50.8275815115373 9.23020964348149
endloop
endfacet
facet normal -0.866025403784447 0.499999999999985 -2.00977863863126e-018
outer loop
vertex 41.1746464530747 50.8275815115373 0.56
vertex 41.6658768461311 52.0135165887044 9.23020964348149
vertex 41.6658768461311 52.0135165887044 0.56
endloop
endfacet
facet normal -0.499999999999986 -0.866025403784447 -1.62385507041396e-032
outer loop
vertex 39.3748262074555 57.5446021126788 9.23020964348149
vertex 38.1888911302884 58.0358325057354 0.56
vertex 39.3748262074555 57.5446021126788 0.56
endloop
endfacet
facet normal -0.258819045102515 -0.96592582628907 4.94113090606814e-032
outer loop
vertex 38.1888911302884 58.0358325057354 0.56
vertex 39.3748262074555 57.5446021126788 9.23020964348149
vertex 38.1888911302884 58.0358325057354 9.23020964348149
endloop
endfacet
facet normal 0.499999999999986 -0.866025403784447 -2.04159594349258e-032
outer loop
vertex 34.457625851933 57.5446021126788 9.23020964348149
vertex 33.4392403138515 56.7631674051414 0.56
vertex 34.457625851933 57.5446021126788 0.56
endloop
endfacet
facet normal 0.707106781186544 -0.707106781186551 0.0
outer loop
vertex 33.4392403138515 56.7631674051414 0.56
vertex 34.457625851933 57.5446021126788 9.23020964348149
vertex 33.4392403138515 56.7631674051414 9.23020964348149
endloop
endfacet
facet normal -8.82199879669043e-016 1.0 1.04452553475746e-032
outer loop
vertex 36.9162260296943 48.3689813337761 9.23020964348149
vertex 38.1888911302884 48.5365308728616 0.56
vertex 36.9162260296943 48.3689813337761 0.56
endloop
endfacet
facet normal -0.258819045102521 0.965925826289068 2.99282822041282e-032
outer loop
vertex 38.1888911302884 48.5365308728616 0.56
vertex 36.9162260296943 48.3689813337761 9.23020964348149
vertex 38.1888911302884 48.5365308728616 9.23020964348149
endloop
endfacet
facet normal -0.839560099212798 0.484720249281375 0.245326557360591
outer loop
vertex 42.439132586513 50.0975301020101 15.0
vertex 40.3932117455371 49.8091959734556 9.23020964348149
vertex 41.4256603501201 48.7767473688727 15.0
endloop
endfacet
facet normal -0.685497950490575 0.685497950490609 0.245326557360585
outer loop
vertex 40.3932117455371 49.8091959734556 9.23020964348149
vertex 42.439132586513 50.0975301020101 15.0
vertex 41.1746464530747 50.8275815115373 9.23020964348149
endloop
endfacet
facet normal -0.484720249281368 -0.839560099212805 0.245326557360578
outer loop
vertex 40.1048776169828 58.8090882461171 15.0
vertex 38.1888911302884 58.0358325057354 9.23020964348149
vertex 39.3748262074555 57.5446021126788 9.23020964348149
endloop
endfacet
facet normal -0.250909664121716 -0.936407614612319 0.245326557360579
outer loop
vertex 38.1888911302884 58.0358325057354 9.23020964348149
vertex 40.1048776169828 58.8090882461171 15.0
vertex 38.5667935476674 59.4461835276975 15.0
endloop
endfacet
facet normal 0.685497950490592 0.685497950490588 0.245326557360593
outer loop
vertex 32.4067917092684 48.7767473688727 15.0
vertex 34.457625851933 49.0277612659182 9.23020964348149
vertex 33.4392403138515 49.8091959734557 9.23020964348149
endloop
endfacet
facet normal 0.484720249281378 0.839560099212795 0.245326557360592
outer loop
vertex 34.457625851933 49.0277612659182 9.23020964348149
vertex 32.4067917092684 48.7767473688727 15.0
vertex 33.7275744424057 47.7632751324798 15.0
endloop
endfacet
facet normal 0.839560099212798 -0.484720249281375 0.24532655736059
outer loop
vertex 32.6578056063139 55.7447818670596 9.23020964348149
vertex 30.7562241912951 54.9367492072717 15.0
vertex 32.1665752132574 54.5588467898927 9.23020964348149
endloop
endfacet
facet normal 0.936407614612316 -0.250909664121715 0.245326557360595
outer loop
vertex 30.7562241912951 54.9367492072717 15.0
vertex 32.6578056063139 55.7447818670596 9.23020964348149
vertex 31.3933194728754 56.4748332765867 15.0
endloop
endfacet
facet normal -0.250909664121713 -0.93640761461232 0.245326557360579
outer loop
vertex 38.5667935476674 59.4461835276975 15.0
vertex 36.9162260296943 58.2033820448209 9.23020964348149
vertex 38.1888911302884 58.0358325057354 9.23020964348149
endloop
endfacet
facet normal 6.80828689286673e-016 -0.969440498562756 0.24532655736058
outer loop
vertex 36.9162260296943 58.2033820448209 9.23020964348149
vertex 38.5667935476674 59.4461835276975 15.0
vertex 36.9162260296942 59.6634848638753 15.0
endloop
endfacet
facet normal 0.484720249281368 -0.839560099212805 0.24532655736058
outer loop
vertex 33.7275744424058 58.8090882461171 15.0
vertex 33.4392403138515 56.7631674051414 9.23020964348149
vertex 34.457625851933 57.5446021126788 9.23020964348149
endloop
endfacet
facet normal 0.685497950490585 -0.685497950490598 0.245326557360585
outer loop
vertex 33.4392403138515 56.7631674051414 9.23020964348149
vertex 33.7275744424058 58.8090882461171 15.0
vertex 32.4067917092684 57.7956160097243 15.0
endloop
endfacet
facet normal -0.936407614612318 0.250909664121711 0.245326557360591
outer loop
vertex 43.0762278680934 51.6356141713252 15.0
vertex 41.1746464530747 50.8275815115373 9.23020964348149
vertex 42.439132586513 50.0975301020101 15.0
endloop
endfacet
facet normal -0.839560099212798 0.484720249281374 0.245326557360591
outer loop
vertex 41.1746464530747 50.8275815115373 9.23020964348149
vertex 43.0762278680934 51.6356141713252 15.0
vertex 41.6658768461311 52.0135165887044 9.23020964348149
endloop
endfacet
facet normal 0.936407614612311 0.250909664121726 0.245326557360599
outer loop
vertex 32.1665752132574 52.0135165887044 9.23020964348149
vertex 30.5389228551174 53.2861816892984 15.0
vertex 30.7562241912951 51.6356141713252 15.0
endloop
endfacet
facet normal 0.969440498562752 8.09180474530033e-015 0.245326557360597
outer loop
vertex 30.5389228551174 53.2861816892984 15.0
vertex 32.1665752132574 52.0135165887044 9.23020964348149
vertex 31.9990256741718 53.2861816892985 9.23020964348149
endloop
endfacet
facet normal 0.969440498562752 5.28951520138107e-015 0.245326557360597
outer loop
vertex 31.9990256741718 53.2861816892985 9.23020964348149
vertex 30.7562241912951 54.9367492072717 15.0
vertex 30.5389228551174 53.2861816892984 15.0
endloop
endfacet
facet normal 0.936407614612316 -0.250909664121715 0.245326557360595
outer loop
vertex 30.7562241912951 54.9367492072717 15.0
vertex 31.9990256741718 53.2861816892985 9.23020964348149
vertex 32.1665752132574 54.5588467898927 9.23020964348149
endloop
endfacet
facet normal 0.839560099212792 0.484720249281383 0.245326557360596
outer loop
vertex 32.6578056063139 50.8275815115373 9.23020964348149
vertex 30.7562241912951 51.6356141713252 15.0
vertex 31.3933194728755 50.0975301020101 15.0
endloop
endfacet
facet normal 0.936407614612311 0.250909664121726 0.245326557360599
outer loop
vertex 30.7562241912951 51.6356141713252 15.0
vertex 32.6578056063139 50.8275815115373 9.23020964348149
vertex 32.1665752132574 52.0135165887044 9.23020964348149
endloop
endfacet
facet normal 2.47300100081088e-015 -0.969440498562756 0.24532655736058
outer loop
vertex 36.9162260296942 59.6634848638753 15.0
vertex 35.6435609291002 58.0358325057354 9.23020964348149
vertex 36.9162260296943 58.2033820448209 9.23020964348149
endloop
endfacet
facet normal 0.250909664121718 -0.936407614612318 0.245326557360581
outer loop
vertex 35.6435609291002 58.0358325057354 9.23020964348149
vertex 36.9162260296942 59.6634848638753 15.0
vertex 35.2656585117211 59.4461835276975 15.0
endloop
endfacet
facet normal -0.839560099212799 -0.484720249281375 0.245326557360585
outer loop
vertex 42.439132586513 56.4748332765868 15.0
vertex 40.3932117455371 56.7631674051414 9.23020964348149
vertex 41.1746464530747 55.7447818670597 9.23020964348149
endloop
endfacet
facet normal -0.685497950490585 -0.6854979504906 0.245326557360582
outer loop
vertex 40.3932117455371 56.7631674051414 9.23020964348149
vertex 42.439132586513 56.4748332765868 15.0
vertex 41.4256603501201 57.7956160097243 15.0
endloop
endfacet
facet normal -0.936407614612318 -0.250909664121712 0.245326557360589
outer loop
vertex 43.0762278680934 54.9367492072717 15.0
vertex 41.8334263852167 53.2861816892986 9.23020964348149
vertex 43.2935292042711 53.2861816892984 15.0
endloop
endfacet
facet normal -0.969440498562754 1.37649595257061e-014 0.24532655736059
outer loop
vertex 41.8334263852167 53.2861816892986 9.23020964348149
vertex 43.0762278680934 54.9367492072717 15.0
vertex 41.6658768461312 54.5588467898926 9.23020964348149
endloop
endfacet
facet normal -0.484720249281379 0.839560099212798 0.245326557360582
outer loop
vertex 40.1048776169827 47.7632751324798 15.0
vertex 40.3932117455371 49.8091959734556 9.23020964348149
vertex 39.3748262074555 49.0277612659182 9.23020964348149
endloop
endfacet
facet normal -0.685497950490575 0.685497950490609 0.245326557360585
outer loop
vertex 40.3932117455371 49.8091959734556 9.23020964348149
vertex 40.1048776169827 47.7632751324798 15.0
vertex 41.4256603501201 48.7767473688727 15.0
endloop
endfacet
facet normal -0.250909664121727 0.936407614612314 0.245326557360588
outer loop
vertex 38.5667935476674 47.1261798508994 15.0
vertex 39.3748262074555 49.0277612659182 9.23020964348149
vertex 38.1888911302884 48.5365308728616 9.23020964348149
endloop
endfacet
facet normal -0.48472024928138 0.839560099212797 0.245326557360582
outer loop
vertex 39.3748262074555 49.0277612659182 9.23020964348149
vertex 38.5667935476674 47.1261798508994 15.0
vertex 40.1048776169827 47.7632751324798 15.0
endloop
endfacet
facet normal 0.250909664121716 -0.936407614612319 0.245326557360581
outer loop
vertex 35.2656585117211 59.4461835276975 15.0
vertex 34.457625851933 57.5446021126788 9.23020964348149
vertex 35.6435609291002 58.0358325057354 9.23020964348149
endloop
endfacet
facet normal 0.484720249281366 -0.839560099212806 0.24532655736058
outer loop
vertex 34.457625851933 57.5446021126788 9.23020964348149
vertex 35.2656585117211 59.4461835276975 15.0
vertex 33.7275744424058 58.8090882461171 15.0
endloop
endfacet
endsolid Eraser
