  0
SECTION
  2
HEADER
  9
$ACADVER
  1
AC1014
  9
$HANDSEED
  5
FFFF
  9
$MEASUREMENT
 70
     1
  0
ENDSEC
  0
SECTION
  2
TABLES
  0
TABLE
  2
VPORT
  5
8
330
0
100
AcDbSymbolTable
 70
     4
  0
VPORT
  5
2E
330
8
100
AcDbSymbolTableRecord
100
AcDbViewportTableRecord
  2
*ACTIVE
 70
     0
 10
0.0
 20
0.0
 11
1.0
 21
1.0
 12
210.0
 22
148.5
 13
0.0
 23
0.0
 14
10.0
 24
10.0
 15
10.0
 25
10.0
 16
0.0
 26
0.0
 36
1.0
 17
0.0
 27
0.0
 37
0.0
 40
341.0
 41
1.24
 42
50.0
 43
0.0
 44
0.0
 50
0.0
 51
0.0
 71
     0
 72
   100
 73
     1
 74
     3
 75
     0
 76
     0
 77
     0
 78
     0
  0
ENDTAB
  0
TABLE
  2
LTYPE
  5
5
330
0
100
AcDbSymbolTable
 70
     1
  0
LTYPE
  5
14
330
5
100
AcDbSymbolTableRecord
100
AcDbLinetypeTableRecord
  2
BYBLOCK
 70
     0
  3

 72
    65
 73
     0
 40
0.0
  0
LTYPE
  5
15
330
5
100
AcDbSymbolTableRecord
100
AcDbLinetypeTableRecord
  2
BYLAYER
 70
     0
  3

 72
    65
 73
     0
 40
0.0
  0
LTYPE
  5
16
330
5
100
AcDbSymbolTableRecord
100
AcDbLinetypeTableRecord
  2
CONTINUOUS
 70
     0
  3
Solid line
 72
    65
 73
     0
 40
0.0
  0
ENDTAB
  0
TABLE
  2
LAYER
  5
2
100
AcDbSymbolTable
 70
2
  0
LAYER
  5
50
100
AcDbSymbolTableRecord
100
AcDbLayerTableRecord
  2
0
 70
0
  6
CONTINUOUS
  0
LAYER
  5
51
100
AcDbSymbolTableRecord
100
AcDbLayerTableRecord
  2
plotclock-5mm
 70
0
  6
CONTINUOUS
  0
ENDTAB
  0
TABLE
  2
STYLE
  5
3
330
0
100
AcDbSymbolTable
 70
     1
  0
STYLE
  5
11
330
3
100
AcDbSymbolTableRecord
100
AcDbTextStyleTableRecord
  2
STANDARD
 70
     0
 40
0.0
 41
1.0
 50
0.0
 71
     0
 42
2.5
  3
txt
  4

  0
ENDTAB
  0
TABLE
  2
VIEW
  5
6
330
0
100
AcDbSymbolTable
 70
     0
  0
ENDTAB
  0
TABLE
  2
UCS
  5
7
330
0
100
AcDbSymbolTable
 70
     0
  0
ENDTAB
  0
TABLE
  2
APPID
  5
9
330
0
100
AcDbSymbolTable
 70
     2
  0
APPID
  5
12
330
9
100
AcDbSymbolTableRecord
100
AcDbRegAppTableRecord
  2
ACAD
 70
     0
  0
ENDTAB
  0
TABLE
  2
DIMSTYLE
  5
A
330
0
100
AcDbSymbolTable
 70
     1
  0
DIMSTYLE
105
27
330
A
100
AcDbSymbolTableRecord
100
AcDbDimStyleTableRecord
  2
ISO-25
 70
     0
  3

  4

  5

  6

  7

 40
1.0
 41
2.5
 42
0.625
 43
3.75
 44
1.25
 45
0.0
 46
0.0
 47
0.0
 48
0.0
140
2.5
141
2.5
142
0.0
143
0.03937007874016
144
1.0
145
0.0
146
1.0
147
0.625
 71
     0
 72
     0
 73
     0
 74
     0
 75
     0
 76
     0
 77
     1
 78
     8
170
     0
171
     3
172
     1
173
     0
174
     0
175
     0
176
     0
177
     0
178
     0
270
     2
271
     2
272
     2
273
     2
274
     3
340
11
275
     0
280
     0
281
     0
282
     0
283
     0
284
     8
285
     0
286
     0
287
     3
288
     0
  0
ENDTAB
  0
TABLE
  2
BLOCK_RECORD
  5
1
330
0
100
AcDbSymbolTable
 70
     1
  0
BLOCK_RECORD
  5
1F
330
1
100
AcDbSymbolTableRecord
100
AcDbBlockTableRecord
  2
*MODEL_SPACE
  0
BLOCK_RECORD
  5
1B
330
1
100
AcDbSymbolTableRecord
100
AcDbBlockTableRecord
  2
*PAPER_SPACE
  0
ENDTAB
  0
ENDSEC
  0
SECTION
  2
BLOCKS
  0
BLOCK
  5
20
330
1F
100
AcDbEntity
  8
0
100
AcDbBlockBegin
  2
*MODEL_SPACE
 70
     0
 10
0.0
 20
0.0
 30
0.0
  3
*MODEL_SPACE
  1

  0
ENDBLK
  5
21
330
1F
100
AcDbEntity
  8
0
100
AcDbBlockEnd
  0
BLOCK
  5
1C
330
1B
100
AcDbEntity
 67
     1
  8
0
100
AcDbBlockBegin
  2
*PAPER_SPACE
  1

  0
ENDBLK
  5
1D
330
1B
100
AcDbEntity
 67
     1
  8
0
100
AcDbBlockEnd
  0
ENDSEC
  0
SECTION
  2
ENTITIES
  0
LINE
  5
100
100
AcDbEntity
  8
plotclock-5mm
 62
1
100
AcDbLine
 10
9.662971
 20
271.545191
 30
0.0
 11
19.276519
 21
271.545191
 31
0.0
  0
LINE
  5
101
100
AcDbEntity
  8
plotclock-5mm
 62
1
100
AcDbLine
 10
19.276519
 20
271.545191
 30
0.0
 11
19.276519
 21
274.942088
 31
0.0
  0
LINE
  5
102
100
AcDbEntity
  8
plotclock-5mm
 62
1
100
AcDbLine
 10
19.276519
 20
274.942229
 30
0.0
 11
19.676569
 21
274.942229
 31
0.0
  0
LINE
  5
103
100
AcDbEntity
  8
plotclock-5mm
 62
1
100
AcDbLine
 10
19.676498
 20
274.942229
 30
0.0
 11
19.676498
 21
271.545332
 31
0.0
  0
LINE
  5
104
100
AcDbEntity
  8
plotclock-5mm
 62
1
100
AcDbLine
 10
19.676498
 20
271.545191
 30
0.0
 11
24.471806
 21
271.545191
 31
0.0
  0
LINE
  5
105
100
AcDbEntity
  8
plotclock-5mm
 62
1
100
AcDbLine
 10
24.471736
 20
271.545191
 30
0.0
 11
27.256916
 21
286.464869
 31
0.0
  0
LINE
  5
106
100
AcDbEntity
  8
plotclock-5mm
 62
1
100
AcDbLine
 10
27.256916
 20
286.464692
 30
0.0
 11
28.865230
 21
288.560898
 31
0.0
  0
LINE
  5
107
100
AcDbEntity
  8
plotclock-5mm
 62
1
100
AcDbLine
 10
28.865266
 20
288.561039
 30
0.0
 11
29.926774
 21
291.123970
 31
0.0
  0
LINE
  5
108
100
AcDbEntity
  8
plotclock-5mm
 62
1
100
AcDbLine
 10
29.926844
 20
291.123829
 30
0.0
 11
30.288794
 21
293.874084
 31
0.0
  0
LINE
  5
109
100
AcDbEntity
  8
plotclock-5mm
 62
1
100
AcDbLine
 10
30.288936
 20
293.874049
 30
0.0
 11
29.926986
 21
296.623952
 31
0.0
  0
LINE
  5
10a
100
AcDbEntity
  8
plotclock-5mm
 62
1
100
AcDbLine
 10
29.926844
 20
296.624093
 30
0.0
 11
28.865336
 21
299.187023
 31
0.0
  0
LINE
  5
10b
100
AcDbEntity
  8
plotclock-5mm
 62
1
100
AcDbLine
 10
28.865266
 20
299.186917
 30
0.0
 11
27.256952
 21
301.283123
 31
0.0
  0
LINE
  5
10c
100
AcDbEntity
  8
plotclock-5mm
 62
1
100
AcDbLine
 10
27.256916
 20
301.283088
 30
0.0
 11
26.463519
 21
300.674193
 31
0.0
  0
LINE
  5
10d
100
AcDbEntity
  8
plotclock-5mm
 62
1
100
AcDbLine
 10
26.463484
 20
300.674334
 30
0.0
 11
26.244762
 21
297.673959
 31
0.0
  0
LINE
  5
10e
100
AcDbEntity
  8
plotclock-5mm
 62
1
100
AcDbLine
 10
26.244726
 20
297.673995
 30
0.0
 11
27.003904
 21
295.840961
 31
0.0
  0
LINE
  5
10f
100
AcDbEntity
  8
plotclock-5mm
 62
1
100
AcDbLine
 10
27.004045
 20
295.841032
 30
0.0
 11
27.262984
 21
293.873943
 31
0.0
  0
LINE
  5
110
100
AcDbEntity
  8
plotclock-5mm
 62
1
100
AcDbLine
 10
27.263125
 20
293.874049
 30
0.0
 11
27.004186
 21
291.906960
 31
0.0
  0
LINE
  5
111
100
AcDbEntity
  8
plotclock-5mm
 62
1
100
AcDbLine
 10
27.004045
 20
291.906889
 30
0.0
 11
26.244867
 21
290.073856
 31
0.0
  0
LINE
  5
112
100
AcDbEntity
  8
plotclock-5mm
 62
1
100
AcDbLine
 10
26.244726
 20
290.073927
 30
0.0
 11
25.037168
 21
288.500185
 31
0.0
  0
LINE
  5
113
100
AcDbEntity
  8
plotclock-5mm
 62
1
100
AcDbLine
 10
25.037062
 20
288.500044
 30
0.0
 11
21.798209
 21
274.258052
 31
0.0
  0
LINE
  5
114
100
AcDbEntity
  8
plotclock-5mm
 62
1
100
AcDbLine
 10
21.798139
 20
274.258193
 30
0.0
 11
21.798139
 21
277.545024
 31
0.0
  0
LINE
  5
115
100
AcDbEntity
  8
plotclock-5mm
 62
1
100
AcDbLine
 10
21.798139
 20
277.545165
 30
0.0
 11
16.658167
 21
277.545165
 31
0.0
  0
LINE
  5
116
100
AcDbEntity
  8
plotclock-5mm
 62
1
100
AcDbLine
 10
16.658237
 20
277.545165
 30
0.0
 11
14.288982
 21
288.499973
 31
0.0
  0
LINE
  5
117
100
AcDbEntity
  8
plotclock-5mm
 62
1
100
AcDbLine
 10
14.289052
 20
288.500044
 30
0.0
 11
13.081141
 21
290.073786
 31
0.0
  0
LINE
  5
118
100
AcDbEntity
  8
plotclock-5mm
 62
1
100
AcDbLine
 10
13.081212
 20
290.073927
 30
0.0
 11
12.322034
 21
291.906960
 31
0.0
  0
LINE
  5
119
100
AcDbEntity
  8
plotclock-5mm
 62
1
100
AcDbLine
 10
12.322069
 20
291.906889
 30
0.0
 11
12.063130
 21
293.873978
 31
0.0
  0
LINE
  5
11a
100
AcDbEntity
  8
plotclock-5mm
 62
1
100
AcDbLine
 10
12.062989
 20
293.874049
 30
0.0
 11
12.321928
 21
295.841138
 31
0.0
  0
LINE
  5
11b
100
AcDbEntity
  8
plotclock-5mm
 62
1
100
AcDbLine
 10
12.322069
 20
295.841032
 30
0.0
 11
13.081247
 21
297.674065
 31
0.0
  0
LINE
  5
11c
100
AcDbEntity
  8
plotclock-5mm
 62
1
100
AcDbLine
 10
13.081212
 20
297.673995
 30
0.0
 11
12.862489
 21
300.674370
 31
0.0
  0
LINE
  5
11d
100
AcDbEntity
  8
plotclock-5mm
 62
1
100
AcDbLine
 10
12.862595
 20
300.674334
 30
0.0
 11
12.069198
 21
301.283229
 31
0.0
  0
LINE
  5
11e
100
AcDbEntity
  8
plotclock-5mm
 62
1
100
AcDbLine
 10
12.069198
 20
301.283088
 30
0.0
 11
10.460531
 21
299.186882
 31
0.0
  0
LINE
  5
11f
100
AcDbEntity
  8
plotclock-5mm
 62
1
100
AcDbLine
 10
10.460672
 20
299.186917
 30
0.0
 11
9.399164
 21
296.623987
 31
0.0
  0
LINE
  5
120
100
AcDbEntity
  8
plotclock-5mm
 62
1
100
AcDbLine
 10
9.399270
 20
296.624093
 30
0.0
 11
9.037320
 21
293.874190
 31
0.0
  0
LINE
  5
121
100
AcDbEntity
  8
plotclock-5mm
 62
1
100
AcDbLine
 10
9.037179
 20
293.874049
 30
0.0
 11
9.399129
 21
291.123793
 31
0.0
  0
LINE
  5
122
100
AcDbEntity
  8
plotclock-5mm
 62
1
100
AcDbLine
 10
9.399270
 20
291.123829
 30
0.0
 11
10.460778
 21
288.560898
 31
0.0
  0
LINE
  5
123
100
AcDbEntity
  8
plotclock-5mm
 62
1
100
AcDbLine
 10
10.460672
 20
288.561039
 30
0.0
 11
12.069339
 21
286.464834
 31
0.0
  0
LINE
  5
124
100
AcDbEntity
  8
plotclock-5mm
 62
1
100
AcDbLine
 10
12.069198
 20
286.464692
 30
0.0
 11
13.348017
 21
277.545059
 31
0.0
  0
LINE
  5
125
100
AcDbEntity
  8
plotclock-5mm
 62
1
100
AcDbLine
 10
13.348017
 20
277.545165
 30
0.0
 11
9.662901
 21
277.545165
 31
0.0
  0
LINE
  5
126
100
AcDbEntity
  8
plotclock-5mm
 62
1
100
AcDbLine
 10
9.662971
 20
277.545165
 30
0.0
 11
9.662971
 21
277.045279
 31
0.0
  0
LINE
  5
127
100
AcDbEntity
  8
plotclock-5mm
 62
1
100
AcDbLine
 10
9.662971
 20
277.045102
 30
0.0
 11
6.662949
 21
277.045102
 31
0.0
  0
LINE
  5
128
100
AcDbEntity
  8
plotclock-5mm
 62
1
100
AcDbLine
 10
6.662984
 20
277.045102
 30
0.0
 11
6.662984
 21
277.745014
 31
0.0
  0
LINE
  5
129
100
AcDbEntity
  8
plotclock-5mm
 62
1
100
AcDbLine
 10
6.662984
 20
277.745155
 30
0.0
 11
4.854646
 21
277.045244
 31
0.0
  0
LINE
  5
12a
100
AcDbEntity
  8
plotclock-5mm
 62
1
100
AcDbLine
 10
4.854469
 20
277.045102
 30
0.0
 11
4.854469
 21
275.045205
 31
0.0
  0
LINE
  5
12b
100
AcDbEntity
  8
plotclock-5mm
 62
1
100
AcDbLine
 10
4.854469
 20
275.045241
 30
0.0
 11
17.554469
 21
275.045241
 31
0.0
  0
LINE
  5
12c
100
AcDbEntity
  8
plotclock-5mm
 62
1
100
AcDbLine
 10
17.554469
 20
275.045241
 30
0.0
 11
17.554469
 21
274.045116
 31
0.0
  0
LINE
  5
12d
100
AcDbEntity
  8
plotclock-5mm
 62
1
100
AcDbLine
 10
17.554469
 20
274.045116
 30
0.0
 11
4.854469
 21
274.045116
 31
0.0
  0
LINE
  5
12e
100
AcDbEntity
  8
plotclock-5mm
 62
1
100
AcDbLine
 10
4.854469
 20
274.045116
 30
0.0
 11
4.854469
 21
272.045218
 31
0.0
  0
LINE
  5
12f
100
AcDbEntity
  8
plotclock-5mm
 62
1
100
AcDbLine
 10
4.854469
 20
272.045254
 30
0.0
 11
6.662808
 21
271.345342
 31
0.0
  0
LINE
  5
130
100
AcDbEntity
  8
plotclock-5mm
 62
1
100
AcDbLine
 10
6.662984
 20
271.345201
 30
0.0
 11
6.662984
 21
272.045113
 31
0.0
  0
LINE
  5
131
100
AcDbEntity
  8
plotclock-5mm
 62
1
100
AcDbLine
 10
6.662984
 20
272.045254
 30
0.0
 11
9.663007
 21
272.045254
 31
0.0
  0
LINE
  5
132
100
AcDbEntity
  8
plotclock-5mm
 62
1
100
AcDbLine
 10
9.662971
 20
272.045254
 30
0.0
 11
9.662971
 21
271.545367
 31
0.0
  0
LINE
  5
133
100
AcDbEntity
  8
plotclock-5mm
 62
1
100
AcDbLine
 10
79.546062
 20
290.351598
 30
0.0
 11
80.788193
 21
289.398040
 31
0.0
  0
LINE
  5
134
100
AcDbEntity
  8
plotclock-5mm
 62
1
100
AcDbLine
 10
80.788334
 20
289.398181
 30
0.0
 11
82.236134
 21
288.798811
 31
0.0
  0
LINE
  5
135
100
AcDbEntity
  8
plotclock-5mm
 62
1
100
AcDbLine
 10
82.235992
 20
288.798741
 30
0.0
 11
83.788920
 21
288.594130
 31
0.0
  0
LINE
  5
136
100
AcDbEntity
  8
plotclock-5mm
 62
1
100
AcDbLine
 10
83.789026
 20
288.594271
 30
0.0
 11
85.341248
 21
288.798882
 31
0.0
  0
LINE
  5
137
100
AcDbEntity
  8
plotclock-5mm
 62
1
100
AcDbLine
 10
85.341389
 20
288.798741
 30
0.0
 11
86.789189
 21
289.398110
 31
0.0
  0
LINE
  5
138
100
AcDbEntity
  8
plotclock-5mm
 62
1
100
AcDbLine
 10
86.789013
 20
289.398181
 30
0.0
 11
88.031144
 21
290.351739
 31
0.0
  0
LINE
  5
139
100
AcDbEntity
  8
plotclock-5mm
 62
1
100
AcDbLine
 10
88.031320
 20
290.351598
 30
0.0
 11
88.984878
 21
291.594081
 31
0.0
  0
LINE
  5
13a
100
AcDbEntity
  8
plotclock-5mm
 62
1
100
AcDbLine
 10
88.984914
 20
291.594258
 30
0.0
 11
89.584283
 21
293.041352
 31
0.0
  0
LINE
  5
13b
100
AcDbEntity
  8
plotclock-5mm
 62
1
100
AcDbLine
 10
89.584354
 20
293.041387
 30
0.0
 11
89.788965
 21
294.594315
 31
0.0
  0
LINE
  5
13c
100
AcDbEntity
  8
plotclock-5mm
 62
1
100
AcDbLine
 10
89.789000
 20
294.594245
 30
0.0
 11
89.584389
 21
296.147172
 31
0.0
  0
LINE
  5
13d
100
AcDbEntity
  8
plotclock-5mm
 62
1
100
AcDbLine
 10
89.584354
 20
296.147314
 30
0.0
 11
88.984984
 21
297.594408
 31
0.0
  0
LINE
  5
13e
100
AcDbEntity
  8
plotclock-5mm
 62
1
100
AcDbLine
 10
88.984914
 20
297.594232
 30
0.0
 11
88.031355
 21
298.836715
 31
0.0
  0
LINE
  5
13f
100
AcDbEntity
  8
plotclock-5mm
 62
1
100
AcDbLine
 10
88.031320
 20
298.836891
 30
0.0
 11
86.789189
 21
299.790450
 31
0.0
  0
LINE
  5
140
100
AcDbEntity
  8
plotclock-5mm
 62
1
100
AcDbLine
 10
86.789013
 20
299.790485
 30
0.0
 11
85.341213
 21
300.389854
 31
0.0
  0
LINE
  5
141
100
AcDbEntity
  8
plotclock-5mm
 62
1
100
AcDbLine
 10
85.341389
 20
300.389925
 30
0.0
 11
83.789167
 21
300.594183
 31
0.0
  0
LINE
  5
142
100
AcDbEntity
  8
plotclock-5mm
 62
1
100
AcDbLine
 10
83.789026
 20
300.594219
 30
0.0
 11
82.236098
 21
300.389960
 31
0.0
  0
LINE
  5
143
100
AcDbEntity
  8
plotclock-5mm
 62
1
100
AcDbLine
 10
82.235992
 20
300.389925
 30
0.0
 11
80.788192
 21
299.790556
 31
0.0
  0
LINE
  5
144
100
AcDbEntity
  8
plotclock-5mm
 62
1
100
AcDbLine
 10
80.788334
 20
299.790485
 30
0.0
 11
79.546203
 21
298.836927
 31
0.0
  0
LINE
  5
145
100
AcDbEntity
  8
plotclock-5mm
 62
1
100
AcDbLine
 10
79.546062
 20
298.836891
 30
0.0
 11
43.031445
 21
298.836891
 31
0.0
  0
LINE
  5
146
100
AcDbEntity
  8
plotclock-5mm
 62
1
100
AcDbLine
 10
43.031481
 20
298.836891
 30
0.0
 11
41.788997
 21
299.790450
 31
0.0
  0
LINE
  5
147
100
AcDbEntity
  8
plotclock-5mm
 62
1
100
AcDbLine
 10
41.788821
 20
299.790485
 30
0.0
 11
40.341726
 21
300.389854
 31
0.0
  0
LINE
  5
148
100
AcDbEntity
  8
plotclock-5mm
 62
1
100
AcDbLine
 10
40.341726
 20
300.389925
 30
0.0
 11
38.788799
 21
300.594183
 31
0.0
  0
LINE
  5
149
100
AcDbEntity
  8
plotclock-5mm
 62
1
100
AcDbLine
 10
38.788834
 20
300.594219
 30
0.0
 11
37.235906
 21
300.389960
 31
0.0
  0
LINE
  5
14a
100
AcDbEntity
  8
plotclock-5mm
 62
1
100
AcDbLine
 10
37.235800
 20
300.389925
 30
0.0
 11
35.788706
 21
299.790556
 31
0.0
  0
LINE
  5
14b
100
AcDbEntity
  8
plotclock-5mm
 62
1
100
AcDbLine
 10
35.788847
 20
299.790485
 30
0.0
 11
34.546364
 21
298.836927
 31
0.0
  0
LINE
  5
14c
100
AcDbEntity
  8
plotclock-5mm
 62
1
100
AcDbLine
 10
34.546222
 20
298.836891
 30
0.0
 11
33.592664
 21
297.594408
 31
0.0
  0
LINE
  5
14d
100
AcDbEntity
  8
plotclock-5mm
 62
1
100
AcDbLine
 10
33.592594
 20
297.594232
 30
0.0
 11
32.993224
 21
296.147137
 31
0.0
  0
LINE
  5
14e
100
AcDbEntity
  8
plotclock-5mm
 62
1
100
AcDbLine
 10
32.993154
 20
296.147314
 30
0.0
 11
32.788895
 21
294.594386
 31
0.0
  0
LINE
  5
14f
100
AcDbEntity
  8
plotclock-5mm
 62
1
100
AcDbLine
 10
32.788860
 20
294.594245
 30
0.0
 11
32.993118
 21
293.041317
 31
0.0
  0
LINE
  5
150
100
AcDbEntity
  8
plotclock-5mm
 62
1
100
AcDbLine
 10
32.993154
 20
293.041387
 30
0.0
 11
33.592523
 21
291.594293
 31
0.0
  0
LINE
  5
151
100
AcDbEntity
  8
plotclock-5mm
 62
1
100
AcDbLine
 10
33.592594
 20
291.594258
 30
0.0
 11
34.546152
 21
290.351774
 31
0.0
  0
LINE
  5
152
100
AcDbEntity
  8
plotclock-5mm
 62
1
100
AcDbLine
 10
34.546222
 20
290.351598
 30
0.0
 11
35.788706
 21
289.398040
 31
0.0
  0
LINE
  5
153
100
AcDbEntity
  8
plotclock-5mm
 62
1
100
AcDbLine
 10
35.788847
 20
289.398181
 30
0.0
 11
37.235941
 21
288.798811
 31
0.0
  0
LINE
  5
154
100
AcDbEntity
  8
plotclock-5mm
 62
1
100
AcDbLine
 10
37.235800
 20
288.798741
 30
0.0
 11
38.788728
 21
288.594130
 31
0.0
  0
LINE
  5
155
100
AcDbEntity
  8
plotclock-5mm
 62
1
100
AcDbLine
 10
38.788834
 20
288.594271
 30
0.0
 11
40.341762
 21
288.798882
 31
0.0
  0
LINE
  5
156
100
AcDbEntity
  8
plotclock-5mm
 62
1
100
AcDbLine
 10
40.341726
 20
288.798741
 30
0.0
 11
41.788821
 21
289.398110
 31
0.0
  0
LINE
  5
157
100
AcDbEntity
  8
plotclock-5mm
 62
1
100
AcDbLine
 10
41.788821
 20
289.398181
 30
0.0
 11
43.031304
 21
290.351739
 31
0.0
  0
LINE
  5
158
100
AcDbEntity
  8
plotclock-5mm
 62
1
100
AcDbLine
 10
43.031481
 20
290.351598
 30
0.0
 11
79.546097
 21
290.351598
 31
0.0
  0
LINE
  5
159
100
AcDbEntity
  8
plotclock-5mm
 62
1
100
AcDbLine
 10
39.661994
 20
295.467581
 30
0.0
 11
39.858139
 21
295.211817
 31
0.0
  0
LINE
  5
15a
100
AcDbEntity
  8
plotclock-5mm
 62
1
100
AcDbLine
 10
39.858209
 20
295.211782
 30
0.0
 11
39.981681
 21
294.914038
 31
0.0
  0
LINE
  5
15b
100
AcDbEntity
  8
plotclock-5mm
 62
1
100
AcDbLine
 10
39.981540
 20
294.913967
 30
0.0
 11
40.023874
 21
294.594351
 31
0.0
  0
LINE
  5
15c
100
AcDbEntity
  8
plotclock-5mm
 62
1
100
AcDbLine
 10
40.023733
 20
294.594245
 30
0.0
 11
39.981399
 21
294.274628
 31
0.0
  0
LINE
  5
15d
100
AcDbEntity
  8
plotclock-5mm
 62
1
100
AcDbLine
 10
39.981540
 20
294.274734
 30
0.0
 11
39.858068
 21
293.976989
 31
0.0
  0
LINE
  5
15e
100
AcDbEntity
  8
plotclock-5mm
 62
1
100
AcDbLine
 10
39.858209
 20
293.976884
 30
0.0
 11
39.662065
 21
293.721120
 31
0.0
  0
LINE
  5
15f
100
AcDbEntity
  8
plotclock-5mm
 62
1
100
AcDbLine
 10
39.661994
 20
293.721084
 30
0.0
 11
39.406230
 21
293.524940
 31
0.0
  0
LINE
  5
160
100
AcDbEntity
  8
plotclock-5mm
 62
1
100
AcDbLine
 10
39.406195
 20
293.524905
 30
0.0
 11
39.108451
 21
293.401432
 31
0.0
  0
LINE
  5
161
100
AcDbEntity
  8
plotclock-5mm
 62
1
100
AcDbLine
 10
39.108380
 20
293.401574
 30
0.0
 11
38.788763
 21
293.359240
 31
0.0
  0
LINE
  5
162
100
AcDbEntity
  8
plotclock-5mm
 62
1
100
AcDbLine
 10
38.788834
 20
293.359346
 30
0.0
 11
38.469217
 21
293.401679
 31
0.0
  0
LINE
  5
163
100
AcDbEntity
  8
plotclock-5mm
 62
1
100
AcDbLine
 10
38.469147
 20
293.401574
 30
0.0
 11
38.171402
 21
293.525046
 31
0.0
  0
LINE
  5
164
100
AcDbEntity
  8
plotclock-5mm
 62
1
100
AcDbLine
 10
38.171296
 20
293.524905
 30
0.0
 11
37.915532
 21
293.721049
 31
0.0
  0
LINE
  5
165
100
AcDbEntity
  8
plotclock-5mm
 62
1
100
AcDbLine
 10
37.915532
 20
293.721084
 30
0.0
 11
37.719388
 21
293.976848
 31
0.0
  0
LINE
  5
166
100
AcDbEntity
  8
plotclock-5mm
 62
1
100
AcDbLine
 10
37.719317
 20
293.976884
 30
0.0
 11
37.595845
 21
294.274628
 31
0.0
  0
LINE
  5
167
100
AcDbEntity
  8
plotclock-5mm
 62
1
100
AcDbLine
 10
37.595986
 20
294.274734
 30
0.0
 11
37.554006
 21
294.594351
 31
0.0
  0
LINE
  5
168
100
AcDbEntity
  8
plotclock-5mm
 62
1
100
AcDbLine
 10
37.553935
 20
294.594245
 30
0.0
 11
37.595916
 21
294.913861
 31
0.0
  0
LINE
  5
169
100
AcDbEntity
  8
plotclock-5mm
 62
1
100
AcDbLine
 10
37.595986
 20
294.913967
 30
0.0
 11
37.719459
 21
295.211712
 31
0.0
  0
LINE
  5
16a
100
AcDbEntity
  8
plotclock-5mm
 62
1
100
AcDbLine
 10
37.719317
 20
295.211782
 30
0.0
 11
37.915462
 21
295.467546
 31
0.0
  0
LINE
  5
16b
100
AcDbEntity
  8
plotclock-5mm
 62
1
100
AcDbLine
 10
37.915532
 20
295.467581
 30
0.0
 11
38.171296
 21
295.663726
 31
0.0
  0
LINE
  5
16c
100
AcDbEntity
  8
plotclock-5mm
 62
1
100
AcDbLine
 10
38.171296
 20
295.663796
 30
0.0
 11
38.469041
 21
295.787269
 31
0.0
  0
LINE
  5
16d
100
AcDbEntity
  8
plotclock-5mm
 62
1
100
AcDbLine
 10
38.469147
 20
295.787127
 30
0.0
 11
38.788763
 21
295.829108
 31
0.0
  0
LINE
  5
16e
100
AcDbEntity
  8
plotclock-5mm
 62
1
100
AcDbLine
 10
38.788834
 20
295.829143
 30
0.0
 11
39.108451
 21
295.787163
 31
0.0
  0
LINE
  5
16f
100
AcDbEntity
  8
plotclock-5mm
 62
1
100
AcDbLine
 10
39.108380
 20
295.787127
 30
0.0
 11
39.406124
 21
295.663655
 31
0.0
  0
LINE
  5
170
100
AcDbEntity
  8
plotclock-5mm
 62
1
100
AcDbLine
 10
39.406195
 20
295.663796
 30
0.0
 11
39.661959
 21
295.467652
 31
0.0
  0
LINE
  5
171
100
AcDbEntity
  8
plotclock-5mm
 62
1
100
AcDbLine
 10
82.718981
 20
295.211782
 30
0.0
 11
82.915478
 21
295.467546
 31
0.0
  0
LINE
  5
172
100
AcDbEntity
  8
plotclock-5mm
 62
1
100
AcDbLine
 10
82.915337
 20
295.467581
 30
0.0
 11
83.171101
 21
295.663726
 31
0.0
  0
LINE
  5
173
100
AcDbEntity
  8
plotclock-5mm
 62
1
100
AcDbLine
 10
83.170995
 20
295.663796
 30
0.0
 11
83.469445
 21
295.787269
 31
0.0
  0
LINE
  5
174
100
AcDbEntity
  8
plotclock-5mm
 62
1
100
AcDbLine
 10
83.469339
 20
295.787127
 30
0.0
 11
83.788956
 21
295.829108
 31
0.0
  0
LINE
  5
175
100
AcDbEntity
  8
plotclock-5mm
 62
1
100
AcDbLine
 10
83.789026
 20
295.829143
 30
0.0
 11
84.107937
 21
295.787163
 31
0.0
  0
LINE
  5
176
100
AcDbEntity
  8
plotclock-5mm
 62
1
100
AcDbLine
 10
84.108043
 20
295.787127
 30
0.0
 11
84.406493
 21
295.663655
 31
0.0
  0
LINE
  5
177
100
AcDbEntity
  8
plotclock-5mm
 62
1
100
AcDbLine
 10
84.406387
 20
295.663796
 30
0.0
 11
84.662151
 21
295.467652
 31
0.0
  0
LINE
  5
178
100
AcDbEntity
  8
plotclock-5mm
 62
1
100
AcDbLine
 10
84.662010
 20
295.467581
 30
0.0
 11
84.858507
 21
295.211817
 31
0.0
  0
LINE
  5
179
100
AcDbEntity
  8
plotclock-5mm
 62
1
100
AcDbLine
 10
84.858401
 20
295.211782
 30
0.0
 11
84.981874
 21
294.914038
 31
0.0
  0
LINE
  5
17a
100
AcDbEntity
  8
plotclock-5mm
 62
1
100
AcDbLine
 10
84.981732
 20
294.913967
 30
0.0
 11
85.023713
 21
294.594351
 31
0.0
  0
LINE
  5
17b
100
AcDbEntity
  8
plotclock-5mm
 62
1
100
AcDbLine
 10
85.023748
 20
294.594245
 30
0.0
 11
84.981768
 21
294.274628
 31
0.0
  0
LINE
  5
17c
100
AcDbEntity
  8
plotclock-5mm
 62
1
100
AcDbLine
 10
84.981732
 20
294.274734
 30
0.0
 11
84.858260
 21
293.976989
 31
0.0
  0
LINE
  5
17d
100
AcDbEntity
  8
plotclock-5mm
 62
1
100
AcDbLine
 10
84.858401
 20
293.976884
 30
0.0
 11
84.661904
 21
293.721120
 31
0.0
  0
LINE
  5
17e
100
AcDbEntity
  8
plotclock-5mm
 62
1
100
AcDbLine
 10
84.662010
 20
293.721084
 30
0.0
 11
84.406246
 21
293.524940
 31
0.0
  0
LINE
  5
17f
100
AcDbEntity
  8
plotclock-5mm
 62
1
100
AcDbLine
 10
84.406387
 20
293.524905
 30
0.0
 11
84.107937
 21
293.401432
 31
0.0
  0
LINE
  5
180
100
AcDbEntity
  8
plotclock-5mm
 62
1
100
AcDbLine
 10
84.108043
 20
293.401574
 30
0.0
 11
83.789132
 21
293.359240
 31
0.0
  0
LINE
  5
181
100
AcDbEntity
  8
plotclock-5mm
 62
1
100
AcDbLine
 10
83.789026
 20
293.359346
 30
0.0
 11
83.469409
 21
293.401679
 31
0.0
  0
LINE
  5
182
100
AcDbEntity
  8
plotclock-5mm
 62
1
100
AcDbLine
 10
83.469339
 20
293.401574
 30
0.0
 11
83.170889
 21
293.525046
 31
0.0
  0
LINE
  5
183
100
AcDbEntity
  8
plotclock-5mm
 62
1
100
AcDbLine
 10
83.170995
 20
293.524905
 30
0.0
 11
82.915231
 21
293.721049
 31
0.0
  0
LINE
  5
184
100
AcDbEntity
  8
plotclock-5mm
 62
1
100
AcDbLine
 10
82.915337
 20
293.721084
 30
0.0
 11
82.718839
 21
293.976848
 31
0.0
  0
LINE
  5
185
100
AcDbEntity
  8
plotclock-5mm
 62
1
100
AcDbLine
 10
82.718981
 20
293.976884
 30
0.0
 11
82.595508
 21
294.274628
 31
0.0
  0
LINE
  5
186
100
AcDbEntity
  8
plotclock-5mm
 62
1
100
AcDbLine
 10
82.595649
 20
294.274734
 30
0.0
 11
82.553669
 21
294.594351
 31
0.0
  0
LINE
  5
187
100
AcDbEntity
  8
plotclock-5mm
 62
1
100
AcDbLine
 10
82.553634
 20
294.594245
 30
0.0
 11
82.595614
 21
294.913861
 31
0.0
  0
LINE
  5
188
100
AcDbEntity
  8
plotclock-5mm
 62
1
100
AcDbLine
 10
82.595649
 20
294.913967
 30
0.0
 11
82.719122
 21
295.211712
 31
0.0
  0
LINE
  5
189
100
AcDbEntity
  8
plotclock-5mm
 62
1
100
AcDbLine
 10
70.046532
 20
275.601606
 30
0.0
 11
71.288663
 21
274.648048
 31
0.0
  0
LINE
  5
18a
100
AcDbEntity
  8
plotclock-5mm
 62
1
100
AcDbLine
 10
71.288839
 20
274.648189
 30
0.0
 11
72.736287
 21
274.048820
 31
0.0
  0
LINE
  5
18b
100
AcDbEntity
  8
plotclock-5mm
 62
1
100
AcDbLine
 10
72.736146
 20
274.048749
 30
0.0
 11
74.288721
 21
273.844138
 31
0.0
  0
LINE
  5
18c
100
AcDbEntity
  8
plotclock-5mm
 62
1
100
AcDbLine
 10
74.288826
 20
273.844279
 30
0.0
 11
75.841754
 21
274.048890
 31
0.0
  0
LINE
  5
18d
100
AcDbEntity
  8
plotclock-5mm
 62
1
100
AcDbLine
 10
75.841895
 20
274.048749
 30
0.0
 11
77.288990
 21
274.648119
 31
0.0
  0
LINE
  5
18e
100
AcDbEntity
  8
plotclock-5mm
 62
1
100
AcDbLine
 10
77.288813
 20
274.648189
 30
0.0
 11
78.531649
 21
275.601747
 31
0.0
  0
LINE
  5
18f
100
AcDbEntity
  8
plotclock-5mm
 62
1
100
AcDbLine
 10
78.531826
 20
275.601606
 30
0.0
 11
79.484679
 21
276.844090
 31
0.0
  0
LINE
  5
190
100
AcDbEntity
  8
plotclock-5mm
 62
1
100
AcDbLine
 10
79.484714
 20
276.844266
 30
0.0
 11
80.084083
 21
278.291361
 31
0.0
  0
LINE
  5
191
100
AcDbEntity
  8
plotclock-5mm
 62
1
100
AcDbLine
 10
80.084189
 20
278.291361
 30
0.0
 11
80.288800
 21
279.844288
 31
0.0
  0
LINE
  5
192
100
AcDbEntity
  8
plotclock-5mm
 62
1
100
AcDbLine
 10
80.288800
 20
279.844253
 30
0.0
 11
80.084189
 21
281.397181
 31
0.0
  0
LINE
  5
193
100
AcDbEntity
  8
plotclock-5mm
 62
1
100
AcDbLine
 10
80.084189
 20
281.397287
 30
0.0
 11
79.484820
 21
282.844381
 31
0.0
  0
LINE
  5
194
100
AcDbEntity
  8
plotclock-5mm
 62
1
100
AcDbLine
 10
79.484714
 20
282.844240
 30
0.0
 11
78.531861
 21
284.086723
 31
0.0
  0
LINE
  5
195
100
AcDbEntity
  8
plotclock-5mm
 62
1
100
AcDbLine
 10
78.531826
 20
284.086864
 30
0.0
 11
77.288990
 21
285.040423
 31
0.0
  0
LINE
  5
196
100
AcDbEntity
  8
plotclock-5mm
 62
1
100
AcDbLine
 10
77.288813
 20
285.040493
 30
0.0
 11
75.841719
 21
285.639863
 31
0.0
  0
LINE
  5
197
100
AcDbEntity
  8
plotclock-5mm
 62
1
100
AcDbLine
 10
75.841895
 20
285.639933
 30
0.0
 11
74.288967
 21
285.844192
 31
0.0
  0
LINE
  5
198
100
AcDbEntity
  8
plotclock-5mm
 62
1
100
AcDbLine
 10
74.288826
 20
285.844227
 30
0.0
 11
72.736251
 21
285.639969
 31
0.0
  0
LINE
  5
199
100
AcDbEntity
  8
plotclock-5mm
 62
1
100
AcDbLine
 10
72.736146
 20
285.639933
 30
0.0
 11
71.288698
 21
285.040564
 31
0.0
  0
LINE
  5
19a
100
AcDbEntity
  8
plotclock-5mm
 62
1
100
AcDbLine
 10
71.288839
 20
285.040493
 30
0.0
 11
70.046709
 21
284.086935
 31
0.0
  0
LINE
  5
19b
100
AcDbEntity
  8
plotclock-5mm
 62
1
100
AcDbLine
 10
70.046532
 20
284.086864
 30
0.0
 11
43.531755
 21
284.086864
 31
0.0
  0
LINE
  5
19c
100
AcDbEntity
  8
plotclock-5mm
 62
1
100
AcDbLine
 10
43.531719
 20
284.086864
 30
0.0
 11
42.289236
 21
285.040423
 31
0.0
  0
LINE
  5
19d
100
AcDbEntity
  8
plotclock-5mm
 62
1
100
AcDbLine
 10
42.289060
 20
285.040493
 30
0.0
 11
40.841965
 21
285.639863
 31
0.0
  0
LINE
  5
19e
100
AcDbEntity
  8
plotclock-5mm
 62
1
100
AcDbLine
 10
40.841965
 20
285.639933
 30
0.0
 11
39.289037
 21
285.844192
 31
0.0
  0
LINE
  5
19f
100
AcDbEntity
  8
plotclock-5mm
 62
1
100
AcDbLine
 10
39.289073
 20
285.844227
 30
0.0
 11
37.736145
 21
285.639969
 31
0.0
  0
LINE
  5
1a0
100
AcDbEntity
  8
plotclock-5mm
 62
1
100
AcDbLine
 10
37.736039
 20
285.639933
 30
0.0
 11
36.288945
 21
285.040564
 31
0.0
  0
LINE
  5
1a1
100
AcDbEntity
  8
plotclock-5mm
 62
1
100
AcDbLine
 10
36.289086
 20
285.040493
 30
0.0
 11
35.046602
 21
284.086935
 31
0.0
  0
LINE
  5
1a2
100
AcDbEntity
  8
plotclock-5mm
 62
1
100
AcDbLine
 10
35.046426
 20
284.086864
 30
0.0
 11
34.092868
 21
282.844381
 31
0.0
  0
LINE
  5
1a3
100
AcDbEntity
  8
plotclock-5mm
 62
1
100
AcDbLine
 10
34.092832
 20
282.844240
 30
0.0
 11
33.493463
 21
281.397146
 31
0.0
  0
LINE
  5
1a4
100
AcDbEntity
  8
plotclock-5mm
 62
1
100
AcDbLine
 10
33.493392
 20
281.397287
 30
0.0
 11
33.289134
 21
279.844359
 31
0.0
  0
LINE
  5
1a5
100
AcDbEntity
  8
plotclock-5mm
 62
1
100
AcDbLine
 10
33.289099
 20
279.844253
 30
0.0
 11
33.493357
 21
278.291325
 31
0.0
  0
LINE
  5
1a6
100
AcDbEntity
  8
plotclock-5mm
 62
1
100
AcDbLine
 10
33.493392
 20
278.291361
 30
0.0
 11
34.092762
 21
276.844266
 31
0.0
  0
LINE
  5
1a7
100
AcDbEntity
  8
plotclock-5mm
 62
1
100
AcDbLine
 10
34.092832
 20
276.844266
 30
0.0
 11
35.046391
 21
275.601783
 31
0.0
  0
LINE
  5
1a8
100
AcDbEntity
  8
plotclock-5mm
 62
1
100
AcDbLine
 10
35.046426
 20
275.601606
 30
0.0
 11
36.288909
 21
274.648048
 31
0.0
  0
LINE
  5
1a9
100
AcDbEntity
  8
plotclock-5mm
 62
1
100
AcDbLine
 10
36.289086
 20
274.648189
 30
0.0
 11
37.736180
 21
274.048820
 31
0.0
  0
LINE
  5
1aa
100
AcDbEntity
  8
plotclock-5mm
 62
1
100
AcDbLine
 10
37.736039
 20
274.048749
 30
0.0
 11
39.288967
 21
273.844138
 31
0.0
  0
LINE
  5
1ab
100
AcDbEntity
  8
plotclock-5mm
 62
1
100
AcDbLine
 10
39.289073
 20
273.844279
 30
0.0
 11
40.842001
 21
274.048890
 31
0.0
  0
LINE
  5
1ac
100
AcDbEntity
  8
plotclock-5mm
 62
1
100
AcDbLine
 10
40.841965
 20
274.048749
 30
0.0
 11
42.289060
 21
274.648119
 31
0.0
  0
LINE
  5
1ad
100
AcDbEntity
  8
plotclock-5mm
 62
1
100
AcDbLine
 10
42.289060
 20
274.648189
 30
0.0
 11
43.531543
 21
275.601747
 31
0.0
  0
LINE
  5
1ae
100
AcDbEntity
  8
plotclock-5mm
 62
1
100
AcDbLine
 10
43.531719
 20
275.601606
 30
0.0
 11
70.046497
 21
275.601606
 31
0.0
  0
LINE
  5
1af
100
AcDbEntity
  8
plotclock-5mm
 62
1
100
AcDbLine
 10
38.219556
 20
280.461791
 30
0.0
 11
38.415701
 21
280.717554
 31
0.0
  0
LINE
  5
1b0
100
AcDbEntity
  8
plotclock-5mm
 62
1
100
AcDbLine
 10
38.415736
 20
280.717590
 30
0.0
 11
38.671500
 21
280.913734
 31
0.0
  0
LINE
  5
1b1
100
AcDbEntity
  8
plotclock-5mm
 62
1
100
AcDbLine
 10
38.671535
 20
280.913769
 30
0.0
 11
38.969280
 21
281.037242
 31
0.0
  0
LINE
  5
1b2
100
AcDbEntity
  8
plotclock-5mm
 62
1
100
AcDbLine
 10
38.969386
 20
281.037101
 30
0.0
 11
39.289002
 21
281.079434
 31
0.0
  0
LINE
  5
1b3
100
AcDbEntity
  8
plotclock-5mm
 62
1
100
AcDbLine
 10
39.289073
 20
281.079328
 30
0.0
 11
39.608689
 21
281.036995
 31
0.0
  0
LINE
  5
1b4
100
AcDbEntity
  8
plotclock-5mm
 62
1
100
AcDbLine
 10
39.608619
 20
281.037101
 30
0.0
 11
39.906363
 21
280.913628
 31
0.0
  0
LINE
  5
1b5
100
AcDbEntity
  8
plotclock-5mm
 62
1
100
AcDbLine
 10
39.906434
 20
280.913769
 30
0.0
 11
40.162198
 21
280.717625
 31
0.0
  0
LINE
  5
1b6
100
AcDbEntity
  8
plotclock-5mm
 62
1
100
AcDbLine
 10
40.162233
 20
280.717590
 30
0.0
 11
40.358377
 21
280.461826
 31
0.0
  0
LINE
  5
1b7
100
AcDbEntity
  8
plotclock-5mm
 62
1
100
AcDbLine
 10
40.358448
 20
280.461791
 30
0.0
 11
40.481920
 21
280.164046
 31
0.0
  0
LINE
  5
1b8
100
AcDbEntity
  8
plotclock-5mm
 62
1
100
AcDbLine
 10
40.481779
 20
280.163940
 30
0.0
 11
40.524112
 21
279.844324
 31
0.0
  0
LINE
  5
1b9
100
AcDbEntity
  8
plotclock-5mm
 62
1
100
AcDbLine
 10
40.523971
 20
279.844253
 30
0.0
 11
40.481638
 21
279.524636
 31
0.0
  0
LINE
  5
1ba
100
AcDbEntity
  8
plotclock-5mm
 62
1
100
AcDbLine
 10
40.481779
 20
279.524707
 30
0.0
 11
40.358307
 21
279.226963
 31
0.0
  0
LINE
  5
1bb
100
AcDbEntity
  8
plotclock-5mm
 62
1
100
AcDbLine
 10
40.358448
 20
279.226892
 30
0.0
 11
40.162304
 21
278.971128
 31
0.0
  0
LINE
  5
1bc
100
AcDbEntity
  8
plotclock-5mm
 62
1
100
AcDbLine
 10
40.162233
 20
278.971093
 30
0.0
 11
39.906469
 21
278.774948
 31
0.0
  0
LINE
  5
1bd
100
AcDbEntity
  8
plotclock-5mm
 62
1
100
AcDbLine
 10
39.906434
 20
278.774878
 30
0.0
 11
39.608689
 21
278.651406
 31
0.0
  0
LINE
  5
1be
100
AcDbEntity
  8
plotclock-5mm
 62
1
100
AcDbLine
 10
39.608619
 20
278.651547
 30
0.0
 11
39.289002
 21
278.609213
 31
0.0
  0
LINE
  5
1bf
100
AcDbEntity
  8
plotclock-5mm
 62
1
100
AcDbLine
 10
39.289073
 20
278.609354
 30
0.0
 11
38.969456
 21
278.651688
 31
0.0
  0
LINE
  5
1c0
100
AcDbEntity
  8
plotclock-5mm
 62
1
100
AcDbLine
 10
38.969386
 20
278.651547
 30
0.0
 11
38.671641
 21
278.775019
 31
0.0
  0
LINE
  5
1c1
100
AcDbEntity
  8
plotclock-5mm
 62
1
100
AcDbLine
 10
38.671535
 20
278.774878
 30
0.0
 11
38.415771
 21
278.971022
 31
0.0
  0
LINE
  5
1c2
100
AcDbEntity
  8
plotclock-5mm
 62
1
100
AcDbLine
 10
38.415736
 20
278.971093
 30
0.0
 11
38.219592
 21
279.226857
 31
0.0
  0
LINE
  5
1c3
100
AcDbEntity
  8
plotclock-5mm
 62
1
100
AcDbLine
 10
38.219556
 20
279.226892
 30
0.0
 11
38.096084
 21
279.524636
 31
0.0
  0
LINE
  5
1c4
100
AcDbEntity
  8
plotclock-5mm
 62
1
100
AcDbLine
 10
38.096225
 20
279.524707
 30
0.0
 11
38.054245
 21
279.844324
 31
0.0
  0
LINE
  5
1c5
100
AcDbEntity
  8
plotclock-5mm
 62
1
100
AcDbLine
 10
38.054174
 20
279.844253
 30
0.0
 11
38.096155
 21
280.163870
 31
0.0
  0
LINE
  5
1c6
100
AcDbEntity
  8
plotclock-5mm
 62
1
100
AcDbLine
 10
38.096225
 20
280.163940
 30
0.0
 11
38.219697
 21
280.461685
 31
0.0
  0
LINE
  5
1c7
100
AcDbEntity
  8
plotclock-5mm
 62
1
100
AcDbLine
 10
74.288826
 20
278.844304
 30
0.0
 11
74.030240
 21
278.878524
 31
0.0
  0
LINE
  5
1c8
100
AcDbEntity
  8
plotclock-5mm
 62
1
100
AcDbLine
 10
74.030099
 20
278.878418
 30
0.0
 11
73.788799
 21
278.978254
 31
0.0
  0
LINE
  5
1c9
100
AcDbEntity
  8
plotclock-5mm
 62
1
100
AcDbLine
 10
73.788940
 20
278.978325
 30
0.0
 11
73.581860
 21
279.137428
 31
0.0
  0
LINE
  5
1ca
100
AcDbEntity
  8
plotclock-5mm
 62
1
100
AcDbLine
 10
73.581895
 20
279.137322
 30
0.0
 11
73.423145
 21
279.344402
 31
0.0
  0
LINE
  5
1cb
100
AcDbEntity
  8
plotclock-5mm
 62
1
100
AcDbLine
 10
73.423074
 20
279.344367
 30
0.0
 11
73.323238
 21
279.585667
 31
0.0
  0
LINE
  5
1cc
100
AcDbEntity
  8
plotclock-5mm
 62
1
100
AcDbLine
 10
73.323168
 20
279.585526
 30
0.0
 11
73.288948
 21
279.844112
 31
0.0
  0
LINE
  5
1cd
100
AcDbEntity
  8
plotclock-5mm
 62
1
100
AcDbLine
 10
73.289054
 20
279.844253
 30
0.0
 11
73.323274
 21
280.103192
 31
0.0
  0
LINE
  5
1ce
100
AcDbEntity
  8
plotclock-5mm
 62
1
100
AcDbLine
 10
73.323168
 20
280.103157
 30
0.0
 11
73.423004
 21
280.344457
 31
0.0
  0
LINE
  5
1cf
100
AcDbEntity
  8
plotclock-5mm
 62
1
100
AcDbLine
 10
73.423074
 20
280.344316
 30
0.0
 11
73.581824
 21
280.551396
 31
0.0
  0
LINE
  5
1d0
100
AcDbEntity
  8
plotclock-5mm
 62
1
100
AcDbLine
 10
73.581895
 20
280.551537
 30
0.0
 11
73.788976
 21
280.710287
 31
0.0
  0
LINE
  5
1d1
100
AcDbEntity
  8
plotclock-5mm
 62
1
100
AcDbLine
 10
73.788940
 20
280.710358
 30
0.0
 11
74.030240
 21
280.810194
 31
0.0
  0
LINE
  5
1d2
100
AcDbEntity
  8
plotclock-5mm
 62
1
100
AcDbLine
 10
74.030099
 20
280.810264
 30
0.0
 11
74.288685
 21
280.844484
 31
0.0
  0
LINE
  5
1d3
100
AcDbEntity
  8
plotclock-5mm
 62
1
100
AcDbLine
 10
74.288826
 20
280.844343
 30
0.0
 11
74.547765
 21
280.810123
 31
0.0
  0
LINE
  5
1d4
100
AcDbEntity
  8
plotclock-5mm
 62
1
100
AcDbLine
 10
74.547906
 20
280.810264
 30
0.0
 11
74.789206
 21
280.710428
 31
0.0
  0
LINE
  5
1d5
100
AcDbEntity
  8
plotclock-5mm
 62
1
100
AcDbLine
 10
74.789065
 20
280.710358
 30
0.0
 11
74.996146
 21
280.551608
 31
0.0
  0
LINE
  5
1d6
100
AcDbEntity
  8
plotclock-5mm
 62
1
100
AcDbLine
 10
74.996111
 20
280.551537
 30
0.0
 11
75.154861
 21
280.344457
 31
0.0
  0
LINE
  5
1d7
100
AcDbEntity
  8
plotclock-5mm
 62
1
100
AcDbLine
 10
75.154931
 20
280.344316
 30
0.0
 11
75.254767
 21
280.103016
 31
0.0
  0
LINE
  5
1d8
100
AcDbEntity
  8
plotclock-5mm
 62
1
100
AcDbLine
 10
75.254838
 20
280.103157
 30
0.0
 11
75.289057
 21
279.844218
 31
0.0
  0
LINE
  5
1d9
100
AcDbEntity
  8
plotclock-5mm
 62
1
100
AcDbLine
 10
75.288951
 20
279.844253
 30
0.0
 11
75.254732
 21
279.585667
 31
0.0
  0
LINE
  5
1da
100
AcDbEntity
  8
plotclock-5mm
 62
1
100
AcDbLine
 10
75.254838
 20
279.585526
 30
0.0
 11
75.155002
 21
279.344226
 31
0.0
  0
LINE
  5
1db
100
AcDbEntity
  8
plotclock-5mm
 62
1
100
AcDbLine
 10
75.154931
 20
279.344367
 30
0.0
 11
74.996181
 21
279.137286
 31
0.0
  0
LINE
  5
1dc
100
AcDbEntity
  8
plotclock-5mm
 62
1
100
AcDbLine
 10
74.996111
 20
279.137322
 30
0.0
 11
74.789030
 21
278.978219
 31
0.0
  0
LINE
  5
1dd
100
AcDbEntity
  8
plotclock-5mm
 62
1
100
AcDbLine
 10
74.789065
 20
278.978325
 30
0.0
 11
74.547765
 21
278.878489
 31
0.0
  0
LINE
  5
1de
100
AcDbEntity
  8
plotclock-5mm
 62
1
100
AcDbLine
 10
74.547906
 20
278.878418
 30
0.0
 11
74.288967
 21
278.844199
 31
0.0
  0
LINE
  5
1df
100
AcDbEntity
  8
plotclock-5mm
 62
1
100
AcDbLine
 10
130.206538
 20
291.006530
 30
0.0
 11
131.448669
 21
290.052972
 31
0.0
  0
LINE
  5
1e0
100
AcDbEntity
  8
plotclock-5mm
 62
1
100
AcDbLine
 10
131.448810
 20
290.052936
 30
0.0
 11
132.896257
 21
289.453567
 31
0.0
  0
LINE
  5
1e1
100
AcDbEntity
  8
plotclock-5mm
 62
1
100
AcDbLine
 10
132.896116
 20
289.453461
 30
0.0
 11
134.448691
 21
289.248850
 31
0.0
  0
LINE
  5
1e2
100
AcDbEntity
  8
plotclock-5mm
 62
1
100
AcDbLine
 10
134.448797
 20
289.249026
 30
0.0
 11
136.001725
 21
289.453637
 31
0.0
  0
LINE
  5
1e3
100
AcDbEntity
  8
plotclock-5mm
 62
1
100
AcDbLine
 10
136.001866
 20
289.453461
 30
0.0
 11
137.448960
 21
290.052831
 31
0.0
  0
LINE
  5
1e4
100
AcDbEntity
  8
plotclock-5mm
 62
1
100
AcDbLine
 10
137.448819
 20
290.052936
 30
0.0
 11
138.691655
 21
291.006495
 31
0.0
  0
LINE
  5
1e5
100
AcDbEntity
  8
plotclock-5mm
 62
1
100
AcDbLine
 10
138.691796
 20
291.006530
 30
0.0
 11
139.644649
 21
292.249013
 31
0.0
  0
LINE
  5
1e6
100
AcDbEntity
  8
plotclock-5mm
 62
1
100
AcDbLine
 10
139.644720
 20
292.249190
 30
0.0
 11
140.244089
 21
293.696284
 31
0.0
  0
LINE
  5
1e7
100
AcDbEntity
  8
plotclock-5mm
 62
1
100
AcDbLine
 10
140.244160
 20
293.696108
 30
0.0
 11
140.448771
 21
295.249036
 31
0.0
  0
LINE
  5
1e8
100
AcDbEntity
  8
plotclock-5mm
 62
1
100
AcDbLine
 10
140.448806
 20
295.249177
 30
0.0
 11
140.244195
 21
296.802104
 31
0.0
  0
LINE
  5
1e9
100
AcDbEntity
  8
plotclock-5mm
 62
1
100
AcDbLine
 10
140.244160
 20
296.802034
 30
0.0
 11
139.644790
 21
298.249128
 31
0.0
  0
LINE
  5
1ea
100
AcDbEntity
  8
plotclock-5mm
 62
1
100
AcDbLine
 10
139.644720
 20
298.249164
 30
0.0
 11
138.691867
 21
299.491647
 31
0.0
  0
LINE
  5
1eb
100
AcDbEntity
  8
plotclock-5mm
 62
1
100
AcDbLine
 10
138.691796
 20
299.491788
 30
0.0
 11
137.448960
 21
300.445346
 31
0.0
  0
LINE
  5
1ec
100
AcDbEntity
  8
plotclock-5mm
 62
1
100
AcDbLine
 10
137.448819
 20
300.445241
 30
0.0
 11
136.001725
 21
301.044610
 31
0.0
  0
LINE
  5
1ed
100
AcDbEntity
  8
plotclock-5mm
 62
1
100
AcDbLine
 10
136.001866
 20
301.044681
 30
0.0
 11
134.448938
 21
301.249292
 31
0.0
  0
LINE
  5
1ee
100
AcDbEntity
  8
plotclock-5mm
 62
1
100
AcDbLine
 10
134.448797
 20
301.249151
 30
0.0
 11
132.896222
 21
301.044539
 31
0.0
  0
LINE
  5
1ef
100
AcDbEntity
  8
plotclock-5mm
 62
1
100
AcDbLine
 10
132.896116
 20
301.044681
 30
0.0
 11
131.448669
 21
300.445311
 31
0.0
  0
LINE
  5
1f0
100
AcDbEntity
  8
plotclock-5mm
 62
1
100
AcDbLine
 10
131.448810
 20
300.445241
 30
0.0
 11
130.206679
 21
299.491682
 31
0.0
  0
LINE
  5
1f1
100
AcDbEntity
  8
plotclock-5mm
 62
1
100
AcDbLine
 10
130.206538
 20
299.491788
 30
0.0
 11
103.691761
 21
299.491788
 31
0.0
  0
LINE
  5
1f2
100
AcDbEntity
  8
plotclock-5mm
 62
1
100
AcDbLine
 10
103.691690
 20
299.491788
 30
0.0
 11
102.449207
 21
300.445346
 31
0.0
  0
LINE
  5
1f3
100
AcDbEntity
  8
plotclock-5mm
 62
1
100
AcDbLine
 10
102.449030
 20
300.445241
 30
0.0
 11
101.001936
 21
301.044610
 31
0.0
  0
LINE
  5
1f4
100
AcDbEntity
  8
plotclock-5mm
 62
1
100
AcDbLine
 10
101.001936
 20
301.044681
 30
0.0
 11
99.449008
 21
301.249292
 31
0.0
  0
LINE
  5
1f5
100
AcDbEntity
  8
plotclock-5mm
 62
1
100
AcDbLine
 10
99.449043
 20
301.249151
 30
0.0
 11
97.896116
 21
301.044539
 31
0.0
  0
LINE
  5
1f6
100
AcDbEntity
  8
plotclock-5mm
 62
1
100
AcDbLine
 10
97.896010
 20
301.044681
 30
0.0
 11
96.448915
 21
300.445311
 31
0.0
  0
LINE
  5
1f7
100
AcDbEntity
  8
plotclock-5mm
 62
1
100
AcDbLine
 10
96.449056
 20
300.445241
 30
0.0
 11
95.206573
 21
299.491682
 31
0.0
  0
LINE
  5
1f8
100
AcDbEntity
  8
plotclock-5mm
 62
1
100
AcDbLine
 10
95.206432
 20
299.491788
 30
0.0
 11
94.252874
 21
298.249305
 31
0.0
  0
LINE
  5
1f9
100
AcDbEntity
  8
plotclock-5mm
 62
1
100
AcDbLine
 10
94.252803
 20
298.249164
 30
0.0
 11
93.653434
 21
296.802069
 31
0.0
  0
LINE
  5
1fa
100
AcDbEntity
  8
plotclock-5mm
 62
1
100
AcDbLine
 10
93.653363
 20
296.802034
 30
0.0
 11
93.449105
 21
295.249106
 31
0.0
  0
LINE
  5
1fb
100
AcDbEntity
  8
plotclock-5mm
 62
1
100
AcDbLine
 10
93.449069
 20
295.249177
 30
0.0
 11
93.653328
 21
293.696249
 31
0.0
  0
LINE
  5
1fc
100
AcDbEntity
  8
plotclock-5mm
 62
1
100
AcDbLine
 10
93.653363
 20
293.696108
 30
0.0
 11
94.252733
 21
292.249013
 31
0.0
  0
LINE
  5
1fd
100
AcDbEntity
  8
plotclock-5mm
 62
1
100
AcDbLine
 10
94.252803
 20
292.249190
 30
0.0
 11
95.206361
 21
291.006706
 31
0.0
  0
LINE
  5
1fe
100
AcDbEntity
  8
plotclock-5mm
 62
1
100
AcDbLine
 10
95.206432
 20
291.006530
 30
0.0
 11
96.448915
 21
290.052972
 31
0.0
  0
LINE
  5
1ff
100
AcDbEntity
  8
plotclock-5mm
 62
1
100
AcDbLine
 10
96.449056
 20
290.052936
 30
0.0
 11
97.896151
 21
289.453567
 31
0.0
  0
LINE
  5
200
100
AcDbEntity
  8
plotclock-5mm
 62
1
100
AcDbLine
 10
97.896010
 20
289.453461
 30
0.0
 11
99.448937
 21
289.248850
 31
0.0
  0
LINE
  5
201
100
AcDbEntity
  8
plotclock-5mm
 62
1
100
AcDbLine
 10
99.449043
 20
289.249026
 30
0.0
 11
101.001971
 21
289.453637
 31
0.0
  0
LINE
  5
202
100
AcDbEntity
  8
plotclock-5mm
 62
1
100
AcDbLine
 10
101.001936
 20
289.453461
 30
0.0
 11
102.449030
 21
290.052831
 31
0.0
  0
LINE
  5
203
100
AcDbEntity
  8
plotclock-5mm
 62
1
100
AcDbLine
 10
102.449030
 20
290.052936
 30
0.0
 11
103.691514
 21
291.006495
 31
0.0
  0
LINE
  5
204
100
AcDbEntity
  8
plotclock-5mm
 62
1
100
AcDbLine
 10
103.691690
 20
291.006530
 30
0.0
 11
130.206468
 21
291.006530
 31
0.0
  0
LINE
  5
205
100
AcDbEntity
  8
plotclock-5mm
 62
1
100
AcDbLine
 10
100.192522
 20
296.536921
 30
0.0
 11
100.500497
 21
296.300560
 31
0.0
  0
LINE
  5
206
100
AcDbEntity
  8
plotclock-5mm
 62
1
100
AcDbLine
 10
100.500497
 20
296.300596
 30
0.0
 11
100.736859
 21
295.992621
 31
0.0
  0
LINE
  5
207
100
AcDbEntity
  8
plotclock-5mm
 62
1
100
AcDbLine
 10
100.736823
 20
295.992621
 30
0.0
 11
100.885343
 21
295.633846
 31
0.0
  0
LINE
  5
208
100
AcDbEntity
  8
plotclock-5mm
 62
1
100
AcDbLine
 10
100.885307
 20
295.633987
 30
0.0
 11
100.936107
 21
295.249106
 31
0.0
  0
LINE
  5
209
100
AcDbEntity
  8
plotclock-5mm
 62
1
100
AcDbLine
 10
100.935966
 20
295.249177
 30
0.0
 11
100.885166
 21
294.864296
 31
0.0
  0
LINE
  5
20a
100
AcDbEntity
  8
plotclock-5mm
 62
1
100
AcDbLine
 10
100.885307
 20
294.864155
 30
0.0
 11
100.736788
 21
294.505380
 31
0.0
  0
LINE
  5
20b
100
AcDbEntity
  8
plotclock-5mm
 62
1
100
AcDbLine
 10
100.736823
 20
294.505521
 30
0.0
 11
100.500462
 21
294.197546
 31
0.0
  0
LINE
  5
20c
100
AcDbEntity
  8
plotclock-5mm
 62
1
100
AcDbLine
 10
100.500497
 20
294.197546
 30
0.0
 11
100.192522
 21
293.961185
 31
0.0
  0
LINE
  5
20d
100
AcDbEntity
  8
plotclock-5mm
 62
1
100
AcDbLine
 10
100.192522
 20
293.961220
 30
0.0
 11
99.833747
 21
293.812701
 31
0.0
  0
LINE
  5
20e
100
AcDbEntity
  8
plotclock-5mm
 62
1
100
AcDbLine
 10
99.833889
 20
293.812736
 30
0.0
 11
99.449008
 21
293.761936
 31
0.0
  0
LINE
  5
20f
100
AcDbEntity
  8
plotclock-5mm
 62
1
100
AcDbLine
 10
99.449043
 20
293.762077
 30
0.0
 11
99.064163
 21
293.812877
 31
0.0
  0
LINE
  5
210
100
AcDbEntity
  8
plotclock-5mm
 62
1
100
AcDbLine
 10
99.064057
 20
293.812736
 30
0.0
 11
98.705282
 21
293.961256
 31
0.0
  0
LINE
  5
211
100
AcDbEntity
  8
plotclock-5mm
 62
1
100
AcDbLine
 10
98.705423
 20
293.961220
 30
0.0
 11
98.397448
 21
294.197581
 31
0.0
  0
LINE
  5
212
100
AcDbEntity
  8
plotclock-5mm
 62
1
100
AcDbLine
 10
98.397448
 20
294.197546
 30
0.0
 11
98.161087
 21
294.505521
 31
0.0
  0
LINE
  5
213
100
AcDbEntity
  8
plotclock-5mm
 62
1
100
AcDbLine
 10
98.161122
 20
294.505521
 30
0.0
 11
98.012603
 21
294.864296
 31
0.0
  0
LINE
  5
214
100
AcDbEntity
  8
plotclock-5mm
 62
1
100
AcDbLine
 10
98.012638
 20
294.864155
 30
0.0
 11
97.961838
 21
295.249036
 31
0.0
  0
LINE
  5
215
100
AcDbEntity
  8
plotclock-5mm
 62
1
100
AcDbLine
 10
97.961979
 20
295.249177
 30
0.0
 11
98.012779
 21
295.634057
 31
0.0
  0
LINE
  5
216
100
AcDbEntity
  8
plotclock-5mm
 62
1
100
AcDbLine
 10
98.012638
 20
295.633987
 30
0.0
 11
98.161157
 21
295.992762
 31
0.0
  0
LINE
  5
217
100
AcDbEntity
  8
plotclock-5mm
 62
1
100
AcDbLine
 10
98.161122
 20
295.992621
 30
0.0
 11
98.397483
 21
296.300596
 31
0.0
  0
LINE
  5
218
100
AcDbEntity
  8
plotclock-5mm
 62
1
100
AcDbLine
 10
98.397448
 20
296.300596
 30
0.0
 11
98.705423
 21
296.536957
 31
0.0
  0
LINE
  5
219
100
AcDbEntity
  8
plotclock-5mm
 62
1
100
AcDbLine
 10
98.705423
 20
296.536921
 30
0.0
 11
99.064198
 21
296.685441
 31
0.0
  0
LINE
  5
21a
100
AcDbEntity
  8
plotclock-5mm
 62
1
100
AcDbLine
 10
99.064057
 20
296.685406
 30
0.0
 11
99.448937
 21
296.736206
 31
0.0
  0
LINE
  5
21b
100
AcDbEntity
  8
plotclock-5mm
 62
1
100
AcDbLine
 10
99.449043
 20
296.736241
 30
0.0
 11
99.833924
 21
296.685441
 31
0.0
  0
LINE
  5
21c
100
AcDbEntity
  8
plotclock-5mm
 62
1
100
AcDbLine
 10
99.833889
 20
296.685406
 30
0.0
 11
100.192664
 21
296.536886
 31
0.0
  0
LINE
  5
21d
100
AcDbEntity
  8
plotclock-5mm
 62
1
100
AcDbLine
 10
134.448797
 20
294.249052
 30
0.0
 11
134.190211
 21
294.283271
 31
0.0
  0
LINE
  5
21e
100
AcDbEntity
  8
plotclock-5mm
 62
1
100
AcDbLine
 10
134.190070
 20
294.283165
 30
0.0
 11
133.948770
 21
294.383001
 31
0.0
  0
LINE
  5
21f
100
AcDbEntity
  8
plotclock-5mm
 62
1
100
AcDbLine
 10
133.948946
 20
294.383072
 30
0.0
 11
133.741866
 21
294.542175
 31
0.0
  0
LINE
  5
220
100
AcDbEntity
  8
plotclock-5mm
 62
1
100
AcDbLine
 10
133.741866
 20
294.542069
 30
0.0
 11
133.583116
 21
294.749149
 31
0.0
  0
LINE
  5
221
100
AcDbEntity
  8
plotclock-5mm
 62
1
100
AcDbLine
 10
133.583045
 20
294.749114
 30
0.0
 11
133.483209
 21
294.990414
 31
0.0
  0
LINE
  5
222
100
AcDbEntity
  8
plotclock-5mm
 62
1
100
AcDbLine
 10
133.483138
 20
294.990273
 30
0.0
 11
133.448919
 21
295.249212
 31
0.0
  0
LINE
  5
223
100
AcDbEntity
  8
plotclock-5mm
 62
1
100
AcDbLine
 10
133.449060
 20
295.249177
 30
0.0
 11
133.483279
 21
295.507763
 31
0.0
  0
LINE
  5
224
100
AcDbEntity
  8
plotclock-5mm
 62
1
100
AcDbLine
 10
133.483138
 20
295.507904
 30
0.0
 11
133.582974
 21
295.749204
 31
0.0
  0
LINE
  5
225
100
AcDbEntity
  8
plotclock-5mm
 62
1
100
AcDbLine
 10
133.583045
 20
295.749063
 30
0.0
 11
133.741795
 21
295.956143
 31
0.0
  0
LINE
  5
226
100
AcDbEntity
  8
plotclock-5mm
 62
1
100
AcDbLine
 10
133.741866
 20
295.956284
 30
0.0
 11
133.948946
 21
296.115034
 31
0.0
  0
LINE
  5
227
100
AcDbEntity
  8
plotclock-5mm
 62
1
100
AcDbLine
 10
133.948946
 20
296.115070
 30
0.0
 11
134.190246
 21
296.214906
 31
0.0
  0
LINE
  5
228
100
AcDbEntity
  8
plotclock-5mm
 62
1
100
AcDbLine
 10
134.190070
 20
296.215012
 30
0.0
 11
134.448656
 21
296.249231
 31
0.0
  0
LINE
  5
229
100
AcDbEntity
  8
plotclock-5mm
 62
1
100
AcDbLine
 10
134.448797
 20
296.249090
 30
0.0
 11
134.707736
 21
296.214871
 31
0.0
  0
LINE
  5
22a
100
AcDbEntity
  8
plotclock-5mm
 62
1
100
AcDbLine
 10
134.707877
 20
296.215012
 30
0.0
 11
134.949177
 21
296.115176
 31
0.0
  0
LINE
  5
22b
100
AcDbEntity
  8
plotclock-5mm
 62
1
100
AcDbLine
 10
134.949036
 20
296.115070
 30
0.0
 11
135.156116
 21
295.956320
 31
0.0
  0
LINE
  5
22c
100
AcDbEntity
  8
plotclock-5mm
 62
1
100
AcDbLine
 10
135.156081
 20
295.956284
 30
0.0
 11
135.314831
 21
295.749204
 31
0.0
  0
LINE
  5
22d
100
AcDbEntity
  8
plotclock-5mm
 62
1
100
AcDbLine
 10
135.314902
 20
295.749063
 30
0.0
 11
135.414738
 21
295.507763
 31
0.0
  0
LINE
  5
22e
100
AcDbEntity
  8
plotclock-5mm
 62
1
100
AcDbLine
 10
135.414808
 20
295.507904
 30
0.0
 11
135.449028
 21
295.249318
 31
0.0
  0
LINE
  5
22f
100
AcDbEntity
  8
plotclock-5mm
 62
1
100
AcDbLine
 10
135.448922
 20
295.249177
 30
0.0
 11
135.414703
 21
294.990238
 31
0.0
  0
LINE
  5
230
100
AcDbEntity
  8
plotclock-5mm
 62
1
100
AcDbLine
 10
135.414808
 20
294.990273
 30
0.0
 11
135.314972
 21
294.748973
 31
0.0
  0
LINE
  5
231
100
AcDbEntity
  8
plotclock-5mm
 62
1
100
AcDbLine
 10
135.314902
 20
294.749114
 30
0.0
 11
135.156152
 21
294.542034
 31
0.0
  0
LINE
  5
232
100
AcDbEntity
  8
plotclock-5mm
 62
1
100
AcDbLine
 10
135.156081
 20
294.542069
 30
0.0
 11
134.949001
 21
294.382966
 31
0.0
  0
LINE
  5
233
100
AcDbEntity
  8
plotclock-5mm
 62
1
100
AcDbLine
 10
134.949036
 20
294.383072
 30
0.0
 11
134.707736
 21
294.283236
 31
0.0
  0
LINE
  5
234
100
AcDbEntity
  8
plotclock-5mm
 62
1
100
AcDbLine
 10
134.707877
 20
294.283165
 30
0.0
 11
134.448938
 21
294.248946
 31
0.0
  0
LINE
  5
235
100
AcDbEntity
  8
plotclock-5mm
 62
1
100
AcDbLine
 10
13.054506
 20
256.844447
 30
0.0
 11
9.554598
 21
256.844447
 31
0.0
  0
LINE
  5
236
100
AcDbEntity
  8
plotclock-5mm
 62
1
100
AcDbLine
 10
9.554457
 20
256.844447
 30
0.0
 11
9.554457
 21
266.844286
 31
0.0
  0
LINE
  5
237
100
AcDbEntity
  8
plotclock-5mm
 62
1
100
AcDbLine
 10
9.554457
 20
266.844180
 30
0.0
 11
5.554663
 21
266.844180
 31
0.0
  0
LINE
  5
238
100
AcDbEntity
  8
plotclock-5mm
 62
1
100
AcDbLine
 10
5.554521
 20
266.844180
 30
0.0
 11
5.554521
 21
239.344447
 31
0.0
  0
LINE
  5
239
100
AcDbEntity
  8
plotclock-5mm
 62
1
100
AcDbLine
 10
5.554521
 20
239.344376
 30
0.0
 11
5.673760
 21
238.438443
 31
0.0
  0
LINE
  5
23a
100
AcDbEntity
  8
plotclock-5mm
 62
1
100
AcDbLine
 10
5.673725
 20
238.438337
 30
0.0
 11
6.023328
 21
237.594140
 31
0.0
  0
LINE
  5
23b
100
AcDbEntity
  8
plotclock-5mm
 62
1
100
AcDbLine
 10
6.023398
 20
237.594281
 30
0.0
 11
6.579729
 21
236.869323
 31
0.0
  0
LINE
  5
23c
100
AcDbEntity
  8
plotclock-5mm
 62
1
100
AcDbLine
 10
6.579623
 20
236.869429
 30
0.0
 11
7.304581
 21
236.313451
 31
0.0
  0
LINE
  5
23d
100
AcDbEntity
  8
plotclock-5mm
 62
1
100
AcDbLine
 10
7.304476
 20
236.313380
 30
0.0
 11
8.148673
 21
235.963777
 31
0.0
  0
LINE
  5
23e
100
AcDbEntity
  8
plotclock-5mm
 62
1
100
AcDbLine
 10
8.148673
 20
235.963707
 30
0.0
 11
9.054606
 21
235.844115
 31
0.0
  0
LINE
  5
23f
100
AcDbEntity
  8
plotclock-5mm
 62
1
100
AcDbLine
 10
9.054571
 20
235.844186
 30
0.0
 11
23.554443
 21
237.577383
 31
0.0
  0
LINE
  5
240
100
AcDbEntity
  8
plotclock-5mm
 62
1
100
AcDbLine
 10
23.554478
 20
237.577418
 30
0.0
 11
23.554478
 21
250.317635
 31
0.0
  0
LINE
  5
241
100
AcDbEntity
  8
plotclock-5mm
 62
1
100
AcDbLine
 10
23.554478
 20
250.317706
 30
0.0
 11
26.554501
 21
250.317706
 31
0.0
  0
LINE
  5
242
100
AcDbEntity
  8
plotclock-5mm
 62
1
100
AcDbLine
 10
26.554465
 20
250.317706
 30
0.0
 11
27.330929
 21
250.420011
 31
0.0
  0
LINE
  5
243
100
AcDbEntity
  8
plotclock-5mm
 62
1
100
AcDbLine
 10
27.330964
 20
250.420046
 30
0.0
 11
28.054512
 21
250.719907
 31
0.0
  0
LINE
  5
244
100
AcDbEntity
  8
plotclock-5mm
 62
1
100
AcDbLine
 10
28.054441
 20
250.719766
 30
0.0
 11
28.675683
 21
251.196722
 31
0.0
  0
LINE
  5
245
100
AcDbEntity
  8
plotclock-5mm
 62
1
100
AcDbLine
 10
28.675753
 20
251.196546
 30
0.0
 11
29.152709
 21
251.817787
 31
0.0
  0
LINE
  5
246
100
AcDbEntity
  8
plotclock-5mm
 62
1
100
AcDbLine
 10
29.152568
 20
251.817717
 30
0.0
 11
29.452429
 21
252.541264
 31
0.0
  0
LINE
  5
247
100
AcDbEntity
  8
plotclock-5mm
 62
1
100
AcDbLine
 10
29.452288
 20
252.541158
 30
0.0
 11
29.554593
 21
253.317622
 31
0.0
  0
LINE
  5
248
100
AcDbEntity
  8
plotclock-5mm
 62
1
100
AcDbLine
 10
29.554452
 20
253.317692
 30
0.0
 11
29.452147
 21
254.094156
 31
0.0
  0
LINE
  5
249
100
AcDbEntity
  8
plotclock-5mm
 62
1
100
AcDbLine
 10
29.452288
 20
254.094227
 30
0.0
 11
29.152427
 21
254.817774
 31
0.0
  0
LINE
  5
24a
100
AcDbEntity
  8
plotclock-5mm
 62
1
100
AcDbLine
 10
29.152568
 20
254.817704
 30
0.0
 11
28.675612
 21
255.439298
 31
0.0
  0
LINE
  5
24b
100
AcDbEntity
  8
plotclock-5mm
 62
1
100
AcDbLine
 10
28.675753
 20
255.439192
 30
0.0
 11
28.054512
 21
255.916148
 31
0.0
  0
LINE
  5
24c
100
AcDbEntity
  8
plotclock-5mm
 62
1
100
AcDbLine
 10
28.054441
 20
255.916007
 30
0.0
 11
27.330894
 21
256.215515
 31
0.0
  0
LINE
  5
24d
100
AcDbEntity
  8
plotclock-5mm
 62
1
100
AcDbLine
 10
27.330964
 20
256.215374
 30
0.0
 11
26.554501
 21
256.317679
 31
0.0
  0
LINE
  5
24e
100
AcDbEntity
  8
plotclock-5mm
 62
1
100
AcDbLine
 10
26.554465
 20
256.317679
 30
0.0
 11
23.554443
 21
256.317679
 31
0.0
  0
LINE
  5
24f
100
AcDbEntity
  8
plotclock-5mm
 62
1
100
AcDbLine
 10
23.554478
 20
256.317679
 30
0.0
 11
23.554478
 21
266.844568
 31
0.0
  0
LINE
  5
250
100
AcDbEntity
  8
plotclock-5mm
 62
1
100
AcDbLine
 10
23.554478
 20
266.844533
 30
0.0
 11
19.554331
 21
266.844180
 31
0.0
  0
LINE
  5
251
100
AcDbEntity
  8
plotclock-5mm
 62
1
100
AcDbLine
 10
19.554366
 20
266.844180
 30
0.0
 11
19.554366
 21
256.844341
 31
0.0
  0
LINE
  5
252
100
AcDbEntity
  8
plotclock-5mm
 62
1
100
AcDbLine
 10
19.554543
 20
256.844447
 30
0.0
 11
16.054634
 21
256.844447
 31
0.0
  0
LINE
  5
253
100
AcDbEntity
  8
plotclock-5mm
 62
1
100
AcDbLine
 10
16.054493
 20
256.844447
 30
0.0
 11
16.054493
 21
253.844425
 31
0.0
  0
LINE
  5
254
100
AcDbEntity
  8
plotclock-5mm
 62
1
100
AcDbLine
 10
16.054493
 20
253.844460
 30
0.0
 11
17.304385
 21
253.844460
 31
0.0
  0
LINE
  5
255
100
AcDbEntity
  8
plotclock-5mm
 62
1
100
AcDbLine
 10
17.304526
 20
253.844460
 30
0.0
 11
17.304526
 21
251.144299
 31
0.0
  0
LINE
  5
256
100
AcDbEntity
  8
plotclock-5mm
 62
1
100
AcDbLine
 10
17.304526
 20
251.144193
 30
0.0
 11
16.054634
 21
251.144193
 31
0.0
  0
LINE
  5
257
100
AcDbEntity
  8
plotclock-5mm
 62
1
100
AcDbLine
 10
16.054493
 20
251.144193
 30
0.0
 11
16.054493
 21
248.544221
 31
0.0
  0
LINE
  5
258
100
AcDbEntity
  8
plotclock-5mm
 62
1
100
AcDbLine
 10
16.054493
 20
248.544186
 30
0.0
 11
13.054471
 21
248.544186
 31
0.0
  0
LINE
  5
259
100
AcDbEntity
  8
plotclock-5mm
 62
1
100
AcDbLine
 10
13.054506
 20
248.544186
 30
0.0
 11
13.054506
 21
251.144158
 31
0.0
  0
LINE
  5
25a
100
AcDbEntity
  8
plotclock-5mm
 62
1
100
AcDbLine
 10
13.054506
 20
251.144193
 30
0.0
 11
11.804615
 21
251.144193
 31
0.0
  0
LINE
  5
25b
100
AcDbEntity
  8
plotclock-5mm
 62
1
100
AcDbLine
 10
11.804438
 20
251.144193
 30
0.0
 11
11.804438
 21
253.844354
 31
0.0
  0
LINE
  5
25c
100
AcDbEntity
  8
plotclock-5mm
 62
1
100
AcDbLine
 10
11.804438
 20
253.844460
 30
0.0
 11
13.054330
 21
253.844460
 31
0.0
  0
LINE
  5
25d
100
AcDbEntity
  8
plotclock-5mm
 62
1
100
AcDbLine
 10
13.054506
 20
253.844460
 30
0.0
 11
13.054506
 21
256.844482
 31
0.0
  0
LINE
  5
25e
100
AcDbEntity
  8
plotclock-5mm
 62
1
100
AcDbLine
 10
7.755431
 20
238.594406
 30
0.0
 11
7.605501
 21
238.956003
 31
0.0
  0
LINE
  5
25f
100
AcDbEntity
  8
plotclock-5mm
 62
1
100
AcDbLine
 10
7.605571
 20
238.956144
 30
0.0
 11
7.554419
 21
239.344553
 31
0.0
  0
LINE
  5
260
100
AcDbEntity
  8
plotclock-5mm
 62
1
100
AcDbLine
 10
7.554595
 20
239.344376
 30
0.0
 11
7.605748
 21
239.732785
 31
0.0
  0
LINE
  5
261
100
AcDbEntity
  8
plotclock-5mm
 62
1
100
AcDbLine
 10
7.605571
 20
239.732644
 30
0.0
 11
7.755502
 21
240.094241
 31
0.0
  0
LINE
  5
262
100
AcDbEntity
  8
plotclock-5mm
 62
1
100
AcDbLine
 10
7.755431
 20
240.094382
 30
0.0
 11
7.993909
 21
240.405179
 31
0.0
  0
LINE
  5
263
100
AcDbEntity
  8
plotclock-5mm
 62
1
100
AcDbLine
 10
7.993839
 20
240.405144
 30
0.0
 11
8.304636
 21
240.643269
 31
0.0
  0
LINE
  5
264
100
AcDbEntity
  8
plotclock-5mm
 62
1
100
AcDbLine
 10
8.304565
 20
240.643198
 30
0.0
 11
8.666163
 21
240.793129
 31
0.0
  0
LINE
  5
265
100
AcDbEntity
  8
plotclock-5mm
 62
1
100
AcDbLine
 10
8.666304
 20
240.793058
 30
0.0
 11
9.054712
 21
240.844564
 31
0.0
  0
LINE
  5
266
100
AcDbEntity
  8
plotclock-5mm
 62
1
100
AcDbLine
 10
9.054571
 20
240.844387
 30
0.0
 11
9.442626
 21
240.792882
 31
0.0
  0
LINE
  5
267
100
AcDbEntity
  8
plotclock-5mm
 62
1
100
AcDbLine
 10
9.442662
 20
240.793058
 30
0.0
 11
9.804612
 21
240.643128
 31
0.0
  0
LINE
  5
268
100
AcDbEntity
  8
plotclock-5mm
 62
1
100
AcDbLine
 10
9.804576
 20
240.643198
 30
0.0
 11
10.115021
 21
240.405073
 31
0.0
  0
LINE
  5
269
100
AcDbEntity
  8
plotclock-5mm
 62
1
100
AcDbLine
 10
10.115162
 20
240.405144
 30
0.0
 11
10.353640
 21
240.094347
 31
0.0
  0
LINE
  5
26a
100
AcDbEntity
  8
plotclock-5mm
 62
1
100
AcDbLine
 10
10.353534
 20
240.094382
 30
0.0
 11
10.503464
 21
239.732785
 31
0.0
  0
LINE
  5
26b
100
AcDbEntity
  8
plotclock-5mm
 62
1
100
AcDbLine
 10
10.503394
 20
239.732644
 30
0.0
 11
10.554547
 21
239.344235
 31
0.0
  0
LINE
  5
26c
100
AcDbEntity
  8
plotclock-5mm
 62
1
100
AcDbLine
 10
10.554582
 20
239.344376
 30
0.0
 11
10.503429
 21
238.955968
 31
0.0
  0
LINE
  5
26d
100
AcDbEntity
  8
plotclock-5mm
 62
1
100
AcDbLine
 10
10.503394
 20
238.956144
 30
0.0
 11
10.353463
 21
238.594547
 31
0.0
  0
LINE
  5
26e
100
AcDbEntity
  8
plotclock-5mm
 62
1
100
AcDbLine
 10
10.353534
 20
238.594406
 30
0.0
 11
10.115056
 21
238.283609
 31
0.0
  0
LINE
  5
26f
100
AcDbEntity
  8
plotclock-5mm
 62
1
100
AcDbLine
 10
10.115162
 20
238.283644
 30
0.0
 11
9.804717
 21
238.045166
 31
0.0
  0
LINE
  5
270
100
AcDbEntity
  8
plotclock-5mm
 62
1
100
AcDbLine
 10
9.804576
 20
238.045237
 30
0.0
 11
9.442626
 21
237.895306
 31
0.0
  0
LINE
  5
271
100
AcDbEntity
  8
plotclock-5mm
 62
1
100
AcDbLine
 10
9.442662
 20
237.895377
 30
0.0
 11
9.054606
 21
237.844224
 31
0.0
  0
LINE
  5
272
100
AcDbEntity
  8
plotclock-5mm
 62
1
100
AcDbLine
 10
9.054571
 20
237.844401
 30
0.0
 11
8.666163
 21
237.895553
 31
0.0
  0
LINE
  5
273
100
AcDbEntity
  8
plotclock-5mm
 62
1
100
AcDbLine
 10
8.666304
 20
237.895377
 30
0.0
 11
8.304706
 21
238.045307
 31
0.0
  0
LINE
  5
274
100
AcDbEntity
  8
plotclock-5mm
 62
1
100
AcDbLine
 10
8.304565
 20
238.045237
 30
0.0
 11
7.993768
 21
238.283715
 31
0.0
  0
LINE
  5
275
100
AcDbEntity
  8
plotclock-5mm
 62
1
100
AcDbLine
 10
7.993839
 20
238.283644
 30
0.0
 11
7.755361
 21
238.594441
 31
0.0
  0
LINE
  5
276
100
AcDbEntity
  8
plotclock-5mm
 62
1
100
AcDbLine
 10
25.804460
 20
254.616832
 30
0.0
 11
26.166057
 21
254.766762
 31
0.0
  0
LINE
  5
277
100
AcDbEntity
  8
plotclock-5mm
 62
1
100
AcDbLine
 10
26.166198
 20
254.766692
 30
0.0
 11
26.554606
 21
254.817845
 31
0.0
  0
LINE
  5
278
100
AcDbEntity
  8
plotclock-5mm
 62
1
100
AcDbLine
 10
26.554465
 20
254.817704
 30
0.0
 11
26.942874
 21
254.766551
 31
0.0
  0
LINE
  5
279
100
AcDbEntity
  8
plotclock-5mm
 62
1
100
AcDbLine
 10
26.942697
 20
254.766692
 30
0.0
 11
27.304294
 21
254.616761
 31
0.0
  0
LINE
  5
27a
100
AcDbEntity
  8
plotclock-5mm
 62
1
100
AcDbLine
 10
27.304436
 20
254.616832
 30
0.0
 11
27.615233
 21
254.378354
 31
0.0
  0
LINE
  5
27b
100
AcDbEntity
  8
plotclock-5mm
 62
1
100
AcDbLine
 10
27.615198
 20
254.378460
 30
0.0
 11
27.853675
 21
254.067663
 31
0.0
  0
LINE
  5
27c
100
AcDbEntity
  8
plotclock-5mm
 62
1
100
AcDbLine
 10
27.853605
 20
254.067698
 30
0.0
 11
28.003535
 21
253.706101
 31
0.0
  0
LINE
  5
27d
100
AcDbEntity
  8
plotclock-5mm
 62
1
100
AcDbLine
 10
28.003465
 20
253.705960
 30
0.0
 11
28.054617
 21
253.317551
 31
0.0
  0
LINE
  5
27e
100
AcDbEntity
  8
plotclock-5mm
 62
1
100
AcDbLine
 10
28.054441
 20
253.317692
 30
0.0
 11
28.003288
 21
252.929284
 31
0.0
  0
LINE
  5
27f
100
AcDbEntity
  8
plotclock-5mm
 62
1
100
AcDbLine
 10
28.003465
 20
252.929425
 30
0.0
 11
27.853534
 21
252.567828
 31
0.0
  0
LINE
  5
280
100
AcDbEntity
  8
plotclock-5mm
 62
1
100
AcDbLine
 10
27.853605
 20
252.567687
 30
0.0
 11
27.615127
 21
252.256890
 31
0.0
  0
LINE
  5
281
100
AcDbEntity
  8
plotclock-5mm
 62
1
100
AcDbLine
 10
27.615198
 20
252.256960
 30
0.0
 11
27.304400
 21
252.018482
 31
0.0
  0
LINE
  5
282
100
AcDbEntity
  8
plotclock-5mm
 62
1
100
AcDbLine
 10
27.304436
 20
252.018553
 30
0.0
 11
26.942838
 21
251.868622
 31
0.0
  0
LINE
  5
283
100
AcDbEntity
  8
plotclock-5mm
 62
1
100
AcDbLine
 10
26.942697
 20
251.868693
 30
0.0
 11
26.554289
 21
251.817540
 31
0.0
  0
LINE
  5
284
100
AcDbEntity
  8
plotclock-5mm
 62
1
100
AcDbLine
 10
26.554465
 20
251.817717
 30
0.0
 11
26.166057
 21
251.868869
 31
0.0
  0
LINE
  5
285
100
AcDbEntity
  8
plotclock-5mm
 62
1
100
AcDbLine
 10
26.166198
 20
251.868693
 30
0.0
 11
25.804601
 21
252.018624
 31
0.0
  0
LINE
  5
286
100
AcDbEntity
  8
plotclock-5mm
 62
1
100
AcDbLine
 10
25.804460
 20
252.018553
 30
0.0
 11
25.494015
 21
252.257031
 31
0.0
  0
LINE
  5
287
100
AcDbEntity
  8
plotclock-5mm
 62
1
100
AcDbLine
 10
25.493874
 20
252.256960
 30
0.0
 11
25.255396
 21
252.567757
 31
0.0
  0
LINE
  5
288
100
AcDbEntity
  8
plotclock-5mm
 62
1
100
AcDbLine
 10
25.255467
 20
252.567687
 30
0.0
 11
25.105536
 21
252.929284
 31
0.0
  0
LINE
  5
289
100
AcDbEntity
  8
plotclock-5mm
 62
1
100
AcDbLine
 10
25.105607
 20
252.929425
 30
0.0
 11
25.054454
 21
253.317834
 31
0.0
  0
LINE
  5
28a
100
AcDbEntity
  8
plotclock-5mm
 62
1
100
AcDbLine
 10
25.054454
 20
253.317692
 30
0.0
 11
25.105607
 21
253.706101
 31
0.0
  0
LINE
  5
28b
100
AcDbEntity
  8
plotclock-5mm
 62
1
100
AcDbLine
 10
25.105607
 20
253.705960
 30
0.0
 11
25.255537
 21
254.067557
 31
0.0
  0
LINE
  5
28c
100
AcDbEntity
  8
plotclock-5mm
 62
1
100
AcDbLine
 10
25.255467
 20
254.067698
 30
0.0
 11
25.493945
 21
254.378495
 31
0.0
  0
LINE
  5
28d
100
AcDbEntity
  8
plotclock-5mm
 62
1
100
AcDbLine
 10
25.493874
 20
254.378460
 30
0.0
 11
25.804319
 21
254.616938
 31
0.0
  0
LINE
  5
28e
100
AcDbEntity
  8
plotclock-5mm
 62
1
100
AcDbLine
 10
68.189792
 20
263.577176
 30
0.0
 11
69.035048
 21
263.687948
 31
0.0
  0
LINE
  5
28f
100
AcDbEntity
  8
plotclock-5mm
 62
1
100
AcDbLine
 10
69.035224
 20
263.688124
 30
0.0
 11
69.823330
 21
264.014797
 31
0.0
  0
LINE
  5
290
100
AcDbEntity
  8
plotclock-5mm
 62
1
100
AcDbLine
 10
69.823471
 20
264.014726
 30
0.0
 11
70.500099
 21
264.534368
 31
0.0
  0
LINE
  5
291
100
AcDbEntity
  8
plotclock-5mm
 62
1
100
AcDbLine
 10
70.500099
 20
264.534227
 30
0.0
 11
71.019388
 21
265.210854
 31
0.0
  0
LINE
  5
292
100
AcDbEntity
  8
plotclock-5mm
 62
1
100
AcDbLine
 10
71.019282
 20
265.210854
 30
0.0
 11
71.345601
 21
265.998254
 31
0.0
  0
LINE
  5
293
100
AcDbEntity
  8
plotclock-5mm
 62
1
100
AcDbLine
 10
71.345531
 20
265.998396
 30
0.0
 11
71.457009
 21
266.844357
 31
0.0
  0
LINE
  5
294
100
AcDbEntity
  8
plotclock-5mm
 62
1
100
AcDbLine
 10
71.457150
 20
266.844533
 30
0.0
 11
71.345672
 21
267.689789
 31
0.0
  0
LINE
  5
295
100
AcDbEntity
  8
plotclock-5mm
 62
1
100
AcDbLine
 10
71.345531
 20
267.689965
 30
0.0
 11
71.019211
 21
268.478071
 31
0.0
  0
LINE
  5
296
100
AcDbEntity
  8
plotclock-5mm
 62
1
100
AcDbLine
 10
71.019282
 20
268.478176
 30
0.0
 11
70.499993
 21
269.154804
 31
0.0
  0
LINE
  5
297
100
AcDbEntity
  8
plotclock-5mm
 62
1
100
AcDbLine
 10
70.500099
 20
269.154804
 30
0.0
 11
69.823471
 21
269.673740
 31
0.0
  0
LINE
  5
298
100
AcDbEntity
  8
plotclock-5mm
 62
1
100
AcDbLine
 10
69.823471
 20
269.673634
 30
0.0
 11
69.035366
 21
270.000307
 31
0.0
  0
LINE
  5
299
100
AcDbEntity
  8
plotclock-5mm
 62
1
100
AcDbLine
 10
69.035224
 20
270.000236
 30
0.0
 11
68.189969
 21
270.111714
 31
0.0
  0
LINE
  5
29a
100
AcDbEntity
  8
plotclock-5mm
 62
1
100
AcDbLine
 10
68.189792
 20
270.111855
 30
0.0
 11
40.189467
 21
270.111855
 31
0.0
  0
LINE
  5
29b
100
AcDbEntity
  8
plotclock-5mm
 62
1
100
AcDbLine
 10
40.189609
 20
270.111855
 30
0.0
 11
39.344000
 21
270.000377
 31
0.0
  0
LINE
  5
29c
100
AcDbEntity
  8
plotclock-5mm
 62
1
100
AcDbLine
 10
39.344036
 20
270.000236
 30
0.0
 11
38.555930
 21
269.673564
 31
0.0
  0
LINE
  5
29d
100
AcDbEntity
  8
plotclock-5mm
 62
1
100
AcDbLine
 10
38.555965
 20
269.673634
 30
0.0
 11
37.879337
 21
269.154698
 31
0.0
  0
LINE
  5
29e
100
AcDbEntity
  8
plotclock-5mm
 62
1
100
AcDbLine
 10
37.879337
 20
269.154804
 30
0.0
 11
37.360049
 21
268.478176
 31
0.0
  0
LINE
  5
29f
100
AcDbEntity
  8
plotclock-5mm
 62
1
100
AcDbLine
 10
37.360154
 20
268.478176
 30
0.0
 11
37.033835
 21
267.690071
 31
0.0
  0
LINE
  5
2a0
100
AcDbEntity
  8
plotclock-5mm
 62
1
100
AcDbLine
 10
37.033729
 20
267.689965
 30
0.0
 11
36.922604
 21
266.844709
 31
0.0
  0
LINE
  5
2a1
100
AcDbEntity
  8
plotclock-5mm
 62
1
100
AcDbLine
 10
36.922463
 20
266.844533
 30
0.0
 11
37.033588
 21
265.998572
 31
0.0
  0
LINE
  5
2a2
100
AcDbEntity
  8
plotclock-5mm
 62
1
100
AcDbLine
 10
37.033729
 20
265.998396
 30
0.0
 11
37.360049
 21
265.210996
 31
0.0
  0
LINE
  5
2a3
100
AcDbEntity
  8
plotclock-5mm
 62
1
100
AcDbLine
 10
37.360154
 20
265.210854
 30
0.0
 11
37.879443
 21
264.534227
 31
0.0
  0
LINE
  5
2a4
100
AcDbEntity
  8
plotclock-5mm
 62
1
100
AcDbLine
 10
37.879337
 20
264.534227
 30
0.0
 11
38.555965
 21
264.014585
 31
0.0
  0
LINE
  5
2a5
100
AcDbEntity
  8
plotclock-5mm
 62
1
100
AcDbLine
 10
38.555965
 20
264.014726
 30
0.0
 11
39.344071
 21
263.688054
 31
0.0
  0
LINE
  5
2a6
100
AcDbEntity
  8
plotclock-5mm
 62
1
100
AcDbLine
 10
39.344036
 20
263.688124
 30
0.0
 11
40.189644
 21
263.577352
 31
0.0
  0
LINE
  5
2a7
100
AcDbEntity
  8
plotclock-5mm
 62
1
100
AcDbLine
 10
40.189609
 20
263.577176
 30
0.0
 11
68.189934
 21
263.577176
 31
0.0
  0
LINE
  5
2a8
100
AcDbEntity
  8
plotclock-5mm
 62
1
100
AcDbLine
 10
66.982305
 20
266.520683
 30
0.0
 11
66.939619
 21
266.844533
 31
0.0
  0
LINE
  5
2a9
100
AcDbEntity
  8
plotclock-5mm
 62
1
100
AcDbLine
 10
66.939583
 20
266.844533
 30
0.0
 11
66.982269
 21
267.167677
 31
0.0
  0
LINE
  5
2aa
100
AcDbEntity
  8
plotclock-5mm
 62
1
100
AcDbLine
 10
66.982305
 20
267.167677
 30
0.0
 11
67.107188
 21
267.469302
 31
0.0
  0
LINE
  5
2ab
100
AcDbEntity
  8
plotclock-5mm
 62
1
100
AcDbLine
 10
67.107012
 20
267.469479
 30
0.0
 11
67.305626
 21
267.727712
 31
0.0
  0
LINE
  5
2ac
100
AcDbEntity
  8
plotclock-5mm
 62
1
100
AcDbLine
 10
67.305802
 20
267.727853
 30
0.0
 11
67.564741
 21
267.926820
 31
0.0
  0
LINE
  5
2ad
100
AcDbEntity
  8
plotclock-5mm
 62
1
100
AcDbLine
 10
67.564882
 20
267.926961
 30
0.0
 11
67.866154
 21
268.051844
 31
0.0
  0
LINE
  5
2ae
100
AcDbEntity
  8
plotclock-5mm
 62
1
100
AcDbLine
 10
67.865978
 20
268.051668
 30
0.0
 11
68.189828
 21
268.094354
 31
0.0
  0
LINE
  5
2af
100
AcDbEntity
  8
plotclock-5mm
 62
1
100
AcDbLine
 10
68.189792
 20
268.094389
 30
0.0
 11
68.512937
 21
268.051703
 31
0.0
  0
LINE
  5
2b0
100
AcDbEntity
  8
plotclock-5mm
 62
1
100
AcDbLine
 10
68.512972
 20
268.051668
 30
0.0
 11
68.814597
 21
267.926785
 31
0.0
  0
LINE
  5
2b1
100
AcDbEntity
  8
plotclock-5mm
 62
1
100
AcDbLine
 10
68.814738
 20
267.926961
 30
0.0
 11
69.073324
 21
267.727994
 31
0.0
  0
LINE
  5
2b2
100
AcDbEntity
  8
plotclock-5mm
 62
1
100
AcDbLine
 10
69.073466
 20
267.727853
 30
0.0
 11
69.272079
 21
267.469620
 31
0.0
  0
LINE
  5
2b3
100
AcDbEntity
  8
plotclock-5mm
 62
1
100
AcDbLine
 10
69.272256
 20
267.469479
 30
0.0
 11
69.397139
 21
267.167854
 31
0.0
  0
LINE
  5
2b4
100
AcDbEntity
  8
plotclock-5mm
 62
1
100
AcDbLine
 10
69.396963
 20
267.167677
 30
0.0
 11
69.439649
 21
266.844533
 31
0.0
  0
LINE
  5
2b5
100
AcDbEntity
  8
plotclock-5mm
 62
1
100
AcDbLine
 10
69.439684
 20
266.844533
 30
0.0
 11
69.396998
 21
266.520683
 31
0.0
  0
LINE
  5
2b6
100
AcDbEntity
  8
plotclock-5mm
 62
1
100
AcDbLine
 10
69.396963
 20
266.520683
 30
0.0
 11
69.272079
 21
266.219411
 31
0.0
  0
LINE
  5
2b7
100
AcDbEntity
  8
plotclock-5mm
 62
1
100
AcDbLine
 10
69.272256
 20
266.219587
 30
0.0
 11
69.073642
 21
265.960648
 31
0.0
  0
LINE
  5
2b8
100
AcDbEntity
  8
plotclock-5mm
 62
1
100
AcDbLine
 10
69.073466
 20
265.960507
 30
0.0
 11
68.814879
 21
265.761893
 31
0.0
  0
LINE
  5
2b9
100
AcDbEntity
  8
plotclock-5mm
 62
1
100
AcDbLine
 10
68.814738
 20
265.762070
 30
0.0
 11
68.513113
 21
265.636834
 31
0.0
  0
LINE
  5
2ba
100
AcDbEntity
  8
plotclock-5mm
 62
1
100
AcDbLine
 10
68.512972
 20
265.636657
 30
0.0
 11
68.189828
 21
265.593971
 31
0.0
  0
LINE
  5
2bb
100
AcDbEntity
  8
plotclock-5mm
 62
1
100
AcDbLine
 10
68.189792
 20
265.593936
 30
0.0
 11
67.865943
 21
265.636622
 31
0.0
  0
LINE
  5
2bc
100
AcDbEntity
  8
plotclock-5mm
 62
1
100
AcDbLine
 10
67.865978
 20
265.636657
 30
0.0
 11
67.564706
 21
265.761893
 31
0.0
  0
LINE
  5
2bd
100
AcDbEntity
  8
plotclock-5mm
 62
1
100
AcDbLine
 10
67.564882
 20
265.762070
 30
0.0
 11
67.305943
 21
265.960684
 31
0.0
  0
LINE
  5
2be
100
AcDbEntity
  8
plotclock-5mm
 62
1
100
AcDbLine
 10
67.305802
 20
265.960507
 30
0.0
 11
67.107188
 21
266.219446
 31
0.0
  0
LINE
  5
2bf
100
AcDbEntity
  8
plotclock-5mm
 62
1
100
AcDbLine
 10
67.107012
 20
266.219587
 30
0.0
 11
66.982128
 21
266.520859
 31
0.0
  0
LINE
  5
2c0
100
AcDbEntity
  8
plotclock-5mm
 62
1
100
AcDbLine
 10
38.982297
 20
266.520683
 30
0.0
 11
38.939611
 21
266.844533
 31
0.0
  0
LINE
  5
2c1
100
AcDbEntity
  8
plotclock-5mm
 62
1
100
AcDbLine
 10
38.939576
 20
266.844533
 30
0.0
 11
38.982262
 21
267.167677
 31
0.0
  0
LINE
  5
2c2
100
AcDbEntity
  8
plotclock-5mm
 62
1
100
AcDbLine
 10
38.982297
 20
267.167677
 30
0.0
 11
39.107181
 21
267.469302
 31
0.0
  0
LINE
  5
2c3
100
AcDbEntity
  8
plotclock-5mm
 62
1
100
AcDbLine
 10
39.107181
 20
267.469479
 30
0.0
 11
39.305794
 21
267.727712
 31
0.0
  0
LINE
  5
2c4
100
AcDbEntity
  8
plotclock-5mm
 62
1
100
AcDbLine
 10
39.305794
 20
267.727853
 30
0.0
 11
39.564733
 21
267.926820
 31
0.0
  0
LINE
  5
2c5
100
AcDbEntity
  8
plotclock-5mm
 62
1
100
AcDbLine
 10
39.564698
 20
267.926961
 30
0.0
 11
39.865970
 21
268.051844
 31
0.0
  0
LINE
  5
2c6
100
AcDbEntity
  8
plotclock-5mm
 62
1
100
AcDbLine
 10
39.866111
 20
268.051668
 30
0.0
 11
40.189609
 21
268.094354
 31
0.0
  0
LINE
  5
2c7
100
AcDbEntity
  8
plotclock-5mm
 62
1
100
AcDbLine
 10
40.189609
 20
268.094389
 30
0.0
 11
40.513106
 21
268.051703
 31
0.0
  0
LINE
  5
2c8
100
AcDbEntity
  8
plotclock-5mm
 62
1
100
AcDbLine
 10
40.513106
 20
268.051668
 30
0.0
 11
40.814731
 21
267.926785
 31
0.0
  0
LINE
  5
2c9
100
AcDbEntity
  8
plotclock-5mm
 62
1
100
AcDbLine
 10
40.814731
 20
267.926961
 30
0.0
 11
41.073317
 21
267.727994
 31
0.0
  0
LINE
  5
2ca
100
AcDbEntity
  8
plotclock-5mm
 62
1
100
AcDbLine
 10
41.073458
 20
267.727853
 30
0.0
 11
41.272072
 21
267.469620
 31
0.0
  0
LINE
  5
2cb
100
AcDbEntity
  8
plotclock-5mm
 62
1
100
AcDbLine
 10
41.272248
 20
267.469479
 30
0.0
 11
41.397132
 21
267.167854
 31
0.0
  0
LINE
  5
2cc
100
AcDbEntity
  8
plotclock-5mm
 62
1
100
AcDbLine
 10
41.397132
 20
267.167677
 30
0.0
 11
41.439818
 21
266.844533
 31
0.0
  0
LINE
  5
2cd
100
AcDbEntity
  8
plotclock-5mm
 62
1
100
AcDbLine
 10
41.439677
 20
266.844533
 30
0.0
 11
41.396991
 21
266.520683
 31
0.0
  0
LINE
  5
2ce
100
AcDbEntity
  8
plotclock-5mm
 62
1
100
AcDbLine
 10
41.397132
 20
266.520683
 30
0.0
 11
41.272248
 21
266.219411
 31
0.0
  0
LINE
  5
2cf
100
AcDbEntity
  8
plotclock-5mm
 62
1
100
AcDbLine
 10
41.272248
 20
266.219587
 30
0.0
 11
41.073634
 21
265.960648
 31
0.0
  0
LINE
  5
2d0
100
AcDbEntity
  8
plotclock-5mm
 62
1
100
AcDbLine
 10
41.073458
 20
265.960507
 30
0.0
 11
40.814872
 21
265.761893
 31
0.0
  0
LINE
  5
2d1
100
AcDbEntity
  8
plotclock-5mm
 62
1
100
AcDbLine
 10
40.814731
 20
265.762070
 30
0.0
 11
40.513106
 21
265.636834
 31
0.0
  0
LINE
  5
2d2
100
AcDbEntity
  8
plotclock-5mm
 62
1
100
AcDbLine
 10
40.513106
 20
265.636657
 30
0.0
 11
40.189609
 21
265.593971
 31
0.0
  0
LINE
  5
2d3
100
AcDbEntity
  8
plotclock-5mm
 62
1
100
AcDbLine
 10
40.189609
 20
265.593936
 30
0.0
 11
39.866111
 21
265.636622
 31
0.0
  0
LINE
  5
2d4
100
AcDbEntity
  8
plotclock-5mm
 62
1
100
AcDbLine
 10
39.866111
 20
265.636657
 30
0.0
 11
39.564839
 21
265.761893
 31
0.0
  0
LINE
  5
2d5
100
AcDbEntity
  8
plotclock-5mm
 62
1
100
AcDbLine
 10
39.564698
 20
265.762070
 30
0.0
 11
39.305759
 21
265.960684
 31
0.0
  0
LINE
  5
2d6
100
AcDbEntity
  8
plotclock-5mm
 62
1
100
AcDbLine
 10
39.305794
 20
265.960507
 30
0.0
 11
39.107181
 21
266.219446
 31
0.0
  0
LINE
  5
2d7
100
AcDbEntity
  8
plotclock-5mm
 62
1
100
AcDbLine
 10
39.107181
 20
266.219587
 30
0.0
 11
38.982297
 21
266.520859
 31
0.0
  0
LINE
  5
2d8
100
AcDbEntity
  8
plotclock-5mm
 62
1
100
AcDbLine
 10
115.948989
 20
195.796676
 30
0.0
 11
115.948989
 21
183.796587
 31
0.0
  0
LINE
  5
2d9
100
AcDbEntity
  8
plotclock-5mm
 62
1
100
AcDbLine
 10
115.948989
 20
183.796693
 30
0.0
 11
121.448795
 21
183.796693
 31
0.0
  0
LINE
  5
2da
100
AcDbEntity
  8
plotclock-5mm
 62
1
100
AcDbLine
 10
121.448901
 20
183.796693
 30
0.0
 11
121.448901
 21
198.796804
 31
0.0
  0
LINE
  5
2db
100
AcDbEntity
  8
plotclock-5mm
 62
1
100
AcDbLine
 10
121.448901
 20
198.796663
 30
0.0
 11
87.175481
 21
198.796663
 31
0.0
  0
LINE
  5
2dc
100
AcDbEntity
  8
plotclock-5mm
 62
1
100
AcDbLine
 10
87.175552
 20
198.796663
 30
0.0
 11
86.949068
 21
198.796663
 31
0.0
  0
LINE
  5
2dd
100
AcDbEntity
  8
plotclock-5mm
 62
1
100
AcDbLine
 10
86.949033
 20
198.796663
 30
0.0
 11
86.949033
 21
183.796552
 31
0.0
  0
LINE
  5
2de
100
AcDbEntity
  8
plotclock-5mm
 62
1
100
AcDbLine
 10
86.949033
 20
183.796693
 30
0.0
 11
92.949077
 21
183.796693
 31
0.0
  0
LINE
  5
2df
100
AcDbEntity
  8
plotclock-5mm
 62
1
100
AcDbLine
 10
92.949007
 20
183.796693
 30
0.0
 11
92.949007
 21
195.796782
 31
0.0
  0
LINE
  5
2e0
100
AcDbEntity
  8
plotclock-5mm
 62
1
100
AcDbLine
 10
92.949007
 20
195.796676
 30
0.0
 11
115.949060
 21
195.796676
 31
0.0
  0
LINE
  5
2e1
100
AcDbEntity
  8
plotclock-5mm
 62
1
100
AcDbLine
 10
117.474471
 20
189.603062
 30
0.0
 11
117.449071
 21
189.796737
 31
0.0
  0
LINE
  5
2e2
100
AcDbEntity
  8
plotclock-5mm
 62
1
100
AcDbLine
 10
117.449000
 20
189.796667
 30
0.0
 11
117.474400
 21
189.991048
 31
0.0
  0
LINE
  5
2e3
100
AcDbEntity
  8
plotclock-5mm
 62
1
100
AcDbLine
 10
117.474471
 20
189.990977
 30
0.0
 11
117.549260
 21
190.172305
 31
0.0
  0
LINE
  5
2e4
100
AcDbEntity
  8
plotclock-5mm
 62
1
100
AcDbLine
 10
117.549401
 20
190.172199
 30
0.0
 11
117.668640
 21
190.327068
 31
0.0
  0
LINE
  5
2e5
100
AcDbEntity
  8
plotclock-5mm
 62
1
100
AcDbLine
 10
117.668604
 20
190.327245
 30
0.0
 11
117.823827
 21
190.446484
 31
0.0
  0
LINE
  5
2e6
100
AcDbEntity
  8
plotclock-5mm
 62
1
100
AcDbLine
 10
117.824003
 20
190.446413
 30
0.0
 11
118.004978
 21
190.521555
 31
0.0
  0
LINE
  5
2e7
100
AcDbEntity
  8
plotclock-5mm
 62
1
100
AcDbLine
 10
118.004872
 20
190.521519
 30
0.0
 11
118.198900
 21
190.546919
 31
0.0
  0
LINE
  5
2e8
100
AcDbEntity
  8
plotclock-5mm
 62
1
100
AcDbLine
 10
118.198971
 20
190.547025
 30
0.0
 11
118.392998
 21
190.521625
 31
0.0
  0
LINE
  5
2e9
100
AcDbEntity
  8
plotclock-5mm
 62
1
100
AcDbLine
 10
118.393104
 20
190.521519
 30
0.0
 11
118.574079
 21
190.446378
 31
0.0
  0
LINE
  5
2ea
100
AcDbEntity
  8
plotclock-5mm
 62
1
100
AcDbLine
 10
118.573973
 20
190.446413
 30
0.0
 11
118.729196
 21
190.327174
 31
0.0
  0
LINE
  5
2eb
100
AcDbEntity
  8
plotclock-5mm
 62
1
100
AcDbLine
 10
118.729372
 20
190.327245
 30
0.0
 11
118.848611
 21
190.172375
 31
0.0
  0
LINE
  5
2ec
100
AcDbEntity
  8
plotclock-5mm
 62
1
100
AcDbLine
 10
118.848576
 20
190.172199
 30
0.0
 11
118.923364
 21
189.990871
 31
0.0
  0
LINE
  5
2ed
100
AcDbEntity
  8
plotclock-5mm
 62
1
100
AcDbLine
 10
118.923506
 20
189.990977
 30
0.0
 11
118.948906
 21
189.796596
 31
0.0
  0
LINE
  5
2ee
100
AcDbEntity
  8
plotclock-5mm
 62
1
100
AcDbLine
 10
118.948976
 20
189.796667
 30
0.0
 11
118.923576
 21
189.602992
 31
0.0
  0
LINE
  5
2ef
100
AcDbEntity
  8
plotclock-5mm
 62
1
100
AcDbLine
 10
118.923506
 20
189.603062
 30
0.0
 11
118.848717
 21
189.421735
 31
0.0
  0
LINE
  5
2f0
100
AcDbEntity
  8
plotclock-5mm
 62
1
100
AcDbLine
 10
118.848576
 20
189.421841
 30
0.0
 11
118.729337
 21
189.266971
 31
0.0
  0
LINE
  5
2f1
100
AcDbEntity
  8
plotclock-5mm
 62
1
100
AcDbLine
 10
118.729372
 20
189.266830
 30
0.0
 11
118.574150
 21
189.147591
 31
0.0
  0
LINE
  5
2f2
100
AcDbEntity
  8
plotclock-5mm
 62
1
100
AcDbLine
 10
118.573973
 20
189.147626
 30
0.0
 11
118.392998
 21
189.072485
 31
0.0
  0
LINE
  5
2f3
100
AcDbEntity
  8
plotclock-5mm
 62
1
100
AcDbLine
 10
118.393104
 20
189.072520
 30
0.0
 11
118.199076
 21
189.047120
 31
0.0
  0
LINE
  5
2f4
100
AcDbEntity
  8
plotclock-5mm
 62
1
100
AcDbLine
 10
118.198971
 20
189.047014
 30
0.0
 11
118.004943
 21
189.072414
 31
0.0
  0
LINE
  5
2f5
100
AcDbEntity
  8
plotclock-5mm
 62
1
100
AcDbLine
 10
118.004872
 20
189.072520
 30
0.0
 11
117.823897
 21
189.147662
 31
0.0
  0
LINE
  5
2f6
100
AcDbEntity
  8
plotclock-5mm
 62
1
100
AcDbLine
 10
117.824003
 20
189.147626
 30
0.0
 11
117.668781
 21
189.266865
 31
0.0
  0
LINE
  5
2f7
100
AcDbEntity
  8
plotclock-5mm
 62
1
100
AcDbLine
 10
117.668604
 20
189.266830
 30
0.0
 11
117.549366
 21
189.421699
 31
0.0
  0
LINE
  5
2f8
100
AcDbEntity
  8
plotclock-5mm
 62
1
100
AcDbLine
 10
117.549401
 20
189.421841
 30
0.0
 11
117.474612
 21
189.603168
 31
0.0
  0
LINE
  5
2f9
100
AcDbEntity
  8
plotclock-5mm
 62
1
100
AcDbLine
 10
90.168659
 20
189.266830
 30
0.0
 11
90.049421
 21
189.421699
 31
0.0
  0
LINE
  5
2fa
100
AcDbEntity
  8
plotclock-5mm
 62
1
100
AcDbLine
 10
90.049456
 20
189.421841
 30
0.0
 11
89.974667
 21
189.603168
 31
0.0
  0
LINE
  5
2fb
100
AcDbEntity
  8
plotclock-5mm
 62
1
100
AcDbLine
 10
89.974526
 20
189.603062
 30
0.0
 11
89.949126
 21
189.796737
 31
0.0
  0
LINE
  5
2fc
100
AcDbEntity
  8
plotclock-5mm
 62
1
100
AcDbLine
 10
89.949020
 20
189.796667
 30
0.0
 11
89.974420
 21
189.991048
 31
0.0
  0
LINE
  5
2fd
100
AcDbEntity
  8
plotclock-5mm
 62
1
100
AcDbLine
 10
89.974526
 20
189.990977
 30
0.0
 11
90.049315
 21
190.172305
 31
0.0
  0
LINE
  5
2fe
100
AcDbEntity
  8
plotclock-5mm
 62
1
100
AcDbLine
 10
90.049456
 20
190.172199
 30
0.0
 11
90.168695
 21
190.327068
 31
0.0
  0
LINE
  5
2ff
100
AcDbEntity
  8
plotclock-5mm
 62
1
100
AcDbLine
 10
90.168659
 20
190.327245
 30
0.0
 11
90.323882
 21
190.446484
 31
0.0
  0
LINE
  5
300
100
AcDbEntity
  8
plotclock-5mm
 62
1
100
AcDbLine
 10
90.324023
 20
190.446413
 30
0.0
 11
90.504998
 21
190.521555
 31
0.0
  0
LINE
  5
301
100
AcDbEntity
  8
plotclock-5mm
 62
1
100
AcDbLine
 10
90.504892
 20
190.521519
 30
0.0
 11
90.698920
 21
190.546919
 31
0.0
  0
LINE
  5
302
100
AcDbEntity
  8
plotclock-5mm
 62
1
100
AcDbLine
 10
90.699026
 20
190.547025
 30
0.0
 11
90.893053
 21
190.521625
 31
0.0
  0
LINE
  5
303
100
AcDbEntity
  8
plotclock-5mm
 62
1
100
AcDbLine
 10
90.893159
 20
190.521519
 30
0.0
 11
91.074134
 21
190.446378
 31
0.0
  0
LINE
  5
304
100
AcDbEntity
  8
plotclock-5mm
 62
1
100
AcDbLine
 10
91.074028
 20
190.446413
 30
0.0
 11
91.229251
 21
190.327174
 31
0.0
  0
LINE
  5
305
100
AcDbEntity
  8
plotclock-5mm
 62
1
100
AcDbLine
 10
91.229215
 20
190.327245
 30
0.0
 11
91.348454
 21
190.172375
 31
0.0
  0
LINE
  5
306
100
AcDbEntity
  8
plotclock-5mm
 62
1
100
AcDbLine
 10
91.348419
 20
190.172199
 30
0.0
 11
91.423208
 21
189.990871
 31
0.0
  0
LINE
  5
307
100
AcDbEntity
  8
plotclock-5mm
 62
1
100
AcDbLine
 10
91.423349
 20
189.990977
 30
0.0
 11
91.449102
 21
189.796596
 31
0.0
  0
LINE
  5
308
100
AcDbEntity
  8
plotclock-5mm
 62
1
100
AcDbLine
 10
91.449031
 20
189.796667
 30
0.0
 11
91.423278
 21
189.602992
 31
0.0
  0
LINE
  5
309
100
AcDbEntity
  8
plotclock-5mm
 62
1
100
AcDbLine
 10
91.423349
 20
189.603062
 30
0.0
 11
91.348560
 21
189.421735
 31
0.0
  0
LINE
  5
30a
100
AcDbEntity
  8
plotclock-5mm
 62
1
100
AcDbLine
 10
91.348419
 20
189.421841
 30
0.0
 11
91.229180
 21
189.266971
 31
0.0
  0
LINE
  5
30b
100
AcDbEntity
  8
plotclock-5mm
 62
1
100
AcDbLine
 10
91.229215
 20
189.266830
 30
0.0
 11
91.073993
 21
189.147591
 31
0.0
  0
LINE
  5
30c
100
AcDbEntity
  8
plotclock-5mm
 62
1
100
AcDbLine
 10
91.074028
 20
189.147626
 30
0.0
 11
90.893053
 21
189.072485
 31
0.0
  0
LINE
  5
30d
100
AcDbEntity
  8
plotclock-5mm
 62
1
100
AcDbLine
 10
90.893159
 20
189.072520
 30
0.0
 11
90.699131
 21
189.047120
 31
0.0
  0
LINE
  5
30e
100
AcDbEntity
  8
plotclock-5mm
 62
1
100
AcDbLine
 10
90.699026
 20
189.047014
 30
0.0
 11
90.504998
 21
189.072414
 31
0.0
  0
LINE
  5
30f
100
AcDbEntity
  8
plotclock-5mm
 62
1
100
AcDbLine
 10
90.504892
 20
189.072520
 30
0.0
 11
90.323917
 21
189.147662
 31
0.0
  0
LINE
  5
310
100
AcDbEntity
  8
plotclock-5mm
 62
1
100
AcDbLine
 10
90.324023
 20
189.147626
 30
0.0
 11
90.168801
 21
189.266865
 31
0.0
  0
LINE
  5
311
100
AcDbEntity
  8
plotclock-5mm
 62
1
100
AcDbLine
 10
23.289013
 20
194.816024
 30
0.0
 11
23.289013
 21
227.316383
 31
0.0
  0
LINE
  5
312
100
AcDbEntity
  8
plotclock-5mm
 62
1
100
AcDbLine
 10
23.289013
 20
227.316347
 30
0.0
 11
19.288866
 21
227.316347
 31
0.0
  0
LINE
  5
313
100
AcDbEntity
  8
plotclock-5mm
 62
1
100
AcDbLine
 10
19.288901
 20
227.316347
 30
0.0
 11
19.288901
 21
232.315914
 31
0.0
  0
LINE
  5
314
100
AcDbEntity
  8
plotclock-5mm
 62
1
100
AcDbLine
 10
19.288901
 20
232.315879
 30
0.0
 11
9.289062
 21
232.315879
 31
0.0
  0
LINE
  5
315
100
AcDbEntity
  8
plotclock-5mm
 62
1
100
AcDbLine
 10
9.289027
 20
232.315879
 30
0.0
 11
9.289027
 21
227.316312
 31
0.0
  0
LINE
  5
316
100
AcDbEntity
  8
plotclock-5mm
 62
1
100
AcDbLine
 10
9.289027
 20
227.316347
 30
0.0
 11
5.289233
 21
227.316347
 31
0.0
  0
LINE
  5
317
100
AcDbEntity
  8
plotclock-5mm
 62
1
100
AcDbLine
 10
5.289091
 20
227.316347
 30
0.0
 11
5.289091
 21
194.815989
 31
0.0
  0
LINE
  5
318
100
AcDbEntity
  8
plotclock-5mm
 62
1
100
AcDbLine
 10
5.289091
 20
194.816024
 30
0.0
 11
23.288872
 21
194.816024
 31
0.0
  0
LINE
  5
319
100
AcDbEntity
  8
plotclock-5mm
 62
1
100
AcDbLine
 10
20.289026
 20
200.815998
 30
0.0
 11
8.288937
 21
200.815998
 31
0.0
  0
LINE
  5
31a
100
AcDbEntity
  8
plotclock-5mm
 62
1
100
AcDbLine
 10
8.289078
 20
200.815998
 30
0.0
 11
8.289078
 21
223.816051
 31
0.0
  0
LINE
  5
31b
100
AcDbEntity
  8
plotclock-5mm
 62
1
100
AcDbLine
 10
8.289078
 20
223.816157
 30
0.0
 11
20.289167
 21
223.816157
 31
0.0
  0
LINE
  5
31c
100
AcDbEntity
  8
plotclock-5mm
 62
1
100
AcDbLine
 10
20.289026
 20
223.816157
 30
0.0
 11
20.289026
 21
200.816104
 31
0.0
  0
LINE
  5
31d
100
AcDbEntity
  8
plotclock-5mm
 62
1
100
AcDbLine
 10
14.664231
 20
229.415799
 30
0.0
 11
14.289229
 21
229.366057
 31
0.0
  0
LINE
  5
31e
100
AcDbEntity
  8
plotclock-5mm
 62
1
100
AcDbLine
 10
14.289052
 20
229.366198
 30
0.0
 11
13.913697
 21
229.415940
 31
0.0
  0
LINE
  5
31f
100
AcDbEntity
  8
plotclock-5mm
 62
1
100
AcDbLine
 10
13.913697
 20
229.415799
 30
0.0
 11
13.564094
 21
229.560437
 31
0.0
  0
LINE
  5
320
100
AcDbEntity
  8
plotclock-5mm
 62
1
100
AcDbLine
 10
13.564023
 20
229.560508
 30
0.0
 11
13.263809
 21
229.790519
 31
0.0
  0
LINE
  5
321
100
AcDbEntity
  8
plotclock-5mm
 62
1
100
AcDbLine
 10
13.263774
 20
229.790625
 30
0.0
 11
13.033410
 21
230.091192
 31
0.0
  0
LINE
  5
322
100
AcDbEntity
  8
plotclock-5mm
 62
1
100
AcDbLine
 10
13.033304
 20
230.091051
 30
0.0
 11
12.888313
 21
230.441006
 31
0.0
  0
LINE
  5
323
100
AcDbEntity
  8
plotclock-5mm
 62
1
100
AcDbLine
 10
12.888454
 20
230.441077
 30
0.0
 11
12.839065
 21
230.816079
 31
0.0
  0
LINE
  5
324
100
AcDbEntity
  8
plotclock-5mm
 62
1
100
AcDbLine
 10
12.838994
 20
230.815903
 30
0.0
 11
12.888383
 21
231.191259
 31
0.0
  0
LINE
  5
325
100
AcDbEntity
  8
plotclock-5mm
 62
1
100
AcDbLine
 10
12.888454
 20
231.191400
 30
0.0
 11
13.033446
 21
231.541355
 31
0.0
  0
LINE
  5
326
100
AcDbEntity
  8
plotclock-5mm
 62
1
100
AcDbLine
 10
13.033304
 20
231.541426
 30
0.0
 11
13.263668
 21
231.841287
 31
0.0
  0
LINE
  5
327
100
AcDbEntity
  8
plotclock-5mm
 62
1
100
AcDbLine
 10
13.263774
 20
231.841146
 30
0.0
 11
13.563988
 21
232.071862
 31
0.0
  0
LINE
  5
328
100
AcDbEntity
  8
plotclock-5mm
 62
1
100
AcDbLine
 10
13.564023
 20
232.071968
 30
0.0
 11
13.913626
 21
232.216607
 31
0.0
  0
LINE
  5
329
100
AcDbEntity
  8
plotclock-5mm
 62
1
100
AcDbLine
 10
13.913697
 20
232.216678
 30
0.0
 11
14.289052
 21
232.266419
 31
0.0
  0
LINE
  5
32a
100
AcDbEntity
  8
plotclock-5mm
 62
1
100
AcDbLine
 10
14.289052
 20
232.266278
 30
0.0
 11
14.664055
 21
232.216537
 31
0.0
  0
LINE
  5
32b
100
AcDbEntity
  8
plotclock-5mm
 62
1
100
AcDbLine
 10
14.664231
 20
232.216678
 30
0.0
 11
15.014187
 21
232.072039
 31
0.0
  0
LINE
  5
32c
100
AcDbEntity
  8
plotclock-5mm
 62
1
100
AcDbLine
 10
15.014081
 20
232.071968
 30
0.0
 11
15.314295
 21
231.841252
 31
0.0
  0
LINE
  5
32d
100
AcDbEntity
  8
plotclock-5mm
 62
1
100
AcDbLine
 10
15.314295
 20
231.841146
 30
0.0
 11
15.544659
 21
231.541285
 31
0.0
  0
LINE
  5
32e
100
AcDbEntity
  8
plotclock-5mm
 62
1
100
AcDbLine
 10
15.544800
 20
231.541426
 30
0.0
 11
15.689792
 21
231.191470
 31
0.0
  0
LINE
  5
32f
100
AcDbEntity
  8
plotclock-5mm
 62
1
100
AcDbLine
 10
15.689651
 20
231.191400
 30
0.0
 11
15.739039
 21
230.816044
 31
0.0
  0
LINE
  5
330
100
AcDbEntity
  8
plotclock-5mm
 62
1
100
AcDbLine
 10
15.739075
 20
230.815903
 30
0.0
 11
15.689686
 21
230.440900
 31
0.0
  0
LINE
  5
331
100
AcDbEntity
  8
plotclock-5mm
 62
1
100
AcDbLine
 10
15.689651
 20
230.441077
 30
0.0
 11
15.544659
 21
230.091121
 31
0.0
  0
LINE
  5
332
100
AcDbEntity
  8
plotclock-5mm
 62
1
100
AcDbLine
 10
15.544800
 20
230.091051
 30
0.0
 11
15.314436
 21
229.790484
 31
0.0
  0
LINE
  5
333
100
AcDbEntity
  8
plotclock-5mm
 62
1
100
AcDbLine
 10
15.314295
 20
229.790625
 30
0.0
 11
15.014081
 21
229.560614
 31
0.0
  0
LINE
  5
334
100
AcDbEntity
  8
plotclock-5mm
 62
1
100
AcDbLine
 10
15.014081
 20
229.560508
 30
0.0
 11
14.664126
 21
229.415869
 31
0.0
  0
LINE
  5
335
100
AcDbEntity
  8
plotclock-5mm
 62
1
100
AcDbLine
 10
14.483186
 20
225.341639
 30
0.0
 11
14.289158
 21
225.316239
 31
0.0
  0
LINE
  5
336
100
AcDbEntity
  8
plotclock-5mm
 62
1
100
AcDbLine
 10
14.289052
 20
225.316133
 30
0.0
 11
14.095024
 21
225.341533
 31
0.0
  0
LINE
  5
337
100
AcDbEntity
  8
plotclock-5mm
 62
1
100
AcDbLine
 10
14.094919
 20
225.341639
 30
0.0
 11
13.913944
 21
225.416780
 31
0.0
  0
LINE
  5
338
100
AcDbEntity
  8
plotclock-5mm
 62
1
100
AcDbLine
 10
13.914049
 20
225.416745
 30
0.0
 11
13.758827
 21
225.535984
 31
0.0
  0
LINE
  5
339
100
AcDbEntity
  8
plotclock-5mm
 62
1
100
AcDbLine
 10
13.758686
 20
225.535949
 30
0.0
 11
13.639447
 21
225.690818
 31
0.0
  0
LINE
  5
33a
100
AcDbEntity
  8
plotclock-5mm
 62
1
100
AcDbLine
 10
13.639482
 20
225.690959
 30
0.0
 11
13.564694
 21
225.872287
 31
0.0
  0
LINE
  5
33b
100
AcDbEntity
  8
plotclock-5mm
 62
1
100
AcDbLine
 10
13.564552
 20
225.872181
 30
0.0
 11
13.539152
 21
226.066562
 31
0.0
  0
LINE
  5
33c
100
AcDbEntity
  8
plotclock-5mm
 62
1
100
AcDbLine
 10
13.539047
 20
226.066491
 30
0.0
 11
13.564447
 21
226.260166
 31
0.0
  0
LINE
  5
33d
100
AcDbEntity
  8
plotclock-5mm
 62
1
100
AcDbLine
 10
13.564552
 20
226.260096
 30
0.0
 11
13.639341
 21
226.441423
 31
0.0
  0
LINE
  5
33e
100
AcDbEntity
  8
plotclock-5mm
 62
1
100
AcDbLine
 10
13.639482
 20
226.441317
 30
0.0
 11
13.758721
 21
226.596187
 31
0.0
  0
LINE
  5
33f
100
AcDbEntity
  8
plotclock-5mm
 62
1
100
AcDbLine
 10
13.758686
 20
226.596328
 30
0.0
 11
13.913908
 21
226.715567
 31
0.0
  0
LINE
  5
340
100
AcDbEntity
  8
plotclock-5mm
 62
1
100
AcDbLine
 10
13.914049
 20
226.715532
 30
0.0
 11
14.095024
 21
226.790673
 31
0.0
  0
LINE
  5
341
100
AcDbEntity
  8
plotclock-5mm
 62
1
100
AcDbLine
 10
14.094919
 20
226.790638
 30
0.0
 11
14.288946
 21
226.816038
 31
0.0
  0
LINE
  5
342
100
AcDbEntity
  8
plotclock-5mm
 62
1
100
AcDbLine
 10
14.289052
 20
226.816144
 30
0.0
 11
14.483080
 21
226.790744
 31
0.0
  0
LINE
  5
343
100
AcDbEntity
  8
plotclock-5mm
 62
1
100
AcDbLine
 10
14.483186
 20
226.790638
 30
0.0
 11
14.664161
 21
226.715496
 31
0.0
  0
LINE
  5
344
100
AcDbEntity
  8
plotclock-5mm
 62
1
100
AcDbLine
 10
14.664055
 20
226.715532
 30
0.0
 11
14.819277
 21
226.596293
 31
0.0
  0
LINE
  5
345
100
AcDbEntity
  8
plotclock-5mm
 62
1
100
AcDbLine
 10
14.819242
 20
226.596328
 30
0.0
 11
14.938481
 21
226.441459
 31
0.0
  0
LINE
  5
346
100
AcDbEntity
  8
plotclock-5mm
 62
1
100
AcDbLine
 10
14.938446
 20
226.441317
 30
0.0
 11
15.013234
 21
226.259990
 31
0.0
  0
LINE
  5
347
100
AcDbEntity
  8
plotclock-5mm
 62
1
100
AcDbLine
 10
15.013376
 20
226.260096
 30
0.0
 11
15.039128
 21
226.066421
 31
0.0
  0
LINE
  5
348
100
AcDbEntity
  8
plotclock-5mm
 62
1
100
AcDbLine
 10
15.039058
 20
226.066491
 30
0.0
 11
15.013305
 21
225.872111
 31
0.0
  0
LINE
  5
349
100
AcDbEntity
  8
plotclock-5mm
 62
1
100
AcDbLine
 10
15.013376
 20
225.872181
 30
0.0
 11
14.938587
 21
225.690853
 31
0.0
  0
LINE
  5
34a
100
AcDbEntity
  8
plotclock-5mm
 62
1
100
AcDbLine
 10
14.938446
 20
225.690959
 30
0.0
 11
14.819207
 21
225.536090
 31
0.0
  0
LINE
  5
34b
100
AcDbEntity
  8
plotclock-5mm
 62
1
100
AcDbLine
 10
14.819242
 20
225.535949
 30
0.0
 11
14.664020
 21
225.416710
 31
0.0
  0
LINE
  5
34c
100
AcDbEntity
  8
plotclock-5mm
 62
1
100
AcDbLine
 10
14.664055
 20
225.416745
 30
0.0
 11
14.483080
 21
225.341603
 31
0.0
  0
LINE
  5
34d
100
AcDbEntity
  8
plotclock-5mm
 62
1
100
AcDbLine
 10
13.914049
 20
197.916588
 30
0.0
 11
13.758827
 21
198.035827
 31
0.0
  0
LINE
  5
34e
100
AcDbEntity
  8
plotclock-5mm
 62
1
100
AcDbLine
 10
13.758686
 20
198.035792
 30
0.0
 11
13.639447
 21
198.191367
 31
0.0
  0
LINE
  5
34f
100
AcDbEntity
  8
plotclock-5mm
 62
1
100
AcDbLine
 10
13.639482
 20
198.191508
 30
0.0
 11
13.564694
 21
198.372130
 31
0.0
  0
LINE
  5
350
100
AcDbEntity
  8
plotclock-5mm
 62
1
100
AcDbLine
 10
13.564552
 20
198.372060
 30
0.0
 11
13.539152
 21
198.566440
 31
0.0
  0
LINE
  5
351
100
AcDbEntity
  8
plotclock-5mm
 62
1
100
AcDbLine
 10
13.539047
 20
198.566334
 30
0.0
 11
13.564447
 21
198.760009
 31
0.0
  0
LINE
  5
352
100
AcDbEntity
  8
plotclock-5mm
 62
1
100
AcDbLine
 10
13.564552
 20
198.759974
 30
0.0
 11
13.639341
 21
198.941302
 31
0.0
  0
LINE
  5
353
100
AcDbEntity
  8
plotclock-5mm
 62
1
100
AcDbLine
 10
13.639482
 20
198.941161
 30
0.0
 11
13.758721
 21
199.096030
 31
0.0
  0
LINE
  5
354
100
AcDbEntity
  8
plotclock-5mm
 62
1
100
AcDbLine
 10
13.758686
 20
199.096207
 30
0.0
 11
13.913908
 21
199.215446
 31
0.0
  0
LINE
  5
355
100
AcDbEntity
  8
plotclock-5mm
 62
1
100
AcDbLine
 10
13.914049
 20
199.215410
 30
0.0
 11
14.095024
 21
199.290552
 31
0.0
  0
LINE
  5
356
100
AcDbEntity
  8
plotclock-5mm
 62
1
100
AcDbLine
 10
14.094919
 20
199.290517
 30
0.0
 11
14.288946
 21
199.315917
 31
0.0
  0
LINE
  5
357
100
AcDbEntity
  8
plotclock-5mm
 62
1
100
AcDbLine
 10
14.289052
 20
199.315987
 30
0.0
 11
14.483080
 21
199.290587
 31
0.0
  0
LINE
  5
358
100
AcDbEntity
  8
plotclock-5mm
 62
1
100
AcDbLine
 10
14.483186
 20
199.290517
 30
0.0
 11
14.664161
 21
199.215375
 31
0.0
  0
LINE
  5
359
100
AcDbEntity
  8
plotclock-5mm
 62
1
100
AcDbLine
 10
14.664055
 20
199.215410
 30
0.0
 11
14.819277
 21
199.096171
 31
0.0
  0
LINE
  5
35a
100
AcDbEntity
  8
plotclock-5mm
 62
1
100
AcDbLine
 10
14.819242
 20
199.096207
 30
0.0
 11
14.938481
 21
198.941337
 31
0.0
  0
LINE
  5
35b
100
AcDbEntity
  8
plotclock-5mm
 62
1
100
AcDbLine
 10
14.938446
 20
198.941161
 30
0.0
 11
15.013234
 21
198.759833
 31
0.0
  0
LINE
  5
35c
100
AcDbEntity
  8
plotclock-5mm
 62
1
100
AcDbLine
 10
15.013376
 20
198.759974
 30
0.0
 11
15.039128
 21
198.566299
 31
0.0
  0
LINE
  5
35d
100
AcDbEntity
  8
plotclock-5mm
 62
1
100
AcDbLine
 10
15.039058
 20
198.566334
 30
0.0
 11
15.013305
 21
198.371954
 31
0.0
  0
LINE
  5
35e
100
AcDbEntity
  8
plotclock-5mm
 62
1
100
AcDbLine
 10
15.013376
 20
198.372060
 30
0.0
 11
14.938587
 21
198.191437
 31
0.0
  0
LINE
  5
35f
100
AcDbEntity
  8
plotclock-5mm
 62
1
100
AcDbLine
 10
14.938446
 20
198.191508
 30
0.0
 11
14.819207
 21
198.035933
 31
0.0
  0
LINE
  5
360
100
AcDbEntity
  8
plotclock-5mm
 62
1
100
AcDbLine
 10
14.819242
 20
198.035792
 30
0.0
 11
14.664020
 21
197.916553
 31
0.0
  0
LINE
  5
361
100
AcDbEntity
  8
plotclock-5mm
 62
1
100
AcDbLine
 10
14.664055
 20
197.916588
 30
0.0
 11
14.483080
 21
197.841447
 31
0.0
  0
LINE
  5
362
100
AcDbEntity
  8
plotclock-5mm
 62
1
100
AcDbLine
 10
14.483186
 20
197.841482
 30
0.0
 11
14.289158
 21
197.816082
 31
0.0
  0
LINE
  5
363
100
AcDbEntity
  8
plotclock-5mm
 62
1
100
AcDbLine
 10
14.289052
 20
197.816011
 30
0.0
 11
14.095024
 21
197.841411
 31
0.0
  0
LINE
  5
364
100
AcDbEntity
  8
plotclock-5mm
 62
1
100
AcDbLine
 10
14.094919
 20
197.841482
 30
0.0
 11
13.913944
 21
197.916624
 31
0.0
  0
LINE
  5
365
100
AcDbEntity
  8
plotclock-5mm
 62
1
100
AcDbLine
 10
66.841899
 20
258.602833
 30
0.0
 11
66.841899
 21
225.490758
 31
0.0
  0
LINE
  5
366
100
AcDbEntity
  8
plotclock-5mm
 62
1
100
AcDbLine
 10
66.841899
 20
225.490617
 30
0.0
 11
70.899902
 21
225.490617
 31
0.0
  0
LINE
  5
367
100
AcDbEntity
  8
plotclock-5mm
 62
1
100
AcDbLine
 10
70.899902
 20
225.490617
 30
0.0
 11
70.899902
 21
220.490344
 31
0.0
  0
LINE
  5
368
100
AcDbEntity
  8
plotclock-5mm
 62
1
100
AcDbLine
 10
70.899902
 20
220.490415
 30
0.0
 11
66.841899
 21
220.490415
 31
0.0
  0
LINE
  5
369
100
AcDbEntity
  8
plotclock-5mm
 62
1
100
AcDbLine
 10
66.841899
 20
220.490415
 30
0.0
 11
66.841899
 21
186.990284
 31
0.0
  0
LINE
  5
36a
100
AcDbEntity
  8
plotclock-5mm
 62
1
100
AcDbLine
 10
66.841899
 20
186.990320
 30
0.0
 11
84.841680
 21
186.990320
 31
0.0
  0
LINE
  5
36b
100
AcDbEntity
  8
plotclock-5mm
 62
1
100
AcDbLine
 10
84.841856
 20
186.990320
 30
0.0
 11
84.841856
 21
189.990342
 31
0.0
  0
LINE
  5
36c
100
AcDbEntity
  8
plotclock-5mm
 62
1
100
AcDbLine
 10
84.841856
 20
189.990307
 30
0.0
 11
84.841856
 21
220.490415
 31
0.0
  0
LINE
  5
36d
100
AcDbEntity
  8
plotclock-5mm
 62
1
100
AcDbLine
 10
84.841856
 20
220.490415
 30
0.0
 11
80.899917
 21
220.490415
 31
0.0
  0
LINE
  5
36e
100
AcDbEntity
  8
plotclock-5mm
 62
1
100
AcDbLine
 10
80.899811
 20
220.490415
 30
0.0
 11
80.899811
 21
225.490687
 31
0.0
  0
LINE
  5
36f
100
AcDbEntity
  8
plotclock-5mm
 62
1
100
AcDbLine
 10
80.899811
 20
225.490617
 30
0.0
 11
84.841750
 21
225.490617
 31
0.0
  0
LINE
  5
370
100
AcDbEntity
  8
plotclock-5mm
 62
1
100
AcDbLine
 10
84.841856
 20
225.490617
 30
0.0
 11
84.841856
 21
258.602692
 31
0.0
  0
LINE
  5
371
100
AcDbEntity
  8
plotclock-5mm
 62
1
100
AcDbLine
 10
84.841856
 20
258.602833
 30
0.0
 11
66.842076
 21
258.602833
 31
0.0
  0
LINE
  5
372
100
AcDbEntity
  8
plotclock-5mm
 62
1
100
AcDbLine
 10
69.841921
 20
252.602859
 30
0.0
 11
81.842010
 21
252.602859
 31
0.0
  0
LINE
  5
373
100
AcDbEntity
  8
plotclock-5mm
 62
1
100
AcDbLine
 10
81.841869
 20
252.602859
 30
0.0
 11
81.841869
 21
229.602806
 31
0.0
  0
LINE
  5
374
100
AcDbEntity
  8
plotclock-5mm
 62
1
100
AcDbLine
 10
81.841869
 20
229.602700
 30
0.0
 11
69.841780
 21
229.602700
 31
0.0
  0
LINE
  5
375
100
AcDbEntity
  8
plotclock-5mm
 62
1
100
AcDbLine
 10
69.841921
 20
229.602700
 30
0.0
 11
69.841921
 21
252.602753
 31
0.0
  0
LINE
  5
376
100
AcDbEntity
  8
plotclock-5mm
 62
1
100
AcDbLine
 10
69.899777
 20
192.990294
 30
0.0
 11
69.899777
 21
215.990346
 31
0.0
  0
LINE
  5
377
100
AcDbEntity
  8
plotclock-5mm
 62
1
100
AcDbLine
 10
69.899777
 20
215.990417
 30
0.0
 11
81.899866
 21
215.990417
 31
0.0
  0
LINE
  5
378
100
AcDbEntity
  8
plotclock-5mm
 62
1
100
AcDbLine
 10
81.899901
 20
215.990417
 30
0.0
 11
81.899901
 21
192.990364
 31
0.0
  0
LINE
  5
379
100
AcDbEntity
  8
plotclock-5mm
 62
1
100
AcDbLine
 10
81.899901
 20
192.990294
 30
0.0
 11
69.899812
 21
192.990294
 31
0.0
  0
LINE
  5
37a
100
AcDbEntity
  8
plotclock-5mm
 62
1
100
AcDbLine
 10
76.491289
 20
254.477661
 30
0.0
 11
76.372050
 21
254.322792
 31
0.0
  0
LINE
  5
37b
100
AcDbEntity
  8
plotclock-5mm
 62
1
100
AcDbLine
 10
76.372085
 20
254.322651
 30
0.0
 11
76.216863
 21
254.203412
 31
0.0
  0
LINE
  5
37c
100
AcDbEntity
  8
plotclock-5mm
 62
1
100
AcDbLine
 10
76.216898
 20
254.203447
 30
0.0
 11
76.035923
 21
254.128305
 31
0.0
  0
LINE
  5
37d
100
AcDbEntity
  8
plotclock-5mm
 62
1
100
AcDbLine
 10
76.036029
 20
254.128341
 30
0.0
 11
75.842001
 21
254.102941
 31
0.0
  0
LINE
  5
37e
100
AcDbEntity
  8
plotclock-5mm
 62
1
100
AcDbLine
 10
75.841895
 20
254.102835
 30
0.0
 11
75.647868
 21
254.128235
 31
0.0
  0
LINE
  5
37f
100
AcDbEntity
  8
plotclock-5mm
 62
1
100
AcDbLine
 10
75.647762
 20
254.128341
 30
0.0
 11
75.466787
 21
254.203482
 31
0.0
  0
LINE
  5
380
100
AcDbEntity
  8
plotclock-5mm
 62
1
100
AcDbLine
 10
75.466892
 20
254.203447
 30
0.0
 11
75.311670
 21
254.322686
 31
0.0
  0
LINE
  5
381
100
AcDbEntity
  8
plotclock-5mm
 62
1
100
AcDbLine
 10
75.311494
 20
254.322651
 30
0.0
 11
75.192255
 21
254.477520
 31
0.0
  0
LINE
  5
382
100
AcDbEntity
  8
plotclock-5mm
 62
1
100
AcDbLine
 10
75.192326
 20
254.477661
 30
0.0
 11
75.117537
 21
254.658989
 31
0.0
  0
LINE
  5
383
100
AcDbEntity
  8
plotclock-5mm
 62
1
100
AcDbLine
 10
75.117396
 20
254.658883
 30
0.0
 11
75.091996
 21
254.852558
 31
0.0
  0
LINE
  5
384
100
AcDbEntity
  8
plotclock-5mm
 62
1
100
AcDbLine
 10
75.091890
 20
254.852487
 30
0.0
 11
75.117290
 21
255.046868
 31
0.0
  0
LINE
  5
385
100
AcDbEntity
  8
plotclock-5mm
 62
1
100
AcDbLine
 10
75.117396
 20
255.046797
 30
0.0
 11
75.192184
 21
255.228125
 31
0.0
  0
LINE
  5
386
100
AcDbEntity
  8
plotclock-5mm
 62
1
100
AcDbLine
 10
75.192326
 20
255.228019
 30
0.0
 11
75.311564
 21
255.382889
 31
0.0
  0
LINE
  5
387
100
AcDbEntity
  8
plotclock-5mm
 62
1
100
AcDbLine
 10
75.311494
 20
255.383030
 30
0.0
 11
75.466716
 21
255.502269
 31
0.0
  0
LINE
  5
388
100
AcDbEntity
  8
plotclock-5mm
 62
1
100
AcDbLine
 10
75.466892
 20
255.502234
 30
0.0
 11
75.647867
 21
255.577375
 31
0.0
  0
LINE
  5
389
100
AcDbEntity
  8
plotclock-5mm
 62
1
100
AcDbLine
 10
75.647762
 20
255.577340
 30
0.0
 11
75.841789
 21
255.602740
 31
0.0
  0
LINE
  5
38a
100
AcDbEntity
  8
plotclock-5mm
 62
1
100
AcDbLine
 10
75.841895
 20
255.602846
 30
0.0
 11
76.035923
 21
255.577446
 31
0.0
  0
LINE
  5
38b
100
AcDbEntity
  8
plotclock-5mm
 62
1
100
AcDbLine
 10
76.036029
 20
255.577340
 30
0.0
 11
76.217004
 21
255.502198
 31
0.0
  0
LINE
  5
38c
100
AcDbEntity
  8
plotclock-5mm
 62
1
100
AcDbLine
 10
76.216898
 20
255.502234
 30
0.0
 11
76.372120
 21
255.382995
 31
0.0
  0
LINE
  5
38d
100
AcDbEntity
  8
plotclock-5mm
 62
1
100
AcDbLine
 10
76.372085
 20
255.383030
 30
0.0
 11
76.491324
 21
255.228161
 31
0.0
  0
LINE
  5
38e
100
AcDbEntity
  8
plotclock-5mm
 62
1
100
AcDbLine
 10
76.491289
 20
255.228019
 30
0.0
 11
76.566077
 21
255.046692
 31
0.0
  0
LINE
  5
38f
100
AcDbEntity
  8
plotclock-5mm
 62
1
100
AcDbLine
 10
76.566219
 20
255.046797
 30
0.0
 11
76.591971
 21
254.852417
 31
0.0
  0
LINE
  5
390
100
AcDbEntity
  8
plotclock-5mm
 62
1
100
AcDbLine
 10
76.591866
 20
254.852487
 30
0.0
 11
76.566113
 21
254.658812
 31
0.0
  0
LINE
  5
391
100
AcDbEntity
  8
plotclock-5mm
 62
1
100
AcDbLine
 10
76.566219
 20
254.658883
 30
0.0
 11
76.491430
 21
254.477555
 31
0.0
  0
LINE
  5
392
100
AcDbEntity
  8
plotclock-5mm
 62
1
100
AcDbLine
 10
75.841895
 20
228.102689
 30
0.0
 11
76.035923
 21
228.077289
 31
0.0
  0
LINE
  5
393
100
AcDbEntity
  8
plotclock-5mm
 62
1
100
AcDbLine
 10
76.036029
 20
228.077219
 30
0.0
 11
76.217004
 21
228.002077
 31
0.0
  0
LINE
  5
394
100
AcDbEntity
  8
plotclock-5mm
 62
1
100
AcDbLine
 10
76.216898
 20
228.002112
 30
0.0
 11
76.372120
 21
227.882873
 31
0.0
  0
LINE
  5
395
100
AcDbEntity
  8
plotclock-5mm
 62
1
100
AcDbLine
 10
76.372085
 20
227.882909
 30
0.0
 11
76.491324
 21
227.728039
 31
0.0
  0
LINE
  5
396
100
AcDbEntity
  8
plotclock-5mm
 62
1
100
AcDbLine
 10
76.491289
 20
227.727863
 30
0.0
 11
76.566077
 21
227.546535
 31
0.0
  0
LINE
  5
397
100
AcDbEntity
  8
plotclock-5mm
 62
1
100
AcDbLine
 10
76.566219
 20
227.546676
 30
0.0
 11
76.591971
 21
227.353001
 31
0.0
  0
LINE
  5
398
100
AcDbEntity
  8
plotclock-5mm
 62
1
100
AcDbLine
 10
76.591866
 20
227.353036
 30
0.0
 11
76.566113
 21
227.158656
 31
0.0
  0
LINE
  5
399
100
AcDbEntity
  8
plotclock-5mm
 62
1
100
AcDbLine
 10
76.566219
 20
227.158762
 30
0.0
 11
76.491430
 21
226.977434
 31
0.0
  0
LINE
  5
39a
100
AcDbEntity
  8
plotclock-5mm
 62
1
100
AcDbLine
 10
76.491289
 20
226.977540
 30
0.0
 11
76.372050
 21
226.822670
 31
0.0
  0
LINE
  5
39b
100
AcDbEntity
  8
plotclock-5mm
 62
1
100
AcDbLine
 10
76.372085
 20
226.822494
 30
0.0
 11
76.216863
 21
226.703255
 31
0.0
  0
LINE
  5
39c
100
AcDbEntity
  8
plotclock-5mm
 62
1
100
AcDbLine
 10
76.216898
 20
226.703290
 30
0.0
 11
76.035923
 21
226.628149
 31
0.0
  0
LINE
  5
39d
100
AcDbEntity
  8
plotclock-5mm
 62
1
100
AcDbLine
 10
76.036029
 20
226.628184
 30
0.0
 11
75.842001
 21
226.602784
 31
0.0
  0
LINE
  5
39e
100
AcDbEntity
  8
plotclock-5mm
 62
1
100
AcDbLine
 10
75.841895
 20
226.602713
 30
0.0
 11
75.647868
 21
226.628113
 31
0.0
  0
LINE
  5
39f
100
AcDbEntity
  8
plotclock-5mm
 62
1
100
AcDbLine
 10
75.647762
 20
226.628184
 30
0.0
 11
75.466787
 21
226.703326
 31
0.0
  0
LINE
  5
3a0
100
AcDbEntity
  8
plotclock-5mm
 62
1
100
AcDbLine
 10
75.466892
 20
226.703290
 30
0.0
 11
75.311670
 21
226.822529
 31
0.0
  0
LINE
  5
3a1
100
AcDbEntity
  8
plotclock-5mm
 62
1
100
AcDbLine
 10
75.311494
 20
226.822494
 30
0.0
 11
75.192255
 21
226.977363
 31
0.0
  0
LINE
  5
3a2
100
AcDbEntity
  8
plotclock-5mm
 62
1
100
AcDbLine
 10
75.192326
 20
226.977540
 30
0.0
 11
75.117537
 21
227.158867
 31
0.0
  0
LINE
  5
3a3
100
AcDbEntity
  8
plotclock-5mm
 62
1
100
AcDbLine
 10
75.117396
 20
227.158762
 30
0.0
 11
75.091996
 21
227.353142
 31
0.0
  0
LINE
  5
3a4
100
AcDbEntity
  8
plotclock-5mm
 62
1
100
AcDbLine
 10
75.091890
 20
227.353036
 30
0.0
 11
75.117290
 21
227.546711
 31
0.0
  0
LINE
  5
3a5
100
AcDbEntity
  8
plotclock-5mm
 62
1
100
AcDbLine
 10
75.117396
 20
227.546676
 30
0.0
 11
75.192184
 21
227.728004
 31
0.0
  0
LINE
  5
3a6
100
AcDbEntity
  8
plotclock-5mm
 62
1
100
AcDbLine
 10
75.192326
 20
227.727863
 30
0.0
 11
75.311564
 21
227.882732
 31
0.0
  0
LINE
  5
3a7
100
AcDbEntity
  8
plotclock-5mm
 62
1
100
AcDbLine
 10
75.311494
 20
227.882909
 30
0.0
 11
75.466716
 21
228.002148
 31
0.0
  0
LINE
  5
3a8
100
AcDbEntity
  8
plotclock-5mm
 62
1
100
AcDbLine
 10
75.466892
 20
228.002112
 30
0.0
 11
75.647867
 21
228.077254
 31
0.0
  0
LINE
  5
3a9
100
AcDbEntity
  8
plotclock-5mm
 62
1
100
AcDbLine
 10
75.647762
 20
228.077219
 30
0.0
 11
75.841789
 21
228.102619
 31
0.0
  0
LINE
  5
3aa
100
AcDbEntity
  8
plotclock-5mm
 62
1
100
AcDbLine
 10
75.524924
 20
190.090884
 30
0.0
 11
75.369702
 21
190.210122
 31
0.0
  0
LINE
  5
3ab
100
AcDbEntity
  8
plotclock-5mm
 62
1
100
AcDbLine
 10
75.369561
 20
190.210087
 30
0.0
 11
75.250322
 21
190.365662
 31
0.0
  0
LINE
  5
3ac
100
AcDbEntity
  8
plotclock-5mm
 62
1
100
AcDbLine
 10
75.250357
 20
190.365803
 30
0.0
 11
75.175569
 21
190.546426
 31
0.0
  0
LINE
  5
3ad
100
AcDbEntity
  8
plotclock-5mm
 62
1
100
AcDbLine
 10
75.175427
 20
190.546320
 30
0.0
 11
75.149675
 21
190.740700
 31
0.0
  0
LINE
  5
3ae
100
AcDbEntity
  8
plotclock-5mm
 62
1
100
AcDbLine
 10
75.149745
 20
190.740630
 30
0.0
 11
75.175498
 21
190.934305
 31
0.0
  0
LINE
  5
3af
100
AcDbEntity
  8
plotclock-5mm
 62
1
100
AcDbLine
 10
75.175427
 20
190.934269
 30
0.0
 11
75.250216
 21
191.115597
 31
0.0
  0
LINE
  5
3b0
100
AcDbEntity
  8
plotclock-5mm
 62
1
100
AcDbLine
 10
75.250357
 20
191.115456
 30
0.0
 11
75.369596
 21
191.270326
 31
0.0
  0
LINE
  5
3b1
100
AcDbEntity
  8
plotclock-5mm
 62
1
100
AcDbLine
 10
75.369561
 20
191.270502
 30
0.0
 11
75.524783
 21
191.389741
 31
0.0
  0
LINE
  5
3b2
100
AcDbEntity
  8
plotclock-5mm
 62
1
100
AcDbLine
 10
75.524924
 20
191.389706
 30
0.0
 11
75.705899
 21
191.464847
 31
0.0
  0
LINE
  5
3b3
100
AcDbEntity
  8
plotclock-5mm
 62
1
100
AcDbLine
 10
75.705794
 20
191.464812
 30
0.0
 11
75.899821
 21
191.490212
 31
0.0
  0
LINE
  5
3b4
100
AcDbEntity
  8
plotclock-5mm
 62
1
100
AcDbLine
 10
75.899751
 20
191.490282
 30
0.0
 11
76.094131
 21
191.464882
 31
0.0
  0
LINE
  5
3b5
100
AcDbEntity
  8
plotclock-5mm
 62
1
100
AcDbLine
 10
76.094061
 20
191.464812
 30
0.0
 11
76.275036
 21
191.389670
 31
0.0
  0
LINE
  5
3b6
100
AcDbEntity
  8
plotclock-5mm
 62
1
100
AcDbLine
 10
76.274930
 20
191.389706
 30
0.0
 11
76.430152
 21
191.270467
 31
0.0
  0
LINE
  5
3b7
100
AcDbEntity
  8
plotclock-5mm
 62
1
100
AcDbLine
 10
76.430117
 20
191.270502
 30
0.0
 11
76.549356
 21
191.115632
 31
0.0
  0
LINE
  5
3b8
100
AcDbEntity
  8
plotclock-5mm
 62
1
100
AcDbLine
 10
76.549321
 20
191.115456
 30
0.0
 11
76.624109
 21
190.934128
 31
0.0
  0
LINE
  5
3b9
100
AcDbEntity
  8
plotclock-5mm
 62
1
100
AcDbLine
 10
76.624251
 20
190.934269
 30
0.0
 11
76.649651
 21
190.740594
 31
0.0
  0
LINE
  5
3ba
100
AcDbEntity
  8
plotclock-5mm
 62
1
100
AcDbLine
 10
76.649756
 20
190.740630
 30
0.0
 11
76.624356
 21
190.546249
 31
0.0
  0
LINE
  5
3bb
100
AcDbEntity
  8
plotclock-5mm
 62
1
100
AcDbLine
 10
76.624251
 20
190.546320
 30
0.0
 11
76.549462
 21
190.365698
 31
0.0
  0
LINE
  5
3bc
100
AcDbEntity
  8
plotclock-5mm
 62
1
100
AcDbLine
 10
76.549321
 20
190.365803
 30
0.0
 11
76.430082
 21
190.210228
 31
0.0
  0
LINE
  5
3bd
100
AcDbEntity
  8
plotclock-5mm
 62
1
100
AcDbLine
 10
76.430117
 20
190.210087
 30
0.0
 11
76.274895
 21
190.090848
 31
0.0
  0
LINE
  5
3be
100
AcDbEntity
  8
plotclock-5mm
 62
1
100
AcDbLine
 10
76.274930
 20
190.090884
 30
0.0
 11
76.093955
 21
190.015742
 31
0.0
  0
LINE
  5
3bf
100
AcDbEntity
  8
plotclock-5mm
 62
1
100
AcDbLine
 10
76.094061
 20
190.015777
 30
0.0
 11
75.899680
 21
189.990377
 31
0.0
  0
LINE
  5
3c0
100
AcDbEntity
  8
plotclock-5mm
 62
1
100
AcDbLine
 10
75.899751
 20
189.990307
 30
0.0
 11
75.705723
 21
190.015707
 31
0.0
  0
LINE
  5
3c1
100
AcDbEntity
  8
plotclock-5mm
 62
1
100
AcDbLine
 10
75.705794
 20
190.015777
 30
0.0
 11
75.524819
 21
190.090919
 31
0.0
  0
LINE
  5
3c2
100
AcDbEntity
  8
plotclock-5mm
 62
1
100
AcDbLine
 10
76.624251
 20
218.046476
 30
0.0
 11
76.549462
 21
217.865149
 31
0.0
  0
LINE
  5
3c3
100
AcDbEntity
  8
plotclock-5mm
 62
1
100
AcDbLine
 10
76.549321
 20
217.865254
 30
0.0
 11
76.430082
 21
217.710385
 31
0.0
  0
LINE
  5
3c4
100
AcDbEntity
  8
plotclock-5mm
 62
1
100
AcDbLine
 10
76.430117
 20
217.710209
 30
0.0
 11
76.274895
 21
217.590970
 31
0.0
  0
LINE
  5
3c5
100
AcDbEntity
  8
plotclock-5mm
 62
1
100
AcDbLine
 10
76.274930
 20
217.591040
 30
0.0
 11
76.093955
 21
217.515899
 31
0.0
  0
LINE
  5
3c6
100
AcDbEntity
  8
plotclock-5mm
 62
1
100
AcDbLine
 10
76.094061
 20
217.515934
 30
0.0
 11
75.899680
 21
217.490534
 31
0.0
  0
LINE
  5
3c7
100
AcDbEntity
  8
plotclock-5mm
 62
1
100
AcDbLine
 10
75.899751
 20
217.490428
 30
0.0
 11
75.705723
 21
217.515828
 31
0.0
  0
LINE
  5
3c8
100
AcDbEntity
  8
plotclock-5mm
 62
1
100
AcDbLine
 10
75.705794
 20
217.515934
 30
0.0
 11
75.524819
 21
217.591076
 31
0.0
  0
LINE
  5
3c9
100
AcDbEntity
  8
plotclock-5mm
 62
1
100
AcDbLine
 10
75.524924
 20
217.591040
 30
0.0
 11
75.369702
 21
217.710279
 31
0.0
  0
LINE
  5
3ca
100
AcDbEntity
  8
plotclock-5mm
 62
1
100
AcDbLine
 10
75.369561
 20
217.710209
 30
0.0
 11
75.250322
 21
217.865078
 31
0.0
  0
LINE
  5
3cb
100
AcDbEntity
  8
plotclock-5mm
 62
1
100
AcDbLine
 10
75.250357
 20
217.865254
 30
0.0
 11
75.175569
 21
218.046582
 31
0.0
  0
LINE
  5
3cc
100
AcDbEntity
  8
plotclock-5mm
 62
1
100
AcDbLine
 10
75.175427
 20
218.046476
 30
0.0
 11
75.149675
 21
218.240857
 31
0.0
  0
LINE
  5
3cd
100
AcDbEntity
  8
plotclock-5mm
 62
1
100
AcDbLine
 10
75.149745
 20
218.240786
 30
0.0
 11
75.175498
 21
218.434461
 31
0.0
  0
LINE
  5
3ce
100
AcDbEntity
  8
plotclock-5mm
 62
1
100
AcDbLine
 10
75.175427
 20
218.434391
 30
0.0
 11
75.250216
 21
218.615719
 31
0.0
  0
LINE
  5
3cf
100
AcDbEntity
  8
plotclock-5mm
 62
1
100
AcDbLine
 10
75.250357
 20
218.615613
 30
0.0
 11
75.369596
 21
218.770482
 31
0.0
  0
LINE
  5
3d0
100
AcDbEntity
  8
plotclock-5mm
 62
1
100
AcDbLine
 10
75.369561
 20
218.770623
 30
0.0
 11
75.524783
 21
218.889862
 31
0.0
  0
LINE
  5
3d1
100
AcDbEntity
  8
plotclock-5mm
 62
1
100
AcDbLine
 10
75.524924
 20
218.889827
 30
0.0
 11
75.705899
 21
218.964969
 31
0.0
  0
LINE
  5
3d2
100
AcDbEntity
  8
plotclock-5mm
 62
1
100
AcDbLine
 10
75.705794
 20
218.964933
 30
0.0
 11
75.899821
 21
218.990333
 31
0.0
  0
LINE
  5
3d3
100
AcDbEntity
  8
plotclock-5mm
 62
1
100
AcDbLine
 10
75.899751
 20
218.990439
 30
0.0
 11
76.094131
 21
218.965039
 31
0.0
  0
LINE
  5
3d4
100
AcDbEntity
  8
plotclock-5mm
 62
1
100
AcDbLine
 10
76.094061
 20
218.964933
 30
0.0
 11
76.275036
 21
218.889792
 31
0.0
  0
LINE
  5
3d5
100
AcDbEntity
  8
plotclock-5mm
 62
1
100
AcDbLine
 10
76.274930
 20
218.889827
 30
0.0
 11
76.430152
 21
218.770588
 31
0.0
  0
LINE
  5
3d6
100
AcDbEntity
  8
plotclock-5mm
 62
1
100
AcDbLine
 10
76.430117
 20
218.770623
 30
0.0
 11
76.549356
 21
218.615754
 31
0.0
  0
LINE
  5
3d7
100
AcDbEntity
  8
plotclock-5mm
 62
1
100
AcDbLine
 10
76.549321
 20
218.615613
 30
0.0
 11
76.624109
 21
218.434285
 31
0.0
  0
LINE
  5
3d8
100
AcDbEntity
  8
plotclock-5mm
 62
1
100
AcDbLine
 10
76.624251
 20
218.434391
 30
0.0
 11
76.649651
 21
218.240716
 31
0.0
  0
LINE
  5
3d9
100
AcDbEntity
  8
plotclock-5mm
 62
1
100
AcDbLine
 10
76.649756
 20
218.240786
 30
0.0
 11
76.624356
 21
218.046406
 31
0.0
  0
LINE
  5
3da
100
AcDbEntity
  8
plotclock-5mm
 62
1
100
AcDbLine
 10
74.600788
 20
222.240510
 30
0.0
 11
74.450857
 21
222.602108
 31
0.0
  0
LINE
  5
3db
100
AcDbEntity
  8
plotclock-5mm
 62
1
100
AcDbLine
 10
74.450928
 20
222.602249
 30
0.0
 11
74.399775
 21
222.990304
 31
0.0
  0
LINE
  5
3dc
100
AcDbEntity
  8
plotclock-5mm
 62
1
100
AcDbLine
 10
74.399775
 20
222.990163
 30
0.0
 11
74.450928
 21
223.378924
 31
0.0
  0
LINE
  5
3dd
100
AcDbEntity
  8
plotclock-5mm
 62
1
100
AcDbLine
 10
74.450928
 20
223.378783
 30
0.0
 11
74.600858
 21
223.740380
 31
0.0
  0
LINE
  5
3de
100
AcDbEntity
  8
plotclock-5mm
 62
1
100
AcDbLine
 10
74.600788
 20
223.740521
 30
0.0
 11
74.839266
 21
224.051319
 31
0.0
  0
LINE
  5
3df
100
AcDbEntity
  8
plotclock-5mm
 62
1
100
AcDbLine
 10
74.839195
 20
224.051283
 30
0.0
 11
75.149639
 21
224.289761
 31
0.0
  0
LINE
  5
3e0
100
AcDbEntity
  8
plotclock-5mm
 62
1
100
AcDbLine
 10
75.149745
 20
224.289655
 30
0.0
 11
75.511695
 21
224.439233
 31
0.0
  0
LINE
  5
3e1
100
AcDbEntity
  8
plotclock-5mm
 62
1
100
AcDbLine
 10
75.511660
 20
224.439198
 30
0.0
 11
75.899716
 21
224.490351
 31
0.0
  0
LINE
  5
3e2
100
AcDbEntity
  8
plotclock-5mm
 62
1
100
AcDbLine
 10
75.899751
 20
224.490174
 30
0.0
 11
76.288159
 21
224.439021
 31
0.0
  0
LINE
  5
3e3
100
AcDbEntity
  8
plotclock-5mm
 62
1
100
AcDbLine
 10
76.288018
 20
224.439198
 30
0.0
 11
76.649615
 21
224.289620
 31
0.0
  0
LINE
  5
3e4
100
AcDbEntity
  8
plotclock-5mm
 62
1
100
AcDbLine
 10
76.649756
 20
224.289655
 30
0.0
 11
76.960554
 21
224.051177
 31
0.0
  0
LINE
  5
3e5
100
AcDbEntity
  8
plotclock-5mm
 62
1
100
AcDbLine
 10
76.960518
 20
224.051283
 30
0.0
 11
77.198996
 21
223.740486
 31
0.0
  0
LINE
  5
3e6
100
AcDbEntity
  8
plotclock-5mm
 62
1
100
AcDbLine
 10
77.198890
 20
223.740521
 30
0.0
 11
77.348821
 21
223.378924
 31
0.0
  0
LINE
  5
3e7
100
AcDbEntity
  8
plotclock-5mm
 62
1
100
AcDbLine
 10
77.348750
 20
223.378783
 30
0.0
 11
77.399903
 21
222.990022
 31
0.0
  0
LINE
  5
3e8
100
AcDbEntity
  8
plotclock-5mm
 62
1
100
AcDbLine
 10
77.399938
 20
222.990163
 30
0.0
 11
77.348786
 21
222.602107
 31
0.0
  0
LINE
  5
3e9
100
AcDbEntity
  8
plotclock-5mm
 62
1
100
AcDbLine
 10
77.348750
 20
222.602249
 30
0.0
 11
77.198820
 21
222.240651
 31
0.0
  0
LINE
  5
3ea
100
AcDbEntity
  8
plotclock-5mm
 62
1
100
AcDbLine
 10
77.198890
 20
222.240510
 30
0.0
 11
76.960413
 21
221.929713
 31
0.0
  0
LINE
  5
3eb
100
AcDbEntity
  8
plotclock-5mm
 62
1
100
AcDbLine
 10
76.960518
 20
221.929784
 30
0.0
 11
76.649721
 21
221.691306
 31
0.0
  0
LINE
  5
3ec
100
AcDbEntity
  8
plotclock-5mm
 62
1
100
AcDbLine
 10
76.649756
 20
221.691376
 30
0.0
 11
76.288159
 21
221.541093
 31
0.0
  0
LINE
  5
3ed
100
AcDbEntity
  8
plotclock-5mm
 62
1
100
AcDbLine
 10
76.288018
 20
221.541164
 30
0.0
 11
75.899610
 21
221.490011
 31
0.0
  0
LINE
  5
3ee
100
AcDbEntity
  8
plotclock-5mm
 62
1
100
AcDbLine
 10
75.899751
 20
221.490187
 30
0.0
 11
75.511695
 21
221.541340
 31
0.0
  0
LINE
  5
3ef
100
AcDbEntity
  8
plotclock-5mm
 62
1
100
AcDbLine
 10
75.511660
 20
221.541164
 30
0.0
 11
75.149710
 21
221.691447
 31
0.0
  0
LINE
  5
3f0
100
AcDbEntity
  8
plotclock-5mm
 62
1
100
AcDbLine
 10
75.149745
 20
221.691376
 30
0.0
 11
74.839301
 21
221.929854
 31
0.0
  0
LINE
  5
3f1
100
AcDbEntity
  8
plotclock-5mm
 62
1
100
AcDbLine
 10
74.839195
 20
221.929784
 30
0.0
 11
74.600717
 21
222.240581
 31
0.0
  0
LINE
  5
3f2
100
AcDbEntity
  8
plotclock-5mm
 62
1
100
AcDbLine
 10
144.135404
 20
279.881118
 30
0.0
 11
143.986885
 21
279.521991
 31
0.0
  0
LINE
  5
3f3
100
AcDbEntity
  8
plotclock-5mm
 62
1
100
AcDbLine
 10
143.986885
 20
279.521991
 30
0.0
 11
143.750524
 21
279.214016
 31
0.0
  0
LINE
  5
3f4
100
AcDbEntity
  8
plotclock-5mm
 62
1
100
AcDbLine
 10
143.750524
 20
279.214016
 30
0.0
 11
143.442549
 21
278.977654
 31
0.0
  0
LINE
  5
3f5
100
AcDbEntity
  8
plotclock-5mm
 62
1
100
AcDbLine
 10
143.442549
 20
278.977654
 30
0.0
 11
143.083774
 21
278.829135
 31
0.0
  0
LINE
  5
3f6
100
AcDbEntity
  8
plotclock-5mm
 62
1
100
AcDbLine
 10
143.083774
 20
278.829135
 30
0.0
 11
142.698893
 21
278.778688
 31
0.0
  0
LINE
  5
3f7
100
AcDbEntity
  8
plotclock-5mm
 62
1
100
AcDbLine
 10
142.698893
 20
278.778688
 30
0.0
 11
142.314013
 21
278.829135
 31
0.0
  0
LINE
  5
3f8
100
AcDbEntity
  8
plotclock-5mm
 62
1
100
AcDbLine
 10
142.314013
 20
278.829135
 30
0.0
 11
141.955591
 21
278.977654
 31
0.0
  0
LINE
  5
3f9
100
AcDbEntity
  8
plotclock-5mm
 62
1
100
AcDbLine
 10
141.955591
 20
278.977654
 30
0.0
 11
141.647616
 21
279.214016
 31
0.0
  0
LINE
  5
3fa
100
AcDbEntity
  8
plotclock-5mm
 62
1
100
AcDbLine
 10
141.647616
 20
279.214016
 30
0.0
 11
141.411254
 21
279.521991
 31
0.0
  0
LINE
  5
3fb
100
AcDbEntity
  8
plotclock-5mm
 62
1
100
AcDbLine
 10
141.411254
 20
279.521991
 30
0.0
 11
141.262382
 21
279.881118
 31
0.0
  0
LINE
  5
3fc
100
AcDbEntity
  8
plotclock-5mm
 62
1
100
AcDbLine
 10
141.262382
 20
279.881118
 30
0.0
 11
141.211935
 21
280.265646
 31
0.0
  0
LINE
  5
3fd
100
AcDbEntity
  8
plotclock-5mm
 62
1
100
AcDbLine
 10
141.211935
 20
280.265646
 30
0.0
 11
141.262382
 21
280.650879
 31
0.0
  0
LINE
  5
3fe
100
AcDbEntity
  8
plotclock-5mm
 62
1
100
AcDbLine
 10
141.262382
 20
280.650879
 30
0.0
 11
141.411254
 21
281.008949
 31
0.0
  0
LINE
  5
3ff
100
AcDbEntity
  8
plotclock-5mm
 62
1
100
AcDbLine
 10
141.411254
 20
281.008949
 30
0.0
 11
141.647616
 21
281.316924
 31
0.0
  0
LINE
  5
400
100
AcDbEntity
  8
plotclock-5mm
 62
1
100
AcDbLine
 10
141.647616
 20
281.316924
 30
0.0
 11
141.955591
 21
281.553285
 31
0.0
  0
LINE
  5
401
100
AcDbEntity
  8
plotclock-5mm
 62
1
100
AcDbLine
 10
141.955591
 20
281.553285
 30
0.0
 11
142.314013
 21
281.702157
 31
0.0
  0
LINE
  5
402
100
AcDbEntity
  8
plotclock-5mm
 62
1
100
AcDbLine
 10
142.314013
 20
281.702157
 30
0.0
 11
142.698893
 21
281.752604
 31
0.0
  0
LINE
  5
403
100
AcDbEntity
  8
plotclock-5mm
 62
1
100
AcDbLine
 10
142.698893
 20
281.752604
 30
0.0
 11
143.083774
 21
281.702157
 31
0.0
  0
LINE
  5
404
100
AcDbEntity
  8
plotclock-5mm
 62
1
100
AcDbLine
 10
143.083774
 20
281.702157
 30
0.0
 11
143.442549
 21
281.553285
 31
0.0
  0
LINE
  5
405
100
AcDbEntity
  8
plotclock-5mm
 62
1
100
AcDbLine
 10
143.442549
 20
281.553285
 30
0.0
 11
143.750524
 21
281.316924
 31
0.0
  0
LINE
  5
406
100
AcDbEntity
  8
plotclock-5mm
 62
1
100
AcDbLine
 10
143.750524
 20
281.316924
 30
0.0
 11
143.986885
 21
281.008949
 31
0.0
  0
LINE
  5
407
100
AcDbEntity
  8
plotclock-5mm
 62
1
100
AcDbLine
 10
143.986885
 20
281.008949
 30
0.0
 11
144.135404
 21
280.650879
 31
0.0
  0
LINE
  5
408
100
AcDbEntity
  8
plotclock-5mm
 62
1
100
AcDbLine
 10
144.135404
 20
280.650879
 30
0.0
 11
144.186204
 21
280.265646
 31
0.0
  0
LINE
  5
409
100
AcDbEntity
  8
plotclock-5mm
 62
1
100
AcDbLine
 10
144.186204
 20
280.265646
 30
0.0
 11
144.135404
 21
279.881118
 31
0.0
  0
LINE
  5
40a
100
AcDbEntity
  8
plotclock-5mm
 62
1
100
AcDbLine
 10
144.135404
 20
279.881118
 30
0.0
 11
144.135404
 21
279.881118
 31
0.0
  0
LINE
  5
40b
100
AcDbEntity
  8
plotclock-5mm
 62
1
100
AcDbLine
 10
99.135424
 20
279.881118
 30
0.0
 11
98.986552
 21
279.521991
 31
0.0
  0
LINE
  5
40c
100
AcDbEntity
  8
plotclock-5mm
 62
1
100
AcDbLine
 10
98.986552
 20
279.521991
 30
0.0
 11
98.750896
 21
279.214016
 31
0.0
  0
LINE
  5
40d
100
AcDbEntity
  8
plotclock-5mm
 62
1
100
AcDbLine
 10
98.750896
 20
279.214016
 30
0.0
 11
98.442921
 21
278.977654
 31
0.0
  0
LINE
  5
40e
100
AcDbEntity
  8
plotclock-5mm
 62
1
100
AcDbLine
 10
98.442921
 20
278.977654
 30
0.0
 11
98.083793
 21
278.829135
 31
0.0
  0
LINE
  5
40f
100
AcDbEntity
  8
plotclock-5mm
 62
1
100
AcDbLine
 10
98.083793
 20
278.829135
 30
0.0
 11
97.698913
 21
278.778688
 31
0.0
  0
LINE
  5
410
100
AcDbEntity
  8
plotclock-5mm
 62
1
100
AcDbLine
 10
97.698913
 20
278.778688
 30
0.0
 11
97.314385
 21
278.829135
 31
0.0
  0
LINE
  5
411
100
AcDbEntity
  8
plotclock-5mm
 62
1
100
AcDbLine
 10
97.314385
 20
278.829135
 30
0.0
 11
96.955257
 21
278.977654
 31
0.0
  0
LINE
  5
412
100
AcDbEntity
  8
plotclock-5mm
 62
1
100
AcDbLine
 10
96.955257
 20
278.977654
 30
0.0
 11
96.647282
 21
279.214016
 31
0.0
  0
LINE
  5
413
100
AcDbEntity
  8
plotclock-5mm
 62
1
100
AcDbLine
 10
96.647282
 20
279.214016
 30
0.0
 11
96.410921
 21
279.521991
 31
0.0
  0
LINE
  5
414
100
AcDbEntity
  8
plotclock-5mm
 62
1
100
AcDbLine
 10
96.410921
 20
279.521991
 30
0.0
 11
96.262754
 21
279.881118
 31
0.0
  0
LINE
  5
415
100
AcDbEntity
  8
plotclock-5mm
 62
1
100
AcDbLine
 10
96.262754
 20
279.881118
 30
0.0
 11
96.211954
 21
280.265646
 31
0.0
  0
LINE
  5
416
100
AcDbEntity
  8
plotclock-5mm
 62
1
100
AcDbLine
 10
96.211954
 20
280.265646
 30
0.0
 11
96.262754
 21
280.650879
 31
0.0
  0
LINE
  5
417
100
AcDbEntity
  8
plotclock-5mm
 62
1
100
AcDbLine
 10
96.262754
 20
280.650879
 30
0.0
 11
96.410921
 21
281.008949
 31
0.0
  0
LINE
  5
418
100
AcDbEntity
  8
plotclock-5mm
 62
1
100
AcDbLine
 10
96.410921
 20
281.008949
 30
0.0
 11
96.647282
 21
281.316924
 31
0.0
  0
LINE
  5
419
100
AcDbEntity
  8
plotclock-5mm
 62
1
100
AcDbLine
 10
96.647282
 20
281.316924
 30
0.0
 11
96.955257
 21
281.553285
 31
0.0
  0
LINE
  5
41a
100
AcDbEntity
  8
plotclock-5mm
 62
1
100
AcDbLine
 10
96.955257
 20
281.553285
 30
0.0
 11
97.314385
 21
281.702157
 31
0.0
  0
LINE
  5
41b
100
AcDbEntity
  8
plotclock-5mm
 62
1
100
AcDbLine
 10
97.314385
 20
281.702157
 30
0.0
 11
97.698913
 21
281.752604
 31
0.0
  0
LINE
  5
41c
100
AcDbEntity
  8
plotclock-5mm
 62
1
100
AcDbLine
 10
97.698913
 20
281.752604
 30
0.0
 11
98.083793
 21
281.702157
 31
0.0
  0
LINE
  5
41d
100
AcDbEntity
  8
plotclock-5mm
 62
1
100
AcDbLine
 10
98.083793
 20
281.702157
 30
0.0
 11
98.442921
 21
281.553285
 31
0.0
  0
LINE
  5
41e
100
AcDbEntity
  8
plotclock-5mm
 62
1
100
AcDbLine
 10
98.442921
 20
281.553285
 30
0.0
 11
98.750896
 21
281.316924
 31
0.0
  0
LINE
  5
41f
100
AcDbEntity
  8
plotclock-5mm
 62
1
100
AcDbLine
 10
98.750896
 20
281.316924
 30
0.0
 11
98.986552
 21
281.008949
 31
0.0
  0
LINE
  5
420
100
AcDbEntity
  8
plotclock-5mm
 62
1
100
AcDbLine
 10
98.986552
 20
281.008949
 30
0.0
 11
99.135424
 21
280.650879
 31
0.0
  0
LINE
  5
421
100
AcDbEntity
  8
plotclock-5mm
 62
1
100
AcDbLine
 10
99.135424
 20
280.650879
 30
0.0
 11
99.186224
 21
280.265646
 31
0.0
  0
LINE
  5
422
100
AcDbEntity
  8
plotclock-5mm
 62
1
100
AcDbLine
 10
99.186224
 20
280.265646
 30
0.0
 11
99.135424
 21
279.881118
 31
0.0
  0
LINE
  5
423
100
AcDbEntity
  8
plotclock-5mm
 62
1
100
AcDbLine
 10
99.135424
 20
279.881118
 30
0.0
 11
99.135424
 21
279.881118
 31
0.0
  0
LINE
  5
424
100
AcDbEntity
  8
plotclock-5mm
 62
1
100
AcDbLine
 10
159.056493
 20
291.577818
 30
0.0
 11
156.188057
 21
290.809468
 31
0.0
  0
SPLINE
  5
425
100
AcDbEntity
  8
plotclock-5mm
 62
1
100
AcDbSpline
 70
8
 71
3
 72
8
 73
4
 74
0
 40
0
 40
0
 40
0
 40
0
 40
1
 40
1
 40
1
 40
1
 10
156.188057
 20
290.809468
 30
0.0
 10
156.272371
 20
290.471507
 30
0.0
 10
156.322113
 20
290.119435
 30
0.0
 10
156.322113
 20
289.755368
 30
0.0
  0
SPLINE
  5
426
100
AcDbEntity
  8
plotclock-5mm
 62
1
100
AcDbSpline
 70
8
 71
3
 72
8
 73
4
 74
0
 40
0
 40
0
 40
0
 40
0
 40
1
 40
1
 40
1
 40
1
 10
156.322113
 20
289.755368
 30
0.0
 10
156.322113
 20
287.352952
 30
0.0
 10
154.374427
 20
285.405266
 30
0.0
 10
151.972010
 20
285.405266
 30
0.0
  0
SPLINE
  5
427
100
AcDbEntity
  8
plotclock-5mm
 62
1
100
AcDbSpline
 70
8
 71
3
 72
8
 73
4
 74
0
 40
0
 40
0
 40
0
 40
0
 40
1
 40
1
 40
1
 40
1
 10
151.972010
 20
285.405266
 30
0.0
 10
149.569593
 20
285.405266
 30
0.0
 10
147.621907
 20
287.352952
 30
0.0
 10
147.621907
 20
289.755368
 30
0.0
  0
SPLINE
  5
428
100
AcDbEntity
  8
plotclock-5mm
 62
1
100
AcDbSpline
 70
8
 71
3
 72
8
 73
4
 74
0
 40
0
 40
0
 40
0
 40
0
 40
1
 40
1
 40
1
 40
1
 10
147.621907
 20
289.755368
 30
0.0
 10
147.621907
 20
292.157785
 30
0.0
 10
149.569593
 20
294.105471
 30
0.0
 10
151.972010
 20
294.105471
 30
0.0
  0
SPLINE
  5
429
100
AcDbEntity
  8
plotclock-5mm
 62
1
100
AcDbSpline
 70
8
 71
3
 72
8
 73
4
 74
0
 40
0
 40
0
 40
0
 40
0
 40
1
 40
1
 40
1
 40
1
 10
151.972010
 20
294.105471
 30
0.0
 10
152.368532
 20
294.105471
 30
0.0
 10
152.750591
 20
294.047968
 30
0.0
 10
153.115716
 20
293.948485
 30
0.0
  0
LINE
  5
42a
100
AcDbEntity
  8
plotclock-5mm
 62
1
100
AcDbLine
 10
153.115716
 20
293.948485
 30
0.0
 11
153.870307
 21
296.764004
 31
0.0
  0
LINE
  5
42b
100
AcDbEntity
  8
plotclock-5mm
 62
1
100
AcDbLine
 10
153.870307
 20
296.764004
 30
0.0
 11
151.972010
 21
297.014124
 31
0.0
  0
LINE
  5
42c
100
AcDbEntity
  8
plotclock-5mm
 62
1
100
AcDbLine
 10
151.972010
 20
297.014124
 30
0.0
 11
150.073713
 21
296.764004
 31
0.0
  0
LINE
  5
42d
100
AcDbEntity
  8
plotclock-5mm
 62
1
100
AcDbLine
 10
150.073713
 20
296.764004
 30
0.0
 11
148.304532
 21
296.031638
 31
0.0
  0
LINE
  5
42e
100
AcDbEntity
  8
plotclock-5mm
 62
1
100
AcDbLine
 10
148.304532
 20
296.031638
 30
0.0
 11
146.785824
 21
294.866060
 31
0.0
  0
LINE
  5
42f
100
AcDbEntity
  8
plotclock-5mm
 62
1
100
AcDbLine
 10
146.785824
 20
294.866060
 30
0.0
 11
145.619893
 21
293.347352
 31
0.0
  0
LINE
  5
430
100
AcDbEntity
  8
plotclock-5mm
 62
1
100
AcDbLine
 10
145.619893
 20
293.347352
 30
0.0
 11
144.887174
 21
291.577818
 31
0.0
  0
LINE
  5
431
100
AcDbEntity
  8
plotclock-5mm
 62
1
100
AcDbLine
 10
144.887174
 20
291.577818
 30
0.0
 11
144.637407
 21
289.679521
 31
0.0
  0
LINE
  5
432
100
AcDbEntity
  8
plotclock-5mm
 62
1
100
AcDbLine
 10
144.637407
 20
289.679521
 30
0.0
 11
144.887174
 21
287.781577
 31
0.0
  0
LINE
  5
433
100
AcDbEntity
  8
plotclock-5mm
 62
1
100
AcDbLine
 10
144.887174
 20
287.781577
 30
0.0
 11
145.163752
 21
287.114474
 31
0.0
  0
LINE
  5
434
100
AcDbEntity
  8
plotclock-5mm
 62
1
100
AcDbLine
 10
145.163752
 20
287.114474
 30
0.0
 11
144.251821
 21
286.061079
 31
0.0
  0
LINE
  5
435
100
AcDbEntity
  8
plotclock-5mm
 62
1
100
AcDbLine
 10
144.251821
 20
286.061079
 30
0.0
 11
142.698893
 21
286.265691
 31
0.0
  0
LINE
  5
436
100
AcDbEntity
  8
plotclock-5mm
 62
1
100
AcDbLine
 10
142.698893
 20
286.265691
 30
0.0
 11
141.145966
 21
286.061079
 31
0.0
  0
LINE
  5
437
100
AcDbEntity
  8
plotclock-5mm
 62
1
100
AcDbLine
 10
141.145966
 20
286.061079
 30
0.0
 11
139.698871
 21
285.462063
 31
0.0
  0
LINE
  5
438
100
AcDbEntity
  8
plotclock-5mm
 62
1
100
AcDbLine
 10
139.698871
 20
285.462063
 30
0.0
 11
138.456388
 21
284.508504
 31
0.0
  0
LINE
  5
439
100
AcDbEntity
  8
plotclock-5mm
 62
1
100
AcDbLine
 10
138.456388
 20
284.508504
 30
0.0
 11
101.941771
 21
284.508504
 31
0.0
  0
LINE
  5
43a
100
AcDbEntity
  8
plotclock-5mm
 62
1
100
AcDbLine
 10
101.941771
 20
284.508504
 30
0.0
 11
100.698935
 21
285.462063
 31
0.0
  0
LINE
  5
43b
100
AcDbEntity
  8
plotclock-5mm
 62
1
100
AcDbLine
 10
100.698935
 20
285.462063
 30
0.0
 11
99.251841
 21
286.061079
 31
0.0
  0
LINE
  5
43c
100
AcDbEntity
  8
plotclock-5mm
 62
1
100
AcDbLine
 10
99.251841
 20
286.061079
 30
0.0
 11
97.698913
 21
286.265691
 31
0.0
  0
LINE
  5
43d
100
AcDbEntity
  8
plotclock-5mm
 62
1
100
AcDbLine
 10
97.698913
 20
286.265691
 30
0.0
 11
96.146338
 21
286.061079
 31
0.0
  0
LINE
  5
43e
100
AcDbEntity
  8
plotclock-5mm
 62
1
100
AcDbLine
 10
96.146338
 20
286.061079
 30
0.0
 11
94.698891
 21
285.462063
 31
0.0
  0
LINE
  5
43f
100
AcDbEntity
  8
plotclock-5mm
 62
1
100
AcDbLine
 10
94.698891
 20
285.462063
 30
0.0
 11
93.456407
 21
284.508504
 31
0.0
  0
LINE
  5
440
100
AcDbEntity
  8
plotclock-5mm
 62
1
100
AcDbLine
 10
93.456407
 20
284.508504
 30
0.0
 11
92.502849
 21
283.265668
 31
0.0
  0
LINE
  5
441
100
AcDbEntity
  8
plotclock-5mm
 62
1
100
AcDbLine
 10
92.502849
 20
283.265668
 30
0.0
 11
91.903479
 21
281.818574
 31
0.0
  0
LINE
  5
442
100
AcDbEntity
  8
plotclock-5mm
 62
1
100
AcDbLine
 10
91.903479
 20
281.818574
 30
0.0
 11
91.698868
 21
280.265646
 31
0.0
  0
LINE
  5
443
100
AcDbEntity
  8
plotclock-5mm
 62
1
100
AcDbLine
 10
91.698868
 20
280.265646
 30
0.0
 11
91.903479
 21
278.712366
 31
0.0
  0
LINE
  5
444
100
AcDbEntity
  8
plotclock-5mm
 62
1
100
AcDbLine
 10
91.903479
 20
278.712366
 30
0.0
 11
92.502849
 21
277.265624
 31
0.0
  0
LINE
  5
445
100
AcDbEntity
  8
plotclock-5mm
 62
1
100
AcDbLine
 10
92.502849
 20
277.265624
 30
0.0
 11
93.456407
 21
276.023141
 31
0.0
  0
LINE
  5
446
100
AcDbEntity
  8
plotclock-5mm
 62
1
100
AcDbLine
 10
93.456407
 20
276.023141
 30
0.0
 11
94.698891
 21
275.069582
 31
0.0
  0
LINE
  5
447
100
AcDbEntity
  8
plotclock-5mm
 62
1
100
AcDbLine
 10
94.698891
 20
275.069582
 30
0.0
 11
96.146338
 21
274.470213
 31
0.0
  0
LINE
  5
448
100
AcDbEntity
  8
plotclock-5mm
 62
1
100
AcDbLine
 10
96.146338
 20
274.470213
 30
0.0
 11
97.698913
 21
274.265602
 31
0.0
  0
LINE
  5
449
100
AcDbEntity
  8
plotclock-5mm
 62
1
100
AcDbLine
 10
97.698913
 20
274.265602
 30
0.0
 11
99.251841
 21
274.470213
 31
0.0
  0
LINE
  5
44a
100
AcDbEntity
  8
plotclock-5mm
 62
1
100
AcDbLine
 10
99.251841
 20
274.470213
 30
0.0
 11
100.698935
 21
275.069582
 31
0.0
  0
LINE
  5
44b
100
AcDbEntity
  8
plotclock-5mm
 62
1
100
AcDbLine
 10
100.698935
 20
275.069582
 30
0.0
 11
101.941771
 21
276.023141
 31
0.0
  0
LINE
  5
44c
100
AcDbEntity
  8
plotclock-5mm
 62
1
100
AcDbLine
 10
101.941771
 20
276.023141
 30
0.0
 11
138.456388
 21
276.023141
 31
0.0
  0
LINE
  5
44d
100
AcDbEntity
  8
plotclock-5mm
 62
1
100
AcDbLine
 10
138.456388
 20
276.023141
 30
0.0
 11
139.698871
 21
275.069582
 31
0.0
  0
LINE
  5
44e
100
AcDbEntity
  8
plotclock-5mm
 62
1
100
AcDbLine
 10
139.698871
 20
275.069582
 30
0.0
 11
141.145966
 21
274.470213
 31
0.0
  0
LINE
  5
44f
100
AcDbEntity
  8
plotclock-5mm
 62
1
100
AcDbLine
 10
141.145966
 20
274.470213
 30
0.0
 11
142.698893
 21
274.265602
 31
0.0
  0
LINE
  5
450
100
AcDbEntity
  8
plotclock-5mm
 62
1
100
AcDbLine
 10
142.698893
 20
274.265602
 30
0.0
 11
144.251821
 21
274.470213
 31
0.0
  0
LINE
  5
451
100
AcDbEntity
  8
plotclock-5mm
 62
1
100
AcDbLine
 10
144.251821
 20
274.470213
 30
0.0
 11
145.698916
 21
275.069582
 31
0.0
  0
LINE
  5
452
100
AcDbEntity
  8
plotclock-5mm
 62
1
100
AcDbLine
 10
145.698916
 20
275.069582
 30
0.0
 11
146.941752
 21
276.023141
 31
0.0
  0
LINE
  5
453
100
AcDbEntity
  8
plotclock-5mm
 62
1
100
AcDbLine
 10
146.941752
 20
276.023141
 30
0.0
 11
147.895310
 21
277.265624
 31
0.0
  0
LINE
  5
454
100
AcDbEntity
  8
plotclock-5mm
 62
1
100
AcDbLine
 10
147.895310
 20
277.265624
 30
0.0
 11
148.494327
 21
278.712366
 31
0.0
  0
LINE
  5
455
100
AcDbEntity
  8
plotclock-5mm
 62
1
100
AcDbLine
 10
148.494327
 20
278.712366
 30
0.0
 11
148.698938
 21
280.265646
 31
0.0
  0
LINE
  5
456
100
AcDbEntity
  8
plotclock-5mm
 62
1
100
AcDbLine
 10
148.698938
 20
280.265646
 30
0.0
 11
148.494327
 21
281.818574
 31
0.0
  0
LINE
  5
457
100
AcDbEntity
  8
plotclock-5mm
 62
1
100
AcDbLine
 10
148.494327
 20
281.818574
 30
0.0
 11
149.406257
 21
282.871616
 31
0.0
  0
LINE
  5
458
100
AcDbEntity
  8
plotclock-5mm
 62
1
100
AcDbLine
 10
149.406257
 20
282.871616
 30
0.0
 11
150.073713
 21
282.595038
 31
0.0
  0
LINE
  5
459
100
AcDbEntity
  8
plotclock-5mm
 62
1
100
AcDbLine
 10
150.073713
 20
282.595038
 30
0.0
 11
151.972010
 21
282.344918
 31
0.0
  0
LINE
  5
45a
100
AcDbEntity
  8
plotclock-5mm
 62
1
100
AcDbLine
 10
151.972010
 20
282.344918
 30
0.0
 11
153.870307
 21
282.595038
 31
0.0
  0
LINE
  5
45b
100
AcDbEntity
  8
plotclock-5mm
 62
1
100
AcDbLine
 10
153.870307
 20
282.595038
 30
0.0
 11
155.639135
 21
283.328110
 31
0.0
  0
LINE
  5
45c
100
AcDbEntity
  8
plotclock-5mm
 62
1
100
AcDbLine
 10
155.639135
 20
283.328110
 30
0.0
 11
157.158196
 21
284.493335
 31
0.0
  0
LINE
  5
45d
100
AcDbEntity
  8
plotclock-5mm
 62
1
100
AcDbLine
 10
157.158196
 20
284.493335
 30
0.0
 11
158.323774
 21
286.012749
 31
0.0
  0
LINE
  5
45e
100
AcDbEntity
  8
plotclock-5mm
 62
1
100
AcDbLine
 10
158.323774
 20
286.012749
 30
0.0
 11
159.056493
 21
287.781577
 31
0.0
  0
LINE
  5
45f
100
AcDbEntity
  8
plotclock-5mm
 62
1
100
AcDbLine
 10
159.056493
 20
287.781577
 30
0.0
 11
159.306260
 21
289.679521
 31
0.0
  0
LINE
  5
460
100
AcDbEntity
  8
plotclock-5mm
 62
1
100
AcDbLine
 10
159.306260
 20
289.679521
 30
0.0
 11
159.056493
 21
291.577818
 31
0.0
  0
LINE
  5
461
100
AcDbEntity
  8
plotclock-5mm
 62
1
100
AcDbLine
 10
159.056493
 20
291.577818
 30
0.0
 11
159.056493
 21
291.577818
 31
0.0
  0
LINE
  5
462
100
AcDbEntity
  8
plotclock-5mm
 62
1
100
AcDbLine
 10
143.809551
 20
205.056091
 30
0.0
 11
143.809551
 21
268.556444
 31
0.0
  0
LINE
  5
463
100
AcDbEntity
  8
plotclock-5mm
 62
1
100
AcDbLine
 10
143.809551
 20
268.556444
 30
0.0
 11
138.809278
 21
268.556444
 31
0.0
  0
LINE
  5
464
100
AcDbEntity
  8
plotclock-5mm
 62
1
100
AcDbLine
 10
138.809349
 20
268.556444
 30
0.0
 11
138.809349
 21
271.556466
 31
0.0
  0
LINE
  5
465
100
AcDbEntity
  8
plotclock-5mm
 62
1
100
AcDbLine
 10
138.809349
 20
271.556445
 30
0.0
 11
89.809574
 21
271.556445
 31
0.0
  0
LINE
  5
466
100
AcDbEntity
  8
plotclock-5mm
 62
1
100
AcDbLine
 10
89.809578
 20
271.556445
 30
0.0
 11
89.809578
 21
236.056064
 31
0.0
  0
LINE
  5
467
100
AcDbEntity
  8
plotclock-5mm
 62
1
100
AcDbLine
 10
89.809578
 20
236.056121
 30
0.0
 11
92.809600
 21
236.056121
 31
0.0
  0
LINE
  5
468
100
AcDbEntity
  8
plotclock-5mm
 62
1
100
AcDbLine
 10
92.809561
 20
236.056121
 30
0.0
 11
92.809561
 21
231.056201
 31
0.0
  0
LINE
  5
469
100
AcDbEntity
  8
plotclock-5mm
 62
1
100
AcDbLine
 10
92.809561
 20
231.056236
 30
0.0
 11
89.809539
 21
231.056236
 31
0.0
  0
LINE
  5
46a
100
AcDbEntity
  8
plotclock-5mm
 62
1
100
AcDbLine
 10
89.809578
 20
231.056236
 30
0.0
 11
89.809578
 21
201.556253
 31
0.0
  0
LINE
  5
46b
100
AcDbEntity
  8
plotclock-5mm
 62
1
100
AcDbLine
 10
89.809578
 20
201.556218
 30
0.0
 11
123.809241
 21
201.556218
 31
0.0
  0
LINE
  5
46c
100
AcDbEntity
  8
plotclock-5mm
 62
1
100
AcDbLine
 10
123.809383
 20
201.556218
 30
0.0
 11
123.809383
 21
186.556107
 31
0.0
  0
LINE
  5
46d
100
AcDbEntity
  8
plotclock-5mm
 62
1
100
AcDbLine
 10
123.809383
 20
186.556283
 30
0.0
 11
143.809413
 21
186.556283
 31
0.0
  0
LINE
  5
46e
100
AcDbEntity
  8
plotclock-5mm
 62
1
100
AcDbLine
 10
143.809551
 20
186.556283
 30
0.0
 11
143.809551
 21
202.056280
 31
0.0
  0
LINE
  5
46f
100
AcDbEntity
  8
plotclock-5mm
 62
1
100
AcDbLine
 10
143.809551
 20
202.056104
 30
0.0
 11
138.809278
 21
202.056104
 31
0.0
  0
LINE
  5
470
100
AcDbEntity
  8
plotclock-5mm
 62
1
100
AcDbLine
 10
138.809349
 20
202.056104
 30
0.0
 11
138.809349
 21
205.056126
 31
0.0
  0
LINE
  5
471
100
AcDbEntity
  8
plotclock-5mm
 62
1
100
AcDbLine
 10
138.809349
 20
205.056091
 30
0.0
 11
143.809621
 21
205.056091
 31
0.0
  0
LINE
  5
472
100
AcDbEntity
  8
plotclock-5mm
 62
1
100
AcDbLine
 10
51.985326
 20
223.804702
 30
0.0
 11
51.985326
 21
256.304708
 31
0.0
  0
LINE
  5
473
100
AcDbEntity
  8
plotclock-5mm
 62
1
100
AcDbLine
 10
51.985326
 20
256.304708
 30
0.0
 11
56.985246
 21
256.304708
 31
0.0
  0
LINE
  5
474
100
AcDbEntity
  8
plotclock-5mm
 62
1
100
AcDbLine
 10
56.985390
 20
256.304708
 30
0.0
 11
56.985390
 21
259.304730
 31
0.0
  0
LINE
  5
475
100
AcDbEntity
  8
plotclock-5mm
 62
1
100
AcDbLine
 10
56.985390
 20
259.304695
 30
0.0
 11
30.985315
 21
259.304695
 31
0.0
  0
LINE
  5
476
100
AcDbEntity
  8
plotclock-5mm
 62
1
100
AcDbLine
 10
30.985421
 20
259.304695
 30
0.0
 11
30.985421
 21
223.804667
 31
0.0
  0
LINE
  5
477
100
AcDbEntity
  8
plotclock-5mm
 62
1
100
AcDbLine
 10
30.985421
 20
223.804702
 30
0.0
 11
37.985238
 21
223.804702
 31
0.0
  0
LINE
  5
478
100
AcDbEntity
  8
plotclock-5mm
 62
1
100
AcDbLine
 10
37.985340
 20
223.804702
 30
0.0
 11
37.985340
 21
218.804783
 31
0.0
  0
LINE
  5
479
100
AcDbEntity
  8
plotclock-5mm
 62
1
100
AcDbLine
 10
37.985340
 20
218.804853
 30
0.0
 11
30.985523
 21
218.804853
 31
0.0
  0
LINE
  5
47a
100
AcDbEntity
  8
plotclock-5mm
 62
1
100
AcDbLine
 10
30.985421
 20
218.804677
 30
0.0
 11
30.985421
 21
162.304846
 31
0.0
  0
LINE
  5
47b
100
AcDbEntity
  8
plotclock-5mm
 62
1
100
AcDbLine
 10
30.985421
 20
162.304952
 30
0.0
 11
68.485346
 21
162.304952
 31
0.0
  0
LINE
  5
47c
100
AcDbEntity
  8
plotclock-5mm
 62
1
100
AcDbLine
 10
68.485276
 20
162.304952
 30
0.0
 11
68.485276
 21
174.305041
 31
0.0
  0
LINE
  5
47d
100
AcDbEntity
  8
plotclock-5mm
 62
1
100
AcDbLine
 10
68.485276
 20
174.304900
 30
0.0
 11
51.985506
 21
174.304900
 31
0.0
  0
LINE
  5
47e
100
AcDbEntity
  8
plotclock-5mm
 62
1
100
AcDbLine
 10
51.985326
 20
174.304900
 30
0.0
 11
51.985326
 21
189.804897
 31
0.0
  0
LINE
  5
47f
100
AcDbEntity
  8
plotclock-5mm
 62
1
100
AcDbLine
 10
51.985326
 20
189.804721
 30
0.0
 11
56.985246
 21
189.804721
 31
0.0
  0
LINE
  5
480
100
AcDbEntity
  8
plotclock-5mm
 62
1
100
AcDbLine
 10
56.985390
 20
189.804721
 30
0.0
 11
56.985390
 21
192.804743
 31
0.0
  0
LINE
  5
481
100
AcDbEntity
  8
plotclock-5mm
 62
1
100
AcDbLine
 10
56.985390
 20
192.804708
 30
0.0
 11
51.985471
 21
192.804708
 31
0.0
  0
LINE
  5
482
100
AcDbEntity
  8
plotclock-5mm
 62
1
100
AcDbLine
 10
51.985326
 20
192.804708
 30
0.0
 11
51.985326
 21
218.804783
 31
0.0
  0
LINE
  5
483
100
AcDbEntity
  8
plotclock-5mm
 62
1
100
AcDbLine
 10
51.985326
 20
218.804677
 30
0.0
 11
47.985179
 21
218.804677
 31
0.0
  0
LINE
  5
484
100
AcDbEntity
  8
plotclock-5mm
 62
1
100
AcDbLine
 10
47.985250
 20
218.804677
 30
0.0
 11
47.985250
 21
223.804596
 31
0.0
  0
LINE
  5
485
100
AcDbEntity
  8
plotclock-5mm
 62
1
100
AcDbLine
 10
47.985426
 20
223.804702
 30
0.0
 11
51.985220
 21
223.804702
 31
0.0
  0
LINE
  5
486
100
AcDbEntity
  8
plotclock-5mm
 62
1
100
AcDbLine
 10
41.686226
 20
222.054607
 30
0.0
 11
41.924704
 21
222.365404
 31
0.0
  0
LINE
  5
487
100
AcDbEntity
  8
plotclock-5mm
 62
1
100
AcDbLine
 10
41.924633
 20
222.365369
 30
0.0
 11
42.235430
 21
222.603494
 31
0.0
  0
LINE
  5
488
100
AcDbEntity
  8
plotclock-5mm
 62
1
100
AcDbLine
 10
42.235360
 20
222.603600
 30
0.0
 11
42.596957
 21
222.753530
 31
0.0
  0
LINE
  5
489
100
AcDbEntity
  8
plotclock-5mm
 62
1
100
AcDbLine
 10
42.597098
 20
222.753460
 30
0.0
 11
42.985507
 21
222.804613
 31
0.0
  0
LINE
  5
48a
100
AcDbEntity
  8
plotclock-5mm
 62
1
100
AcDbLine
 10
42.985365
 20
222.804613
 30
0.0
 11
43.373774
 21
222.753460
 31
0.0
  0
LINE
  5
48b
100
AcDbEntity
  8
plotclock-5mm
 62
1
100
AcDbLine
 10
43.373633
 20
222.753460
 30
0.0
 11
43.735230
 21
222.603529
 31
0.0
  0
LINE
  5
48c
100
AcDbEntity
  8
plotclock-5mm
 62
1
100
AcDbLine
 10
43.735371
 20
222.603600
 30
0.0
 11
44.045815
 21
222.365475
 31
0.0
  0
LINE
  5
48d
100
AcDbEntity
  8
plotclock-5mm
 62
1
100
AcDbLine
 10
44.045957
 20
222.365369
 30
0.0
 11
44.284434
 21
222.054572
 31
0.0
  0
LINE
  5
48e
100
AcDbEntity
  8
plotclock-5mm
 62
1
100
AcDbLine
 10
44.284364
 20
222.054607
 30
0.0
 11
44.434294
 21
221.693010
 31
0.0
  0
LINE
  5
48f
100
AcDbEntity
  8
plotclock-5mm
 62
1
100
AcDbLine
 10
44.434224
 20
221.692869
 30
0.0
 11
44.485377
 21
221.304460
 31
0.0
  0
LINE
  5
490
100
AcDbEntity
  8
plotclock-5mm
 62
1
100
AcDbLine
 10
44.485377
 20
221.304601
 30
0.0
 11
44.434224
 21
220.916193
 31
0.0
  0
LINE
  5
491
100
AcDbEntity
  8
plotclock-5mm
 62
1
100
AcDbLine
 10
44.434224
 20
220.916334
 30
0.0
 11
44.284293
 21
220.554737
 31
0.0
  0
LINE
  5
492
100
AcDbEntity
  8
plotclock-5mm
 62
1
100
AcDbLine
 10
44.284364
 20
220.554596
 30
0.0
 11
44.045886
 21
220.243799
 31
0.0
  0
LINE
  5
493
100
AcDbEntity
  8
plotclock-5mm
 62
1
100
AcDbLine
 10
44.045957
 20
220.243869
 30
0.0
 11
43.735512
 21
220.005391
 31
0.0
  0
LINE
  5
494
100
AcDbEntity
  8
plotclock-5mm
 62
1
100
AcDbLine
 10
43.735371
 20
220.005462
 30
0.0
 11
43.373774
 21
219.855884
 31
0.0
  0
LINE
  5
495
100
AcDbEntity
  8
plotclock-5mm
 62
1
100
AcDbLine
 10
43.373633
 20
219.855778
 30
0.0
 11
42.985224
 21
219.804626
 31
0.0
  0
LINE
  5
496
100
AcDbEntity
  8
plotclock-5mm
 62
1
100
AcDbLine
 10
42.985365
 20
219.804626
 30
0.0
 11
42.596957
 21
219.855778
 31
0.0
  0
LINE
  5
497
100
AcDbEntity
  8
plotclock-5mm
 62
1
100
AcDbLine
 10
42.597098
 20
219.855778
 30
0.0
 11
42.235501
 21
220.005356
 31
0.0
  0
LINE
  5
498
100
AcDbEntity
  8
plotclock-5mm
 62
1
100
AcDbLine
 10
42.235360
 20
220.005462
 30
0.0
 11
41.924563
 21
220.243940
 31
0.0
  0
LINE
  5
499
100
AcDbEntity
  8
plotclock-5mm
 62
1
100
AcDbLine
 10
41.924633
 20
220.243869
 30
0.0
 11
41.686155
 21
220.554666
 31
0.0
  0
LINE
  5
49a
100
AcDbEntity
  8
plotclock-5mm
 62
1
100
AcDbLine
 10
41.686226
 20
220.554596
 30
0.0
 11
41.536295
 21
220.916193
 31
0.0
  0
LINE
  5
49b
100
AcDbEntity
  8
plotclock-5mm
 62
1
100
AcDbLine
 10
41.536366
 20
220.916334
 30
0.0
 11
41.485213
 21
221.304743
 31
0.0
  0
LINE
  5
49c
100
AcDbEntity
  8
plotclock-5mm
 62
1
100
AcDbLine
 10
41.485390
 20
221.304601
 30
0.0
 11
41.536542
 21
221.693010
 31
0.0
  0
LINE
  5
49d
100
AcDbEntity
  8
plotclock-5mm
 62
1
100
AcDbLine
 10
41.536366
 20
221.692869
 30
0.0
 11
41.686297
 21
222.054466
 31
0.0
  0
LINE
  5
49e
100
AcDbEntity
  8
plotclock-5mm
 62
1
100
AcDbLine
 10
66.985296
 20
169.804902
 30
0.0
 11
66.985296
 21
164.804630
 31
0.0
  0
LINE
  5
49f
100
AcDbEntity
  8
plotclock-5mm
 62
1
100
AcDbLine
 10
66.985296
 20
164.804700
 30
0.0
 11
61.985377
 21
164.804700
 31
0.0
  0
LINE
  5
4a0
100
AcDbEntity
  8
plotclock-5mm
 62
1
100
AcDbLine
 10
61.985412
 20
164.804700
 30
0.0
 11
61.985412
 21
169.804973
 31
0.0
  0
LINE
  5
4a1
100
AcDbEntity
  8
plotclock-5mm
 62
1
100
AcDbLine
 10
61.985412
 20
169.804902
 30
0.0
 11
66.985332
 21
169.804902
 31
0.0
  0
LINE
  5
4a2
100
AcDbEntity
  8
plotclock-5mm
 62
1
100
AcDbLine
 10
158.071728
 20
159.476609
 30
0.0
 11
158.071728
 21
166.476779
 31
0.0
  0
LINE
  5
4a3
100
AcDbEntity
  8
plotclock-5mm
 62
1
100
AcDbLine
 10
158.071728
 20
166.476705
 30
0.0
 11
153.071456
 21
166.476705
 31
0.0
  0
LINE
  5
4a4
100
AcDbEntity
  8
plotclock-5mm
 62
1
100
AcDbLine
 10
153.071527
 20
166.476705
 30
0.0
 11
153.071527
 21
169.976966
 31
0.0
  0
LINE
  5
4a5
100
AcDbEntity
  8
plotclock-5mm
 62
1
100
AcDbLine
 10
153.071527
 20
169.976931
 30
0.0
 11
151.071982
 21
169.976931
 31
0.0
  0
LINE
  5
4a6
100
AcDbEntity
  8
plotclock-5mm
 62
1
100
AcDbLine
 10
151.072017
 20
169.976931
 30
0.0
 11
151.072017
 21
168.726686
 31
0.0
  0
LINE
  5
4a7
100
AcDbEntity
  8
plotclock-5mm
 62
1
100
AcDbLine
 10
151.072017
 20
168.726686
 30
0.0
 11
148.371856
 21
168.726686
 31
0.0
  0
LINE
  5
4a8
100
AcDbEntity
  8
plotclock-5mm
 62
1
100
AcDbLine
 10
148.371750
 20
168.726686
 30
0.0
 11
148.371750
 21
169.976578
 31
0.0
  0
LINE
  5
4a9
100
AcDbEntity
  8
plotclock-5mm
 62
1
100
AcDbLine
 10
148.371750
 20
169.976578
 30
0.0
 11
142.772109
 21
169.976578
 31
0.0
  0
LINE
  5
4aa
100
AcDbEntity
  8
plotclock-5mm
 62
1
100
AcDbLine
 10
142.772074
 20
169.976578
 30
0.0
 11
142.772074
 21
172.976600
 31
0.0
  0
LINE
  5
4ab
100
AcDbEntity
  8
plotclock-5mm
 62
1
100
AcDbLine
 10
142.772074
 20
172.976565
 30
0.0
 11
148.371715
 21
172.976917
 31
0.0
  0
LINE
  5
4ac
100
AcDbEntity
  8
plotclock-5mm
 62
1
100
AcDbLine
 10
148.371750
 20
172.976921
 30
0.0
 11
148.371750
 21
174.226813
 31
0.0
  0
LINE
  5
4ad
100
AcDbEntity
  8
plotclock-5mm
 62
1
100
AcDbLine
 10
148.371750
 20
174.226774
 30
0.0
 11
151.071912
 21
174.226774
 31
0.0
  0
LINE
  5
4ae
100
AcDbEntity
  8
plotclock-5mm
 62
1
100
AcDbLine
 10
151.072017
 20
174.226774
 30
0.0
 11
151.072017
 21
172.976882
 31
0.0
  0
LINE
  5
4af
100
AcDbEntity
  8
plotclock-5mm
 62
1
100
AcDbLine
 10
151.072017
 20
172.976921
 30
0.0
 11
153.071562
 21
172.976921
 31
0.0
  0
LINE
  5
4b0
100
AcDbEntity
  8
plotclock-5mm
 62
1
100
AcDbLine
 10
153.071527
 20
172.976921
 30
0.0
 11
153.071527
 21
176.476829
 31
0.0
  0
LINE
  5
4b1
100
AcDbEntity
  8
plotclock-5mm
 62
1
100
AcDbLine
 10
153.071527
 20
176.476791
 30
0.0
 11
158.071799
 21
176.476791
 31
0.0
  0
LINE
  5
4b2
100
AcDbEntity
  8
plotclock-5mm
 62
1
100
AcDbLine
 10
158.071728
 20
176.476791
 30
0.0
 11
158.071728
 21
180.476938
 31
0.0
  0
LINE
  5
4b3
100
AcDbEntity
  8
plotclock-5mm
 62
1
100
AcDbLine
 10
158.071728
 20
180.476867
 30
0.0
 11
107.071703
 21
180.476514
 31
0.0
  0
LINE
  5
4b4
100
AcDbEntity
  8
plotclock-5mm
 62
1
100
AcDbLine
 10
107.071774
 20
180.476550
 30
0.0
 11
107.071774
 21
185.476822
 31
0.0
  0
LINE
  5
4b5
100
AcDbEntity
  8
plotclock-5mm
 62
1
100
AcDbLine
 10
107.071774
 20
185.476755
 30
0.0
 11
104.071752
 21
185.476755
 31
0.0
  0
LINE
  5
4b6
100
AcDbEntity
  8
plotclock-5mm
 62
1
100
AcDbLine
 10
104.071755
 20
185.476755
 30
0.0
 11
104.071755
 21
166.176635
 31
0.0
  0
LINE
  5
4b7
100
AcDbEntity
  8
plotclock-5mm
 62
1
100
AcDbLine
 10
104.071928
 20
166.176632
 30
0.0
 11
70.071911
 21
166.176632
 31
0.0
  0
LINE
  5
4b8
100
AcDbEntity
  8
plotclock-5mm
 62
1
100
AcDbLine
 10
70.071950
 20
166.176632
 30
0.0
 11
70.071950
 21
159.476676
 31
0.0
  0
LINE
  5
4b9
100
AcDbEntity
  8
plotclock-5mm
 62
1
100
AcDbLine
 10
70.071950
 20
159.476609
 30
0.0
 11
109.571772
 21
159.476609
 31
0.0
  0
LINE
  5
4ba
100
AcDbEntity
  8
plotclock-5mm
 62
1
100
AcDbLine
 10
109.571875
 20
159.476609
 30
0.0
 11
109.571875
 21
172.476823
 31
0.0
  0
LINE
  5
4bb
100
AcDbEntity
  8
plotclock-5mm
 62
1
100
AcDbLine
 10
109.571875
 20
172.476682
 30
0.0
 11
132.571927
 21
172.476682
 31
0.0
  0
LINE
  5
4bc
100
AcDbEntity
  8
plotclock-5mm
 62
1
100
AcDbLine
 10
132.571822
 20
172.476682
 30
0.0
 11
132.571822
 21
159.476468
 31
0.0
  0
LINE
  5
4bd
100
AcDbEntity
  8
plotclock-5mm
 62
1
100
AcDbLine
 10
132.571822
 20
159.476609
 30
0.0
 11
158.071658
 21
159.476609
 31
0.0
  0
LINE
  5
4be
100
AcDbEntity
  8
plotclock-5mm
 62
1
100
AcDbLine
 10
108.046358
 20
166.670662
 30
0.0
 11
108.071758
 21
166.476634
 31
0.0
  0
LINE
  5
4bf
100
AcDbEntity
  8
plotclock-5mm
 62
1
100
AcDbLine
 10
108.071864
 20
166.476705
 30
0.0
 11
108.046464
 21
166.282324
 31
0.0
  0
LINE
  5
4c0
100
AcDbEntity
  8
plotclock-5mm
 62
1
100
AcDbLine
 10
108.046358
 20
166.282395
 30
0.0
 11
107.971569
 21
166.101420
 31
0.0
  0
LINE
  5
4c1
100
AcDbEntity
  8
plotclock-5mm
 62
1
100
AcDbLine
 10
107.971428
 20
166.101526
 30
0.0
 11
107.852189
 21
165.946656
 31
0.0
  0
LINE
  5
4c2
100
AcDbEntity
  8
plotclock-5mm
 62
1
100
AcDbLine
 10
107.852259
 20
165.946515
 30
0.0
 11
107.697037
 21
165.827276
 31
0.0
  0
LINE
  5
4c3
100
AcDbEntity
  8
plotclock-5mm
 62
1
100
AcDbLine
 10
107.696864
 20
165.827311
 30
0.0
 11
107.515889
 21
165.752170
 31
0.0
  0
LINE
  5
4c4
100
AcDbEntity
  8
plotclock-5mm
 62
1
100
AcDbLine
 10
107.515992
 20
165.752205
 30
0.0
 11
107.321964
 21
165.726805
 31
0.0
  0
LINE
  5
4c5
100
AcDbEntity
  8
plotclock-5mm
 62
1
100
AcDbLine
 10
107.321858
 20
165.726703
 30
0.0
 11
107.127830
 21
165.752103
 31
0.0
  0
LINE
  5
4c6
100
AcDbEntity
  8
plotclock-5mm
 62
1
100
AcDbLine
 10
107.127724
 20
165.752205
 30
0.0
 11
106.946749
 21
165.827347
 31
0.0
  0
LINE
  5
4c7
100
AcDbEntity
  8
plotclock-5mm
 62
1
100
AcDbLine
 10
106.946890
 20
165.827311
 30
0.0
 11
106.791668
 21
165.946550
 31
0.0
  0
LINE
  5
4c8
100
AcDbEntity
  8
plotclock-5mm
 62
1
100
AcDbLine
 10
106.791492
 20
165.946515
 30
0.0
 11
106.672253
 21
166.101384
 31
0.0
  0
LINE
  5
4c9
100
AcDbEntity
  8
plotclock-5mm
 62
1
100
AcDbLine
 10
106.672288
 20
166.101526
 30
0.0
 11
106.597499
 21
166.282501
 31
0.0
  0
LINE
  5
4ca
100
AcDbEntity
  8
plotclock-5mm
 62
1
100
AcDbLine
 10
106.597358
 20
166.282395
 30
0.0
 11
106.571958
 21
166.476775
 31
0.0
  0
LINE
  5
4cb
100
AcDbEntity
  8
plotclock-5mm
 62
1
100
AcDbLine
 10
106.571888
 20
166.476705
 30
0.0
 11
106.597288
 21
166.670732
 31
0.0
  0
LINE
  5
4cc
100
AcDbEntity
  8
plotclock-5mm
 62
1
100
AcDbLine
 10
106.597358
 20
166.670662
 30
0.0
 11
106.672147
 21
166.851637
 31
0.0
  0
LINE
  5
4cd
100
AcDbEntity
  8
plotclock-5mm
 62
1
100
AcDbLine
 10
106.672288
 20
166.851531
 30
0.0
 11
106.791527
 21
167.006753
 31
0.0
  0
LINE
  5
4ce
100
AcDbEntity
  8
plotclock-5mm
 62
1
100
AcDbLine
 10
106.791492
 20
167.006894
 30
0.0
 11
106.946714
 21
167.126133
 31
0.0
  0
LINE
  5
4cf
100
AcDbEntity
  8
plotclock-5mm
 62
1
100
AcDbLine
 10
106.946890
 20
167.126098
 30
0.0
 11
107.127865
 21
167.201240
 31
0.0
  0
LINE
  5
4d0
100
AcDbEntity
  8
plotclock-5mm
 62
1
100
AcDbLine
 10
107.127724
 20
167.201204
 30
0.0
 11
107.321752
 21
167.226604
 31
0.0
  0
LINE
  5
4d1
100
AcDbEntity
  8
plotclock-5mm
 62
1
100
AcDbLine
 10
107.321858
 20
167.226714
 30
0.0
 11
107.515886
 21
167.201314
 31
0.0
  0
LINE
  5
4d2
100
AcDbEntity
  8
plotclock-5mm
 62
1
100
AcDbLine
 10
107.515992
 20
167.201204
 30
0.0
 11
107.696967
 21
167.126063
 31
0.0
  0
LINE
  5
4d3
100
AcDbEntity
  8
plotclock-5mm
 62
1
100
AcDbLine
 10
107.696864
 20
167.126098
 30
0.0
 11
107.852087
 21
167.006859
 31
0.0
  0
LINE
  5
4d4
100
AcDbEntity
  8
plotclock-5mm
 62
1
100
AcDbLine
 10
107.852259
 20
167.006894
 30
0.0
 11
107.971498
 21
166.851672
 31
0.0
  0
LINE
  5
4d5
100
AcDbEntity
  8
plotclock-5mm
 62
1
100
AcDbLine
 10
107.971428
 20
166.851531
 30
0.0
 11
108.046217
 21
166.670556
 31
0.0
  0
LINE
  5
4d6
100
AcDbEntity
  8
plotclock-5mm
 62
1
100
AcDbLine
 10
135.471232
 20
166.101878
 30
0.0
 11
135.351993
 21
165.946656
 31
0.0
  0
LINE
  5
4d7
100
AcDbEntity
  8
plotclock-5mm
 62
1
100
AcDbLine
 10
135.352032
 20
165.946515
 30
0.0
 11
135.197162
 21
165.827276
 31
0.0
  0
LINE
  5
4d8
100
AcDbEntity
  8
plotclock-5mm
 62
1
100
AcDbLine
 10
135.197017
 20
165.827311
 30
0.0
 11
135.015690
 21
165.752170
 31
0.0
  0
LINE
  5
4d9
100
AcDbEntity
  8
plotclock-5mm
 62
1
100
AcDbLine
 10
135.015795
 20
165.752205
 30
0.0
 11
134.821415
 21
165.726805
 31
0.0
  0
LINE
  5
4da
100
AcDbEntity
  8
plotclock-5mm
 62
1
100
AcDbLine
 10
134.821485
 20
165.726703
 30
0.0
 11
134.627810
 21
165.752103
 31
0.0
  0
LINE
  5
4db
100
AcDbEntity
  8
plotclock-5mm
 62
1
100
AcDbLine
 10
134.627881
 20
165.752205
 30
0.0
 11
134.446553
 21
165.827347
 31
0.0
  0
LINE
  5
4dc
100
AcDbEntity
  8
plotclock-5mm
 62
1
100
AcDbLine
 10
134.446659
 20
165.827311
 30
0.0
 11
134.291790
 21
165.946550
 31
0.0
  0
LINE
  5
4dd
100
AcDbEntity
  8
plotclock-5mm
 62
1
100
AcDbLine
 10
134.291613
 20
165.946515
 30
0.0
 11
134.172374
 21
166.101737
 31
0.0
  0
LINE
  5
4de
100
AcDbEntity
  8
plotclock-5mm
 62
1
100
AcDbLine
 10
134.172445
 20
166.101878
 30
0.0
 11
134.097303
 21
166.282853
 31
0.0
  0
LINE
  5
4df
100
AcDbEntity
  8
plotclock-5mm
 62
1
100
AcDbLine
 10
134.097339
 20
166.282751
 30
0.0
 11
134.071939
 21
166.476779
 31
0.0
  0
LINE
  5
4e0
100
AcDbEntity
  8
plotclock-5mm
 62
1
100
AcDbLine
 10
134.071833
 20
166.476705
 30
0.0
 11
134.097233
 21
166.671085
 31
0.0
  0
LINE
  5
4e1
100
AcDbEntity
  8
plotclock-5mm
 62
1
100
AcDbLine
 10
134.097339
 20
166.671018
 30
0.0
 11
134.172480
 21
166.851993
 31
0.0
  0
LINE
  5
4e2
100
AcDbEntity
  8
plotclock-5mm
 62
1
100
AcDbLine
 10
134.172445
 20
166.851884
 30
0.0
 11
134.291684
 21
167.006753
 31
0.0
  0
LINE
  5
4e3
100
AcDbEntity
  8
plotclock-5mm
 62
1
100
AcDbLine
 10
134.291613
 20
167.006894
 30
0.0
 11
134.446483
 21
167.126133
 31
0.0
  0
LINE
  5
4e4
100
AcDbEntity
  8
plotclock-5mm
 62
1
100
AcDbLine
 10
134.446659
 20
167.126098
 30
0.0
 11
134.627987
 21
167.201240
 31
0.0
  0
LINE
  5
4e5
100
AcDbEntity
  8
plotclock-5mm
 62
1
100
AcDbLine
 10
134.627881
 20
167.201204
 30
0.0
 11
134.821556
 21
167.226604
 31
0.0
  0
LINE
  5
4e6
100
AcDbEntity
  8
plotclock-5mm
 62
1
100
AcDbLine
 10
134.821485
 20
167.226714
 30
0.0
 11
135.015866
 21
167.201314
 31
0.0
  0
LINE
  5
4e7
100
AcDbEntity
  8
plotclock-5mm
 62
1
100
AcDbLine
 10
135.015795
 20
167.201204
 30
0.0
 11
135.197123
 21
167.126063
 31
0.0
  0
LINE
  5
4e8
100
AcDbEntity
  8
plotclock-5mm
 62
1
100
AcDbLine
 10
135.197017
 20
167.126098
 30
0.0
 11
135.351887
 21
167.006859
 31
0.0
  0
LINE
  5
4e9
100
AcDbEntity
  8
plotclock-5mm
 62
1
100
AcDbLine
 10
135.352032
 20
167.006894
 30
0.0
 11
135.471270
 21
166.852025
 31
0.0
  0
LINE
  5
4ea
100
AcDbEntity
  8
plotclock-5mm
 62
1
100
AcDbLine
 10
135.471232
 20
166.851884
 30
0.0
 11
135.546373
 21
166.670909
 31
0.0
  0
LINE
  5
4eb
100
AcDbEntity
  8
plotclock-5mm
 62
1
100
AcDbLine
 10
135.546338
 20
166.671018
 30
0.0
 11
135.571738
 21
166.476638
 31
0.0
  0
LINE
  5
4ec
100
AcDbEntity
  8
plotclock-5mm
 62
1
100
AcDbLine
 10
135.571844
 20
166.476705
 30
0.0
 11
135.546444
 21
166.282677
 31
0.0
  0
LINE
  5
4ed
100
AcDbEntity
  8
plotclock-5mm
 62
1
100
AcDbLine
 10
135.546338
 20
166.282751
 30
0.0
 11
135.471196
 21
166.101776
 31
0.0
  0
LINE
  5
4ee
100
AcDbEntity
  8
plotclock-5mm
 62
1
100
AcDbLine
 10
72.321932
 20
163.976604
 30
0.0
 11
72.364618
 21
164.300101
 31
0.0
  0
LINE
  5
4ef
100
AcDbEntity
  8
plotclock-5mm
 62
1
100
AcDbLine
 10
72.364477
 20
164.300101
 30
0.0
 11
72.489360
 21
164.601373
 31
0.0
  0
LINE
  5
4f0
100
AcDbEntity
  8
plotclock-5mm
 62
1
100
AcDbLine
 10
72.489360
 20
164.601550
 30
0.0
 11
72.687974
 21
164.860489
 31
0.0
  0
LINE
  5
4f1
100
AcDbEntity
  8
plotclock-5mm
 62
1
100
AcDbLine
 10
72.687974
 20
164.860594
 30
0.0
 11
72.946913
 21
165.058856
 31
0.0
  0
LINE
  5
4f2
100
AcDbEntity
  8
plotclock-5mm
 62
1
100
AcDbLine
 10
72.946877
 20
165.059032
 30
0.0
 11
73.248150
 21
165.183915
 31
0.0
  0
LINE
  5
4f3
100
AcDbEntity
  8
plotclock-5mm
 62
1
100
AcDbLine
 10
73.248326
 20
165.184092
 30
0.0
 11
73.571823
 21
165.226425
 31
0.0
  0
LINE
  5
4f4
100
AcDbEntity
  8
plotclock-5mm
 62
1
100
AcDbLine
 10
73.571823
 20
165.226460
 30
0.0
 11
73.895320
 21
165.184127
 31
0.0
  0
LINE
  5
4f5
100
AcDbEntity
  8
plotclock-5mm
 62
1
100
AcDbLine
 10
73.895320
 20
165.184092
 30
0.0
 11
74.196945
 21
165.059208
 31
0.0
  0
LINE
  5
4f6
100
AcDbEntity
  8
plotclock-5mm
 62
1
100
AcDbLine
 10
74.196945
 20
165.059032
 30
0.0
 11
74.455884
 21
164.860771
 31
0.0
  0
LINE
  5
4f7
100
AcDbEntity
  8
plotclock-5mm
 62
1
100
AcDbLine
 10
74.455849
 20
164.860594
 30
0.0
 11
74.654463
 21
164.601656
 31
0.0
  0
LINE
  5
4f8
100
AcDbEntity
  8
plotclock-5mm
 62
1
100
AcDbLine
 10
74.654463
 20
164.601550
 30
0.0
 11
74.779346
 21
164.300277
 31
0.0
  0
LINE
  5
4f9
100
AcDbEntity
  8
plotclock-5mm
 62
1
100
AcDbLine
 10
74.779346
 20
164.300101
 30
0.0
 11
74.822032
 21
163.976604
 31
0.0
  0
LINE
  5
4fa
100
AcDbEntity
  8
plotclock-5mm
 62
1
100
AcDbLine
 10
74.821891
 20
163.976604
 30
0.0
 11
74.779205
 21
163.653107
 31
0.0
  0
LINE
  5
4fb
100
AcDbEntity
  8
plotclock-5mm
 62
1
100
AcDbLine
 10
74.779346
 20
163.653107
 30
0.0
 11
74.654463
 21
163.351834
 31
0.0
  0
LINE
  5
4fc
100
AcDbEntity
  8
plotclock-5mm
 62
1
100
AcDbLine
 10
74.654463
 20
163.351658
 30
0.0
 11
74.455849
 21
163.092719
 31
0.0
  0
LINE
  5
4fd
100
AcDbEntity
  8
plotclock-5mm
 62
1
100
AcDbLine
 10
74.455849
 20
163.092582
 30
0.0
 11
74.196910
 21
162.894320
 31
0.0
  0
LINE
  5
4fe
100
AcDbEntity
  8
plotclock-5mm
 62
1
100
AcDbLine
 10
74.196945
 20
162.894141
 30
0.0
 11
73.895320
 21
162.769257
 31
0.0
  0
LINE
  5
4ff
100
AcDbEntity
  8
plotclock-5mm
 62
1
100
AcDbLine
 10
73.895320
 20
162.769084
 30
0.0
 11
73.571823
 21
162.726751
 31
0.0
  0
LINE
  5
500
100
AcDbEntity
  8
plotclock-5mm
 62
1
100
AcDbLine
 10
73.571823
 20
162.726712
 30
0.0
 11
73.248326
 21
162.769046
 31
0.0
  0
LINE
  5
501
100
AcDbEntity
  8
plotclock-5mm
 62
1
100
AcDbLine
 10
73.248326
 20
162.769084
 30
0.0
 11
72.947054
 21
162.893968
 31
0.0
  0
LINE
  5
502
100
AcDbEntity
  8
plotclock-5mm
 62
1
100
AcDbLine
 10
72.946877
 20
162.894141
 30
0.0
 11
72.687938
 21
163.092402
 31
0.0
  0
LINE
  5
503
100
AcDbEntity
  8
plotclock-5mm
 62
1
100
AcDbLine
 10
72.687974
 20
163.092582
 30
0.0
 11
72.489360
 21
163.351520
 31
0.0
  0
LINE
  5
504
100
AcDbEntity
  8
plotclock-5mm
 62
1
100
AcDbLine
 10
72.489360
 20
163.351658
 30
0.0
 11
72.364477
 21
163.652930
 31
0.0
  0
LINE
  5
505
100
AcDbEntity
  8
plotclock-5mm
 62
1
100
AcDbLine
 10
72.364477
 20
163.653107
 30
0.0
 11
72.321790
 21
163.976604
 31
0.0
  0
ENDSEC
  0
SECTION
  2
OBJECTS
  0
DICTIONARY
  5
C
330
0
100
AcDbDictionary
  3
ACAD_GROUP
350
D
  3
ACAD_MLINESTYLE
350
17
  0
DICTIONARY
  5
D
330
C
100
AcDbDictionary
  0
DICTIONARY
  5
1A
330
C
100
AcDbDictionary
  0
DICTIONARY
  5
17
330
C
100
AcDbDictionary
  3
STANDARD
350
18
  0
DICTIONARY
  5
19
330
C
100
AcDbDictionary
  0
ENDSEC
  0
EOF
