<?xml version="1.0" encoding="UTF-8"?>
<!-- 2017-08-31 20:16:22 Generated by QCAD SVG Exporter -->
<svg width="158.3722mm" height="130.5345mm" viewBox="-79.0152 -65.2775 158.3722 130.5345" version="1.1" xmlns="http://www.w3.org/2000/svg" style="stroke-linecap:round;stroke-linejoin:round;fill:none">
    <g transform="scale(1,-1)">
        <!-- Spline -->
        <path d="M42.5985,-24.289299999999997 C42.5985,-24.289299999999997 42.7356,-24.4261 42.7356,-24.4261 C42.7356,-24.4261 42.8724,-24.6089 42.8724,-24.6089 C42.8724,-24.6089 42.9631,-24.7922 42.9631,-24.7922 C42.9631,-24.7922 42.9631,-25.203000000000003 42.9631,-25.203000000000003 C42.9631,-25.203000000000003 42.8724,-25.3863 42.8724,-25.3863 C42.8724,-25.3863 42.7356,-25.5691 42.7356,-25.5691 C42.7356,-25.5691 42.5985,-25.7059 42.5985,-25.7059 C42.5985,-25.7059 42.3694,-25.7985 42.3694,-25.7985 C42.3694,-25.7985 41.9571,-25.7985 41.9571,-25.7985 C41.9571,-25.7985 41.7755,-25.7059 41.7755,-25.7059 C41.7755,-25.7059 41.5925,-25.5691 41.5925,-25.5691 C41.5925,-25.5691 41.4553,-25.3863 41.4553,-25.3863 C41.4553,-25.3863 41.3631,-25.0201 41.3631,-25.0201 C41.3631,-25.0201 41.409200000000006,-24.7922 41.409200000000006,-24.7922 C41.409200000000006,-24.7922 41.4553,-24.6089 41.4553,-24.6089 C41.4553,-24.6089 41.5925,-24.4261 41.5925,-24.4261 C41.5925,-24.4261 41.7755,-24.289299999999997 41.7755,-24.289299999999997 C41.7755,-24.289299999999997 41.9571,-24.1982 41.9571,-24.1982 C41.9571,-24.1982 42.3694,-24.1982 42.3694,-24.1982 C42.3694,-24.1982 42.5985,-24.289299999999997 42.5985,-24.289299999999997" style="stroke:#000000;stroke-width:0;"/>
        <!-- Spline -->
        <path d="M42.8724,2.0860000000000003 C42.8724,2.0860000000000003 42.5985,1.8124000000000002 42.5985,1.8124000000000002 C42.5985,1.8124000000000002 42.3694,1.7199 42.3694,1.7199 C42.3694,1.7199 42.186099999999996,1.6753 42.186099999999996,1.6753 C42.186099999999996,1.6753 41.9571,1.7199 41.9571,1.7199 C41.9571,1.7199 41.7755,1.8124000000000002 41.7755,1.8124000000000002 C41.7755,1.8124000000000002 41.5925,1.9492 41.5925,1.9492 C41.5925,1.9492 41.4553,2.0860000000000003 41.4553,2.0860000000000003 C41.4553,2.0860000000000003 41.409200000000006,2.2693 41.409200000000006,2.2693 C41.409200000000006,2.2693 41.3631,2.4981999999999998 41.3631,2.4981999999999998 C41.3631,2.4981999999999998 41.409200000000006,2.7261 41.409200000000006,2.7261 C41.409200000000006,2.7261 41.4553,2.9093 41.4553,2.9093 C41.4553,2.9093 41.5925,3.0923 41.5925,3.0923 C41.5925,3.0923 41.7755,3.1829 41.7755,3.1829 C41.7755,3.1829 41.9571,3.2751 41.9571,3.2751 C41.9571,3.2751 42.186099999999996,3.3201 42.186099999999996,3.3201 C42.186099999999996,3.3201 42.3694,3.2751 42.3694,3.2751 C42.3694,3.2751 42.5985,3.1829 42.5985,3.1829 C42.5985,3.1829 42.7356,3.0923 42.7356,3.0923 C42.7356,3.0923 42.8724,2.9093 42.8724,2.9093 C42.8724,2.9093 42.9631,2.7261 42.9631,2.7261 C42.9631,2.7261 42.9631,2.2693 42.9631,2.2693 C42.9631,2.2693 42.8724,2.0860000000000003 42.8724,2.0860000000000003" style="stroke:#000000;stroke-width:0;"/>
        <!-- Spline -->
        <path d="M43.757000000000005,-59.6846 C43.757000000000005,-59.6846 44.0222,-59.861000000000004 44.0222,-59.861000000000004 C44.0222,-59.861000000000004 44.3307,-59.9933 44.3307,-59.9933 C44.3307,-59.9933 44.6837,-60.0378 44.6837,-60.0378 C44.6837,-60.0378 44.9923,-59.9933 44.9923,-59.9933 C44.9923,-59.9933 45.343900000000005,-59.861000000000004 45.343900000000005,-59.861000000000004 C45.343900000000005,-59.861000000000004 45.60940000000001,-59.6846 45.60940000000001,-59.6846 C45.60940000000001,-59.6846 45.785799999999995,-59.42059999999999 45.785799999999995,-59.42059999999999 C45.785799999999995,-59.42059999999999 45.918099999999995,-59.0676 45.918099999999995,-59.0676 C45.918099999999995,-59.0676 45.961,-58.7589 45.961,-58.7589 C45.961,-58.7589 45.918099999999995,-58.4074 45.918099999999995,-58.4074 C45.918099999999995,-58.4074 45.785799999999995,-58.0989 45.785799999999995,-58.0989 C45.785799999999995,-58.0989 45.60940000000001,-57.83369999999999 45.60940000000001,-57.83369999999999 C45.60940000000001,-57.83369999999999 45.343900000000005,-57.613899999999994 45.343900000000005,-57.613899999999994 C45.343900000000005,-57.613899999999994 44.9923,-57.4807 44.9923,-57.4807 C44.9923,-57.4807 44.6837,-57.4376 44.6837,-57.4376 C44.6837,-57.4376 44.3307,-57.4807 44.3307,-57.4807 C44.3307,-57.4807 44.0222,-57.613899999999994 44.0222,-57.613899999999994 C44.0222,-57.613899999999994 43.757000000000005,-57.83369999999999 43.757000000000005,-57.83369999999999 C43.757000000000005,-57.83369999999999 43.5372,-58.0989 43.5372,-58.0989 C43.5372,-58.0989 43.4054,-58.4074 43.4054,-58.4074 C43.4054,-58.4074 43.361000000000004,-58.7589 43.361000000000004,-58.7589 C43.361000000000004,-58.7589 43.4054,-59.0676 43.4054,-59.0676 C43.4054,-59.0676 43.5372,-59.42059999999999 43.5372,-59.42059999999999 C43.5372,-59.42059999999999 43.757000000000005,-59.6846 43.757000000000005,-59.6846" style="stroke:#000000;stroke-width:0;"/>
        <!-- Spline -->
        <path d="M12.4245,-16.9335 C12.4245,-16.9335 12.0854,-16.1285 12.0854,-16.1285 C12.0854,-16.1285 11.958400000000001,-15.2825 11.958400000000001,-15.2825 C11.958400000000001,-15.2825 11.958400000000001,12.699800000000002 11.958400000000001,12.699800000000002 C11.958400000000001,12.699800000000002 12.0854,13.546100000000001 12.0854,13.546100000000001 C12.0854,13.546100000000001 12.4245,14.3508 12.4245,14.3508 C12.4245,14.3508 12.9328,15.0289 12.9328,15.0289 C12.9328,15.0289 13.6094,15.5358 13.6094,15.5358 C13.6094,15.5358 14.414100000000001,15.8748 14.414100000000001,15.8748 C14.414100000000001,15.8748 15.217799999999999,15.9591 15.217799999999999,15.9591 C15.217799999999999,15.9591 16.0651,15.8748 16.0651,15.8748 C16.0651,15.8748 16.869799999999998,15.5358 16.869799999999998,15.5358 C16.869799999999998,15.5358 17.5464,15.0289 17.5464,15.0289 C17.5464,15.0289 18.0552,14.3508 18.0552,14.3508 C18.0552,14.3508 18.3928,13.546100000000001 18.3928,13.546100000000001 C18.3928,13.546100000000001 18.5208,12.699800000000002 18.5208,12.699800000000002 C18.5208,12.699800000000002 18.5208,-15.2825 18.5208,-15.2825 C18.5208,-15.2825 18.3928,-16.1285 18.3928,-16.1285 C18.3928,-16.1285 18.0552,-16.9335 18.0552,-16.9335 C18.0552,-16.9335 17.5464,-17.6101 17.5464,-17.6101 C17.5464,-17.6101 16.869799999999998,-18.1185 16.869799999999998,-18.1185 C16.869799999999998,-18.1185 16.0651,-18.4575 16.0651,-18.4575 C16.0651,-18.4575 15.217799999999999,-18.5415 15.217799999999999,-18.5415 C15.217799999999999,-18.5415 14.414100000000001,-18.4575 14.414100000000001,-18.4575 C14.414100000000001,-18.4575 13.6094,-18.1185 13.6094,-18.1185 C13.6094,-18.1185 12.9328,-17.6101 12.9328,-17.6101 C12.9328,-17.6101 12.4245,-16.9335 12.4245,-16.9335" style="stroke:#000000;stroke-width:0;"/>
        <!-- Spline -->
        <path d="M13.982600000000001,12.390699999999999 C13.982600000000001,12.390699999999999 14.1148,12.0821 14.1148,12.0821 C14.1148,12.0821 14.3356,11.7736 14.3356,11.7736 C14.3356,11.7736 14.5997,11.596900000000002 14.5997,11.596900000000002 C14.5997,11.596900000000002 14.9083,11.465 14.9083,11.465 C14.9083,11.465 15.216899999999999,11.4206 15.216899999999999,11.4206 C15.216899999999999,11.4206 15.5699,11.465 15.5699,11.465 C15.5699,11.465 15.8784,11.596900000000002 15.8784,11.596900000000002 C15.8784,11.596900000000002 16.1436,11.7736 16.1436,11.7736 C16.1436,11.7736 16.3634,12.0821 16.3634,12.0821 C16.3634,12.0821 16.4952,12.390699999999999 16.4952,12.390699999999999 C16.4952,12.390699999999999 16.5397,12.6989 16.5397,12.6989 C16.5397,12.6989 16.4952,13.0519 16.4952,13.0519 C16.4952,13.0519 16.3634,13.3606 16.3634,13.3606 C16.3634,13.3606 16.1436,13.624600000000001 16.1436,13.624600000000001 C16.1436,13.624600000000001 15.8784,13.845400000000001 15.8784,13.845400000000001 C15.8784,13.845400000000001 15.5699,13.977599999999999 15.5699,13.977599999999999 C15.5699,13.977599999999999 15.216899999999999,14.0221 15.216899999999999,14.0221 C15.216899999999999,14.0221 14.9083,13.977599999999999 14.9083,13.977599999999999 C14.9083,13.977599999999999 14.5997,13.845400000000001 14.5997,13.845400000000001 C14.5997,13.845400000000001 14.3356,13.624600000000001 14.3356,13.624600000000001 C14.3356,13.624600000000001 14.1148,13.3606 14.1148,13.3606 C14.1148,13.3606 13.982600000000001,13.0519 13.982600000000001,13.0519 C13.982600000000001,13.0519 13.939699999999998,12.6989 13.939699999999998,12.6989 C13.939699999999998,12.6989 13.982600000000001,12.390699999999999 13.982600000000001,12.390699999999999" style="stroke:#000000;stroke-width:0;"/>
        <!-- Spline -->
        <path d="M16.1436,-14.355899999999998 C16.1436,-14.355899999999998 15.8784,-14.1797 15.8784,-14.1797 C15.8784,-14.1797 15.5699,-14.0477 15.5699,-14.0477 C15.5699,-14.0477 15.216899999999999,-14.003 15.216899999999999,-14.003 C15.216899999999999,-14.003 14.9083,-14.0477 14.9083,-14.0477 C14.9083,-14.0477 14.5997,-14.1797 14.5997,-14.1797 C14.5997,-14.1797 14.3356,-14.355899999999998 14.3356,-14.355899999999998 C14.3356,-14.355899999999998 14.1148,-14.6201 14.1148,-14.6201 C14.1148,-14.6201 13.982600000000001,-14.9287 13.982600000000001,-14.9287 C13.982600000000001,-14.9287 13.939699999999998,-15.2816 13.939699999999998,-15.2816 C13.939699999999998,-15.2816 13.982600000000001,-15.6346 13.982600000000001,-15.6346 C13.982600000000001,-15.6346 14.1148,-15.9433 14.1148,-15.9433 C14.1148,-15.9433 14.3356,-16.207 14.3356,-16.207 C14.3356,-16.207 14.5997,-16.4281 14.5997,-16.4281 C14.5997,-16.4281 14.9083,-16.56 14.9083,-16.56 C14.9083,-16.56 15.216899999999999,-16.6034 15.216899999999999,-16.6034 C15.216899999999999,-16.6034 15.5699,-16.56 15.5699,-16.56 C15.5699,-16.56 15.8784,-16.4281 15.8784,-16.4281 C15.8784,-16.4281 16.1436,-16.207 16.1436,-16.207 C16.1436,-16.207 16.3634,-15.9433 16.3634,-15.9433 C16.3634,-15.9433 16.4952,-15.6346 16.4952,-15.6346 C16.4952,-15.6346 16.5397,-15.2816 16.5397,-15.2816 C16.5397,-15.2816 16.4952,-14.9287 16.4952,-14.9287 C16.4952,-14.9287 16.3634,-14.6201 16.3634,-14.6201 C16.3634,-14.6201 16.1436,-14.355899999999998 16.1436,-14.355899999999998" style="stroke:#000000;stroke-width:0;"/>
        <!-- Spline -->
        <path d="M-79.0152,-65.10810000000001 C-79.0152,-65.10810000000001 -42.5249,-65.10810000000001 -42.5249,-65.10810000000001 C-42.5249,-65.10810000000001 -42.5249,-58.1242 -42.5249,-58.1242 C-42.5249,-58.1242 -39.5192,-58.1242 -39.5192,-58.1242 C-39.5192,-58.1242 -39.5192,-65.10810000000001 -39.5192,-65.10810000000001 C-39.5192,-65.10810000000001 18.0125,-65.10810000000001 18.0125,-65.10810000000001 C18.0125,-65.10810000000001 18.0125,-29.6335 18.0125,-29.6335 C18.0125,-29.6335 5.9891000000000005,-29.6335 5.9891000000000005,-29.6335 C5.9891000000000005,-29.6335 5.9891000000000005,-42.1211 5.9891000000000005,-42.1211 C5.9891000000000005,-42.1211 -9.5042,-42.1211 -9.5042,-42.1211 C-9.5042,-42.1211 -9.5042,-39.1158 -9.5042,-39.1158 C-9.5042,-39.1158 -12.5099,-39.1158 -12.5099,-39.1158 C-12.5099,-39.1158 -12.5099,-42.1211 -12.5099,-42.1211 C-12.5099,-42.1211 -39.5192,-42.1211 -39.5192,-42.1211 C-39.5192,-42.1211 -39.5192,-48.1335 -39.5192,-48.1335 C-39.5192,-48.1335 -42.5249,-48.1335 -42.5249,-48.1335 C-42.5249,-48.1335 -42.5249,-42.1211 -42.5249,-42.1211 C-42.5249,-42.1211 -76.0099,-42.1211 -76.0099,-42.1211 C-76.0099,-42.1211 -76.0099,-39.1158 -76.0099,-39.1158 C-76.0099,-39.1158 -79.0152,-39.1158 -79.0152,-39.1158 C-79.0152,-39.1158 -79.0152,-65.10810000000001 -79.0152,-65.10810000000001" style="stroke:#000000;stroke-width:0;"/>
        <!-- Spline -->
        <path d="M-39.6875,-52.3669 C-39.6875,-52.3669 -39.9426,-52.070499999999996 -39.9426,-52.070499999999996 C-39.9426,-52.070499999999996 -40.2386,-51.8158 -40.2386,-51.8158 C-40.2386,-51.8158 -40.6192,-51.6888 -40.6192,-51.6888 C-40.6192,-51.6888 -41.0009,-51.6049 -41.0009,-51.6049 C-41.0009,-51.6049 -41.3812,-51.6888 -41.3812,-51.6888 C-41.3812,-51.6888 -41.7629,-51.8158 -41.7629,-51.8158 C-41.7629,-51.8158 -42.0592,-52.070499999999996 -42.0592,-52.070499999999996 C-42.0592,-52.070499999999996 -42.3125,-52.3669 -42.3125,-52.3669 C-42.3125,-52.3669 -42.439499999999995,-52.74720000000001 -42.439499999999995,-52.74720000000001 C-42.439499999999995,-52.74720000000001 -42.5249,-53.1289 -42.5249,-53.1289 C-42.5249,-53.1289 -42.439499999999995,-53.50920000000001 -42.439499999999995,-53.50920000000001 C-42.439499999999995,-53.50920000000001 -42.3125,-53.8909 -42.3125,-53.8909 C-42.3125,-53.8909 -42.0592,-54.187200000000004 -42.0592,-54.187200000000004 C-42.0592,-54.187200000000004 -41.7629,-54.440799999999996 -41.7629,-54.440799999999996 C-41.7629,-54.440799999999996 -41.3812,-54.5675 -41.3812,-54.5675 C-41.3812,-54.5675 -41.0009,-54.610200000000006 -41.0009,-54.610200000000006 C-41.0009,-54.610200000000006 -40.6192,-54.5675 -40.6192,-54.5675 C-40.6192,-54.5675 -40.2386,-54.440799999999996 -40.2386,-54.440799999999996 C-40.2386,-54.440799999999996 -39.9426,-54.187200000000004 -39.9426,-54.187200000000004 C-39.9426,-54.187200000000004 -39.6875,-53.8909 -39.6875,-53.8909 C-39.6875,-53.8909 -39.560900000000004,-53.50920000000001 -39.560900000000004,-53.50920000000001 C-39.560900000000004,-53.50920000000001 -39.5192,-53.1289 -39.5192,-53.1289 C-39.5192,-53.1289 -39.560900000000004,-52.74720000000001 -39.560900000000004,-52.74720000000001 C-39.560900000000004,-52.74720000000001 -39.6875,-52.3669 -39.6875,-52.3669" style="stroke:#000000;stroke-width:0;"/>
        <!-- Spline -->
        <path d="M10.4771,-34.1201 C10.4771,-34.1201 15.5141,-34.1201 15.5141,-34.1201 C15.5141,-34.1201 15.5141,-31.1148 15.5141,-31.1148 C15.5141,-31.1148 10.4771,-31.1148 10.4771,-31.1148 C10.4771,-31.1148 10.4771,-34.1201 10.4771,-34.1201" style="stroke:#000000;stroke-width:0;"/>
        <!-- Spline -->
        <path d="M-42.016600000000004,-36.6185 C-42.016600000000004,-36.6185 -78.5082,-36.6185 -78.5082,-36.6185 C-78.5082,-36.6185 -78.5082,14.3935 -78.5082,14.3935 C-78.5082,14.3935 -75.5026,14.3935 -75.5026,14.3935 C-75.5026,14.3935 -75.5026,17.3992 -75.5026,17.3992 C-75.5026,17.3992 -12.002600000000001,17.3992 -12.002600000000001,17.3992 C-12.002600000000001,17.3992 -12.002600000000001,14.3935 -12.002600000000001,14.3935 C-12.002600000000001,14.3935 -9.0385,14.3935 -9.0385,14.3935 C-9.0385,14.3935 -9.0385,17.3992 -9.0385,17.3992 C-9.0385,17.3992 6.4974,17.3992 6.4974,17.3992 C6.4974,17.3992 6.4974,-2.6251999999999995 6.4974,-2.6251999999999995 C6.4974,-2.6251999999999995 -8.5302,-2.6251999999999995 -8.5302,-2.6251999999999995 C-8.5302,-2.6251999999999995 -8.5302,-36.6185 -8.5302,-36.6185 C-8.5302,-36.6185 -39.0109,-36.6185 -39.0109,-36.6185 C-39.0109,-36.6185 -39.0109,-33.6132 -39.0109,-33.6132 C-39.0109,-33.6132 -42.016600000000004,-33.6132 -42.016600000000004,-33.6132 C-42.016600000000004,-33.6132 -42.016600000000004,-36.6185 -42.016600000000004,-36.6185" style="stroke:#000000;stroke-width:0;"/>
        <!-- Spline -->
        <path d="M46.1214,37.9732 C46.1214,37.9732 46.967800000000004,38.312200000000004 46.967800000000004,38.312200000000004 C46.967800000000004,38.312200000000004 47.6885,38.8622 47.6885,38.8622 C47.6885,38.8622 48.2381,39.5815 48.2381,39.5815 C48.2381,39.5815 48.6198,40.4289 48.6198,40.4289 C48.6198,40.4289 48.7041,41.3591 48.7041,41.3591 C48.7041,41.3591 46.967800000000004,55.8382 46.967800000000004,55.8382 C46.967800000000004,55.8382 34.2678,55.8382 34.2678,55.8382 C34.2678,55.8382 34.2678,58.843500000000006 34.2678,58.843500000000006 C34.2678,58.843500000000006 34.1408,59.60549999999999 34.1408,59.60549999999999 C34.1408,59.60549999999999 33.8448,60.324799999999996 33.8448,60.324799999999996 C33.8448,60.324799999999996 33.3788,60.9602 33.3788,60.9602 C33.3788,60.9602 32.7448,61.425799999999995 32.7448,61.425799999999995 C32.7448,61.425799999999995 32.0241,61.7222 32.0241,61.7222 C32.0241,61.7222 31.2621,61.849199999999996 31.2621,61.849199999999996 C31.2621,61.849199999999996 30.4588,61.7222 30.4588,61.7222 C30.4588,61.7222 29.7381,61.425799999999995 29.7381,61.425799999999995 C29.7381,61.425799999999995 29.145400000000002,60.9602 29.145400000000002,60.9602 C29.145400000000002,60.9602 28.638499999999997,60.324799999999996 28.638499999999997,60.324799999999996 C28.638499999999997,60.324799999999996 28.342200000000002,59.60549999999999 28.342200000000002,59.60549999999999 C28.342200000000002,59.60549999999999 28.256800000000002,58.843500000000006 28.256800000000002,58.843500000000006 C28.256800000000002,58.843500000000006 28.256800000000002,55.8382 28.256800000000002,55.8382 C28.256800000000002,55.8382 17.716099999999997,55.8382 17.716099999999997,55.8382 C17.716099999999997,55.8382 17.716099999999997,51.8582 17.716099999999997,51.8582 C17.716099999999997,51.8582 23.7271,51.8582 23.7271,51.8582 C23.7271,51.8582 23.7271,48.3441 23.7271,48.3441 C23.7271,48.3441 27.7068,48.3441 27.7068,48.3441 C27.7068,48.3441 27.7068,49.5722 27.7068,49.5722 C27.7068,49.5722 30.4161,49.5722 30.4161,49.5722 C30.4161,49.5722 30.4161,48.3441 30.4161,48.3441 C30.4161,48.3441 33.0412,48.3441 33.0412,48.3441 C33.0412,48.3441 33.0412,45.3388 33.0412,45.3388 C33.0412,45.3388 30.4161,45.3388 30.4161,45.3388 C30.4161,45.3388 30.4161,44.1108 30.4161,44.1108 C30.4161,44.1108 27.7068,44.1108 27.7068,44.1108 C27.7068,44.1108 27.7068,45.3388 27.7068,45.3388 C27.7068,45.3388 23.7271,45.3388 23.7271,45.3388 C23.7271,45.3388 23.7271,41.824799999999996 23.7271,41.824799999999996 C23.7271,41.824799999999996 17.716099999999997,41.824799999999996 17.716099999999997,41.824799999999996 C17.716099999999997,41.824799999999996 17.716099999999997,37.8465 17.716099999999997,37.8465 C17.716099999999997,37.8465 45.2328,37.8465 45.2328,37.8465 C45.2328,37.8465 46.1214,37.9732 46.1214,37.9732" style="stroke:#000000;stroke-width:0;"/>
        <!-- Spline -->
        <path d="M46.5032,40.598200000000006 C46.5032,40.598200000000006 46.6714,40.9358 46.6714,40.9358 C46.6714,40.9358 46.7141,41.3591 46.7141,41.3591 C46.7141,41.3591 46.6714,41.7408 46.6714,41.7408 C46.6714,41.7408 46.5032,42.079899999999995 46.5032,42.079899999999995 C46.5032,42.079899999999995 46.2911,42.4175 46.2911,42.4175 C46.2911,42.4175 45.9521,42.6295 45.9521,42.6295 C45.9521,42.6295 45.613099999999996,42.7992 45.613099999999996,42.7992 C45.613099999999996,42.7992 45.2328,42.841899999999995 45.2328,42.841899999999995 C45.2328,42.841899999999995 44.851099999999995,42.7992 44.851099999999995,42.7992 C44.851099999999995,42.7992 44.4708,42.6295 44.4708,42.6295 C44.4708,42.6295 44.174499999999995,42.4175 44.174499999999995,42.4175 C44.174499999999995,42.4175 43.9208,42.079899999999995 43.9208,42.079899999999995 C43.9208,42.079899999999995 43.7928,41.7408 43.7928,41.7408 C43.7928,41.7408 43.708400000000005,41.3591 43.708400000000005,41.3591 C43.708400000000005,41.3591 43.7928,40.9358 43.7928,40.9358 C43.7928,40.9358 43.9208,40.598200000000006 43.9208,40.598200000000006 C43.9208,40.598200000000006 44.174499999999995,40.300799999999995 44.174499999999995,40.300799999999995 C44.174499999999995,40.300799999999995 44.4708,40.0472 44.4708,40.0472 C44.4708,40.0472 44.851099999999995,39.8775 44.851099999999995,39.8775 C44.851099999999995,39.8775 45.2328,39.836200000000005 45.2328,39.836200000000005 C45.2328,39.836200000000005 45.613099999999996,39.8775 45.613099999999996,39.8775 C45.613099999999996,39.8775 45.9521,40.0472 45.9521,40.0472 C45.9521,40.0472 46.2911,40.300799999999995 46.2911,40.300799999999995 C46.2911,40.300799999999995 46.5032,40.598200000000006 46.5032,40.598200000000006" style="stroke:#000000;stroke-width:0;"/>
        <!-- Spline -->
        <path d="M31.2621,60.324799999999996 C31.2621,60.324799999999996 30.8391,60.2821 30.8391,60.2821 C30.8391,60.2821 30.5001,60.1555 30.5001,60.1555 C30.5001,60.1555 30.203799999999998,59.901799999999994 30.203799999999998,59.901799999999994 C30.203799999999998,59.901799999999994 29.950100000000003,59.60549999999999 29.950100000000003,59.60549999999999 C29.950100000000003,59.60549999999999 29.7808,59.223800000000004 29.7808,59.223800000000004 C29.7808,59.223800000000004 29.7381,58.843500000000006 29.7381,58.843500000000006 C29.7381,58.843500000000006 29.7808,58.461800000000004 29.7808,58.461800000000004 C29.7808,58.461800000000004 29.950100000000003,58.081500000000005 29.950100000000003,58.081500000000005 C29.950100000000003,58.081500000000005 30.203799999999998,57.7852 30.203799999999998,57.7852 C30.203799999999998,57.7852 30.5001,57.531499999999994 30.5001,57.531499999999994 C30.5001,57.531499999999994 30.8391,57.4035 30.8391,57.4035 C30.8391,57.4035 31.2621,57.3622 31.2621,57.3622 C31.2621,57.3622 31.6438,57.4035 31.6438,57.4035 C31.6438,57.4035 31.9828,57.531499999999994 31.9828,57.531499999999994 C31.9828,57.531499999999994 32.3204,57.7852 32.3204,57.7852 C32.3204,57.7852 32.5328,58.081500000000005 32.5328,58.081500000000005 C32.5328,58.081500000000005 32.7021,58.461800000000004 32.7021,58.461800000000004 C32.7021,58.461800000000004 32.7448,58.843500000000006 32.7448,58.843500000000006 C32.7448,58.843500000000006 32.7021,59.223800000000004 32.7021,59.223800000000004 C32.7021,59.223800000000004 32.5328,59.60549999999999 32.5328,59.60549999999999 C32.5328,59.60549999999999 32.3204,59.901799999999994 32.3204,59.901799999999994 C32.3204,59.901799999999994 31.9828,60.1555 31.9828,60.1555 C31.9828,60.1555 31.6438,60.2821 31.6438,60.2821 C31.6438,60.2821 31.2621,60.324799999999996 31.2621,60.324799999999996" style="stroke:#000000;stroke-width:0;"/>
        <!-- Spline -->
        <path d="M10.8162,30.1419 C10.8162,30.1419 10.8162,29.8868 10.8162,29.8868 C10.8162,29.8868 25.801099999999998,29.8868 25.801099999999998,29.8868 C25.801099999999998,29.8868 25.801099999999998,35.8992 25.801099999999998,35.8992 C25.801099999999998,35.8992 13.7791,35.8992 13.7791,35.8992 C13.7791,35.8992 13.7791,58.8862 13.7791,58.8862 C13.7791,58.8862 25.801099999999998,58.8862 25.801099999999998,58.8862 C25.801099999999998,58.8862 25.801099999999998,64.3888 25.801099999999998,64.3888 C25.801099999999998,64.3888 10.8162,64.3888 10.8162,64.3888 C10.8162,64.3888 10.8162,30.1419 10.8162,30.1419 C10.8162,30.1419 10.6881,29.8868 10.6881,29.8868 C10.6881,29.8868 10.8162,30.1419 10.8162,30.1419" style="stroke:#000000;stroke-width:0;"/>
        <!-- Spline -->
        <path d="M19.2575,61.7059 C19.2575,61.7059 19.1231,61.528099999999995 19.1231,61.528099999999995 C19.1231,61.528099999999995 19.0349,61.349999999999994 19.0349,61.349999999999994 C19.0349,61.349999999999994 18.9901,61.1721 18.9901,61.1721 C18.9901,61.1721 19.0349,60.9507 19.0349,60.9507 C19.0349,60.9507 19.1231,60.77289999999999 19.1231,60.77289999999999 C19.1231,60.77289999999999 19.2575,60.5948 19.2575,60.5948 C19.2575,60.5948 19.3908,60.4618 19.3908,60.4618 C19.3908,60.4618 19.6119,60.3721 19.6119,60.3721 C19.6119,60.3721 20.0127,60.3721 20.0127,60.3721 C20.0127,60.3721 20.190800000000003,60.4618 20.190800000000003,60.4618 C20.190800000000003,60.4618 20.3687,60.5948 20.3687,60.5948 C20.3687,60.5948 20.502,60.77289999999999 20.502,60.77289999999999 C20.502,60.77289999999999 20.5453,60.9507 20.5453,60.9507 C20.5453,60.9507 20.5901,61.1721 20.5901,61.1721 C20.5901,61.1721 20.5453,61.349999999999994 20.5453,61.349999999999994 C20.5453,61.349999999999994 20.502,61.528099999999995 20.502,61.528099999999995 C20.502,61.528099999999995 20.3687,61.7059 20.3687,61.7059 C20.3687,61.7059 20.190800000000003,61.8392 20.190800000000003,61.8392 C20.190800000000003,61.8392 20.0127,61.9289 20.0127,61.9289 C20.0127,61.9289 19.6119,61.9289 19.6119,61.9289 C19.6119,61.9289 19.3908,61.8392 19.3908,61.8392 C19.3908,61.8392 19.2575,61.7059 19.2575,61.7059" style="stroke:#000000;stroke-width:0;"/>
        <!-- Spline -->
        <path d="M20.1718,34.2898 C20.1718,34.2898 20.3412,34.2055 20.3412,34.2055 C20.3412,34.2055 20.4682,34.0362 20.4682,34.0362 C20.4682,34.0362 20.509400000000003,33.8665 20.509400000000003,33.8665 C20.509400000000003,33.8665 20.552100000000003,33.6545 20.552100000000003,33.6545 C20.552100000000003,33.6545 20.509400000000003,33.4435 20.509400000000003,33.4435 C20.509400000000003,33.4435 20.4682,33.2742 20.4682,33.2742 C20.4682,33.2742 20.3412,33.1045 20.3412,33.1045 C20.3412,33.1045 20.1718,33.0205 20.1718,33.0205 C20.1718,33.0205 20.0021,32.9352 20.0021,32.9352 C20.0021,32.9352 19.7901,32.8925 19.7901,32.8925 C19.7901,32.8925 19.6204,32.9352 19.6204,32.9352 C19.6204,32.9352 19.4098,33.0205 19.4098,33.0205 C19.4098,33.0205 19.2828,33.1045 19.2828,33.1045 C19.2828,33.1045 19.1548,33.2742 19.1548,33.2742 C19.1548,33.2742 19.070800000000002,33.4435 19.070800000000002,33.4435 C19.070800000000002,33.4435 19.0281,33.6545 19.0281,33.6545 C19.0281,33.6545 19.070800000000002,33.8665 19.070800000000002,33.8665 C19.070800000000002,33.8665 19.1548,34.0362 19.1548,34.0362 C19.1548,34.0362 19.2828,34.2055 19.2828,34.2055 C19.2828,34.2055 19.4098,34.2898 19.4098,34.2898 C19.4098,34.2898 19.6204,34.3752 19.6204,34.3752 C19.6204,34.3752 19.7901,34.4165 19.7901,34.4165 C19.7901,34.4165 20.0021,34.3752 20.0021,34.3752 C20.0021,34.3752 20.1718,34.2898 20.1718,34.2898" style="stroke:#000000;stroke-width:0;"/>
        <!-- Spline -->
        <path d="M-18.8172,62.0185 C-18.8172,62.0185 -16.8286,62.2722 -16.8286,62.2722 C-16.8286,62.2722 -14.880199999999999,62.0185 -14.880199999999999,62.0185 C-14.880199999999999,62.0185 -13.0609,61.2565 -13.0609,61.2565 C-13.0609,61.2565 -11.4515,60.028800000000004 -11.4515,60.028800000000004 C-11.4515,60.028800000000004 2.7725,56.8108 2.7725,56.8108 C2.7725,56.8108 -0.5292,56.8108 -0.5292,56.8108 C-0.5292,56.8108 -0.5292,51.6461 -0.5292,51.6461 C-0.5292,51.6461 -11.4515,49.2758 -11.4515,49.2758 C-11.4515,49.2758 -13.0609,48.0908 -13.0609,48.0908 C-13.0609,48.0908 -14.880199999999999,47.3288 -14.880199999999999,47.3288 C-14.880199999999999,47.3288 -16.8286,47.075199999999995 -16.8286,47.075199999999995 C-16.8286,47.075199999999995 -18.8172,47.3288 -18.8172,47.3288 C-18.8172,47.3288 -20.637500000000003,48.0908 -20.637500000000003,48.0908 C-20.637500000000003,48.0908 -23.644199999999998,47.878499999999995 -23.644199999999998,47.878499999999995 C-23.644199999999998,47.878499999999995 -24.236900000000002,47.075199999999995 -24.236900000000002,47.075199999999995 C-24.236900000000002,47.075199999999995 -22.161499999999997,45.4655 -22.161499999999997,45.4655 C-22.161499999999997,45.4655 -19.5792,44.4071 -19.5792,44.4071 C-19.5792,44.4071 -16.8286,44.0268 -16.8286,44.0268 C-16.8286,44.0268 -14.0766,44.4071 -14.0766,44.4071 C-14.0766,44.4071 -11.536900000000001,45.4655 -11.536900000000001,45.4655 C-11.536900000000001,45.4655 -9.4202,47.075199999999995 -9.4202,47.075199999999995 C-9.4202,47.075199999999995 -0.5292,48.3441 -0.5292,48.3441 C-0.5292,48.3441 -0.5292,44.6622 -0.5292,44.6622 C-0.5292,44.6622 -0.021900000000000003,44.6622 -0.021900000000000003,44.6622 C-0.021900000000000003,44.6622 -0.021900000000000003,41.6565 -0.021900000000000003,41.6565 C-0.021900000000000003,41.6565 -0.6984999999999999,41.6565 -0.6984999999999999,41.6565 C-0.6984999999999999,41.6565 -0.021900000000000003,39.8775 -0.021900000000000003,39.8775 C-0.021900000000000003,39.8775 1.9678,39.8775 1.9678,39.8775 C1.9678,39.8775 1.9678,52.5775 1.9678,52.5775 C1.9678,52.5775 2.9834,52.5775 2.9834,52.5775 C2.9834,52.5775 2.9834,39.8775 2.9834,39.8775 C2.9834,39.8775 4.9734,39.8775 4.9734,39.8775 C4.9734,39.8775 5.6928,41.6565 5.6928,41.6565 C5.6928,41.6565 4.9734,41.6565 4.9734,41.6565 C4.9734,41.6565 4.9734,44.6622 4.9734,44.6622 C4.9734,44.6622 5.4818,44.6622 5.4818,44.6622 C5.4818,44.6622 5.4818,54.27120000000001 5.4818,54.27120000000001 C5.4818,54.27120000000001 2.0948,54.27120000000001 2.0948,54.27120000000001 C2.0948,54.27120000000001 2.0948,54.6941 2.0948,54.6941 C2.0948,54.6941 5.4818,54.6941 5.4818,54.6941 C5.4818,54.6941 5.4818,59.4789 5.4818,59.4789 C5.4818,59.4789 -9.4202,62.2722 -9.4202,62.2722 C-9.4202,62.2722 -11.536900000000001,63.8815 -11.536900000000001,63.8815 C-11.536900000000001,63.8815 -14.0766,64.9399 -14.0766,64.9399 C-14.0766,64.9399 -16.8286,65.2775 -16.8286,65.2775 C-16.8286,65.2775 -19.5792,64.9399 -19.5792,64.9399 C-19.5792,64.9399 -22.161499999999997,63.8815 -22.161499999999997,63.8815 C-22.161499999999997,63.8815 -24.236900000000002,62.2722 -24.236900000000002,62.2722 C-24.236900000000002,62.2722 -23.644199999999998,61.4675 -23.644199999999998,61.4675 C-23.644199999999998,61.4675 -20.637500000000003,61.2565 -20.637500000000003,61.2565 C-20.637500000000003,61.2565 -18.8172,62.0185 -18.8172,62.0185" style="stroke:#000000;stroke-width:0;"/>
        <!-- Spline -->
        <path d="M-73.25789999999999,60.028800000000004 C-73.25789999999999,60.028800000000004 -73.25789999999999,64.0498 -73.25789999999999,64.0498 C-73.25789999999999,64.0498 -38.7572,64.0498 -38.7572,64.0498 C-38.7572,64.0498 -38.7572,46.058099999999996 -38.7572,46.058099999999996 C-38.7572,46.058099999999996 -73.25789999999999,46.058099999999996 -73.25789999999999,46.058099999999996 C-73.25789999999999,46.058099999999996 -73.25789999999999,50.0378 -73.25789999999999,50.0378 C-73.25789999999999,50.0378 -76.26350000000001,50.0378 -76.26350000000001,50.0378 C-76.26350000000001,50.0378 -76.26350000000001,60.028800000000004 -76.26350000000001,60.028800000000004 C-76.26350000000001,60.028800000000004 -73.25789999999999,60.028800000000004 -73.25789999999999,60.028800000000004" style="stroke:#000000;stroke-width:0;"/>
        <!-- Spline -->
        <path d="M-44.7682,49.064899999999994 C-44.7682,49.064899999999994 -44.7682,61.0441 -44.7682,61.0441 C-44.7682,61.0441 -67.7552,61.0441 -67.7552,61.0441 C-67.7552,61.0441 -67.7552,49.064899999999994 -67.7552,49.064899999999994 C-67.7552,49.064899999999994 -44.7682,49.064899999999994 -44.7682,49.064899999999994" style="stroke:#000000;stroke-width:0;"/>
        <!-- Spline -->
        <path d="M-73.5129,55.7525 C-73.5129,55.7525 -73.7666,56.0488 -73.7666,56.0488 C-73.7666,56.0488 -74.0625,56.3039 -74.0625,56.3039 C-74.0625,56.3039 -74.4016,56.430499999999995 -74.4016,56.430499999999995 C-74.4016,56.430499999999995 -74.7819,56.4732 -74.7819,56.4732 C-74.7819,56.4732 -75.1636,56.430499999999995 -75.1636,56.430499999999995 C-75.1636,56.430499999999995 -75.5026,56.3039 -75.5026,56.3039 C-75.5026,56.3039 -75.7989,56.0488 -75.7989,56.0488 C-75.7989,56.0488 -76.0099,55.7525 -76.0099,55.7525 C-76.0099,55.7525 -76.1792,55.414899999999996 -76.1792,55.414899999999996 C-76.1792,55.414899999999996 -76.2219,55.03320000000001 -76.2219,55.03320000000001 C-76.2219,55.03320000000001 -76.1792,54.6529 -76.1792,54.6529 C-76.1792,54.6529 -76.0099,54.3138 -76.0099,54.3138 C-76.0099,54.3138 -75.7989,54.0175 -75.7989,54.0175 C-75.7989,54.0175 -75.5026,53.8055 -75.5026,53.8055 C-75.5026,53.8055 -75.1636,53.635799999999996 -75.1636,53.635799999999996 C-75.1636,53.635799999999996 -74.7819,53.5945 -74.7819,53.5945 C-74.7819,53.5945 -74.4016,53.635799999999996 -74.4016,53.635799999999996 C-74.4016,53.635799999999996 -74.0625,53.8055 -74.0625,53.8055 C-74.0625,53.8055 -73.7666,54.0175 -73.7666,54.0175 C-73.7666,54.0175 -73.5129,54.3138 -73.5129,54.3138 C-73.5129,54.3138 -73.38589999999999,54.6529 -73.38589999999999,54.6529 C-73.38589999999999,54.6529 -73.3432,55.03320000000001 -73.3432,55.03320000000001 C-73.3432,55.03320000000001 -73.38589999999999,55.414899999999996 -73.38589999999999,55.414899999999996 C-73.38589999999999,55.414899999999996 -73.5129,55.7525 -73.5129,55.7525" style="stroke:#000000;stroke-width:0;"/>
        <!-- Spline -->
        <path d="M-70.5908,55.6254 C-70.5908,55.6254 -70.408,55.7638 -70.408,55.7638 C-70.408,55.7638 -70.2262,55.808400000000006 -70.2262,55.808400000000006 C-70.2262,55.808400000000006 -70.0433,55.8549 -70.0433,55.8549 C-70.0433,55.8549 -69.8139,55.808400000000006 -69.8139,55.808400000000006 C-69.8139,55.808400000000006 -69.631,55.7638 -69.631,55.7638 C-69.631,55.7638 -69.4477,55.6254 -69.4477,55.6254 C-69.4477,55.6254 -69.3109,55.4438 -69.3109,55.4438 C-69.3109,55.4438 -69.2649,55.2608 -69.2649,55.2608 C-69.2649,55.2608 -69.22030000000001,55.031499999999994 -69.22030000000001,55.031499999999994 C-69.22030000000001,55.031499999999994 -69.2649,54.8485 -69.2649,54.8485 C-69.2649,54.8485 -69.3109,54.6207 -69.3109,54.6207 C-69.3109,54.6207 -69.4477,54.4824 -69.4477,54.4824 C-69.4477,54.4824 -69.631,54.345600000000005 -69.631,54.345600000000005 C-69.631,54.345600000000005 -69.8139,54.25449999999999 -69.8139,54.25449999999999 C-69.8139,54.25449999999999 -70.2262,54.25449999999999 -70.2262,54.25449999999999 C-70.2262,54.25449999999999 -70.408,54.345600000000005 -70.408,54.345600000000005 C-70.408,54.345600000000005 -70.5908,54.4824 -70.5908,54.4824 C-70.5908,54.4824 -70.728,54.6207 -70.728,54.6207 C-70.728,54.6207 -70.8203,54.8485 -70.8203,54.8485 C-70.8203,54.8485 -70.8203,55.2608 -70.8203,55.2608 C-70.8203,55.2608 -70.728,55.4438 -70.728,55.4438 C-70.728,55.4438 -70.5908,55.6254 -70.5908,55.6254" style="stroke:#000000;stroke-width:0;"/>
        <!-- Spline -->
        <path d="M-42.3019,54.2769 C-42.3019,54.2769 -42.746399999999994,54.2769 -42.746399999999994,54.2769 C-42.746399999999994,54.2769 -42.9242,54.365500000000004 -42.9242,54.365500000000004 C-42.9242,54.365500000000004 -43.1023,54.498400000000004 -43.1023,54.498400000000004 C-43.1023,54.498400000000004 -43.1905,54.6329 -43.1905,54.6329 C-43.1905,54.6329 -43.2801,54.8543 -43.2801,54.8543 C-43.2801,54.8543 -43.3249,55.0321 -43.3249,55.0321 C-43.3249,55.0321 -43.2801,55.255 -43.2801,55.255 C-43.2801,55.255 -43.1905,55.4329 -43.1905,55.4329 C-43.1905,55.4329 -43.1023,55.6095 -43.1023,55.6095 C-43.1023,55.6095 -42.9242,55.743900000000004 -42.9242,55.743900000000004 C-42.9242,55.743900000000004 -42.746399999999994,55.7873 -42.746399999999994,55.7873 C-42.746399999999994,55.7873 -42.5249,55.832499999999996 -42.5249,55.832499999999996 C-42.5249,55.832499999999996 -42.3019,55.7873 -42.3019,55.7873 C-42.3019,55.7873 -42.1242,55.743900000000004 -42.1242,55.743900000000004 C-42.1242,55.743900000000004 -41.946000000000005,55.6095 -41.946000000000005,55.6095 C-41.946000000000005,55.6095 -41.8579,55.4329 -41.8579,55.4329 C-41.8579,55.4329 -41.768299999999996,55.255 -41.768299999999996,55.255 C-41.768299999999996,55.255 -41.7249,55.0321 -41.7249,55.0321 C-41.7249,55.0321 -41.768299999999996,54.8543 -41.768299999999996,54.8543 C-41.768299999999996,54.8543 -41.8579,54.6329 -41.8579,54.6329 C-41.8579,54.6329 -41.946000000000005,54.498400000000004 -41.946000000000005,54.498400000000004 C-41.946000000000005,54.498400000000004 -42.1242,54.365500000000004 -42.1242,54.365500000000004 C-42.1242,54.365500000000004 -42.3019,54.2769 -42.3019,54.2769" style="stroke:#000000;stroke-width:0;"/>
        <!-- Spline -->
        <path d="M-43.2869,40.7252 C-43.2869,40.7252 -77.40719999999999,40.7252 -77.40719999999999,40.7252 C-77.40719999999999,40.7252 -77.40719999999999,22.733500000000003 -77.40719999999999,22.733500000000003 C-77.40719999999999,22.733500000000003 -43.2869,22.733500000000003 -43.2869,22.733500000000003 C-43.2869,22.733500000000003 -43.2869,26.7972 -43.2869,26.7972 C-43.2869,26.7972 -40.280199999999994,26.7972 -40.280199999999994,26.7972 C-40.280199999999994,26.7972 -40.280199999999994,22.733500000000003 -40.280199999999994,22.733500000000003 C-40.280199999999994,22.733500000000003 -5.7796,22.733500000000003 -5.7796,22.733500000000003 C-5.7796,22.733500000000003 -5.7796,40.7252 -5.7796,40.7252 C-5.7796,40.7252 -40.280199999999994,40.7252 -40.280199999999994,40.7252 C-40.280199999999994,40.7252 -40.280199999999994,36.7882 -40.280199999999994,36.7882 C-40.280199999999994,36.7882 -43.2869,36.7882 -43.2869,36.7882 C-43.2869,36.7882 -43.2869,40.7252 -43.2869,40.7252" style="stroke:#000000;stroke-width:0;"/>
        <!-- Spline -->
        <path d="M-48.4092,25.738799999999998 C-48.4092,25.738799999999998 -48.4092,37.7195 -48.4092,37.7195 C-48.4092,37.7195 -71.3962,37.7195 -71.3962,37.7195 C-71.3962,37.7195 -71.3962,25.738799999999998 -71.3962,25.738799999999998 C-71.3962,25.738799999999998 -48.4092,25.738799999999998 -48.4092,25.738799999999998" style="stroke:#000000;stroke-width:0;"/>
        <!-- Spline -->
        <path d="M-34.7776,25.7815 C-34.7776,25.7815 -34.7776,37.8038 -34.7776,37.8038 C-34.7776,37.8038 -11.7906,37.8038 -11.7906,37.8038 C-11.7906,37.8038 -11.7906,25.7815 -11.7906,25.7815 C-11.7906,25.7815 -34.7776,25.7815 -34.7776,25.7815" style="stroke:#000000;stroke-width:0;"/>
        <!-- Spline -->
        <path d="M-73.6396,32.5061 C-73.6396,32.5061 -73.4169,32.5061 -73.4169,32.5061 C-73.4169,32.5061 -73.2389,32.418 -73.2389,32.418 C-73.2389,32.418 -73.06099999999999,32.2849 -73.06099999999999,32.2849 C-73.06099999999999,32.2849 -72.8843,31.929 -72.8843,31.929 C-72.8843,31.929 -72.8396,31.706 -72.8396,31.706 C-72.8396,31.706 -72.8843,31.528299999999998 -72.8843,31.528299999999998 C-72.8843,31.528299999999998 -72.9725,31.351599999999998 -72.9725,31.351599999999998 C-72.9725,31.351599999999998 -73.06099999999999,31.1738 -73.06099999999999,31.1738 C-73.06099999999999,31.1738 -73.2389,31.0405 -73.2389,31.0405 C-73.2389,31.0405 -73.4169,30.950899999999997 -73.4169,30.950899999999997 C-73.4169,30.950899999999997 -73.861,30.950899999999997 -73.861,30.950899999999997 C-73.861,30.950899999999997 -74.0389,31.0405 -74.0389,31.0405 C-74.0389,31.0405 -74.2169,31.1738 -74.2169,31.1738 C-74.2169,31.1738 -74.3066,31.351599999999998 -74.3066,31.351599999999998 C-74.3066,31.351599999999998 -74.3948,31.528299999999998 -74.3948,31.528299999999998 C-74.3948,31.528299999999998 -74.4396,31.706 -74.4396,31.706 C-74.4396,31.706 -74.3948,31.929 -74.3948,31.929 C-74.3948,31.929 -74.3066,32.1068 -74.3066,32.1068 C-74.3066,32.1068 -74.2169,32.2849 -74.2169,32.2849 C-74.2169,32.2849 -74.0389,32.418 -74.0389,32.418 C-74.0389,32.418 -73.861,32.5061 -73.861,32.5061 C-73.861,32.5061 -73.6396,32.5061 -73.6396,32.5061" style="stroke:#000000;stroke-width:0;"/>
        <!-- Spline -->
        <path d="M-46.532,31.020699999999998 C-46.532,31.020699999999998 -46.7153,31.1579 -46.7153,31.1579 C-46.7153,31.1579 -46.852000000000004,31.3407 -46.852000000000004,31.3407 C-46.852000000000004,31.3407 -46.8981,31.5225 -46.8981,31.5225 C-46.8981,31.5225 -46.9443,31.705399999999997 -46.9443,31.705399999999997 C-46.9443,31.705399999999997 -46.8981,31.934800000000003 -46.8981,31.934800000000003 C-46.8981,31.934800000000003 -46.852000000000004,32.1177 -46.852000000000004,32.1177 C-46.852000000000004,32.1177 -46.7153,32.301 -46.7153,32.301 C-46.7153,32.301 -46.532,32.4378 -46.532,32.4378 C-46.532,32.4378 -46.34909999999999,32.5285 -46.34909999999999,32.5285 C-46.34909999999999,32.5285 -45.9383,32.5285 -45.9383,32.5285 C-45.9383,32.5285 -45.754999999999995,32.4378 -45.754999999999995,32.4378 C-45.754999999999995,32.4378 -45.572100000000006,32.301 -45.572100000000006,32.301 C-45.572100000000006,32.301 -45.4349,32.1177 -45.4349,32.1177 C-45.4349,32.1177 -45.344300000000004,31.934800000000003 -45.344300000000004,31.934800000000003 C-45.344300000000004,31.934800000000003 -45.344300000000004,31.5225 -45.344300000000004,31.5225 C-45.344300000000004,31.5225 -45.4349,31.3407 -45.4349,31.3407 C-45.4349,31.3407 -45.572100000000006,31.1579 -45.572100000000006,31.1579 C-45.572100000000006,31.1579 -45.754999999999995,31.020699999999998 -45.754999999999995,31.020699999999998 C-45.754999999999995,31.020699999999998 -45.9383,30.9285 -45.9383,30.9285 C-45.9383,30.9285 -46.34909999999999,30.9285 -46.34909999999999,30.9285 C-46.34909999999999,30.9285 -46.532,31.020699999999998 -46.532,31.020699999999998" style="stroke:#000000;stroke-width:0;"/>
        <!-- Spline -->
        <path d="M-8.7258,31.563599999999997 C-8.7258,31.563599999999997 -8.8168,31.380300000000002 -8.8168,31.380300000000002 C-8.8168,31.380300000000002 -8.9536,31.197499999999998 -8.9536,31.197499999999998 C-8.9536,31.197499999999998 -9.1364,31.060699999999997 -9.1364,31.060699999999997 C-9.1364,31.060699999999997 -9.3197,31.0158 -9.3197,31.0158 C-9.3197,31.0158 -9.5486,30.9696 -9.5486,30.9696 C-9.5486,30.9696 -9.7318,31.0158 -9.7318,31.0158 C-9.7318,31.0158 -9.9147,31.060699999999997 -9.9147,31.060699999999997 C-9.9147,31.060699999999997 -10.096400000000001,31.197499999999998 -10.096400000000001,31.197499999999998 C-10.096400000000001,31.197499999999998 -10.2346,31.380300000000002 -10.2346,31.380300000000002 C-10.2346,31.380300000000002 -10.325800000000001,31.563599999999997 -10.325800000000001,31.563599999999997 C-10.325800000000001,31.563599999999997 -10.325800000000001,31.975699999999996 -10.325800000000001,31.975699999999996 C-10.325800000000001,31.975699999999996 -10.2346,32.2036 -10.2346,32.2036 C-10.2346,32.2036 -10.096400000000001,32.3403 -10.096400000000001,32.3403 C-10.096400000000001,32.3403 -9.9147,32.4786 -9.9147,32.4786 C-9.9147,32.4786 -9.7318,32.5696 -9.7318,32.5696 C-9.7318,32.5696 -9.5486,32.6158 -9.5486,32.6158 C-9.5486,32.6158 -9.3197,32.5696 -9.3197,32.5696 C-9.3197,32.5696 -9.1364,32.4786 -9.1364,32.4786 C-9.1364,32.4786 -8.9536,32.3403 -8.9536,32.3403 C-8.9536,32.3403 -8.8168,32.2036 -8.8168,32.2036 C-8.8168,32.2036 -8.7258,31.975699999999996 -8.7258,31.975699999999996 C-8.7258,31.975699999999996 -8.7258,31.563599999999997 -8.7258,31.563599999999997" style="stroke:#000000;stroke-width:0;"/>
        <!-- Spline -->
        <path d="M-37.5982,31.214100000000002 C-37.5982,31.214100000000002 -37.6877,31.3918 -37.6877,31.3918 C-37.6877,31.3918 -37.7759,31.57 -37.7759,31.57 C-37.7759,31.57 -37.8211,31.7925 -37.8211,31.7925 C-37.8211,31.7925 -37.7759,31.9706 -37.7759,31.9706 C-37.7759,31.9706 -37.6877,32.192099999999996 -37.6877,32.192099999999996 C-37.6877,32.192099999999996 -37.5982,32.325 -37.5982,32.325 C-37.5982,32.325 -37.4216,32.4594 -37.4216,32.4594 C-37.4216,32.4594 -37.2437,32.5479 -37.2437,32.5479 C-37.2437,32.5479 -37.0209,32.5928 -37.0209,32.5928 C-37.0209,32.5928 -36.8431,32.5479 -36.8431,32.5479 C-36.8431,32.5479 -36.621700000000004,32.4594 -36.621700000000004,32.4594 C-36.621700000000004,32.4594 -36.3544,32.192099999999996 -36.3544,32.192099999999996 C-36.3544,32.192099999999996 -36.2659,31.9706 -36.2659,31.9706 C-36.2659,31.9706 -36.2211,31.7925 -36.2211,31.7925 C-36.2211,31.7925 -36.2659,31.57 -36.2659,31.57 C-36.2659,31.57 -36.3544,31.3918 -36.3544,31.3918 C-36.3544,31.3918 -36.4872,31.214100000000002 -36.4872,31.214100000000002 C-36.4872,31.214100000000002 -36.621700000000004,31.0811 -36.621700000000004,31.0811 C-36.621700000000004,31.0811 -36.8431,31.037499999999998 -36.8431,31.037499999999998 C-36.8431,31.037499999999998 -37.0209,30.992600000000003 -37.0209,30.992600000000003 C-37.0209,30.992600000000003 -37.2437,31.037499999999998 -37.2437,31.037499999999998 C-37.2437,31.037499999999998 -37.4216,31.0811 -37.4216,31.0811 C-37.4216,31.0811 -37.5982,31.214100000000002 -37.5982,31.214100000000002" style="stroke:#000000;stroke-width:0;"/>
        <!-- Spline -->
        <path d="M-40.4922,31.0305 C-40.4922,31.0305 -40.7046,30.7342 -40.7046,30.7342 C-40.7046,30.7342 -41.042199999999994,30.4795 -41.042199999999994,30.4795 C-41.042199999999994,30.4795 -41.3812,30.3525 -41.3812,30.3525 C-41.3812,30.3525 -41.7629,30.2685 -41.7629,30.2685 C-41.7629,30.2685 -42.1859,30.3525 -42.1859,30.3525 C-42.1859,30.3525 -42.5249,30.4795 -42.5249,30.4795 C-42.5249,30.4795 -42.8212,30.7342 -42.8212,30.7342 C-42.8212,30.7342 -43.0749,31.0305 -43.0749,31.0305 C-43.0749,31.0305 -43.2442,31.410800000000002 -43.2442,31.410800000000002 C-43.2442,31.410800000000002 -43.2869,31.7925 -43.2869,31.7925 C-43.2869,31.7925 -43.2442,32.1732 -43.2442,32.1732 C-43.2442,32.1732 -43.0749,32.5549 -43.0749,32.5549 C-43.0749,32.5549 -42.8212,32.8508 -42.8212,32.8508 C-42.8212,32.8508 -42.5249,33.1045 -42.5249,33.1045 C-42.5249,33.1045 -42.1859,33.2315 -42.1859,33.2315 C-42.1859,33.2315 -41.7629,33.2742 -41.7629,33.2742 C-41.7629,33.2742 -41.3812,33.2315 -41.3812,33.2315 C-41.3812,33.2315 -41.042199999999994,33.1045 -41.042199999999994,33.1045 C-41.042199999999994,33.1045 -40.7046,32.8508 -40.7046,32.8508 C-40.7046,32.8508 -40.4922,32.5549 -40.4922,32.5549 C-40.4922,32.5549 -40.3229,32.1732 -40.3229,32.1732 C-40.3229,32.1732 -40.280199999999994,31.7925 -40.280199999999994,31.7925 C-40.280199999999994,31.7925 -40.3229,31.410800000000002 -40.3229,31.410800000000002 C-40.3229,31.410800000000002 -40.4922,31.0305 -40.4922,31.0305" style="stroke:#000000;stroke-width:0;"/>
        <!-- Spline -->
        <path d="M72.6267,-25.6743 C72.6267,-25.6743 73.0084,-25.7597 73.0084,-25.7597 C73.0084,-25.7597 73.3887,-25.6743 73.3887,-25.6743 C73.3887,-25.6743 73.7704,-25.5476 73.7704,-25.5476 C73.7704,-25.5476 74.0667,-25.293999999999997 74.0667,-25.293999999999997 C74.0667,-25.293999999999997 74.32039999999999,-24.9977 74.32039999999999,-24.9977 C74.32039999999999,-24.9977 74.447,-24.6586 74.447,-24.6586 C74.447,-24.6586 74.4897,-24.2783 74.4897,-24.2783 C74.4897,-24.2783 74.447,-23.854000000000003 74.447,-23.854000000000003 C74.447,-23.854000000000003 74.32039999999999,-23.5163 74.32039999999999,-23.5163 C74.32039999999999,-23.5163 74.0667,-23.22 74.0667,-23.22 C74.0667,-23.22 73.7704,-22.965 73.7704,-22.965 C73.7704,-22.965 73.3887,-22.8383 73.3887,-22.8383 C73.3887,-22.8383 73.0084,-22.7543 73.0084,-22.7543 C73.0084,-22.7543 72.6267,-22.8383 72.6267,-22.8383 C72.6267,-22.8383 72.2877,-22.965 72.2877,-22.965 C72.2877,-22.965 71.95009999999999,-23.22 71.95009999999999,-23.22 C71.95009999999999,-23.22 71.7381,-23.5163 71.7381,-23.5163 C71.7381,-23.5163 71.5684,-23.854000000000003 71.5684,-23.854000000000003 C71.5684,-23.854000000000003 71.5271,-24.2783 71.5271,-24.2783 C71.5271,-24.2783 71.5684,-24.6586 71.5684,-24.6586 C71.5684,-24.6586 71.7381,-24.9977 71.7381,-24.9977 C71.7381,-24.9977 71.95009999999999,-25.293999999999997 71.95009999999999,-25.293999999999997 C71.95009999999999,-25.293999999999997 72.2877,-25.5476 72.2877,-25.5476 C72.2877,-25.5476 72.6267,-25.6743 72.6267,-25.6743" style="stroke:#000000;stroke-width:0;"/>
        <!-- Spline -->
        <path d="M74.574,-65.045 C74.574,-65.045 76.0141,-64.4523 76.0141,-64.4523 C76.0141,-64.4523 77.2417,-63.478 77.2417,-63.478 C77.2417,-63.478 78.2147,-62.2517 78.2147,-62.2517 C78.2147,-62.2517 78.8074,-60.8117 78.8074,-60.8117 C78.8074,-60.8117 79.01939999999999,-59.2446 79.01939999999999,-59.2446 C79.01939999999999,-59.2446 78.8074,-57.7206 78.8074,-57.7206 C78.8074,-57.7206 78.2147,-56.2393 78.2147,-56.2393 C78.2147,-56.2393 77.2417,-55.0113 77.2417,-55.0113 C77.2417,-55.0113 77.2417,-28.5117 77.2417,-28.5117 C77.2417,-28.5117 78.2147,-27.241 78.2147,-27.241 C78.2147,-27.241 78.8074,-25.8023 78.8074,-25.8023 C78.8074,-25.8023 79.01939999999999,-24.2783 79.01939999999999,-24.2783 C79.01939999999999,-24.2783 78.8074,-22.7117 78.8074,-22.7117 C78.8074,-22.7117 78.2147,-21.2727 78.2147,-21.2727 C78.2147,-21.2727 77.2417,-20.0023 77.2417,-20.0023 C77.2417,-20.0023 76.0141,-19.0706 76.0141,-19.0706 C76.0141,-19.0706 74.574,-18.4783 74.574,-18.4783 C74.574,-18.4783 73.0084,-18.266 73.0084,-18.266 C73.0084,-18.266 71.4844,-18.4783 71.4844,-18.4783 C71.4844,-18.4783 70.0031,-19.0706 70.0031,-19.0706 C70.0031,-19.0706 68.7751,-20.0023 68.7751,-20.0023 C68.7751,-20.0023 67.8007,-21.2727 67.8007,-21.2727 C67.8007,-21.2727 67.2084,-22.7117 67.2084,-22.7117 C67.2084,-22.7117 66.99600000000001,-24.2783 66.99600000000001,-24.2783 C66.99600000000001,-24.2783 67.2084,-25.8023 67.2084,-25.8023 C67.2084,-25.8023 67.8007,-27.241 67.8007,-27.241 C67.8007,-27.241 68.7751,-28.5117 68.7751,-28.5117 C68.7751,-28.5117 68.7751,-55.0113 68.7751,-55.0113 C68.7751,-55.0113 67.8007,-56.2393 67.8007,-56.2393 C67.8007,-56.2393 67.2084,-57.7206 67.2084,-57.7206 C67.2084,-57.7206 66.99600000000001,-59.2446 66.99600000000001,-59.2446 C66.99600000000001,-59.2446 67.2084,-60.8117 67.2084,-60.8117 C67.2084,-60.8117 67.8007,-62.2517 67.8007,-62.2517 C67.8007,-62.2517 68.7751,-63.478 68.7751,-63.478 C68.7751,-63.478 70.0031,-64.4523 70.0031,-64.4523 C70.0031,-64.4523 71.4844,-65.045 71.4844,-65.045 C71.4844,-65.045 73.0084,-65.25699999999999 73.0084,-65.25699999999999 C73.0084,-65.25699999999999 74.574,-65.045 74.574,-65.045" style="stroke:#000000;stroke-width:0;"/>
        <!-- Spline -->
        <path d="M61.183899999999994,-22.6862 C61.183899999999994,-22.6862 60.9141,-22.461199999999998 60.9141,-22.461199999999998 C60.9141,-22.461199999999998 60.6001,-22.3269 60.6001,-22.3269 C60.6001,-22.3269 60.241,-22.2817 60.241,-22.2817 C60.241,-22.2817 59.927099999999996,-22.3269 59.927099999999996,-22.3269 C59.927099999999996,-22.3269 59.6132,-22.461199999999998 59.6132,-22.461199999999998 C59.6132,-22.461199999999998 59.34440000000001,-22.6862 59.34440000000001,-22.6862 C59.34440000000001,-22.6862 59.1198,-22.9548 59.1198,-22.9548 C59.1198,-22.9548 58.9853,-23.2684 58.9853,-23.2684 C58.9853,-23.2684 58.9416,-23.582299999999996 58.9416,-23.582299999999996 C58.9416,-23.582299999999996 58.9853,-23.9414 58.9853,-23.9414 C58.9853,-23.9414 59.1198,-24.255399999999998 59.1198,-24.255399999999998 C59.1198,-24.255399999999998 59.34440000000001,-24.5241 59.34440000000001,-24.5241 C59.34440000000001,-24.5241 59.6132,-24.7487 59.6132,-24.7487 C59.6132,-24.7487 59.927099999999996,-24.838 59.927099999999996,-24.838 C59.927099999999996,-24.838 60.241,-24.8832 60.241,-24.8832 C60.241,-24.8832 60.6001,-24.838 60.6001,-24.838 C60.6001,-24.838 60.9141,-24.7487 60.9141,-24.7487 C60.9141,-24.7487 61.183899999999994,-24.5241 61.183899999999994,-24.5241 C61.183899999999994,-24.5241 61.3622,-24.255399999999998 61.3622,-24.255399999999998 C61.3622,-24.255399999999998 61.4978,-23.9414 61.4978,-23.9414 C61.4978,-23.9414 61.5416,-23.582299999999996 61.5416,-23.582299999999996 C61.5416,-23.582299999999996 61.4978,-23.2684 61.4978,-23.2684 C61.4978,-23.2684 61.3622,-22.9548 61.3622,-22.9548 C61.3622,-22.9548 61.183899999999994,-22.6862 61.183899999999994,-22.6862" style="stroke:#000000;stroke-width:0;"/>
        <!-- Spline -->
        <path d="M58.7181,-64.3916 C58.7181,-64.3916 60.241,-64.604 60.241,-64.604 C60.241,-64.604 61.8077,-64.3916 61.8077,-64.3916 C61.8077,-64.3916 63.2477,-63.799 63.2477,-63.799 C63.2477,-63.799 64.4744,-62.824999999999996 64.4744,-62.824999999999996 C64.4744,-62.824999999999996 65.44839999999999,-61.5984 65.44839999999999,-61.5984 C65.44839999999999,-61.5984 66.041,-60.158300000000004 66.041,-60.158300000000004 C66.041,-60.158300000000004 66.2534,-58.5916 66.2534,-58.5916 C66.2534,-58.5916 66.041,-57.026 66.041,-57.026 C66.041,-57.026 65.44839999999999,-55.586 65.44839999999999,-55.586 C65.44839999999999,-55.586 64.4744,-54.3583 64.4744,-54.3583 C64.4744,-54.3583 64.4744,-27.8583 64.4744,-27.8583 C64.4744,-27.8583 65.44839999999999,-26.587999999999997 65.44839999999999,-26.587999999999997 C65.44839999999999,-26.587999999999997 66.041,-25.1494 66.041,-25.1494 C66.041,-25.1494 66.2534,-23.582299999999996 66.2534,-23.582299999999996 C66.2534,-23.582299999999996 66.041,-22.058300000000003 66.041,-22.058300000000003 C66.041,-22.058300000000003 65.44839999999999,-20.577 65.44839999999999,-20.577 C65.44839999999999,-20.577 64.4744,-19.349 64.4744,-19.349 C64.4744,-19.349 63.2477,-18.4176 63.2477,-18.4176 C63.2477,-18.4176 61.8077,-17.7823 61.8077,-17.7823 C61.8077,-17.7823 60.241,-17.6126 60.241,-17.6126 C60.241,-17.6126 58.7181,-17.7823 58.7181,-17.7823 C58.7181,-17.7823 57.2354,-18.4176 57.2354,-18.4176 C57.2354,-18.4176 56.0077,-19.349 56.0077,-19.349 C56.0077,-19.349 55.0347,-20.577 55.0347,-20.577 C55.0347,-20.577 54.442099999999996,-22.058300000000003 54.442099999999996,-22.058300000000003 C54.442099999999996,-22.058300000000003 54.230000000000004,-23.582299999999996 54.230000000000004,-23.582299999999996 C54.230000000000004,-23.582299999999996 54.442099999999996,-25.1494 54.442099999999996,-25.1494 C54.442099999999996,-25.1494 55.0347,-26.587999999999997 55.0347,-26.587999999999997 C55.0347,-26.587999999999997 56.0077,-27.8583 56.0077,-27.8583 C56.0077,-27.8583 56.0077,-54.3583 56.0077,-54.3583 C56.0077,-54.3583 55.0347,-55.586 55.0347,-55.586 C55.0347,-55.586 54.442099999999996,-57.026 54.442099999999996,-57.026 C54.442099999999996,-57.026 54.230000000000004,-58.5916 54.230000000000004,-58.5916 C54.230000000000004,-58.5916 54.442099999999996,-60.158300000000004 54.442099999999996,-60.158300000000004 C54.442099999999996,-60.158300000000004 55.0347,-61.5984 55.0347,-61.5984 C55.0347,-61.5984 56.0077,-62.824999999999996 56.0077,-62.824999999999996 C56.0077,-62.824999999999996 57.2354,-63.799 57.2354,-63.799 C57.2354,-63.799 58.7181,-64.3916 58.7181,-64.3916" style="stroke:#000000;stroke-width:0;"/>
        <!-- Spline -->
        <path d="M59.8545,-1.9011 C59.8545,-1.9011 59.6735,-2.1695 59.6735,-2.1695 C59.6735,-2.1695 59.5395,-2.4827 59.5395,-2.4827 C59.5395,-2.4827 59.4944,-2.8414 59.4944,-2.8414 C59.4944,-2.8414 59.5395,-3.1550000000000002 59.5395,-3.1550000000000002 C59.5395,-3.1550000000000002 59.6735,-3.4686 59.6735,-3.4686 C59.6735,-3.4686 59.8545,-3.7369999999999997 59.8545,-3.7369999999999997 C59.8545,-3.7369999999999997 60.122600000000006,-3.9612999999999996 60.122600000000006,-3.9612999999999996 C60.122600000000006,-3.9612999999999996 60.4347,-4.0957 60.4347,-4.0957 C60.4347,-4.0957 60.793499999999995,-4.1409 60.793499999999995,-4.1409 C60.793499999999995,-4.1409 61.107,-4.0957 61.107,-4.0957 C61.107,-4.0957 61.420500000000004,-3.9612999999999996 61.420500000000004,-3.9612999999999996 C61.420500000000004,-3.9612999999999996 61.691599999999994,-3.7369999999999997 61.691599999999994,-3.7369999999999997 C61.691599999999994,-3.7369999999999997 61.9133,-3.4686 61.9133,-3.4686 C61.9133,-3.4686 62.048899999999996,-3.1550000000000002 62.048899999999996,-3.1550000000000002 C62.048899999999996,-3.1550000000000002 62.0944,-2.8414 62.0944,-2.8414 C62.0944,-2.8414 62.048899999999996,-2.4827 62.048899999999996,-2.4827 C62.048899999999996,-2.4827 61.9133,-2.1695 61.9133,-2.1695 C61.9133,-2.1695 61.691599999999994,-1.9011 61.691599999999994,-1.9011 C61.691599999999994,-1.9011 61.420500000000004,-1.6764000000000001 61.420500000000004,-1.6764000000000001 C61.420500000000004,-1.6764000000000001 61.107,-1.5876000000000001 61.107,-1.5876000000000001 C61.107,-1.5876000000000001 60.793499999999995,-1.5423999999999998 60.793499999999995,-1.5423999999999998 C60.793499999999995,-1.5423999999999998 60.4347,-1.5876000000000001 60.4347,-1.5876000000000001 C60.4347,-1.5876000000000001 60.122600000000006,-1.6764000000000001 60.122600000000006,-1.6764000000000001 C60.122600000000006,-1.6764000000000001 59.8545,-1.9011 59.8545,-1.9011" style="stroke:#000000;stroke-width:0;"/>
        <!-- Spline -->
        <path d="M59.4944,42.1596 C59.4944,42.1596 59.5395,41.8461 59.5395,41.8461 C59.5395,41.8461 59.6735,41.5314 59.6735,41.5314 C59.6735,41.5314 59.8545,41.263 59.8545,41.263 C59.8545,41.263 60.122600000000006,41.0398 60.122600000000006,41.0398 C60.122600000000006,41.0398 60.4347,40.90429999999999 60.4347,40.90429999999999 C60.4347,40.90429999999999 60.793499999999995,40.8606 60.793499999999995,40.8606 C60.793499999999995,40.8606 61.107,40.90429999999999 61.107,40.90429999999999 C61.107,40.90429999999999 61.420500000000004,41.0398 61.420500000000004,41.0398 C61.420500000000004,41.0398 61.691599999999994,41.263 61.691599999999994,41.263 C61.691599999999994,41.263 61.9133,41.5314 61.9133,41.5314 C61.9133,41.5314 62.048899999999996,41.8461 62.048899999999996,41.8461 C62.048899999999996,41.8461 62.0944,42.1596 62.0944,42.1596 C62.0944,42.1596 62.048899999999996,42.5169 62.048899999999996,42.5169 C62.048899999999996,42.5169 61.9133,42.8304 61.9133,42.8304 C61.9133,42.8304 61.691599999999994,43.100300000000004 61.691599999999994,43.100300000000004 C61.691599999999994,43.100300000000004 61.420500000000004,43.3232 61.420500000000004,43.3232 C61.420500000000004,43.3232 61.107,43.4139 61.107,43.4139 C61.107,43.4139 60.793499999999995,43.4576 60.793499999999995,43.4576 C60.793499999999995,43.4576 60.4347,43.4139 60.4347,43.4139 C60.4347,43.4139 60.122600000000006,43.3232 60.122600000000006,43.3232 C60.122600000000006,43.3232 59.8545,43.100300000000004 59.8545,43.100300000000004 C59.8545,43.100300000000004 59.6735,42.8304 59.6735,42.8304 C59.6735,42.8304 59.5395,42.5169 59.5395,42.5169 C59.5395,42.5169 59.4944,42.1596 59.4944,42.1596" style="stroke:#000000;stroke-width:0;"/>
        <!-- Spline -->
        <path d="M74.61529999999999,3.9012000000000002 C74.61529999999999,3.9012000000000002 74.4043,4.1975 74.4043,4.1975 C74.4043,4.1975 74.06530000000001,4.4522 74.06530000000001,4.4522 C74.06530000000001,4.4522 73.7263,4.5792 73.7263,4.5792 C73.7263,4.5792 73.346,4.6632 73.346,4.6632 C73.346,4.6632 72.9629,4.5792 72.9629,4.5792 C72.9629,4.5792 72.5826,4.4522 72.5826,4.4522 C72.5826,4.4522 72.2877,4.1975 72.2877,4.1975 C72.2877,4.1975 72.0742,3.9012000000000002 72.0742,3.9012000000000002 C72.0742,3.9012000000000002 71.9046,3.5636 71.9046,3.5636 C71.9046,3.5636 71.8633,3.1818999999999997 71.8633,3.1818999999999997 C71.8633,3.1818999999999997 71.9046,2.7589 71.9046,2.7589 C71.9046,2.7589 72.0742,2.4199 72.0742,2.4199 C72.0742,2.4199 72.2877,2.1235 72.2877,2.1235 C72.2877,2.1235 72.5826,1.8699 72.5826,1.8699 C72.5826,1.8699 72.9629,1.7433 72.9629,1.7433 C72.9629,1.7433 73.346,1.6579 73.346,1.6579 C73.346,1.6579 73.7263,1.7433 73.7263,1.7433 C73.7263,1.7433 74.06530000000001,1.8699 74.06530000000001,1.8699 C74.06530000000001,1.8699 74.4043,2.1235 74.4043,2.1235 C74.4043,2.1235 74.61529999999999,2.4199 74.61529999999999,2.4199 C74.61529999999999,2.4199 74.7846,2.7589 74.7846,2.7589 C74.7846,2.7589 74.82730000000001,3.1818999999999997 74.82730000000001,3.1818999999999997 C74.82730000000001,3.1818999999999997 74.7846,3.5636 74.7846,3.5636 C74.7846,3.5636 74.61529999999999,3.9012000000000002 74.61529999999999,3.9012000000000002" style="stroke:#000000;stroke-width:0;"/>
        <!-- Spline -->
        <path d="M72.0742,47.4209 C72.0742,47.4209 72.2877,47.1246 72.2877,47.1246 C72.2877,47.1246 72.5826,46.8699 72.5826,46.8699 C72.5826,46.8699 72.9629,46.7429 72.9629,46.7429 C72.9629,46.7429 73.346,46.6589 73.346,46.6589 C73.346,46.6589 73.7263,46.7429 73.7263,46.7429 C73.7263,46.7429 74.06530000000001,46.8699 74.06530000000001,46.8699 C74.06530000000001,46.8699 74.4043,47.1246 74.4043,47.1246 C74.4043,47.1246 74.61529999999999,47.4209 74.61529999999999,47.4209 C74.61529999999999,47.4209 74.7846,47.7585 74.7846,47.7585 C74.7846,47.7585 74.82730000000001,48.182900000000004 74.82730000000001,48.182900000000004 C74.82730000000001,48.182900000000004 74.7846,48.563599999999994 74.7846,48.563599999999994 C74.7846,48.563599999999994 74.61529999999999,48.9022 74.61529999999999,48.9022 C74.61529999999999,48.9022 74.4043,49.1986 74.4043,49.1986 C74.4043,49.1986 74.06530000000001,49.4522 74.06530000000001,49.4522 C74.06530000000001,49.4522 73.7263,49.5789 73.7263,49.5789 C73.7263,49.5789 73.346,49.66459999999999 73.346,49.66459999999999 C73.346,49.66459999999999 72.9629,49.5789 72.9629,49.5789 C72.9629,49.5789 72.5826,49.4522 72.5826,49.4522 C72.5826,49.4522 72.2877,49.1986 72.2877,49.1986 C72.2877,49.1986 72.0742,48.9022 72.0742,48.9022 C72.0742,48.9022 71.9046,48.563599999999994 71.9046,48.563599999999994 C71.9046,48.563599999999994 71.8633,48.182900000000004 71.8633,48.182900000000004 C71.8633,48.182900000000004 71.9046,47.7585 71.9046,47.7585 C71.9046,47.7585 72.0742,47.4209 72.0742,47.4209" style="stroke:#000000;stroke-width:0;"/>
        <!-- Spline -->
        <path d="M76.3503,-2.0244 C76.3503,-2.0244 77.5793,-1.0940999999999999 77.5793,-1.0940999999999999 C77.5793,-1.0940999999999999 78.5509,0.1762 78.5509,0.1762 C78.5509,0.1762 79.14500000000001,1.6162999999999998 79.14500000000001,1.6162999999999998 C79.14500000000001,1.6162999999999998 79.357,3.1818999999999997 79.357,3.1818999999999997 C79.357,3.1818999999999997 79.14500000000001,4.7059 79.14500000000001,4.7059 C79.14500000000001,4.7059 78.5509,6.145899999999999 78.5509,6.145899999999999 C78.5509,6.145899999999999 77.5793,7.4152 77.5793,7.4152 C77.5793,7.4152 77.5793,43.9069 77.5793,43.9069 C77.5793,43.9069 78.5509,45.1762 78.5509,45.1762 C78.5509,45.1762 79.14500000000001,46.6162 79.14500000000001,46.6162 C79.14500000000001,46.6162 79.357,48.182900000000004 79.357,48.182900000000004 C79.357,48.182900000000004 79.14500000000001,49.7059 79.14500000000001,49.7059 C79.14500000000001,49.7059 78.5509,51.1459 78.5509,51.1459 C78.5509,51.1459 77.5793,52.4163 77.5793,52.4163 C77.5793,52.4163 76.3503,53.3465 76.3503,53.3465 C76.3503,53.3465 74.91159999999999,53.9392 74.91159999999999,53.9392 C74.91159999999999,53.9392 73.346,54.1512 73.346,54.1512 C73.346,54.1512 71.7779,53.9392 71.7779,53.9392 C71.7779,53.9392 70.7196,54.8705 70.7196,54.8705 C70.7196,54.8705 71.0159,55.54859999999999 71.0159,55.54859999999999 C71.0159,55.54859999999999 71.272,57.4532 71.272,57.4532 C71.272,57.4532 71.0159,59.316199999999995 71.0159,59.316199999999995 C71.0159,59.316199999999995 70.2966,61.093900000000005 70.2966,61.093900000000005 C70.2966,61.093900000000005 69.1127,62.617900000000006 69.1127,62.617900000000006 C69.1127,62.617900000000006 67.5873,63.803200000000004 67.5873,63.803200000000004 C67.5873,63.803200000000004 65.8096,64.52250000000001 65.8096,64.52250000000001 C65.8096,64.52250000000001 63.946600000000004,64.7772 63.946600000000004,64.7772 C63.946600000000004,64.7772 62.042,64.52250000000001 62.042,64.52250000000001 C62.042,64.52250000000001 63.0576,60.62820000000001 63.0576,60.62820000000001 C63.0576,60.62820000000001 63.946600000000004,60.754900000000006 63.946600000000004,60.754900000000006 C63.946600000000004,60.754900000000006 64.7926,60.62820000000001 64.7926,60.62820000000001 C64.7926,60.62820000000001 65.59870000000001,60.2892 65.59870000000001,60.2892 C65.59870000000001,60.2892 66.2753,59.78189999999999 66.2753,59.78189999999999 C66.2753,59.78189999999999 66.7826,59.103899999999996 66.7826,59.103899999999996 C66.7826,59.103899999999996 67.1216,58.300599999999996 67.1216,58.300599999999996 C67.1216,58.300599999999996 67.2482,57.4532 67.2482,57.4532 C67.2482,57.4532 67.1216,56.5642 67.1216,56.5642 C67.1216,56.5642 66.7826,55.8022 66.7826,55.8022 C66.7826,55.8022 66.2753,55.082899999999995 66.2753,55.082899999999995 C66.2753,55.082899999999995 65.59870000000001,54.5745 65.59870000000001,54.5745 C65.59870000000001,54.5745 64.7926,54.2369 64.7926,54.2369 C64.7926,54.2369 63.946600000000004,54.1512 63.946600000000004,54.1512 C63.946600000000004,54.1512 63.0576,54.2369 63.0576,54.2369 C63.0576,54.2369 62.2956,54.5745 62.2956,54.5745 C62.2956,54.5745 61.5763,55.082899999999995 61.5763,55.082899999999995 C61.5763,55.082899999999995 61.069,55.8022 61.069,55.8022 C61.069,55.8022 60.730000000000004,56.5642 60.730000000000004,56.5642 C60.730000000000004,56.5642 60.646,57.4532 60.646,57.4532 C60.646,57.4532 60.730000000000004,58.300599999999996 60.730000000000004,58.300599999999996 C60.730000000000004,58.300599999999996 56.835699999999996,59.316199999999995 56.835699999999996,59.316199999999995 C56.835699999999996,59.316199999999995 56.581,57.4532 56.581,57.4532 C56.581,57.4532 56.835699999999996,55.54859999999999 56.835699999999996,55.54859999999999 C56.835699999999996,55.54859999999999 57.5966,53.7709 57.5966,53.7709 C57.5966,53.7709 58.740300000000005,52.2469 58.740300000000005,52.2469 C58.740300000000005,52.2469 60.2629,51.1032 60.2629,51.1032 C60.2629,51.1032 62.042,50.3412 62.042,50.3412 C62.042,50.3412 63.946600000000004,50.087599999999995 63.946600000000004,50.087599999999995 C63.946600000000004,50.087599999999995 65.8096,50.3412 65.8096,50.3412 C65.8096,50.3412 66.4862,50.6372 66.4862,50.6372 C66.4862,50.6372 67.5446,49.7059 67.5446,49.7059 C67.5446,49.7059 67.3336,48.182900000000004 67.3336,48.182900000000004 C67.3336,48.182900000000004 67.5446,46.6162 67.5446,46.6162 C67.5446,46.6162 68.1383,45.1762 68.1383,45.1762 C68.1383,45.1762 69.1127,43.9069 69.1127,43.9069 C69.1127,43.9069 69.1127,7.4152 69.1127,7.4152 C69.1127,7.4152 68.1383,6.145899999999999 68.1383,6.145899999999999 C68.1383,6.145899999999999 67.5446,4.7059 67.5446,4.7059 C67.5446,4.7059 67.3336,3.1818999999999997 67.3336,3.1818999999999997 C67.3336,3.1818999999999997 67.5446,1.6162999999999998 67.5446,1.6162999999999998 C67.5446,1.6162999999999998 68.1383,0.1762 68.1383,0.1762 C68.1383,0.1762 69.1127,-1.0940999999999999 69.1127,-1.0940999999999999 C69.1127,-1.0940999999999999 70.3393,-2.0244 70.3393,-2.0244 C70.3393,-2.0244 71.7779,-2.6170999999999998 71.7779,-2.6170999999999998 C71.7779,-2.6170999999999998 73.346,-2.8291 73.346,-2.8291 C73.346,-2.8291 74.91159999999999,-2.6170999999999998 74.91159999999999,-2.6170999999999998 C74.91159999999999,-2.6170999999999998 76.3503,-2.0244 76.3503,-2.0244" style="stroke:#000000;stroke-width:0;"/>
        <!-- Spline -->
        <path d="M56.560100000000006,-7.0748 C56.560100000000006,-7.0748 57.78959999999999,-8.006499999999999 57.78959999999999,-8.006499999999999 C57.78959999999999,-8.006499999999999 59.2282,-8.6404 59.2282,-8.6404 C59.2282,-8.6404 60.793499999999995,-8.8097 60.793499999999995,-8.8097 C60.793499999999995,-8.8097 62.361599999999996,-8.6404 62.361599999999996,-8.6404 C62.361599999999996,-8.6404 63.799099999999996,-8.006499999999999 63.799099999999996,-8.006499999999999 C63.799099999999996,-8.006499999999999 65.0268,-7.0748 65.0268,-7.0748 C65.0268,-7.0748 66.00120000000001,-5.847099999999999 66.00120000000001,-5.847099999999999 C66.00120000000001,-5.847099999999999 66.5949,-4.3658 66.5949,-4.3658 C66.5949,-4.3658 66.8045,-2.8414 66.8045,-2.8414 C66.8045,-2.8414 66.5949,-1.2748000000000002 66.5949,-1.2748000000000002 C66.5949,-1.2748000000000002 66.00120000000001,0.1639 66.00120000000001,0.1639 C66.00120000000001,0.1639 65.0268,1.3919000000000001 65.0268,1.3919000000000001 C65.0268,1.3919000000000001 65.0268,37.9263 65.0268,37.9263 C65.0268,37.9263 66.00120000000001,39.1529 66.00120000000001,39.1529 C66.00120000000001,39.1529 66.5949,40.6356 66.5949,40.6356 C66.5949,40.6356 66.8045,42.1596 66.8045,42.1596 C66.8045,42.1596 66.5949,43.7252 66.5949,43.7252 C66.5949,43.7252 66.00120000000001,45.1653 66.00120000000001,45.1653 C66.00120000000001,45.1653 65.0268,46.3929 65.0268,46.3929 C65.0268,46.3929 63.799099999999996,47.365899999999996 63.799099999999996,47.365899999999996 C63.799099999999996,47.365899999999996 62.361599999999996,47.958600000000004 62.361599999999996,47.958600000000004 C62.361599999999996,47.958600000000004 60.793499999999995,48.17059999999999 60.793499999999995,48.17059999999999 C60.793499999999995,48.17059999999999 59.2282,47.958600000000004 59.2282,47.958600000000004 C59.2282,47.958600000000004 57.78959999999999,47.365899999999996 57.78959999999999,47.365899999999996 C57.78959999999999,47.365899999999996 56.560100000000006,46.3929 56.560100000000006,46.3929 C56.560100000000006,46.3929 55.5886,45.1653 55.5886,45.1653 C55.5886,45.1653 54.9949,43.7252 54.9949,43.7252 C54.9949,43.7252 54.7825,42.1596 54.7825,42.1596 C54.7825,42.1596 54.9949,40.6356 54.9949,40.6356 C54.9949,40.6356 55.5886,39.1529 55.5886,39.1529 C55.5886,39.1529 56.560100000000006,37.9263 56.560100000000006,37.9263 C56.560100000000006,37.9263 56.560100000000006,1.3919000000000001 56.560100000000006,1.3919000000000001 C56.560100000000006,1.3919000000000001 55.5886,0.1639 55.5886,0.1639 C55.5886,0.1639 54.9949,-1.2748000000000002 54.9949,-1.2748000000000002 C54.9949,-1.2748000000000002 54.7825,-2.8414 54.7825,-2.8414 C54.7825,-2.8414 54.9949,-4.3658 54.9949,-4.3658 C54.9949,-4.3658 55.5886,-5.847099999999999 55.5886,-5.847099999999999 C55.5886,-5.847099999999999 56.560100000000006,-7.0748 56.560100000000006,-7.0748" style="stroke:#000000;stroke-width:0;"/>
        <!-- Spline -->
        <path d="M42.4808,-55.032300000000006 C41.1187,-55.7592 40.198,-57.146100000000004 40.198,-58.737700000000004 C40.198,-61.0826 42.196,-62.983599999999996 44.660900000000005,-62.983599999999996 C45.6044,-62.983599999999996 46.4792,-62.704899999999995 47.199999999999996,-62.2295 C47.199999999999996,-62.2295 49.169799999999995,-62.2295 49.169799999999995,-62.2295 C49.169799999999995,-62.2295 49.169799999999995,-22.733500000000003 49.169799999999995,-22.733500000000003 C49.169799999999995,-22.733500000000003 36.173500000000004,-22.733500000000003 36.173500000000004,-22.733500000000003 C36.173500000000004,-22.733500000000003 36.173500000000004,0.2535 36.173500000000004,0.2535 C36.173500000000004,0.2535 49.169799999999995,0.2535 49.169799999999995,0.2535 C49.169799999999995,0.2535 49.169799999999995,25.738799999999998 49.169799999999995,25.738799999999998 C49.169799999999995,25.738799999999998 42.184400000000004,25.738799999999998 42.184400000000004,25.738799999999998 C42.184400000000004,25.738799999999998 42.184400000000004,22.733500000000003 42.184400000000004,22.733500000000003 C42.184400000000004,22.733500000000003 38.6704,22.733500000000003 38.6704,22.733500000000003 C38.6704,22.733500000000003 38.6704,18.753800000000002 38.6704,18.753800000000002 C38.6704,18.753800000000002 39.9411,18.753800000000002 39.9411,18.753800000000002 C39.9411,18.753800000000002 39.9411,16.0445 39.9411,16.0445 C39.9411,16.0445 38.6704,16.0445 38.6704,16.0445 C38.6704,16.0445 38.6704,10.4565 38.6704,10.4565 C38.6704,10.4565 35.6651,10.4565 35.6651,10.4565 C35.6651,10.4565 35.6651,16.0445 35.6651,16.0445 C35.6651,16.0445 34.4371,16.0445 34.4371,16.0445 C34.4371,16.0445 34.4371,18.753800000000002 34.4371,18.753800000000002 C34.4371,18.753800000000002 35.6651,18.753800000000002 35.6651,18.753800000000002 C35.6651,18.753800000000002 35.6651,22.733500000000003 35.6651,22.733500000000003 C35.6651,22.733500000000003 32.1938,22.733500000000003 32.1938,22.733500000000003 C32.1938,22.733500000000003 32.1938,25.738799999999998 32.1938,25.738799999999998 C32.1938,25.738799999999998 26.1828,25.738799999999998 26.1828,25.738799999999998 C26.1828,25.738799999999998 26.1828,-25.2305 26.1828,-25.2305 C26.1828,-25.2305 23.1771,-25.2305 23.1771,-25.2305 C23.1771,-25.2305 23.1771,-28.2362 23.1771,-28.2362 C23.1771,-28.2362 42.4808,-28.2362 42.4808,-28.2362 C42.4808,-28.2362 42.4808,-55.032300000000006 42.4808,-55.032300000000006" style="stroke:#333333;stroke-width:0;"/>
        <!-- Ellipse -->
        <path d="M60.2629,-54.6332 L60.16895617721428,-54.634392346663596 L60.07506894267465,-54.637968668429345 L59.98129485054049,-54.64392681105473 L59.88769038681845,-54.65226318557744 L59.794311935337404,-54.66297277047717 L59.70121574378488,-54.67604911470043 L59.60845788982557,-54.69148434154641 L59.516094247322265,-54.709269153411654 L59.4241804526795,-54.72939283739046 L59.33277187133031,-54.75184327172812 L59.24192356438609,-54.77660693312244 L59.15169025546993,-54.80366890486976 L59.062126297753046,-54.83301288585022 L58.97328564121459,-54.86462120034694 L58.885221800144066,-54.89847480869315 L58.79798782090644,-54.93455331874107 L58.7116362499889,-54.972834998145295 L58.626219102348884,-55.013296787453605 L58.541787830082164,-55.05591431399708 L58.458393291430085,-55.10066190657129 L58.37608572014439,-55.147512610899724 L58.29491469522835,-55.196438205869924 L58.214929111072195,-55.24740922053294 L58.13617714800096,-55.30039495185545 L58.05870624325249,-55.35536348321419 L57.98256306240297,-55.412281703621275 L57.907793471257364,-55.471115327669025 L57.83444250822157,-55.53182891618226 L57.762554357172945,-55.59438589756547 L57.692172320845614,-55.65874858983225 L57.623338794746516,-55.72487822330344 L57.5560952416179,-55.792734963960584 L57.49048216646179,-55.86227793744043 L57.42653909214121,-55.933465253656145 L57.36430453557318,-56.00625403203029 L57.303815984527446,-56.08060042732455 L57.24510987504536,-56.15645965605036 L57.18822156949209,-56.23378602344491 L57.13318533525574,-56.312532950995895 L57.08003432410586,-56.392653004498705 L57.02880055222412,-56.47409792262898 L56.97951488091896,-56.556818646013454 L56.93220699803586,-56.640765346781514 L56.8869054000745,-56.725887458579564 L56.843637375023576,-56.81213370703038 L56.80242898592346,-56.899452140618855 L56.76330505516689,-56.98779016198564 L56.726289149546794,-57.07709455960985 L56.69140356606063,-57.167311539861636 L56.658669318479404,-57.25838675940554 L56.628106124689864,-57.35026535793483 L56.59973239481711,-57.44289199121731 L56.573565220135066,-57.53621086443262 L56.54962036277129,-57.630165765780966 L56.52791224621252,-57.724700100342965 L56.50845394661644,-57.81975692417035 L56.49125718493514,-57.91527897858684 L56.47633231985482,-58.01120872467867 L56.46368834155615,-58.107488377953814 L56.45333286629884,-58.2040599431493 L56.44527213183398,-58.30086524916528 L56.4395109936466,-58.39784598410518 L56.43605292203094,-58.494943730400635 L56.434900000000006,-58.59209999999999 L56.43605292203094,-58.689256269599355 L56.4395109936466,-58.78635401589481 L56.44527213183398,-58.88333475083471 L56.45333286629884,-58.98014005685069 L56.463688341556136,-59.076711622046176 L56.47633231985482,-59.17299127532132 L56.49125718493514,-59.26892102141315 L56.508453946616434,-59.36444307582964 L56.52791224621252,-59.45949989965703 L56.54962036277129,-59.554034234219024 L56.573565220135066,-59.64798913556737 L56.59973239481711,-59.74130800878268 L56.628106124689864,-59.83393464206516 L56.6586693184794,-59.92581324059445 L56.691403566060615,-60.016888460138354 L56.726289149546794,-60.10710544039014 L56.76330505516688,-60.19640983801435 L56.80242898592346,-60.28474785938114 L56.84363737502356,-60.37206629296961 L56.8869054000745,-60.45831254142043 L56.93220699803585,-60.54343465321848 L56.979514880918956,-60.627381353986536 L57.02880055222412,-60.71010207737102 L57.08003432410585,-60.7915469955013 L57.13318533525573,-60.8716670490041 L57.188221569492086,-60.95041397655508 L57.245109875045344,-61.02774034394963 L57.30381598452744,-61.10359957267544 L57.364304535573176,-61.1779459679697 L57.42653909214121,-61.25073474634385 L57.490482166461774,-61.321922062559565 L57.556095241617896,-61.391465036039406 L57.6233387947465,-61.459321776696555 L57.69217232084561,-61.52545141016774 L57.76255435717293,-61.58981410243452 L57.83444250822156,-61.652371083817734 L57.90779347125735,-61.713084672330965 L57.98256306240296,-61.771918296378715 L58.05870624325248,-61.8288365167858 L58.136177148000954,-61.88380504814454 L58.21492911107218,-61.93679077946705 L58.29491469522834,-61.987761794130066 L58.37608572014438,-62.036687389100265 L58.45839329143007,-62.0835380934287 L58.54178783008216,-62.128285686002926 L58.62621910234886,-62.17090321254639 L58.711636249988885,-62.2113650018547 L58.79798782090642,-62.24964668125892 L58.88522180014405,-62.28572519130684 L58.973285641214574,-62.31957879965306 L59.06212629775303,-62.351187114149766 L59.1516902554699,-62.38053109513024 L59.24192356438607,-62.40759306687756 L59.33277187133029,-62.43235672827187 L59.42418045267949,-62.45480716260953 L59.51609424732224,-62.47493084658834 L59.608457889825544,-62.49271565845358 L59.70121574378486,-62.50815088529957 L59.79431193533738,-62.52122722952283 L59.88769038681842,-62.53193681442256 L59.98129485054045,-62.540273188945264 L60.07506894267463,-62.54623133157065 L60.16895617721428,-62.54980765333641 L60.2629,-62.550999999999995 L60.35684382278568,-62.54980765333641 L60.450731057325335,-62.54623133157067 L60.54450514945951,-62.540273188945264 L60.638109613181534,-62.53193681442256 L60.73148806466258,-62.521227229522836 L60.824584256215104,-62.50815088529958 L60.91734211017442,-62.492715658453584 L61.00970575267772,-62.47493084658835 L61.10161954732048,-62.454807162609534 L61.19302812866967,-62.43235672827189 L61.28387643561389,-62.407593066877574 L61.37410974453005,-62.38053109513025 L61.463673702246936,-62.35118711414978 L61.552514358785395,-62.31957879965307 L61.64057819985591,-62.28572519130686 L61.72781217909354,-62.24964668125894 L61.814163750011076,-62.21136500185472 L61.8995808976511,-62.17090321254641 L61.98401216991782,-62.12828568600294 L62.06740670856989,-62.083538093428714 L62.149714279855594,-62.036687389100294 L62.23088530477163,-61.987761794130094 L62.31087088892778,-61.93679077946708 L62.38962285199902,-61.883805048144566 L62.46709375674749,-61.82883651678583 L62.543236937597015,-61.77191829637874 L62.61800652874261,-61.71308467233099 L62.69135749177841,-61.652371083817755 L62.76324564282704,-61.589814102434545 L62.83362767915436,-61.52545141016777 L62.902461205253466,-61.459321776696584 L62.96970475838208,-61.39146503603945 L63.035317833538194,-61.321922062559594 L63.09926090785876,-61.250734746343895 L63.16149546442681,-61.177945967969734 L63.221984015472536,-61.103599572675485 L63.280690124954624,-61.027740343949674 L63.33757843050789,-60.950413976555126 L63.392614664744244,-60.871667049004145 L63.44576567589413,-60.791546995501335 L63.49699944777586,-60.71010207737106 L63.54628511908103,-60.62738135398658 L63.59359300196413,-60.543434653218526 L63.63889459992549,-60.458312541420476 L63.682162624976414,-60.37206629296966 L63.72337101407653,-60.284747859381184 L63.7624949448331,-60.19640983801439 L63.799510850453196,-60.1071054403902 L63.834396433939375,-60.016888460138404 L63.86713068152059,-59.9258132405945 L63.89769387531014,-59.83393464206521 L63.926067605182894,-59.741308008782724 L63.95223477986494,-59.647989135567414 L63.97617963722871,-59.554034234219074 L63.99788775378748,-59.459499899657075 L64.01734605338356,-59.3644430758297 L64.03454281506487,-59.2689210214132 L64.04946768014517,-59.17299127532138 L64.06211165844385,-59.07671162204622 L64.07246713370117,-58.98014005685074 L64.08052786816603,-58.88333475083477 L64.0862890063534,-58.78635401589486 L64.08974707796907,-58.68925626959941 L64.0909,-58.592100000000045 L64.08974707796907,-58.49494373040069 L64.08628900635341,-58.39784598410523 L64.08052786816603,-58.30086524916532 L64.07246713370117,-58.20405994314935 L64.06211165844387,-58.10748837795387 L64.0494676801452,-58.01120872467871 L64.03454281506487,-57.91527897858689 L64.01734605338358,-57.819756924170406 L63.997887753787495,-57.724700100343014 L63.976179637228725,-57.63016576578102 L63.952234779864966,-57.536210864432675 L63.926067605182915,-57.442891991217365 L63.89769387531017,-57.35026535793487 L63.86713068152062,-57.25838675940559 L63.8343964339394,-57.16731153986168 L63.79951085045323,-57.07709455960989 L63.76249494483314,-56.9877901619857 L63.72337101407656,-56.899452140618905 L63.68216262497646,-56.81213370703042 L63.63889459992553,-56.72588745857961 L63.59359300196417,-56.640765346781556 L63.54628511908107,-56.5568186460135 L63.496999447775906,-56.47409792262902 L63.44576567589417,-56.39265300449874 L63.39261466474429,-56.31253295099594 L63.337578430507946,-56.23378602344495 L63.28069012495469,-56.1564596560504 L63.2219840154726,-56.08060042732458 L63.161495464426864,-56.006254032030334 L63.09926090785883,-55.93346525365618 L63.03531783353826,-55.86227793744047 L62.96970475838215,-55.79273496396062 L62.90246120525354,-55.72487822330348 L62.83362767915443,-55.65874858983229 L62.7632456428271,-55.594385897565516 L62.69135749177848,-55.53182891618229 L62.61800652874268,-55.47111532766906 L62.54323693759709,-55.41228170362131 L62.46709375674756,-55.35536348321423 L62.38962285199909,-55.30039495185549 L62.31087088892786,-55.247409220532965 L62.230885304771704,-55.19643820586995 L62.14971427985567,-55.14751261089975 L62.067406708569976,-55.10066190657133 L61.9840121699179,-55.05591431399711 L61.89958089765118,-55.013296787453626 L61.81416375001116,-54.972834998145316 L61.72781217909362,-54.934553318741095 L61.640578199855995,-54.89847480869318 L61.55251435878548,-54.86462120034696 L61.46367370224702,-54.833012885850245 L61.374109744530145,-54.803668904869774 L61.28387643561397,-54.77660693312245 L61.19302812866976,-54.751843271728134 L61.10161954732056,-54.729392837390485 L61.0097057526778,-54.70926915341167 L60.917342110174495,-54.691484341546435 L60.82458425621519,-54.67604911470044 L60.73148806466267,-54.66297277047717 L60.638109613181626,-54.65226318557745 L60.54450514945961,-54.64392681105473 L60.45073105732541,-54.637968668429345 L60.35684382278578,-54.6343923466636 Z" style="stroke:#333333;stroke-width:0;"/>
        <!-- Spline -->
        <path d="M59.4927,-47.967000000000006 C59.4927,-47.967000000000006 59.5354,-47.756 59.5354,-47.756 C59.5354,-47.756 59.578100000000006,-47.5864 59.578100000000006,-47.5864 C59.578100000000006,-47.5864 59.7051,-47.417 59.7051,-47.417 C59.7051,-47.417 59.8745,-47.3331 59.8745,-47.3331 C59.8745,-47.3331 60.042699999999996,-47.2477 60.042699999999996,-47.2477 C60.042699999999996,-47.2477 60.2547,-47.2061 60.2547,-47.2061 C60.2547,-47.2061 60.4244,-47.2477 60.4244,-47.2477 C60.4244,-47.2477 60.6365,-47.3331 60.6365,-47.3331 C60.6365,-47.3331 60.76349999999999,-47.417 60.76349999999999,-47.417 C60.76349999999999,-47.417 60.890100000000004,-47.5864 60.890100000000004,-47.5864 C60.890100000000004,-47.5864 60.9741,-47.756 60.9741,-47.756 C60.9741,-47.756 60.9741,-48.179 60.9741,-48.179 C60.9741,-48.179 60.9729,-48.1814 60.9729,-48.1814 C60.9729,-48.1814 60.9729,-50.72 60.9729,-50.72 C60.9729,-50.72 60.973499999999994,-50.721199999999996 60.973499999999994,-50.721199999999996 C60.973499999999994,-50.721199999999996 60.973499999999994,-51.1442 60.973499999999994,-51.1442 C60.973499999999994,-51.1442 60.8895,-51.3139 60.8895,-51.3139 C60.8895,-51.3139 60.63589999999999,-51.5672 60.63589999999999,-51.5672 C60.63589999999999,-51.5672 60.4238,-51.652899999999995 60.4238,-51.652899999999995 C60.4238,-51.652899999999995 60.2541,-51.694199999999995 60.2541,-51.694199999999995 C60.2541,-51.694199999999995 60.0421,-51.652899999999995 60.0421,-51.652899999999995 C60.0421,-51.652899999999995 59.873900000000006,-51.5672 59.873900000000006,-51.5672 C59.873900000000006,-51.5672 59.704499999999996,-51.440599999999996 59.704499999999996,-51.440599999999996 C59.704499999999996,-51.440599999999996 59.5775,-51.3139 59.5775,-51.3139 C59.5775,-51.3139 59.5348,-51.1442 59.5348,-51.1442 C59.5348,-51.1442 59.4921,-50.932199999999995 59.4921,-50.932199999999995 C59.4921,-50.932199999999995 59.4927,-50.9292 59.4927,-50.9292 C59.4927,-50.9292 59.4927,-47.967000000000006 59.4927,-47.967000000000006" style="stroke:#000000;stroke-width:0;"/>
        <!-- Ellipse -->
        <path d="M73.0299,-55.308400000000006 L72.93595617721428,-55.30959234666359 L72.84206894267464,-55.31316866842935 L72.74829485054049,-55.31912681105474 L72.65469038681844,-55.32746318557744 L72.5613119353374,-55.33817277047717 L72.46821574378488,-55.35124911470043 L72.37545788982557,-55.36668434154642 L72.28309424732227,-55.38446915341165 L72.1911804526795,-55.40459283739047 L72.09977187133032,-55.427043271728124 L72.0089235643861,-55.451806933122434 L71.91869025546993,-55.478868904869756 L71.82912629775305,-55.50821288585023 L71.74028564121458,-55.539821200346935 L71.65222180014408,-55.573674808693156 L71.56498782090644,-55.60975331874107 L71.4786362499889,-55.6480349981453 L71.39321910234888,-55.6884967874536 L71.30878783008217,-55.73111431399708 L71.22539329143008,-55.77586190657129 L71.14308572014438,-55.82271261089972 L71.06191469522835,-55.87163820586993 L70.98192911107219,-55.922609220532934 L70.90317714800096,-55.975594951855456 L70.82570624325248,-56.030563483214195 L70.74956306240297,-56.08748170362127 L70.67479347125737,-56.14631532766903 L70.60144250822157,-56.20702891618226 L70.52955435717294,-56.26958589756548 L70.45917232084561,-56.33394858983225 L70.39033879474651,-56.40007822330344 L70.3230952416179,-56.46793496396058 L70.25748216646178,-56.53747793744043 L70.19353909214121,-56.60866525365614 L70.13130453557318,-56.68145403203029 L70.07081598452744,-56.75580042732455 L70.01210987504535,-56.831659656050356 L69.9552215694921,-56.9089860234449 L69.90018533525574,-56.98773295099589 L69.84703432410586,-57.0678530044987 L69.79580055222412,-57.149297922628975 L69.74651488091897,-57.23201864601346 L69.69920699803586,-57.31596534678151 L69.65390540007449,-57.40108745857956 L69.61063737502357,-57.48733370703037 L69.56942898592347,-57.57465214061885 L69.53030505516689,-57.66299016198565 L69.4932891495468,-57.75229455960985 L69.45840356606062,-57.84251153986163 L69.42566931847941,-57.933586759405536 L69.39510612468986,-58.02546535793483 L69.3667323948171,-58.11809199121731 L69.34056522013506,-58.21141086443262 L69.31662036277129,-58.30536576578097 L69.29491224621252,-58.39990010034296 L69.27545394661644,-58.49495692417035 L69.25825718493513,-58.59047897858684 L69.24333231985483,-58.68640872467867 L69.23068834155615,-58.78268837795382 L69.22033286629883,-58.8792599431493 L69.21227213183398,-58.97606524916527 L69.2065109936466,-59.073045984105185 L69.20305292203093,-59.17014373040064 L69.20190000000001,-59.26729999999999 L69.20305292203093,-59.36445626959936 L69.2065109936466,-59.461554015894805 L69.21227213183398,-59.55853475083472 L69.22033286629883,-59.65534005685069 L69.23068834155613,-59.75191162204617 L69.24333231985483,-59.84819127532133 L69.25825718493513,-59.944121021413146 L69.27545394661644,-60.039643075829645 L69.29491224621252,-60.13469989965703 L69.31662036277129,-60.22923423421902 L69.34056522013506,-60.32318913556737 L69.3667323948171,-60.416508008782685 L69.39510612468986,-60.50913464206516 L69.4256693184794,-60.601013240594455 L69.45840356606061,-60.69208846013836 L69.4932891495468,-60.78230544039015 L69.53030505516688,-60.87160983801435 L69.56942898592347,-60.95994785938114 L69.61063737502356,-61.04726629296962 L69.65390540007449,-61.13351254142043 L69.69920699803585,-61.21863465321848 L69.74651488091895,-61.30258135398654 L69.79580055222412,-61.385302077371016 L69.84703432410585,-61.466746995501296 L69.90018533525573,-61.5468670490041 L69.95522156949208,-61.62561397655509 L70.01210987504534,-61.702940343949635 L70.07081598452744,-61.77879957267544 L70.13130453557318,-61.8531459679697 L70.19353909214121,-61.925934746343856 L70.25748216646177,-61.99712206255956 L70.32309524161789,-62.06666503603941 L70.3903387947465,-62.13452177669655 L70.45917232084561,-62.200651410167744 L70.52955435717293,-62.26501410243451 L70.60144250822155,-62.32757108381773 L70.67479347125735,-62.38828467233097 L70.74956306240296,-62.44711829637872 L70.82570624325248,-62.5040365167858 L70.90317714800095,-62.55900504814454 L70.98192911107218,-62.61199077946706 L71.06191469522834,-62.66296179413007 L71.14308572014438,-62.71188738910027 L71.22539329143007,-62.7587380934287 L71.30878783008215,-62.80348568600292 L71.39321910234887,-62.846103212546396 L71.47863624998888,-62.886565001854706 L71.56498782090642,-62.92484668125893 L71.65222180014405,-62.96092519130684 L71.74028564121457,-62.994778799653055 L71.82912629775304,-63.02638711414977 L71.9186902554699,-63.055731095130234 L72.00892356438607,-63.08279306687756 L72.09977187133029,-63.107556728271874 L72.19118045267949,-63.13000716260952 L72.28309424732224,-63.15013084658834 L72.37545788982555,-63.16791565845357 L72.46821574378485,-63.18335088529957 L72.56131193533739,-63.196427229522826 L72.65469038681842,-63.20713681442256 L72.74829485054045,-63.21547318894527 L72.84206894267463,-63.221431331570656 L72.93595617721428,-63.225007653336405 L73.0299,-63.2262 L73.12384382278567,-63.225007653336405 L73.21773105732534,-63.22143133157066 L73.3115051494595,-63.21547318894527 L73.40510961318154,-63.20713681442256 L73.49848806466258,-63.19642722952284 L73.5915842562151,-63.183350885299575 L73.68434211017441,-63.16791565845358 L73.77670575267771,-63.150130846588354 L73.86861954732048,-63.13000716260953 L73.96002812866966,-63.10755672827189 L74.05087643561389,-63.08279306687758 L74.14110974453006,-63.055731095130255 L74.23067370224693,-63.026387114149784 L74.3195143587854,-62.994778799653076 L74.4075781998559,-62.960925191306856 L74.49481217909354,-62.92484668125894 L74.58116375001109,-62.88656500185472 L74.6665808976511,-62.84610321254641 L74.75101216991781,-62.803485686002944 L74.8344067085699,-62.75873809342872 L74.9167142798556,-62.7118873891003 L74.99788530477163,-62.6629617941301 L75.07787088892778,-62.61199077946708 L75.15662285199902,-62.55900504814456 L75.23409375674748,-62.504036516785824 L75.31023693759701,-62.44711829637875 L75.38500652874261,-62.38828467233099 L75.45835749177841,-62.32757108381776 L75.53024564282704,-62.26501410243454 L75.60062767915437,-62.200651410167765 L75.66946120525347,-62.13452177669659 L75.73670475838207,-62.066665036039446 L75.8023178335382,-61.9971220625596 L75.86626090785876,-61.92593474634389 L75.9284954644268,-61.85314596796974 L75.98898401547254,-61.77879957267549 L76.04769012495463,-61.70294034394967 L76.10457843050789,-61.62561397655512 L76.15961466474424,-61.54686704900414 L76.21276567589413,-61.46674699550133 L76.26399944777586,-61.38530207737106 L76.31328511908103,-61.30258135398658 L76.36059300196413,-61.21863465321852 L76.40589459992549,-61.13351254142047 L76.44916262497642,-61.04726629296966 L76.49037101407653,-60.95994785938118 L76.5294949448331,-60.87160983801439 L76.5665108504532,-60.782305440390196 L76.60139643393937,-60.6920884601384 L76.63413068152059,-60.6010132405945 L76.66469387531014,-60.509134642065206 L76.69306760518289,-60.41650800878273 L76.71923477986493,-60.32318913556742 L76.7431796372287,-60.22923423421908 L76.76488775378748,-60.13469989965707 L76.78434605338356,-60.039643075829694 L76.80154281506486,-59.944121021413196 L76.81646768014518,-59.848191275321376 L76.82911165844386,-59.75191162204622 L76.83946713370116,-59.65534005685075 L76.84752786816603,-59.55853475083477 L76.85328900635339,-59.46155401589486 L76.85674707796908,-59.36445626959941 L76.8579,-59.26730000000005 L76.85674707796908,-59.17014373040069 L76.8532890063534,-59.07304598410523 L76.84752786816604,-58.97606524916532 L76.83946713370118,-58.87925994314935 L76.82911165844386,-58.782688377953875 L76.8164676801452,-58.686408724678714 L76.80154281506488,-58.59047897858689 L76.78434605338357,-58.4949569241704 L76.76488775378749,-58.39990010034302 L76.74317963722872,-58.30536576578102 L76.71923477986496,-58.21141086443268 L76.69306760518292,-58.11809199121736 L76.66469387531016,-58.02546535793488 L76.63413068152062,-57.93358675940559 L76.6013964339394,-57.84251153986168 L76.56651085045323,-57.752294559609894 L76.52949494483315,-57.6629901619857 L76.49037101407656,-57.57465214061891 L76.44916262497647,-57.48733370703042 L76.40589459992553,-57.4010874585796 L76.36059300196418,-57.31596534678155 L76.31328511908107,-57.2320186460135 L76.2639994477759,-57.14929792262902 L76.21276567589418,-57.06785300449874 L76.1596146647443,-56.987732950995934 L76.10457843050794,-56.90898602344495 L76.04769012495468,-56.831659656050405 L75.9889840154726,-56.75580042732459 L75.92849546442686,-56.68145403203034 L75.86626090785883,-56.608665253656184 L75.80231783353825,-56.537477937440464 L75.73670475838215,-56.467934963960616 L75.66946120525354,-56.400078223303474 L75.60062767915443,-56.333948589832296 L75.5302456428271,-56.26958589756551 L75.45835749177849,-56.207028916182296 L75.38500652874268,-56.146315327669065 L75.31023693759708,-56.08748170362131 L75.23409375674757,-56.03056348321423 L75.15662285199909,-55.97559495185549 L75.07787088892786,-55.92260922053296 L74.9978853047717,-55.87163820586995 L74.91671427985567,-55.82271261089975 L74.83440670856997,-55.77586190657133 L74.7510121699179,-55.731114313997104 L74.66658089765117,-55.68849678745362 L74.58116375001116,-55.64803499814531 L74.49481217909363,-55.6097533187411 L74.40757819985599,-55.57367480869318 L74.31951435878548,-55.539821200346964 L74.23067370224702,-55.50821288585024 L74.14110974453014,-55.47886890486978 L74.05087643561397,-55.451806933122455 L73.96002812866976,-55.42704327172814 L73.86861954732056,-55.40459283739048 L73.7767057526778,-55.38446915341167 L73.6843421101745,-55.36668434154643 L73.59158425621519,-55.35124911470044 L73.49848806466267,-55.33817277047717 L73.40510961318162,-55.32746318557745 L73.3115051494596,-55.31912681105474 L73.21773105732541,-55.31316866842935 L73.12384382278577,-55.30959234666361 Z" style="stroke:#333333;stroke-width:0;"/>
        <!-- Spline -->
        <path d="M72.3042,-48.2606 C72.3042,-48.2606 72.34689999999999,-48.049600000000005 72.34689999999999,-48.049600000000005 C72.34689999999999,-48.049600000000005 72.3896,-47.88 72.3896,-47.88 C72.3896,-47.88 72.5166,-47.7106 72.5166,-47.7106 C72.5166,-47.7106 72.686,-47.6267 72.686,-47.6267 C72.686,-47.6267 72.8542,-47.5413 72.8542,-47.5413 C72.8542,-47.5413 73.0662,-47.499700000000004 73.0662,-47.499700000000004 C73.0662,-47.499700000000004 73.2359,-47.5413 73.2359,-47.5413 C73.2359,-47.5413 73.44800000000001,-47.6267 73.44800000000001,-47.6267 C73.44800000000001,-47.6267 73.575,-47.7106 73.575,-47.7106 C73.575,-47.7106 73.7016,-47.88 73.7016,-47.88 C73.7016,-47.88 73.7856,-48.049600000000005 73.7856,-48.049600000000005 C73.7856,-48.049600000000005 73.7856,-48.4726 73.7856,-48.4726 C73.7856,-48.4726 73.7844,-48.475 73.7844,-48.475 C73.7844,-48.475 73.7844,-51.0136 73.7844,-51.0136 C73.7844,-51.0136 73.785,-51.014799999999994 73.785,-51.014799999999994 C73.785,-51.014799999999994 73.785,-51.437799999999996 73.785,-51.437799999999996 C73.785,-51.437799999999996 73.701,-51.6075 73.701,-51.6075 C73.701,-51.6075 73.4474,-51.8608 73.4474,-51.8608 C73.4474,-51.8608 73.2353,-51.9465 73.2353,-51.9465 C73.2353,-51.9465 73.0656,-51.9878 73.0656,-51.9878 C73.0656,-51.9878 72.8536,-51.9465 72.8536,-51.9465 C72.8536,-51.9465 72.6854,-51.8608 72.6854,-51.8608 C72.6854,-51.8608 72.51599999999999,-51.7342 72.51599999999999,-51.7342 C72.51599999999999,-51.7342 72.389,-51.6075 72.389,-51.6075 C72.389,-51.6075 72.3463,-51.437799999999996 72.3463,-51.437799999999996 C72.3463,-51.437799999999996 72.3036,-51.2258 72.3036,-51.2258 C72.3036,-51.2258 72.3042,-51.2228 72.3042,-51.2228 C72.3042,-51.2228 72.3042,-48.2606 72.3042,-48.2606" style="stroke:#000000;stroke-width:0;"/>
    </g>
</svg>
