<?xml version="1.0" encoding="UTF-8" standalone="no"?>
<!-- 2017-08-31 20:16:22 Generated by QCAD SVG Exporter -->

<svg
   xmlns:dc="http://purl.org/dc/elements/1.1/"
   xmlns:cc="http://creativecommons.org/ns#"
   xmlns:rdf="http://www.w3.org/1999/02/22-rdf-syntax-ns#"
   xmlns:svg="http://www.w3.org/2000/svg"
   xmlns="http://www.w3.org/2000/svg"
   xmlns:sodipodi="http://sodipodi.sourceforge.net/DTD/sodipodi-0.dtd"
   xmlns:inkscape="http://www.inkscape.org/namespaces/inkscape"
   width="158.3722mm"
   height="130.5345mm"
   viewBox="-79.0152 -65.2775 158.3722 130.5345"
   version="1.1"
   style="stroke-linecap:round;stroke-linejoin:round;fill:none"
   id="svg2"
   inkscape:version="0.91 r13725"
   sodipodi:docname="PlotClockTestb.svg">
  <sodipodi:namedview
     pagecolor="#ffffff"
     bordercolor="#666666"
     borderopacity="1"
     objecttolerance="10"
     gridtolerance="10"
     guidetolerance="10"
     inkscape:pageopacity="0"
     inkscape:pageshadow="2"
     inkscape:window-width="1440"
     inkscape:window-height="851"
     id="namedview96"
     showgrid="false"
     inkscape:zoom="1.020488"
     inkscape:cx="235.63162"
     inkscape:cy="244.09936"
     inkscape:window-x="10"
     inkscape:window-y="0"
     inkscape:window-maximized="0"
     inkscape:current-layer="svg2" />
  <metadata
     id="metadata100">
    <rdf:RDF>
      <cc:Work
         rdf:about="">
        <dc:format>image/svg+xml</dc:format>
        <dc:type
           rdf:resource="http://purl.org/dc/dcmitype/StillImage" />
        <dc:title></dc:title>
      </cc:Work>
    </rdf:RDF>
  </metadata>
  <defs
     id="defs98" />
  <path
     d="m 42.5985,24.2893 c 0,0 0.1371,0.1368 0.1371,0.1368 0,0 0.1368,0.1828 0.1368,0.1828 0,0 0.0907,0.1833 0.0907,0.1833 0,0 0,0.4108 0,0.4108 0,0 -0.0907,0.1833 -0.0907,0.1833 0,0 -0.1368,0.1828 -0.1368,0.1828 0,0 -0.1371,0.1368 -0.1371,0.1368 0,0 -0.2291,0.0926 -0.2291,0.0926 0,0 -0.4123,0 -0.4123,0 0,0 -0.1816,-0.0926 -0.1816,-0.0926 0,0 -0.183,-0.1368 -0.183,-0.1368 0,0 -0.1372,-0.1828 -0.1372,-0.1828 0,0 -0.0922,-0.3662 -0.0922,-0.3662 0,0 0.0461,-0.2279 0.0461,-0.2279 0,0 0.0461,-0.1833 0.0461,-0.1833 0,0 0.1372,-0.1828 0.1372,-0.1828 0,0 0.183,-0.1368 0.183,-0.1368 0,0 0.1816,-0.0911 0.1816,-0.0911 0,0 0.4123,0 0.4123,0 0,0 0.2291,0.0911 0.2291,0.0911"
     style="stroke:#000000;stroke-width:0.14111111;fill:none;stroke-miterlimit:4;stroke-dasharray:none"
     id="path6"
     inkscape:connector-curvature="0" />
  <path
     d="m 42.8724,-2.086 c 0,0 -0.2739,0.2736 -0.2739,0.2736 0,0 -0.2291,0.0925 -0.2291,0.0925 0,0 -0.1833,0.0446 -0.1833,0.0446 0,0 -0.229,-0.0446 -0.229,-0.0446 0,0 -0.1816,-0.0925 -0.1816,-0.0925 0,0 -0.183,-0.1368 -0.183,-0.1368 0,0 -0.1372,-0.1368 -0.1372,-0.1368 0,0 -0.0461,-0.1833 -0.0461,-0.1833 0,0 -0.0461,-0.2289 -0.0461,-0.2289 0,0 0.0461,-0.2279 0.0461,-0.2279 0,0 0.0461,-0.1832 0.0461,-0.1832 0,0 0.1372,-0.183 0.1372,-0.183 0,0 0.183,-0.0906 0.183,-0.0906 0,0 0.1816,-0.0922 0.1816,-0.0922 0,0 0.229,-0.045 0.229,-0.045 0,0 0.1833,0.045 0.1833,0.045 0,0 0.2291,0.0922 0.2291,0.0922 0,0 0.1371,0.0906 0.1371,0.0906 0,0 0.1368,0.183 0.1368,0.183 0,0 0.0907,0.1832 0.0907,0.1832 0,0 0,0.4568 0,0.4568 0,0 -0.0907,0.1833 -0.0907,0.1833"
     style="stroke:#000000;stroke-width:0.14111111;fill:none;stroke-miterlimit:4;stroke-dasharray:none"
     id="path8"
     inkscape:connector-curvature="0" />
  <path
     d="m 43.757,59.6846 c 0,0 0.2652,0.1764 0.2652,0.1764 0,0 0.3085,0.1323 0.3085,0.1323 0,0 0.353,0.0445 0.353,0.0445 0,0 0.3086,-0.0445 0.3086,-0.0445 0,0 0.3516,-0.1323 0.3516,-0.1323 0,0 0.2655,-0.1764 0.2655,-0.1764 0,0 0.1764,-0.264 0.1764,-0.264 0,0 0.1323,-0.353 0.1323,-0.353 0,0 0.0429,-0.3087 0.0429,-0.3087 0,0 -0.0429,-0.3515 -0.0429,-0.3515 0,0 -0.1323,-0.3085 -0.1323,-0.3085 0,0 -0.1764,-0.2652 -0.1764,-0.2652 0,0 -0.2655,-0.2198 -0.2655,-0.2198 0,0 -0.3516,-0.1332 -0.3516,-0.1332 0,0 -0.3086,-0.0431 -0.3086,-0.0431 0,0 -0.353,0.0431 -0.353,0.0431 0,0 -0.3085,0.1332 -0.3085,0.1332 0,0 -0.2652,0.2198 -0.2652,0.2198 0,0 -0.2198,0.2652 -0.2198,0.2652 0,0 -0.1318,0.3085 -0.1318,0.3085 0,0 -0.0444,0.3515 -0.0444,0.3515 0,0 0.0444,0.3087 0.0444,0.3087 0,0 0.1318,0.353 0.1318,0.353 0,0 0.2198,0.264 0.2198,0.264"
     style="stroke:#000000;stroke-width:0.14111111;fill:none;stroke-miterlimit:4;stroke-dasharray:none"
     id="path10"
     inkscape:connector-curvature="0" />
  <path
     d="m 12.4245,16.9335 c 0,0 -0.3391,-0.805 -0.3391,-0.805 0,0 -0.127,-0.846 -0.127,-0.846 0,0 0,-27.9823 0,-27.9823 0,0 0.127,-0.8463 0.127,-0.8463 0,0 0.3391,-0.8047 0.3391,-0.8047 0,0 0.5083,-0.6781 0.5083,-0.6781 0,0 0.6766,-0.5069 0.6766,-0.5069 0,0 0.8047,-0.339 0.8047,-0.339 0,0 0.8037,-0.0843 0.8037,-0.0843 0,0 0.8473,0.0843 0.8473,0.0843 0,0 0.8047,0.339 0.8047,0.339 0,0 0.6766,0.5069 0.6766,0.5069 0,0 0.5088,0.6781 0.5088,0.6781 0,0 0.3376,0.8047 0.3376,0.8047 0,0 0.128,0.8463 0.128,0.8463 0,0 0,27.9823 0,27.9823 0,0 -0.128,0.846 -0.128,0.846 0,0 -0.3376,0.805 -0.3376,0.805 0,0 -0.5088,0.6766 -0.5088,0.6766 0,0 -0.6766,0.5084 -0.6766,0.5084 0,0 -0.8047,0.339 -0.8047,0.339 0,0 -0.8473,0.084 -0.8473,0.084 0,0 -0.8037,-0.084 -0.8037,-0.084 0,0 -0.8047,-0.339 -0.8047,-0.339 0,0 -0.6766,-0.5084 -0.6766,-0.5084 0,0 -0.5083,-0.6766 -0.5083,-0.6766"
     style="stroke:#000000;stroke-width:0.14111111;fill:none;stroke-miterlimit:4;stroke-dasharray:none"
     id="path12"
     inkscape:connector-curvature="0" />
  <path
     d="m 13.9826,-12.3907 c 0,0 0.1322,0.3086 0.1322,0.3086 0,0 0.2208,0.3085 0.2208,0.3085 0,0 0.2641,0.1767 0.2641,0.1767 0,0 0.3086,0.1319 0.3086,0.1319 0,0 0.3086,0.0444 0.3086,0.0444 0,0 0.353,-0.0444 0.353,-0.0444 0,0 0.3085,-0.1319 0.3085,-0.1319 0,0 0.2652,-0.1767 0.2652,-0.1767 0,0 0.2198,-0.3085 0.2198,-0.3085 0,0 0.1318,-0.3086 0.1318,-0.3086 0,0 0.0445,-0.3082 0.0445,-0.3082 0,0 -0.0445,-0.353 -0.0445,-0.353 0,0 -0.1318,-0.3087 -0.1318,-0.3087 0,0 -0.2198,-0.264 -0.2198,-0.264 0,0 -0.2652,-0.2208 -0.2652,-0.2208 0,0 -0.3085,-0.1322 -0.3085,-0.1322 0,0 -0.353,-0.0445 -0.353,-0.0445 0,0 -0.3086,0.0445 -0.3086,0.0445 0,0 -0.3086,0.1322 -0.3086,0.1322 0,0 -0.2641,0.2208 -0.2641,0.2208 0,0 -0.2208,0.264 -0.2208,0.264 0,0 -0.1322,0.3087 -0.1322,0.3087 0,0 -0.0429,0.353 -0.0429,0.353 0,0 0.0429,0.3082 0.0429,0.3082"
     style="stroke:#000000;stroke-width:0.14111111;fill:none;stroke-miterlimit:4;stroke-dasharray:none"
     id="path14"
     inkscape:connector-curvature="0" />
  <path
     d="m 16.1436,14.3559 c 0,0 -0.2652,-0.1762 -0.2652,-0.1762 0,0 -0.3085,-0.132 -0.3085,-0.132 0,0 -0.353,-0.0447 -0.353,-0.0447 0,0 -0.3086,0.0447 -0.3086,0.0447 0,0 -0.3086,0.132 -0.3086,0.132 0,0 -0.2641,0.1762 -0.2641,0.1762 0,0 -0.2208,0.2642 -0.2208,0.2642 0,0 -0.1322,0.3086 -0.1322,0.3086 0,0 -0.0429,0.3529 -0.0429,0.3529 0,0 0.0429,0.353 0.0429,0.353 0,0 0.1322,0.3087 0.1322,0.3087 0,0 0.2208,0.2637 0.2208,0.2637 0,0 0.2641,0.2211 0.2641,0.2211 0,0 0.3086,0.1319 0.3086,0.1319 0,0 0.3086,0.0434 0.3086,0.0434 0,0 0.353,-0.0434 0.353,-0.0434 0,0 0.3085,-0.1319 0.3085,-0.1319 0,0 0.2652,-0.2211 0.2652,-0.2211 0,0 0.2198,-0.2637 0.2198,-0.2637 0,0 0.1318,-0.3087 0.1318,-0.3087 0,0 0.0445,-0.353 0.0445,-0.353 0,0 -0.0445,-0.3529 -0.0445,-0.3529 0,0 -0.1318,-0.3086 -0.1318,-0.3086 0,0 -0.2198,-0.2642 -0.2198,-0.2642"
     style="stroke:#000000;stroke-width:0.14111111;fill:none;stroke-miterlimit:4;stroke-dasharray:none"
     id="path16"
     inkscape:connector-curvature="0" />
  <path
     d="m -79.0152,65.1081 c 0,0 36.4903,0 36.4903,0 0,0 0,-6.9839 0,-6.9839 0,0 3.0057,0 3.0057,0 0,0 0,6.9839 0,6.9839 0,0 57.5317,0 57.5317,0 0,0 0,-35.4746 0,-35.4746 0,0 -12.0234,0 -12.0234,0 0,0 0,12.4876 0,12.4876 0,0 -15.4933,0 -15.4933,0 0,0 0,-3.0053 0,-3.0053 0,0 -3.0057,0 -3.0057,0 0,0 0,3.0053 0,3.0053 0,0 -27.0093,0 -27.0093,0 0,0 0,6.0124 0,6.0124 0,0 -3.0057,0 -3.0057,0 0,0 0,-6.0124 0,-6.0124 0,0 -33.485,0 -33.485,0 0,0 0,-3.0053 0,-3.0053 0,0 -3.0053,0 -3.0053,0 0,0 0,25.9923 0,25.9923"
     style="stroke:#000000;stroke-width:0.14111111;fill:none;stroke-miterlimit:4;stroke-dasharray:none"
     id="path18"
     inkscape:connector-curvature="0" />
  <path
     d="m -39.6875,52.3669 c 0,0 -0.2551,-0.2964 -0.2551,-0.2964 0,0 -0.296,-0.2547 -0.296,-0.2547 0,0 -0.3806,-0.127 -0.3806,-0.127 0,0 -0.3817,-0.0839 -0.3817,-0.0839 0,0 -0.3803,0.0839 -0.3803,0.0839 0,0 -0.3817,0.127 -0.3817,0.127 0,0 -0.2963,0.2547 -0.2963,0.2547 0,0 -0.2533,0.2964 -0.2533,0.2964 0,0 -0.127,0.3803 -0.127,0.3803 0,0 -0.0854,0.3817 -0.0854,0.3817 0,0 0.0854,0.3803 0.0854,0.3803 0,0 0.127,0.3817 0.127,0.3817 0,0 0.2533,0.2963 0.2533,0.2963 0,0 0.2963,0.2536 0.2963,0.2536 0,0 0.3817,0.1267 0.3817,0.1267 0,0 0.3803,0.0427 0.3803,0.0427 0,0 0.3817,-0.0427 0.3817,-0.0427 0,0 0.3806,-0.1267 0.3806,-0.1267 0,0 0.296,-0.2536 0.296,-0.2536 0,0 0.2551,-0.2963 0.2551,-0.2963 0,0 0.1266,-0.3817 0.1266,-0.3817 0,0 0.0417,-0.3803 0.0417,-0.3803 0,0 -0.0417,-0.3817 -0.0417,-0.3817 0,0 -0.1266,-0.3803 -0.1266,-0.3803"
     style="stroke:#000000;stroke-width:0.14111111;fill:none;stroke-miterlimit:4;stroke-dasharray:none"
     id="path20"
     inkscape:connector-curvature="0" />
  <path
     d="m 10.4771,34.1201 c 0,0 5.037,0 5.037,0 0,0 0,-3.0053 0,-3.0053 0,0 -5.037,0 -5.037,0 0,0 0,3.0053 0,3.0053"
     style="stroke:#000000;stroke-width:0.14111111;fill:none;stroke-miterlimit:4;stroke-dasharray:none"
     id="path22"
     inkscape:connector-curvature="0" />
  <path
     d="m -42.0166,36.6185 c 0,0 -36.4916,0 -36.4916,0 0,0 0,-51.012 0,-51.012 0,0 3.0056,0 3.0056,0 0,0 0,-3.0057 0,-3.0057 0,0 63.5,0 63.5,0 0,0 0,3.0057 0,3.0057 0,0 2.9641,0 2.9641,0 0,0 0,-3.0057 0,-3.0057 0,0 15.5359,0 15.5359,0 0,0 0,20.0244 0,20.0244 0,0 -15.0276,0 -15.0276,0 0,0 0,33.9933 0,33.9933 0,0 -30.4807,0 -30.4807,0 0,0 0,-3.0053 0,-3.0053 0,0 -3.0057,0 -3.0057,0 0,0 0,3.0053 0,3.0053"
     style="stroke:#000000;stroke-width:0.14111111;fill:none;stroke-miterlimit:4;stroke-dasharray:none"
     id="path24"
     inkscape:connector-curvature="0" />
  <path
     d="m 46.1214,-37.9732 c 0,0 0.8464,-0.339 0.8464,-0.339 0,0 0.7207,-0.55 0.7207,-0.55 0,0 0.5496,-0.7193 0.5496,-0.7193 0,0 0.3817,-0.8474 0.3817,-0.8474 0,0 0.0843,-0.9302 0.0843,-0.9302 0,0 -1.7363,-14.4791 -1.7363,-14.4791 0,0 -12.7,0 -12.7,0 0,0 0,-3.0053 0,-3.0053 0,0 -0.127,-0.762 -0.127,-0.762 0,0 -0.296,-0.7193 -0.296,-0.7193 0,0 -0.466,-0.6354 -0.466,-0.6354 0,0 -0.634,-0.4656 -0.634,-0.4656 0,0 -0.7207,-0.2964 -0.7207,-0.2964 0,0 -0.762,-0.127 -0.762,-0.127 0,0 -0.8033,0.127 -0.8033,0.127 0,0 -0.7207,0.2964 -0.7207,0.2964 0,0 -0.5927,0.4656 -0.5927,0.4656 0,0 -0.5069,0.6354 -0.5069,0.6354 0,0 -0.2963,0.7193 -0.2963,0.7193 0,0 -0.0854,0.762 -0.0854,0.762 0,0 0,3.0053 0,3.0053 0,0 -10.5407,0 -10.5407,0 0,0 0,3.98 0,3.98 0,0 6.011,0 6.011,0 0,0 0,3.5141 0,3.5141 0,0 3.9797,0 3.9797,0 0,0 0,-1.2281 0,-1.2281 0,0 2.7093,0 2.7093,0 0,0 0,1.2281 0,1.2281 0,0 2.6251,0 2.6251,0 0,0 0,3.0053 0,3.0053 0,0 -2.6251,0 -2.6251,0 0,0 0,1.228 0,1.228 0,0 -2.7093,0 -2.7093,0 0,0 0,-1.228 0,-1.228 0,0 -3.9797,0 -3.9797,0 0,0 0,3.514 0,3.514 0,0 -6.011,0 -6.011,0 0,0 0,3.9783 0,3.9783 0,0 27.5167,0 27.5167,0 0,0 0.8886,-0.1267 0.8886,-0.1267"
     style="stroke:#000000;stroke-width:0.14111111;fill:none;stroke-miterlimit:4;stroke-dasharray:none"
     id="path26"
     inkscape:connector-curvature="0" />
  <path
     d="m 46.5032,-40.5982 c 0,0 0.1682,-0.3376 0.1682,-0.3376 0,0 0.0427,-0.4233 0.0427,-0.4233 0,0 -0.0427,-0.3817 -0.0427,-0.3817 0,0 -0.1682,-0.3391 -0.1682,-0.3391 0,0 -0.2121,-0.3376 -0.2121,-0.3376 0,0 -0.339,-0.212 -0.339,-0.212 0,0 -0.339,-0.1697 -0.339,-0.1697 0,0 -0.3803,-0.0427 -0.3803,-0.0427 0,0 -0.3817,0.0427 -0.3817,0.0427 0,0 -0.3803,0.1697 -0.3803,0.1697 0,0 -0.2963,0.212 -0.2963,0.212 0,0 -0.2537,0.3376 -0.2537,0.3376 0,0 -0.128,0.3391 -0.128,0.3391 0,0 -0.0844,0.3817 -0.0844,0.3817 0,0 0.0844,0.4233 0.0844,0.4233 0,0 0.128,0.3376 0.128,0.3376 0,0 0.2537,0.2974 0.2537,0.2974 0,0 0.2963,0.2536 0.2963,0.2536 0,0 0.3803,0.1697 0.3803,0.1697 0,0 0.3817,0.0413 0.3817,0.0413 0,0 0.3803,-0.0413 0.3803,-0.0413 0,0 0.339,-0.1697 0.339,-0.1697 0,0 0.339,-0.2536 0.339,-0.2536 0,0 0.2121,-0.2974 0.2121,-0.2974"
     style="stroke:#000000;stroke-width:0.14111111;fill:none;stroke-miterlimit:4;stroke-dasharray:none"
     id="path28"
     inkscape:connector-curvature="0" />
  <path
     d="m 31.2621,-60.3248 c 0,0 -0.423,0.0427 -0.423,0.0427 0,0 -0.339,0.1266 -0.339,0.1266 0,0 -0.2963,0.2537 -0.2963,0.2537 0,0 -0.2537,0.2963 -0.2537,0.2963 0,0 -0.1693,0.3817 -0.1693,0.3817 0,0 -0.0427,0.3803 -0.0427,0.3803 0,0 0.0427,0.3817 0.0427,0.3817 0,0 0.1693,0.3803 0.1693,0.3803 0,0 0.2537,0.2963 0.2537,0.2963 0,0 0.2963,0.2537 0.2963,0.2537 0,0 0.339,0.128 0.339,0.128 0,0 0.423,0.0413 0.423,0.0413 0,0 0.3817,-0.0413 0.3817,-0.0413 0,0 0.339,-0.128 0.339,-0.128 0,0 0.3376,-0.2537 0.3376,-0.2537 0,0 0.2124,-0.2963 0.2124,-0.2963 0,0 0.1693,-0.3803 0.1693,-0.3803 0,0 0.0427,-0.3817 0.0427,-0.3817 0,0 -0.0427,-0.3803 -0.0427,-0.3803 0,0 -0.1693,-0.3817 -0.1693,-0.3817 0,0 -0.2124,-0.2963 -0.2124,-0.2963 0,0 -0.3376,-0.2537 -0.3376,-0.2537 0,0 -0.339,-0.1266 -0.339,-0.1266 0,0 -0.3817,-0.0427 -0.3817,-0.0427"
     style="stroke:#000000;stroke-width:0.14111111;fill:none;stroke-miterlimit:4;stroke-dasharray:none"
     id="path30"
     inkscape:connector-curvature="0" />
  <path
     d="m 10.8162,-30.1419 c 0,0 0,0.2551 0,0.2551 0,0 14.9849,0 14.9849,0 0,0 0,-6.0124 0,-6.0124 0,0 -12.022,0 -12.022,0 0,0 0,-22.987 0,-22.987 0,0 12.022,0 12.022,0 0,0 0,-5.5026 0,-5.5026 0,0 -14.9849,0 -14.9849,0 0,0 0,34.2469 0,34.2469 0,0 -0.1281,0.2551 -0.1281,0.2551 0,0 0.1281,-0.2551 0.1281,-0.2551"
     style="stroke:#000000;stroke-width:0.14111111;fill:none;stroke-miterlimit:4;stroke-dasharray:none"
     id="path32"
     inkscape:connector-curvature="0" />
  <path
     d="m 19.2575,-61.7059 c 0,0 -0.1344,0.1778 -0.1344,0.1778 0,0 -0.0882,0.1781 -0.0882,0.1781 0,0 -0.0448,0.1779 -0.0448,0.1779 0,0 0.0448,0.2214 0.0448,0.2214 0,0 0.0882,0.1778 0.0882,0.1778 0,0 0.1344,0.1781 0.1344,0.1781 0,0 0.1333,0.133 0.1333,0.133 0,0 0.2211,0.0897 0.2211,0.0897 0,0 0.4008,0 0.4008,0 0,0 0.1781,-0.0897 0.1781,-0.0897 0,0 0.1779,-0.133 0.1779,-0.133 0,0 0.1333,-0.1781 0.1333,-0.1781 0,0 0.0433,-0.1778 0.0433,-0.1778 0,0 0.0448,-0.2214 0.0448,-0.2214 0,0 -0.0448,-0.1779 -0.0448,-0.1779 0,0 -0.0433,-0.1781 -0.0433,-0.1781 0,0 -0.1333,-0.1778 -0.1333,-0.1778 0,0 -0.1779,-0.1333 -0.1779,-0.1333 0,0 -0.1781,-0.0897 -0.1781,-0.0897 0,0 -0.4008,0 -0.4008,0 0,0 -0.2211,0.0897 -0.2211,0.0897 0,0 -0.1333,0.1333 -0.1333,0.1333"
     style="stroke:#000000;stroke-width:0.14111111;fill:none;stroke-miterlimit:4;stroke-dasharray:none"
     id="path34"
     inkscape:connector-curvature="0" />
  <path
     d="m 20.1718,-34.2898 c 0,0 0.1694,0.0843 0.1694,0.0843 0,0 0.127,0.1693 0.127,0.1693 0,0 0.0412,0.1697 0.0412,0.1697 0,0 0.0427,0.212 0.0427,0.212 0,0 -0.0427,0.211 -0.0427,0.211 0,0 -0.0412,0.1693 -0.0412,0.1693 0,0 -0.127,0.1697 -0.127,0.1697 0,0 -0.1694,0.084 -0.1694,0.084 0,0 -0.1697,0.0853 -0.1697,0.0853 0,0 -0.212,0.0427 -0.212,0.0427 0,0 -0.1697,-0.0427 -0.1697,-0.0427 0,0 -0.2106,-0.0853 -0.2106,-0.0853 0,0 -0.127,-0.084 -0.127,-0.084 0,0 -0.128,-0.1697 -0.128,-0.1697 0,0 -0.084,-0.1693 -0.084,-0.1693 0,0 -0.0427,-0.211 -0.0427,-0.211 0,0 0.0427,-0.212 0.0427,-0.212 0,0 0.084,-0.1697 0.084,-0.1697 0,0 0.128,-0.1693 0.128,-0.1693 0,0 0.127,-0.0843 0.127,-0.0843 0,0 0.2106,-0.0854 0.2106,-0.0854 0,0 0.1697,-0.0413 0.1697,-0.0413 0,0 0.212,0.0413 0.212,0.0413 0,0 0.1697,0.0854 0.1697,0.0854"
     style="stroke:#000000;stroke-width:0.14111111;fill:none;stroke-miterlimit:4;stroke-dasharray:none"
     id="path36"
     inkscape:connector-curvature="0" />
  <path
     d="m -18.8172,-62.0185 c 0,0 1.9886,-0.2537 1.9886,-0.2537 0,0 1.9484,0.2537 1.9484,0.2537 0,0 1.8193,0.762 1.8193,0.762 0,0 1.6094,1.2277 1.6094,1.2277 0,0 14.224,3.218 14.224,3.218 0,0 -3.3017,0 -3.3017,0 0,0 0,5.1647 0,5.1647 0,0 -10.9223,2.3703 -10.9223,2.3703 0,0 -1.6094,1.185 -1.6094,1.185 0,0 -1.8193,0.762 -1.8193,0.762 0,0 -1.9484,0.2536 -1.9484,0.2536 0,0 -1.9886,-0.2536 -1.9886,-0.2536 0,0 -1.8203,-0.762 -1.8203,-0.762 0,0 -3.0067,0.2123 -3.0067,0.2123 0,0 -0.5927,0.8033 -0.5927,0.8033 0,0 2.0754,1.6097 2.0754,1.6097 0,0 2.5823,1.0584 2.5823,1.0584 0,0 2.7506,0.3803 2.7506,0.3803 0,0 2.752,-0.3803 2.752,-0.3803 0,0 2.5397,-1.0584 2.5397,-1.0584 0,0 2.1167,-1.6097 2.1167,-1.6097 0,0 8.891,-1.2689 8.891,-1.2689 0,0 0,3.6819 0,3.6819 0,0 0.5073,0 0.5073,0 0,0 0,3.0057 0,3.0057 0,0 -0.6766,0 -0.6766,0 0,0 0.6766,1.779 0.6766,1.779 0,0 1.9897,0 1.9897,0 0,0 0,-12.7 0,-12.7 0,0 1.0156,0 1.0156,0 0,0 0,12.7 0,12.7 0,0 1.99,0 1.99,0 0,0 0.7194,-1.779 0.7194,-1.779 0,0 -0.7194,0 -0.7194,0 0,0 0,-3.0057 0,-3.0057 0,0 0.5084,0 0.5084,0 0,0 0,-9.609 0,-9.609 0,0 -3.387,0 -3.387,0 0,0 0,-0.4229 0,-0.4229 0,0 3.387,0 3.387,0 0,0 0,-4.7848 0,-4.7848 0,0 -14.902,-2.7933 -14.902,-2.7933 0,0 -2.1167,-1.6093 -2.1167,-1.6093 0,0 -2.5397,-1.0584 -2.5397,-1.0584 0,0 -2.752,-0.3376 -2.752,-0.3376 0,0 -2.7506,0.3376 -2.7506,0.3376 0,0 -2.5823,1.0584 -2.5823,1.0584 0,0 -2.0754,1.6093 -2.0754,1.6093 0,0 0.5927,0.8047 0.5927,0.8047 0,0 3.0067,0.211 3.0067,0.211 0,0 1.8203,-0.762 1.8203,-0.762"
     style="stroke:#000000;stroke-width:0.14111111;fill:none;stroke-miterlimit:4;stroke-dasharray:none"
     id="path38"
     inkscape:connector-curvature="0" />
  <path
     d="m -73.2579,-60.0288 c 0,0 0,-4.021 0,-4.021 0,0 34.5007,0 34.5007,0 0,0 0,17.9917 0,17.9917 0,0 -34.5007,0 -34.5007,0 0,0 0,-3.9797 0,-3.9797 0,0 -3.0056,0 -3.0056,0 0,0 0,-9.991 0,-9.991 0,0 3.0056,0 3.0056,0"
     style="stroke:#000000;stroke-width:0.14111111;fill:none;stroke-miterlimit:4;stroke-dasharray:none"
     id="path40"
     inkscape:connector-curvature="0" />
  <path
     d="m -44.7682,-49.0649 c 0,0 0,-11.9792 0,-11.9792 0,0 -22.987,0 -22.987,0 0,0 0,11.9792 0,11.9792 0,0 22.987,0 22.987,0"
     style="stroke:#000000;stroke-width:0.14111111;fill:none;stroke-miterlimit:4;stroke-dasharray:none"
     id="path42"
     inkscape:connector-curvature="0" />
  <path
     d="m -73.5129,-55.7525 c 0,0 -0.2537,-0.2963 -0.2537,-0.2963 0,0 -0.2959,-0.2551 -0.2959,-0.2551 0,0 -0.3391,-0.1266 -0.3391,-0.1266 0,0 -0.3803,-0.0427 -0.3803,-0.0427 0,0 -0.3817,0.0427 -0.3817,0.0427 0,0 -0.339,0.1266 -0.339,0.1266 0,0 -0.2963,0.2551 -0.2963,0.2551 0,0 -0.211,0.2963 -0.211,0.2963 0,0 -0.1693,0.3376 -0.1693,0.3376 0,0 -0.0427,0.3817 -0.0427,0.3817 0,0 0.0427,0.3803 0.0427,0.3803 0,0 0.1693,0.3391 0.1693,0.3391 0,0 0.211,0.2963 0.211,0.2963 0,0 0.2963,0.212 0.2963,0.212 0,0 0.339,0.1697 0.339,0.1697 0,0 0.3817,0.0413 0.3817,0.0413 0,0 0.3803,-0.0413 0.3803,-0.0413 0,0 0.3391,-0.1697 0.3391,-0.1697 0,0 0.2959,-0.212 0.2959,-0.212 0,0 0.2537,-0.2963 0.2537,-0.2963 0,0 0.127,-0.3391 0.127,-0.3391 0,0 0.0427,-0.3803 0.0427,-0.3803 0,0 -0.0427,-0.3817 -0.0427,-0.3817 0,0 -0.127,-0.3376 -0.127,-0.3376"
     style="stroke:#000000;stroke-width:0.14111111;fill:none;stroke-miterlimit:4;stroke-dasharray:none"
     id="path44"
     inkscape:connector-curvature="0" />
  <path
     d="m -70.5908,-55.6254 c 0,0 0.1828,-0.1384 0.1828,-0.1384 0,0 0.1818,-0.0446 0.1818,-0.0446 0,0 0.1829,-0.0465 0.1829,-0.0465 0,0 0.2294,0.0465 0.2294,0.0465 0,0 0.1829,0.0446 0.1829,0.0446 0,0 0.1833,0.1384 0.1833,0.1384 0,0 0.1368,0.1816 0.1368,0.1816 0,0 0.046,0.183 0.046,0.183 0,0 0.0446,0.2293 0.0446,0.2293 0,0 -0.0446,0.183 -0.0446,0.183 0,0 -0.046,0.2278 -0.046,0.2278 0,0 -0.1368,0.1383 -0.1368,0.1383 0,0 -0.1833,0.1368 -0.1833,0.1368 0,0 -0.1829,0.0911 -0.1829,0.0911 0,0 -0.4123,0 -0.4123,0 0,0 -0.1818,-0.0911 -0.1818,-0.0911 0,0 -0.1828,-0.1368 -0.1828,-0.1368 0,0 -0.1372,-0.1383 -0.1372,-0.1383 0,0 -0.0923,-0.2278 -0.0923,-0.2278 0,0 0,-0.4123 0,-0.4123 0,0 0.0923,-0.183 0.0923,-0.183 0,0 0.1372,-0.1816 0.1372,-0.1816"
     style="stroke:#000000;stroke-width:0.14111111;fill:none;stroke-miterlimit:4;stroke-dasharray:none"
     id="path46"
     inkscape:connector-curvature="0" />
  <path
     d="m -42.3019,-54.2769 c 0,0 -0.4445,0 -0.4445,0 0,0 -0.1778,-0.0886 -0.1778,-0.0886 0,0 -0.1781,-0.1329 -0.1781,-0.1329 0,0 -0.0882,-0.1345 -0.0882,-0.1345 0,0 -0.0896,-0.2214 -0.0896,-0.2214 0,0 -0.0448,-0.1778 -0.0448,-0.1778 0,0 0.0448,-0.2229 0.0448,-0.2229 0,0 0.0896,-0.1779 0.0896,-0.1779 0,0 0.0882,-0.1766 0.0882,-0.1766 0,0 0.1781,-0.1344 0.1781,-0.1344 0,0 0.1778,-0.0434 0.1778,-0.0434 0,0 0.2215,-0.0452 0.2215,-0.0452 0,0 0.223,0.0452 0.223,0.0452 0,0 0.1777,0.0434 0.1777,0.0434 0,0 0.1782,0.1344 0.1782,0.1344 0,0 0.0881,0.1766 0.0881,0.1766 0,0 0.0896,0.1779 0.0896,0.1779 0,0 0.0434,0.2229 0.0434,0.2229 0,0 -0.0434,0.1778 -0.0434,0.1778 0,0 -0.0896,0.2214 -0.0896,0.2214 0,0 -0.0881,0.1345 -0.0881,0.1345 0,0 -0.1782,0.1329 -0.1782,0.1329 0,0 -0.1777,0.0886 -0.1777,0.0886"
     style="stroke:#000000;stroke-width:0.14111111;fill:none;stroke-miterlimit:4;stroke-dasharray:none"
     id="path48"
     inkscape:connector-curvature="0" />
  <path
     d="m -43.2869,-40.7252 c 0,0 -34.1203,0 -34.1203,0 0,0 0,17.9917 0,17.9917 0,0 34.1203,0 34.1203,0 0,0 0,-4.0637 0,-4.0637 0,0 3.0067,0 3.0067,0 0,0 0,4.0637 0,4.0637 0,0 34.5006,0 34.5006,0 0,0 0,-17.9917 0,-17.9917 0,0 -34.5006,0 -34.5006,0 0,0 0,3.937 0,3.937 0,0 -3.0067,0 -3.0067,0 0,0 0,-3.937 0,-3.937"
     style="stroke:#000000;stroke-width:0.14111111;fill:none;stroke-miterlimit:4;stroke-dasharray:none"
     id="path50"
     inkscape:connector-curvature="0" />
  <path
     d="m -48.4092,-25.7388 c 0,0 0,-11.9807 0,-11.9807 0,0 -22.987,0 -22.987,0 0,0 0,11.9807 0,11.9807 0,0 22.987,0 22.987,0"
     style="stroke:#000000;stroke-width:0.14111111;fill:none;stroke-miterlimit:4;stroke-dasharray:none"
     id="path52"
     inkscape:connector-curvature="0" />
  <path
     d="m -34.7776,-25.7815 c 0,0 0,-12.0223 0,-12.0223 0,0 22.987,0 22.987,0 0,0 0,12.0223 0,12.0223 0,0 -22.987,0 -22.987,0"
     style="stroke:#000000;stroke-width:0.14111111;fill:none;stroke-miterlimit:4;stroke-dasharray:none"
     id="path54"
     inkscape:connector-curvature="0" />
  <path
     d="m -73.6396,-32.5061 c 0,0 0.2227,0 0.2227,0 0,0 0.178,0.0881 0.178,0.0881 0,0 0.1779,0.1331 0.1779,0.1331 0,0 0.1767,0.3559 0.1767,0.3559 0,0 0.0447,0.223 0.0447,0.223 0,0 -0.0447,0.1777 -0.0447,0.1777 0,0 -0.0882,0.1767 -0.0882,0.1767 0,0 -0.0885,0.1778 -0.0885,0.1778 0,0 -0.1779,0.1333 -0.1779,0.1333 0,0 -0.178,0.0896 -0.178,0.0896 0,0 -0.4441,0 -0.4441,0 0,0 -0.1779,-0.0896 -0.1779,-0.0896 0,0 -0.178,-0.1333 -0.178,-0.1333 0,0 -0.0897,-0.1778 -0.0897,-0.1778 0,0 -0.0882,-0.1767 -0.0882,-0.1767 0,0 -0.0448,-0.1777 -0.0448,-0.1777 0,0 0.0448,-0.223 0.0448,-0.223 0,0 0.0882,-0.1778 0.0882,-0.1778 0,0 0.0897,-0.1781 0.0897,-0.1781 0,0 0.178,-0.1331 0.178,-0.1331 0,0 0.1779,-0.0881 0.1779,-0.0881 0,0 0.2214,0 0.2214,0"
     style="stroke:#000000;stroke-width:0.14111111;fill:none;stroke-miterlimit:4;stroke-dasharray:none"
     id="path56"
     inkscape:connector-curvature="0" />
  <path
     d="m -46.532,-31.0207 c 0,0 -0.1833,-0.1372 -0.1833,-0.1372 0,0 -0.1367,-0.1828 -0.1367,-0.1828 0,0 -0.0461,-0.1818 -0.0461,-0.1818 0,0 -0.0462,-0.1829 -0.0462,-0.1829 0,0 0.0462,-0.2294 0.0462,-0.2294 0,0 0.0461,-0.1829 0.0461,-0.1829 0,0 0.1367,-0.1833 0.1367,-0.1833 0,0 0.1833,-0.1368 0.1833,-0.1368 0,0 0.1829,-0.0907 0.1829,-0.0907 0,0 0.4108,0 0.4108,0 0,0 0.1833,0.0907 0.1833,0.0907 0,0 0.1829,0.1368 0.1829,0.1368 0,0 0.1372,0.1833 0.1372,0.1833 0,0 0.0906,0.1829 0.0906,0.1829 0,0 0,0.4123 0,0.4123 0,0 -0.0906,0.1818 -0.0906,0.1818 0,0 -0.1372,0.1828 -0.1372,0.1828 0,0 -0.1829,0.1372 -0.1829,0.1372 0,0 -0.1833,0.0922 -0.1833,0.0922 0,0 -0.4108,0 -0.4108,0 0,0 -0.1829,-0.0922 -0.1829,-0.0922"
     style="stroke:#000000;stroke-width:0.14111111;fill:none;stroke-miterlimit:4;stroke-dasharray:none"
     id="path58"
     inkscape:connector-curvature="0" />
  <path
     d="m -8.7258,-31.5636 c 0,0 -0.091,0.1833 -0.091,0.1833 0,0 -0.1368,0.1828 -0.1368,0.1828 0,0 -0.1828,0.1368 -0.1828,0.1368 0,0 -0.1833,0.0449 -0.1833,0.0449 0,0 -0.2289,0.0462 -0.2289,0.0462 0,0 -0.1832,-0.0462 -0.1832,-0.0462 0,0 -0.1829,-0.0449 -0.1829,-0.0449 0,0 -0.1817,-0.1368 -0.1817,-0.1368 0,0 -0.1382,-0.1828 -0.1382,-0.1828 0,0 -0.0912,-0.1833 -0.0912,-0.1833 0,0 0,-0.4121 0,-0.4121 0,0 0.0912,-0.2279 0.0912,-0.2279 0,0 0.1382,-0.1367 0.1382,-0.1367 0,0 0.1817,-0.1383 0.1817,-0.1383 0,0 0.1829,-0.091 0.1829,-0.091 0,0 0.1832,-0.0462 0.1832,-0.0462 0,0 0.2289,0.0462 0.2289,0.0462 0,0 0.1833,0.091 0.1833,0.091 0,0 0.1828,0.1383 0.1828,0.1383 0,0 0.1368,0.1367 0.1368,0.1367 0,0 0.091,0.2279 0.091,0.2279 0,0 0,0.4121 0,0.4121"
     style="stroke:#000000;stroke-width:0.14111111;fill:none;stroke-miterlimit:4;stroke-dasharray:none"
     id="path60"
     inkscape:connector-curvature="0" />
  <path
     d="m -37.5982,-31.2141 c 0,0 -0.0895,-0.1777 -0.0895,-0.1777 0,0 -0.0882,-0.1782 -0.0882,-0.1782 0,0 -0.0452,-0.2225 -0.0452,-0.2225 0,0 0.0452,-0.1781 0.0452,-0.1781 0,0 0.0882,-0.2215 0.0882,-0.2215 0,0 0.0895,-0.1329 0.0895,-0.1329 0,0 0.1766,-0.1344 0.1766,-0.1344 0,0 0.1779,-0.0885 0.1779,-0.0885 0,0 0.2228,-0.0449 0.2228,-0.0449 0,0 0.1778,0.0449 0.1778,0.0449 0,0 0.2214,0.0885 0.2214,0.0885 0,0 0.2673,0.2673 0.2673,0.2673 0,0 0.0885,0.2215 0.0885,0.2215 0,0 0.0448,0.1781 0.0448,0.1781 0,0 -0.0448,0.2225 -0.0448,0.2225 0,0 -0.0885,0.1782 -0.0885,0.1782 0,0 -0.1328,0.1777 -0.1328,0.1777 0,0 -0.1345,0.133 -0.1345,0.133 0,0 -0.2214,0.0436 -0.2214,0.0436 0,0 -0.1778,0.0449 -0.1778,0.0449 0,0 -0.2228,-0.0449 -0.2228,-0.0449 0,0 -0.1779,-0.0436 -0.1779,-0.0436 0,0 -0.1766,-0.133 -0.1766,-0.133"
     style="stroke:#000000;stroke-width:0.14111111;fill:none;stroke-miterlimit:4;stroke-dasharray:none"
     id="path62"
     inkscape:connector-curvature="0" />
  <path
     d="m -40.4922,-31.0305 c 0,0 -0.2124,0.2963 -0.2124,0.2963 0,0 -0.3376,0.2547 -0.3376,0.2547 0,0 -0.339,0.127 -0.339,0.127 0,0 -0.3817,0.084 -0.3817,0.084 0,0 -0.423,-0.084 -0.423,-0.084 0,0 -0.339,-0.127 -0.339,-0.127 0,0 -0.2963,-0.2547 -0.2963,-0.2547 0,0 -0.2537,-0.2963 -0.2537,-0.2963 0,0 -0.1693,-0.3803 -0.1693,-0.3803 0,0 -0.0427,-0.3817 -0.0427,-0.3817 0,0 0.0427,-0.3807 0.0427,-0.3807 0,0 0.1693,-0.3817 0.1693,-0.3817 0,0 0.2537,-0.2959 0.2537,-0.2959 0,0 0.2963,-0.2537 0.2963,-0.2537 0,0 0.339,-0.127 0.339,-0.127 0,0 0.423,-0.0427 0.423,-0.0427 0,0 0.3817,0.0427 0.3817,0.0427 0,0 0.339,0.127 0.339,0.127 0,0 0.3376,0.2537 0.3376,0.2537 0,0 0.2124,0.2959 0.2124,0.2959 0,0 0.1693,0.3817 0.1693,0.3817 0,0 0.0427,0.3807 0.0427,0.3807 0,0 -0.0427,0.3817 -0.0427,0.3817 0,0 -0.1693,0.3803 -0.1693,0.3803"
     style="stroke:#000000;stroke-width:0.14111111;fill:none;stroke-miterlimit:4;stroke-dasharray:none"
     id="path64"
     inkscape:connector-curvature="0" />
  <path
     d="m 72.6267,25.6743 c 0,0 0.3817,0.0854 0.3817,0.0854 0,0 0.3803,-0.0854 0.3803,-0.0854 0,0 0.3817,-0.1267 0.3817,-0.1267 0,0 0.2963,-0.2536 0.2963,-0.2536 0,0 0.2537,-0.2963 0.2537,-0.2963 0,0 0.1266,-0.3391 0.1266,-0.3391 0,0 0.0427,-0.3803 0.0427,-0.3803 0,0 -0.0427,-0.4243 -0.0427,-0.4243 0,0 -0.1266,-0.3377 -0.1266,-0.3377 0,0 -0.2537,-0.2963 -0.2537,-0.2963 0,0 -0.2963,-0.255 -0.2963,-0.255 0,0 -0.3817,-0.1267 -0.3817,-0.1267 0,0 -0.3803,-0.084 -0.3803,-0.084 0,0 -0.3817,0.084 -0.3817,0.084 0,0 -0.339,0.1267 -0.339,0.1267 0,0 -0.3376,0.255 -0.3376,0.255 0,0 -0.212,0.2963 -0.212,0.2963 0,0 -0.1697,0.3377 -0.1697,0.3377 0,0 -0.0413,0.4243 -0.0413,0.4243 0,0 0.0413,0.3803 0.0413,0.3803 0,0 0.1697,0.3391 0.1697,0.3391 0,0 0.212,0.2963 0.212,0.2963 0,0 0.3376,0.2536 0.3376,0.2536 0,0 0.339,0.1267 0.339,0.1267"
     style="stroke:#000000;stroke-width:0.14111111;fill:none;stroke-miterlimit:4;stroke-dasharray:none"
     id="path66"
     inkscape:connector-curvature="0" />
  <path
     d="m 74.574,65.045 c 0,0 1.4401,-0.5927 1.4401,-0.5927 0,0 1.2276,-0.9743 1.2276,-0.9743 0,0 0.973,-1.2263 0.973,-1.2263 0,0 0.5927,-1.44 0.5927,-1.44 0,0 0.212,-1.5671 0.212,-1.5671 0,0 -0.212,-1.524 -0.212,-1.524 0,0 -0.5927,-1.4813 -0.5927,-1.4813 0,0 -0.973,-1.228 -0.973,-1.228 0,0 0,-26.4996 0,-26.4996 0,0 0.973,-1.2707 0.973,-1.2707 0,0 0.5927,-1.4387 0.5927,-1.4387 0,0 0.212,-1.524 0.212,-1.524 0,0 -0.212,-1.5666 -0.212,-1.5666 0,0 -0.5927,-1.439 -0.5927,-1.439 0,0 -0.973,-1.2704 -0.973,-1.2704 0,0 -1.2276,-0.9317 -1.2276,-0.9317 0,0 -1.4401,-0.5923 -1.4401,-0.5923 0,0 -1.5656,-0.2123 -1.5656,-0.2123 0,0 -1.524,0.2123 -1.524,0.2123 0,0 -1.4813,0.5923 -1.4813,0.5923 0,0 -1.228,0.9317 -1.228,0.9317 0,0 -0.9744,1.2704 -0.9744,1.2704 0,0 -0.5923,1.439 -0.5923,1.439 0,0 -0.2124,1.5666 -0.2124,1.5666 0,0 0.2124,1.524 0.2124,1.524 0,0 0.5923,1.4387 0.5923,1.4387 0,0 0.9744,1.2707 0.9744,1.2707 0,0 0,26.4996 0,26.4996 0,0 -0.9744,1.228 -0.9744,1.228 0,0 -0.5923,1.4813 -0.5923,1.4813 0,0 -0.2124,1.524 -0.2124,1.524 0,0 0.2124,1.5671 0.2124,1.5671 0,0 0.5923,1.44 0.5923,1.44 0,0 0.9744,1.2263 0.9744,1.2263 0,0 1.228,0.9743 1.228,0.9743 0,0 1.4813,0.5927 1.4813,0.5927 0,0 1.524,0.212 1.524,0.212 0,0 1.5656,-0.212 1.5656,-0.212"
     style="stroke:#000000;stroke-width:0.14111111;fill:none;stroke-miterlimit:4;stroke-dasharray:none"
     id="path68"
     inkscape:connector-curvature="0" />
  <path
     d="m 61.1839,22.6862 c 0,0 -0.2698,-0.225 -0.2698,-0.225 0,0 -0.314,-0.1343 -0.314,-0.1343 0,0 -0.3591,-0.0452 -0.3591,-0.0452 0,0 -0.3139,0.0452 -0.3139,0.0452 0,0 -0.3139,0.1343 -0.3139,0.1343 0,0 -0.2688,0.225 -0.2688,0.225 0,0 -0.2246,0.2686 -0.2246,0.2686 0,0 -0.1345,0.3136 -0.1345,0.3136 0,0 -0.0437,0.3139 -0.0437,0.3139 0,0 0.0437,0.3591 0.0437,0.3591 0,0 0.1345,0.314 0.1345,0.314 0,0 0.2246,0.2687 0.2246,0.2687 0,0 0.2688,0.2246 0.2688,0.2246 0,0 0.3139,0.0893 0.3139,0.0893 0,0 0.3139,0.0452 0.3139,0.0452 0,0 0.3591,-0.0452 0.3591,-0.0452 0,0 0.314,-0.0893 0.314,-0.0893 0,0 0.2698,-0.2246 0.2698,-0.2246 0,0 0.1783,-0.2687 0.1783,-0.2687 0,0 0.1356,-0.314 0.1356,-0.314 0,0 0.0438,-0.3591 0.0438,-0.3591 0,0 -0.0438,-0.3139 -0.0438,-0.3139 0,0 -0.1356,-0.3136 -0.1356,-0.3136 0,0 -0.1783,-0.2686 -0.1783,-0.2686"
     style="stroke:#000000;stroke-width:0.14111111;fill:none;stroke-miterlimit:4;stroke-dasharray:none"
     id="path70"
     inkscape:connector-curvature="0" />
  <path
     d="m 58.7181,64.3916 c 0,0 1.5229,0.2124 1.5229,0.2124 0,0 1.5667,-0.2124 1.5667,-0.2124 0,0 1.44,-0.5926 1.44,-0.5926 0,0 1.2267,-0.974 1.2267,-0.974 0,0 0.974,-1.2266 0.974,-1.2266 0,0 0.5926,-1.4401 0.5926,-1.4401 0,0 0.2124,-1.5667 0.2124,-1.5667 0,0 -0.2124,-1.5656 -0.2124,-1.5656 0,0 -0.5926,-1.44 -0.5926,-1.44 0,0 -0.974,-1.2277 -0.974,-1.2277 0,0 0,-26.5 0,-26.5 0,0 0.974,-1.2703 0.974,-1.2703 0,0 0.5926,-1.4386 0.5926,-1.4386 0,0 0.2124,-1.5671 0.2124,-1.5671 0,0 -0.2124,-1.524 -0.2124,-1.524 0,0 -0.5926,-1.4813 -0.5926,-1.4813 0,0 -0.974,-1.228 -0.974,-1.228 0,0 -1.2267,-0.9314 -1.2267,-0.9314 0,0 -1.44,-0.6353 -1.44,-0.6353 0,0 -1.5667,-0.1697 -1.5667,-0.1697 0,0 -1.5229,0.1697 -1.5229,0.1697 0,0 -1.4827,0.6353 -1.4827,0.6353 0,0 -1.2277,0.9314 -1.2277,0.9314 0,0 -0.973,1.228 -0.973,1.228 0,0 -0.5926,1.4813 -0.5926,1.4813 0,0 -0.2121,1.524 -0.2121,1.524 0,0 0.2121,1.5671 0.2121,1.5671 0,0 0.5926,1.4386 0.5926,1.4386 0,0 0.973,1.2703 0.973,1.2703 0,0 0,26.5 0,26.5 0,0 -0.973,1.2277 -0.973,1.2277 0,0 -0.5926,1.44 -0.5926,1.44 0,0 -0.2121,1.5656 -0.2121,1.5656 0,0 0.2121,1.5667 0.2121,1.5667 0,0 0.5926,1.4401 0.5926,1.4401 0,0 0.973,1.2266 0.973,1.2266 0,0 1.2277,0.974 1.2277,0.974 0,0 1.4827,0.5926 1.4827,0.5926"
     style="stroke:#000000;stroke-width:0.14111111;fill:none;stroke-miterlimit:4;stroke-dasharray:none"
     id="path72"
     inkscape:connector-curvature="0" />
  <path
     d="m 59.8545,1.9011 c 0,0 -0.181,0.2684 -0.181,0.2684 0,0 -0.134,0.3132 -0.134,0.3132 0,0 -0.0451,0.3587 -0.0451,0.3587 0,0 0.0451,0.3136 0.0451,0.3136 0,0 0.134,0.3136 0.134,0.3136 0,0 0.181,0.2684 0.181,0.2684 0,0 0.2681,0.2243 0.2681,0.2243 0,0 0.3121,0.1344 0.3121,0.1344 0,0 0.3588,0.0452 0.3588,0.0452 0,0 0.3135,-0.0452 0.3135,-0.0452 0,0 0.3135,-0.1344 0.3135,-0.1344 0,0 0.2711,-0.2243 0.2711,-0.2243 0,0 0.2217,-0.2684 0.2217,-0.2684 0,0 0.1356,-0.3136 0.1356,-0.3136 0,0 0.0455,-0.3136 0.0455,-0.3136 0,0 -0.0455,-0.3587 -0.0455,-0.3587 0,0 -0.1356,-0.3132 -0.1356,-0.3132 0,0 -0.2217,-0.2684 -0.2217,-0.2684 0,0 -0.2711,-0.2247 -0.2711,-0.2247 0,0 -0.3135,-0.0888 -0.3135,-0.0888 0,0 -0.3135,-0.0452 -0.3135,-0.0452 0,0 -0.3588,0.0452 -0.3588,0.0452 0,0 -0.3121,0.0888 -0.3121,0.0888 0,0 -0.2681,0.2247 -0.2681,0.2247"
     style="stroke:#000000;stroke-width:0.14111111;fill:none;stroke-miterlimit:4;stroke-dasharray:none"
     id="path74"
     inkscape:connector-curvature="0" />
  <path
     d="m 59.4944,-42.1596 c 0,0 0.0451,0.3135 0.0451,0.3135 0,0 0.134,0.3147 0.134,0.3147 0,0 0.181,0.2684 0.181,0.2684 0,0 0.2681,0.2232 0.2681,0.2232 0,0 0.3121,0.1355 0.3121,0.1355 0,0 0.3588,0.0437 0.3588,0.0437 0,0 0.3135,-0.0437 0.3135,-0.0437 0,0 0.3135,-0.1355 0.3135,-0.1355 0,0 0.2711,-0.2232 0.2711,-0.2232 0,0 0.2217,-0.2684 0.2217,-0.2684 0,0 0.1356,-0.3147 0.1356,-0.3147 0,0 0.0455,-0.3135 0.0455,-0.3135 0,0 -0.0455,-0.3573 -0.0455,-0.3573 0,0 -0.1356,-0.3135 -0.1356,-0.3135 0,0 -0.2217,-0.2699 -0.2217,-0.2699 0,0 -0.2711,-0.2229 -0.2711,-0.2229 0,0 -0.3135,-0.0907 -0.3135,-0.0907 0,0 -0.3135,-0.0437 -0.3135,-0.0437 0,0 -0.3588,0.0437 -0.3588,0.0437 0,0 -0.3121,0.0907 -0.3121,0.0907 0,0 -0.2681,0.2229 -0.2681,0.2229 0,0 -0.181,0.2699 -0.181,0.2699 0,0 -0.134,0.3135 -0.134,0.3135 0,0 -0.0451,0.3573 -0.0451,0.3573"
     style="stroke:#000000;stroke-width:0.14111111;fill:none;stroke-miterlimit:4;stroke-dasharray:none"
     id="path76"
     inkscape:connector-curvature="0" />
  <path
     d="m 74.6153,-3.9012 c 0,0 -0.211,-0.2963 -0.211,-0.2963 0,0 -0.339,-0.2547 -0.339,-0.2547 0,0 -0.339,-0.127 -0.339,-0.127 0,0 -0.3803,-0.084 -0.3803,-0.084 0,0 -0.3831,0.084 -0.3831,0.084 0,0 -0.3803,0.127 -0.3803,0.127 0,0 -0.2949,0.2547 -0.2949,0.2547 0,0 -0.2135,0.2963 -0.2135,0.2963 0,0 -0.1696,0.3376 -0.1696,0.3376 0,0 -0.0413,0.3817 -0.0413,0.3817 0,0 0.0413,0.423 0.0413,0.423 0,0 0.1696,0.339 0.1696,0.339 0,0 0.2135,0.2964 0.2135,0.2964 0,0 0.2949,0.2536 0.2949,0.2536 0,0 0.3803,0.1266 0.3803,0.1266 0,0 0.3831,0.0854 0.3831,0.0854 0,0 0.3803,-0.0854 0.3803,-0.0854 0,0 0.339,-0.1266 0.339,-0.1266 0,0 0.339,-0.2536 0.339,-0.2536 0,0 0.211,-0.2964 0.211,-0.2964 0,0 0.1693,-0.339 0.1693,-0.339 0,0 0.0427,-0.423 0.0427,-0.423 0,0 -0.0427,-0.3817 -0.0427,-0.3817 0,0 -0.1693,-0.3376 -0.1693,-0.3376"
     style="stroke:#000000;stroke-width:0.14111111;fill:none;stroke-miterlimit:4;stroke-dasharray:none"
     id="path78"
     inkscape:connector-curvature="0" />
  <path
     d="m 72.0742,-47.4209 c 0,0 0.2135,0.2963 0.2135,0.2963 0,0 0.2949,0.2547 0.2949,0.2547 0,0 0.3803,0.127 0.3803,0.127 0,0 0.3831,0.084 0.3831,0.084 0,0 0.3803,-0.084 0.3803,-0.084 0,0 0.339,-0.127 0.339,-0.127 0,0 0.339,-0.2547 0.339,-0.2547 0,0 0.211,-0.2963 0.211,-0.2963 0,0 0.1693,-0.3376 0.1693,-0.3376 0,0 0.0427,-0.4244 0.0427,-0.4244 0,0 -0.0427,-0.3807 -0.0427,-0.3807 0,0 -0.1693,-0.3386 -0.1693,-0.3386 0,0 -0.211,-0.2964 -0.211,-0.2964 0,0 -0.339,-0.2536 -0.339,-0.2536 0,0 -0.339,-0.1267 -0.339,-0.1267 0,0 -0.3803,-0.0857 -0.3803,-0.0857 0,0 -0.3831,0.0857 -0.3831,0.0857 0,0 -0.3803,0.1267 -0.3803,0.1267 0,0 -0.2949,0.2536 -0.2949,0.2536 0,0 -0.2135,0.2964 -0.2135,0.2964 0,0 -0.1696,0.3386 -0.1696,0.3386 0,0 -0.0413,0.3807 -0.0413,0.3807 0,0 0.0413,0.4244 0.0413,0.4244 0,0 0.1696,0.3376 0.1696,0.3376"
     style="stroke:#000000;stroke-width:0.14111111;fill:none;stroke-miterlimit:4;stroke-dasharray:none"
     id="path80"
     inkscape:connector-curvature="0" />
  <path
     d="m 76.3503,2.0244 c 0,0 1.229,-0.9303 1.229,-0.9303 0,0 0.9716,-1.2703 0.9716,-1.2703 0,0 0.5941,-1.4401 0.5941,-1.4401 0,0 0.212,-1.5656 0.212,-1.5656 0,0 -0.212,-1.524 -0.212,-1.524 0,0 -0.5941,-1.44 -0.5941,-1.44 0,0 -0.9716,-1.2693 -0.9716,-1.2693 0,0 0,-36.4917 0,-36.4917 0,0 0.9716,-1.2693 0.9716,-1.2693 0,0 0.5941,-1.44 0.5941,-1.44 0,0 0.212,-1.5667 0.212,-1.5667 0,0 -0.212,-1.523 -0.212,-1.523 0,0 -0.5941,-1.44 -0.5941,-1.44 0,0 -0.9716,-1.2704 -0.9716,-1.2704 0,0 -1.229,-0.9302 -1.229,-0.9302 0,0 -1.4387,-0.5927 -1.4387,-0.5927 0,0 -1.5656,-0.212 -1.5656,-0.212 0,0 -1.5681,0.212 -1.5681,0.212 0,0 -1.0583,-0.9313 -1.0583,-0.9313 0,0 0.2963,-0.6781 0.2963,-0.6781 0,0 0.2561,-1.9046 0.2561,-1.9046 0,0 -0.2561,-1.863 -0.2561,-1.863 0,0 -0.7193,-1.7777 -0.7193,-1.7777 0,0 -1.1839,-1.524 -1.1839,-1.524 0,0 -1.5254,-1.1853 -1.5254,-1.1853 0,0 -1.7777,-0.7193 -1.7777,-0.7193 0,0 -1.863,-0.2547 -1.863,-0.2547 0,0 -1.9046,0.2547 -1.9046,0.2547 0,0 1.0156,3.8943 1.0156,3.8943 0,0 0.889,-0.1267 0.889,-0.1267 0,0 0.846,0.1267 0.846,0.1267 0,0 0.8061,0.339 0.8061,0.339 0,0 0.6766,0.5073 0.6766,0.5073 0,0 0.5073,0.678 0.5073,0.678 0,0 0.339,0.8033 0.339,0.8033 0,0 0.1266,0.8474 0.1266,0.8474 0,0 -0.1266,0.889 -0.1266,0.889 0,0 -0.339,0.762 -0.339,0.762 0,0 -0.5073,0.7193 -0.5073,0.7193 0,0 -0.6766,0.5084 -0.6766,0.5084 0,0 -0.8061,0.3376 -0.8061,0.3376 0,0 -0.846,0.0857 -0.846,0.0857 0,0 -0.889,-0.0857 -0.889,-0.0857 0,0 -0.762,-0.3376 -0.762,-0.3376 0,0 -0.7193,-0.5084 -0.7193,-0.5084 0,0 -0.5073,-0.7193 -0.5073,-0.7193 0,0 -0.339,-0.762 -0.339,-0.762 0,0 -0.084,-0.889 -0.084,-0.889 0,0 0.084,-0.8474 0.084,-0.8474 0,0 -3.8943,-1.0156 -3.8943,-1.0156 0,0 -0.2547,1.863 -0.2547,1.863 0,0 0.2547,1.9046 0.2547,1.9046 0,0 0.7609,1.7777 0.7609,1.7777 0,0 1.1437,1.524 1.1437,1.524 0,0 1.5226,1.1437 1.5226,1.1437 0,0 1.7791,0.762 1.7791,0.762 0,0 1.9046,0.2536 1.9046,0.2536 0,0 1.863,-0.2536 1.863,-0.2536 0,0 0.6766,-0.296 0.6766,-0.296 0,0 1.0584,0.9313 1.0584,0.9313 0,0 -0.211,1.523 -0.211,1.523 0,0 0.211,1.5667 0.211,1.5667 0,0 0.5937,1.44 0.5937,1.44 0,0 0.9744,1.2693 0.9744,1.2693 0,0 0,36.4917 0,36.4917 0,0 -0.9744,1.2693 -0.9744,1.2693 0,0 -0.5937,1.44 -0.5937,1.44 0,0 -0.211,1.524 -0.211,1.524 0,0 0.211,1.5656 0.211,1.5656 0,0 0.5937,1.4401 0.5937,1.4401 0,0 0.9744,1.2703 0.9744,1.2703 0,0 1.2266,0.9303 1.2266,0.9303 0,0 1.4386,0.5927 1.4386,0.5927 0,0 1.5681,0.212 1.5681,0.212 0,0 1.5656,-0.212 1.5656,-0.212 0,0 1.4387,-0.5927 1.4387,-0.5927"
     style="stroke:#000000;stroke-width:0.14111111;fill:none;stroke-miterlimit:4;stroke-dasharray:none"
     id="path82"
     inkscape:connector-curvature="0" />
  <path
     d="m 56.5601,7.0748 c 0,0 1.2295,0.9317 1.2295,0.9317 0,0 1.4386,0.6339 1.4386,0.6339 0,0 1.5653,0.1693 1.5653,0.1693 0,0 1.5681,-0.1693 1.5681,-0.1693 0,0 1.4375,-0.6339 1.4375,-0.6339 0,0 1.2277,-0.9317 1.2277,-0.9317 0,0 0.9744,-1.2277 0.9744,-1.2277 0,0 0.5937,-1.4813 0.5937,-1.4813 0,0 0.2096,-1.5244 0.2096,-1.5244 0,0 -0.2096,-1.5666 -0.2096,-1.5666 0,0 -0.5937,-1.4387 -0.5937,-1.4387 0,0 -0.9744,-1.228 -0.9744,-1.228 0,0 0,-36.5344 0,-36.5344 0,0 0.9744,-1.2266 0.9744,-1.2266 0,0 0.5937,-1.4827 0.5937,-1.4827 0,0 0.2096,-1.524 0.2096,-1.524 0,0 -0.2096,-1.5656 -0.2096,-1.5656 0,0 -0.5937,-1.4401 -0.5937,-1.4401 0,0 -0.9744,-1.2276 -0.9744,-1.2276 0,0 -1.2277,-0.973 -1.2277,-0.973 0,0 -1.4375,-0.5927 -1.4375,-0.5927 0,0 -1.5681,-0.212 -1.5681,-0.212 0,0 -1.5653,0.212 -1.5653,0.212 0,0 -1.4386,0.5927 -1.4386,0.5927 0,0 -1.2295,0.973 -1.2295,0.973 0,0 -0.9715,1.2276 -0.9715,1.2276 0,0 -0.5937,1.4401 -0.5937,1.4401 0,0 -0.2124,1.5656 -0.2124,1.5656 0,0 0.2124,1.524 0.2124,1.524 0,0 0.5937,1.4827 0.5937,1.4827 0,0 0.9715,1.2266 0.9715,1.2266 0,0 0,36.5344 0,36.5344 0,0 -0.9715,1.228 -0.9715,1.228 0,0 -0.5937,1.4387 -0.5937,1.4387 0,0 -0.2124,1.5666 -0.2124,1.5666 0,0 0.2124,1.5244 0.2124,1.5244 0,0 0.5937,1.4813 0.5937,1.4813 0,0 0.9715,1.2277 0.9715,1.2277"
     style="stroke:#000000;stroke-width:0.14111111;fill:none;stroke-miterlimit:4;stroke-dasharray:none"
     id="path84"
     inkscape:connector-curvature="0" />
  <path
     d="m 42.4808,55.0323 c -1.3621,0.7269 -2.2828,2.1138 -2.2828,3.7054 0,2.3449 1.998,4.2459 4.4629,4.2459 0.9435,0 1.8183,-0.2787 2.5391,-0.7541 0,0 1.9698,0 1.9698,0 0,0 0,-39.496 0,-39.496 0,0 -12.9963,0 -12.9963,0 0,0 0,-22.987 0,-22.987 0,0 12.9963,0 12.9963,0 0,0 0,-25.4853 0,-25.4853 0,0 -6.9854,0 -6.9854,0 0,0 0,3.0053 0,3.0053 0,0 -3.514,0 -3.514,0 0,0 0,3.9797 0,3.9797 0,0 1.2707,0 1.2707,0 0,0 0,2.7093 0,2.7093 0,0 -1.2707,0 -1.2707,0 0,0 0,5.588 0,5.588 0,0 -3.0053,0 -3.0053,0 0,0 0,-5.588 0,-5.588 0,0 -1.228,0 -1.228,0 0,0 0,-2.7093 0,-2.7093 0,0 1.228,0 1.228,0 0,0 0,-3.9797 0,-3.9797 0,0 -3.4713,0 -3.4713,0 0,0 0,-3.0053 0,-3.0053 0,0 -6.011,0 -6.011,0 0,0 0,50.9693 0,50.9693 0,0 -3.0057,0 -3.0057,0 0,0 0,3.0057 0,3.0057 0,0 19.3037,0 19.3037,0 0,0 0,26.7961 0,26.7961"
     style="stroke:#333333;stroke-width:0.14111111;fill:none;stroke-miterlimit:4;stroke-dasharray:none"
     id="path86"
     inkscape:connector-curvature="0" />
  <g
     transform="translate(122.78402,117.94588)"
     inkscape:label="Gear20"
     id="g7470">
    <path
       inkscape:connector-curvature="0"
       d="m -60.633021,-59.53065 0.08327,-0.0078 0.129215,0.01943 0.216048,0.09212 0,0.146393 -0.216048,0.09212 -0.129215,0.01943 -0.08327,-0.0078 -0.03773,0.238223 0.08161,0.01831 0.116889,0.05841 0.177006,0.154379 -0.04524,0.139227 -0.233942,0.02085 -0.128896,-0.02145 -0.07679,-0.03316 -0.109498,0.214903 0.07195,0.04263 0.09312,0.09167 0.120638,0.20152 -0.08605,0.118434 -0.228937,-0.05246 -0.115959,-0.06023 -0.06278,-0.05526 -0.170547,0.170547 0.05526,0.06278 0.06023,0.115959 0.05246,0.228937 -0.118434,0.08605 -0.20152,-0.120638 -0.09167,-0.09312 -0.04263,-0.07196 -0.214904,0.109498 0.03316,0.07679 0.02145,0.128896 -0.02085,0.233942 -0.139227,0.04524 -0.154378,-0.177006 -0.05841,-0.116888 -0.01831,-0.08161 -0.238224,0.03773 0.0078,0.08327 -0.01943,0.129214 -0.09212,0.216048 -0.146392,0 -0.09212,-0.216048 -0.01943,-0.129214 0.0078,-0.08327 -0.238224,-0.03773 -0.01831,0.08161 -0.05841,0.116888 -0.154378,0.177006 -0.139227,-0.04524 -0.02085,-0.233942 0.02145,-0.128896 0.03315,-0.07679 -0.214904,-0.109498 -0.04263,0.07196 -0.09167,0.09312 -0.20152,0.120638 -0.118434,-0.08605 0.05246,-0.228937 0.06023,-0.115959 0.05526,-0.06278 -0.170547,-0.170547 -0.06278,0.05526 -0.115959,0.06023 -0.228937,0.05246 -0.08605,-0.118434 0.120638,-0.20152 0.09312,-0.09167 0.07196,-0.04263 -0.109498,-0.214903 -0.07679,0.03316 -0.128896,0.02145 -0.233942,-0.02085 -0.04524,-0.139227 0.177006,-0.154379 0.116889,-0.05841 0.08161,-0.01831 -0.03773,-0.238223 -0.08327,0.0078 -0.129215,-0.01943 -0.216048,-0.09212 0,-0.146393 0.216048,-0.09212 0.129215,-0.01943 0.08327,0.0078 0.03773,-0.238223 -0.08161,-0.01831 -0.116889,-0.05841 -0.177006,-0.154379 0.04524,-0.139227 0.233942,-0.02085 0.128896,0.02145 0.07679,0.03315 0.109498,-0.214903 -0.07196,-0.04263 -0.09312,-0.09167 -0.120638,-0.20152 0.08605,-0.118435 0.228937,0.05246 0.115959,0.06023 0.06278,0.05526 0.170547,-0.170547 -0.05526,-0.06278 -0.06023,-0.115959 -0.05246,-0.228937 0.118434,-0.08605 0.20152,0.120638 0.09167,0.09312 0.04263,0.07196 0.214904,-0.109498 -0.03315,-0.07679 -0.02145,-0.128895 0.02085,-0.233942 0.139227,-0.04524 0.154378,0.177006 0.05841,0.116888 0.01831,0.08161 0.238224,-0.03773 -0.0078,-0.08327 0.01943,-0.129215 0.09212,-0.216047 0.146392,0 0.09212,0.216047 0.01943,0.129215 -0.0078,0.08327 0.238224,0.03773 0.01831,-0.08161 0.05841,-0.116888 0.154378,-0.177006 0.139227,0.04524 0.02085,0.233942 -0.02145,0.128895 -0.03316,0.07679 0.214904,0.109498 0.04263,-0.07196 0.09167,-0.09312 0.20152,-0.120638 0.118434,0.08605 -0.05246,0.228937 -0.06023,0.115959 -0.05526,0.06278 0.170547,0.170547 0.06278,-0.05526 0.115959,-0.06023 0.228937,-0.05246 0.08605,0.118435 -0.120638,0.20152 -0.09312,0.09167 -0.07195,0.04263 0.109498,0.214903 0.07679,-0.03315 0.128896,-0.02145 0.233942,0.02085 0.04524,0.139227 -0.177006,0.154379 -0.116889,0.05841 -0.08161,0.01831 z"
       style="fill:none;stroke:#000000;stroke-width:0.06672148"
       id="path7472" />
  </g>
  <g
     id="g7474"
     inkscape:label="Gear20"
     transform="matrix(1.0425564,0,0,1.0425564,138.21168,121.14694)">
    <path
       id="path7476"
       style="fill:none;stroke:#000000;stroke-width:0.06672148"
       d="m -60.633021,-59.53065 0.08327,-0.0078 0.129215,0.01943 0.216048,0.09212 0,0.146393 -0.216048,0.09212 -0.129215,0.01943 -0.08327,-0.0078 -0.03773,0.238223 0.08161,0.01831 0.116889,0.05841 0.177006,0.154379 -0.04524,0.139227 -0.233942,0.02085 -0.128896,-0.02145 -0.07679,-0.03316 -0.109498,0.214903 0.07195,0.04263 0.09312,0.09167 0.120638,0.20152 -0.08605,0.118434 -0.228937,-0.05246 -0.115959,-0.06023 -0.06278,-0.05526 -0.170547,0.170547 0.05526,0.06278 0.06023,0.115959 0.05246,0.228937 -0.118434,0.08605 -0.20152,-0.120638 -0.09167,-0.09312 -0.04263,-0.07196 -0.214904,0.109498 0.03316,0.07679 0.02145,0.128896 -0.02085,0.233942 -0.139227,0.04524 -0.154378,-0.177006 -0.05841,-0.116888 -0.01831,-0.08161 -0.238224,0.03773 0.0078,0.08327 -0.01943,0.129214 -0.09212,0.216048 -0.146392,0 -0.09212,-0.216048 -0.01943,-0.129214 0.0078,-0.08327 -0.238224,-0.03773 -0.01831,0.08161 -0.05841,0.116888 -0.154378,0.177006 -0.139227,-0.04524 -0.02085,-0.233942 0.02145,-0.128896 0.03315,-0.07679 -0.214904,-0.109498 -0.04263,0.07196 -0.09167,0.09312 -0.20152,0.120638 -0.118434,-0.08605 0.05246,-0.228937 0.06023,-0.115959 0.05526,-0.06278 -0.170547,-0.170547 -0.06278,0.05526 -0.115959,0.06023 -0.228937,0.05246 -0.08605,-0.118434 0.120638,-0.20152 0.09312,-0.09167 0.07196,-0.04263 -0.109498,-0.214903 -0.07679,0.03316 -0.128896,0.02145 -0.233942,-0.02085 -0.04524,-0.139227 0.177006,-0.154379 0.116889,-0.05841 0.08161,-0.01831 -0.03773,-0.238223 -0.08327,0.0078 -0.129215,-0.01943 -0.216048,-0.09212 0,-0.146393 0.216048,-0.09212 0.129215,-0.01943 0.08327,0.0078 0.03773,-0.238223 -0.08161,-0.01831 -0.116889,-0.05841 -0.177006,-0.154379 0.04524,-0.139227 0.233942,-0.02085 0.128896,0.02145 0.07679,0.03315 0.109498,-0.214903 -0.07196,-0.04263 -0.09312,-0.09167 -0.120638,-0.20152 0.08605,-0.118435 0.228937,0.05246 0.115959,0.06023 0.06278,0.05526 0.170547,-0.170547 -0.05526,-0.06278 -0.06023,-0.115959 -0.05246,-0.228937 0.118434,-0.08605 0.20152,0.120638 0.09167,0.09312 0.04263,0.07196 0.214904,-0.109498 -0.03315,-0.07679 -0.02145,-0.128895 0.02085,-0.233942 0.139227,-0.04524 0.154378,0.177006 0.05841,0.116888 0.01831,0.08161 0.238224,-0.03773 -0.0078,-0.08327 0.01943,-0.129215 0.09212,-0.216047 0.146392,0 0.09212,0.216047 0.01943,0.129215 -0.0078,0.08327 0.238224,0.03773 0.01831,-0.08161 0.05841,-0.116888 0.154378,-0.177006 0.139227,0.04524 0.02085,0.233942 -0.02145,0.128895 -0.03316,0.07679 0.214904,0.109498 0.04263,-0.07196 0.09167,-0.09312 0.20152,-0.120638 0.118434,0.08605 -0.05246,0.228937 -0.06023,0.115959 -0.05526,0.06278 0.170547,0.170547 0.06278,-0.05526 0.115959,-0.06023 0.228937,-0.05246 0.08605,0.118435 -0.120638,0.20152 -0.09312,0.09167 -0.07195,0.04263 0.109498,0.214903 0.07679,-0.03315 0.128896,-0.02145 0.233942,0.02085 0.04524,0.139227 -0.177006,0.154379 -0.116889,0.05841 -0.08161,0.01831 z"
       inkscape:connector-curvature="0" />
  </g>
</svg>
